G04 #@! TF.FileFunction,Soldermask,Top*
%FSLAX46Y46*%
G04 Gerber Fmt 4.6, Leading zero omitted, Abs format (unit mm)*
G04 Created by KiCad (PCBNEW (2015-03-23 BZR 5533)-product) date Fri 08 May 2015 09:18:22 SAST*
%MOMM*%
G01*
G04 APERTURE LIST*
%ADD10C,0.100000*%
%ADD11R,1.600000X1.000000*%
%ADD12R,1.000000X1.600000*%
%ADD13R,1.800860X1.597660*%
%ADD14R,1.597660X1.800860*%
%ADD15R,1.727200X2.032000*%
%ADD16O,1.727200X2.032000*%
%ADD17R,2.032000X1.727200*%
%ADD18O,2.032000X1.727200*%
%ADD19R,2.032000X2.032000*%
%ADD20O,2.032000X2.032000*%
%ADD21R,1.700000X0.900000*%
%ADD22R,0.900000X1.700000*%
%ADD23R,6.000000X8.000000*%
%ADD24R,2.032000X1.016000*%
%ADD25R,3.000000X2.300000*%
%ADD26C,4.000000*%
%ADD27R,1.727200X1.727200*%
%ADD28O,1.727200X1.727200*%
%ADD29R,1.800000X2.300000*%
%ADD30R,2.300000X1.800000*%
%ADD31R,3.000000X0.400000*%
%ADD32R,0.300000X2.500000*%
%ADD33R,2.500000X0.300000*%
%ADD34R,3.500120X3.500120*%
G04 APERTURE END LIST*
D10*
D11*
X138430000Y-51205000D03*
X138430000Y-54205000D03*
X142240000Y-51205000D03*
X142240000Y-54205000D03*
X119380000Y-105640000D03*
X119380000Y-102640000D03*
X119380000Y-108482000D03*
X119380000Y-111482000D03*
X143002000Y-62587000D03*
X143002000Y-59587000D03*
X140462000Y-59714000D03*
X140462000Y-62714000D03*
X143510000Y-114530000D03*
X143510000Y-111530000D03*
X130810000Y-111149000D03*
X130810000Y-114149000D03*
D12*
X150900000Y-72136000D03*
X153900000Y-72136000D03*
D13*
X147320000Y-126850140D03*
X147320000Y-129689860D03*
X143510000Y-126850140D03*
X143510000Y-129689860D03*
X139700000Y-126850140D03*
X139700000Y-129689860D03*
X135890000Y-126850140D03*
X135890000Y-129689860D03*
X132080000Y-126850140D03*
X132080000Y-129689860D03*
X128270000Y-126850140D03*
X128270000Y-129689860D03*
D14*
X147424140Y-47752000D03*
X150263860Y-47752000D03*
X147170140Y-44450000D03*
X150009860Y-44450000D03*
X114785140Y-65405000D03*
X117624860Y-65405000D03*
D15*
X129540000Y-58420000D03*
D16*
X132080000Y-58420000D03*
X134620000Y-58420000D03*
D17*
X125730000Y-73660000D03*
D18*
X125730000Y-76200000D03*
X125730000Y-78740000D03*
D17*
X115570000Y-73660000D03*
D18*
X115570000Y-76200000D03*
X115570000Y-78740000D03*
D17*
X115570000Y-87630000D03*
D18*
X115570000Y-90170000D03*
X115570000Y-92710000D03*
D17*
X125730000Y-87630000D03*
D18*
X125730000Y-90170000D03*
X125730000Y-92710000D03*
D17*
X157480000Y-114300000D03*
D18*
X157480000Y-116840000D03*
X157480000Y-119380000D03*
D17*
X157480000Y-124460000D03*
D18*
X157480000Y-127000000D03*
X157480000Y-129540000D03*
D17*
X152400000Y-96520000D03*
D18*
X152400000Y-99060000D03*
X152400000Y-101600000D03*
X152400000Y-104140000D03*
X152400000Y-106680000D03*
X152400000Y-109220000D03*
X152400000Y-111760000D03*
X152400000Y-114300000D03*
D17*
X157480000Y-86360000D03*
D18*
X157480000Y-88900000D03*
X157480000Y-91440000D03*
D19*
X152400000Y-127000000D03*
D20*
X152400000Y-129540000D03*
D17*
X157480000Y-96520000D03*
D18*
X157480000Y-99060000D03*
X157480000Y-101600000D03*
X157480000Y-104140000D03*
X157480000Y-106680000D03*
X157480000Y-109220000D03*
D17*
X157480000Y-66040000D03*
D18*
X157480000Y-68580000D03*
X157480000Y-71120000D03*
X157480000Y-73660000D03*
X157480000Y-76200000D03*
X157480000Y-78740000D03*
D21*
X152400000Y-120419200D03*
X152400000Y-123319200D03*
D22*
X141552000Y-47752000D03*
X144452000Y-47752000D03*
X141425000Y-44450000D03*
X144325000Y-44450000D03*
X150950000Y-74676000D03*
X153850000Y-74676000D03*
X150950000Y-69596000D03*
X153850000Y-69596000D03*
X119835000Y-65405000D03*
X122735000Y-65405000D03*
D23*
X115808000Y-58420000D03*
D24*
X121412000Y-58420000D03*
X121412000Y-56134000D03*
X121412000Y-60706000D03*
D25*
X139706000Y-115796000D03*
X134106000Y-112296000D03*
X134106000Y-115796000D03*
X139706000Y-112296000D03*
D26*
X116840000Y-135890000D03*
X156210000Y-46990000D03*
X116840000Y-46990000D03*
X156210000Y-135890000D03*
D17*
X115570000Y-102870000D03*
D18*
X115570000Y-105410000D03*
X115570000Y-107950000D03*
X115570000Y-110490000D03*
X115570000Y-113030000D03*
D17*
X123190000Y-102870000D03*
D18*
X123190000Y-105410000D03*
X123190000Y-107950000D03*
X123190000Y-110490000D03*
X123190000Y-113030000D03*
D17*
X152400000Y-86360000D03*
D18*
X152400000Y-88900000D03*
X152400000Y-91440000D03*
D27*
X122555000Y-137160000D03*
D28*
X122555000Y-134620000D03*
X125095000Y-137160000D03*
X125095000Y-134620000D03*
X127635000Y-137160000D03*
X127635000Y-134620000D03*
X130175000Y-137160000D03*
X130175000Y-134620000D03*
X132715000Y-137160000D03*
X132715000Y-134620000D03*
X135255000Y-137160000D03*
X135255000Y-134620000D03*
X137795000Y-137160000D03*
X137795000Y-134620000D03*
X140335000Y-137160000D03*
X140335000Y-134620000D03*
X142875000Y-137160000D03*
X142875000Y-134620000D03*
X145415000Y-137160000D03*
X145415000Y-134620000D03*
X147955000Y-137160000D03*
X147955000Y-134620000D03*
X150495000Y-137160000D03*
X150495000Y-134620000D03*
D29*
X158206000Y-61342000D03*
X153706000Y-61342000D03*
X153706000Y-51942000D03*
X158206000Y-51942000D03*
D30*
X114172000Y-130520000D03*
X114172000Y-126020000D03*
X123572000Y-126020000D03*
X123572000Y-130520000D03*
X123572000Y-117638000D03*
X123572000Y-122138000D03*
X114172000Y-122138000D03*
X114172000Y-117638000D03*
D31*
X129450000Y-62495000D03*
X129450000Y-63145000D03*
X129450000Y-63795000D03*
X129450000Y-64445000D03*
X129450000Y-65095000D03*
X129450000Y-65745000D03*
X129450000Y-66395000D03*
X129450000Y-67045000D03*
X137250000Y-67045000D03*
X137250000Y-66395000D03*
X137250000Y-65745000D03*
X137250000Y-65095000D03*
X137250000Y-64445000D03*
X137250000Y-63795000D03*
X137250000Y-63145000D03*
X137250000Y-62495000D03*
D32*
X140910000Y-94130000D03*
X140410000Y-94130000D03*
X139910000Y-94130000D03*
X139410000Y-94130000D03*
X138910000Y-94130000D03*
X138410000Y-94130000D03*
X137910000Y-94130000D03*
X137410000Y-94130000D03*
X136910000Y-94130000D03*
X136410000Y-94130000D03*
X135910000Y-94130000D03*
X135410000Y-94130000D03*
X134910000Y-94130000D03*
X134410000Y-94130000D03*
X133910000Y-94130000D03*
X133410000Y-94130000D03*
D33*
X130960000Y-96580000D03*
X130960000Y-97080000D03*
X130960000Y-97580000D03*
X130960000Y-98080000D03*
X130960000Y-98580000D03*
X130960000Y-99080000D03*
X130960000Y-99580000D03*
X130960000Y-100080000D03*
X130960000Y-100580000D03*
X130960000Y-101080000D03*
X130960000Y-101580000D03*
X130960000Y-102080000D03*
X130960000Y-102580000D03*
X130960000Y-103080000D03*
X130960000Y-103580000D03*
X130960000Y-104080000D03*
D32*
X133410000Y-106530000D03*
X133910000Y-106530000D03*
X134410000Y-106530000D03*
X134910000Y-106530000D03*
X135410000Y-106530000D03*
X135910000Y-106530000D03*
X136410000Y-106530000D03*
X136910000Y-106530000D03*
X137410000Y-106530000D03*
X137910000Y-106530000D03*
X138410000Y-106530000D03*
X138910000Y-106530000D03*
X139410000Y-106530000D03*
X139910000Y-106530000D03*
X140410000Y-106530000D03*
X140910000Y-106530000D03*
D33*
X143360000Y-104080000D03*
X143360000Y-103580000D03*
X143360000Y-103080000D03*
X143360000Y-102580000D03*
X143360000Y-102080000D03*
X143360000Y-101580000D03*
X143360000Y-101080000D03*
X143360000Y-100580000D03*
X143360000Y-100080000D03*
X143360000Y-99580000D03*
X143360000Y-99080000D03*
X143360000Y-98580000D03*
X143360000Y-98080000D03*
X143360000Y-97580000D03*
X143360000Y-97080000D03*
X143360000Y-96580000D03*
D34*
X131953000Y-51920140D03*
X131953000Y-45920660D03*
X127254000Y-48920400D03*
M02*
