G04 #@! TF.FileFunction,Copper,L2,Inr,Signal*
%FSLAX46Y46*%
G04 Gerber Fmt 4.6, Leading zero omitted, Abs format (unit mm)*
G04 Created by KiCad (PCBNEW (2015-03-23 BZR 5533)-product) date Tue 21 Apr 2015 08:53:39 SAST*
%MOMM*%
G01*
G04 APERTURE LIST*
%ADD10C,0.100000*%
%ADD11R,3.500120X3.500120*%
%ADD12R,1.727200X2.032000*%
%ADD13O,1.727200X2.032000*%
%ADD14R,2.032000X1.727200*%
%ADD15O,2.032000X1.727200*%
%ADD16R,2.032000X2.032000*%
%ADD17O,2.032000X2.032000*%
%ADD18C,4.000000*%
%ADD19R,1.727200X1.727200*%
%ADD20O,1.727200X1.727200*%
%ADD21C,0.600000*%
%ADD22C,0.250000*%
G04 APERTURE END LIST*
D10*
D11*
X132080000Y-51920140D03*
X132080000Y-45920660D03*
X127381000Y-48920400D03*
D12*
X129540000Y-58420000D03*
D13*
X132080000Y-58420000D03*
X134620000Y-58420000D03*
D14*
X125730000Y-73660000D03*
D15*
X125730000Y-76200000D03*
X125730000Y-78740000D03*
D14*
X115570000Y-73660000D03*
D15*
X115570000Y-76200000D03*
X115570000Y-78740000D03*
D14*
X115570000Y-87630000D03*
D15*
X115570000Y-90170000D03*
X115570000Y-92710000D03*
D14*
X125730000Y-87630000D03*
D15*
X125730000Y-90170000D03*
X125730000Y-92710000D03*
D14*
X157480000Y-114300000D03*
D15*
X157480000Y-116840000D03*
X157480000Y-119380000D03*
D14*
X157480000Y-124460000D03*
D15*
X157480000Y-127000000D03*
X157480000Y-129540000D03*
D14*
X152400000Y-96520000D03*
D15*
X152400000Y-99060000D03*
X152400000Y-101600000D03*
X152400000Y-104140000D03*
X152400000Y-106680000D03*
X152400000Y-109220000D03*
X152400000Y-111760000D03*
X152400000Y-114300000D03*
D14*
X157480000Y-86360000D03*
D15*
X157480000Y-88900000D03*
X157480000Y-91440000D03*
D16*
X152400000Y-127000000D03*
D17*
X152400000Y-129540000D03*
D14*
X157480000Y-96520000D03*
D15*
X157480000Y-99060000D03*
X157480000Y-101600000D03*
X157480000Y-104140000D03*
X157480000Y-106680000D03*
X157480000Y-109220000D03*
D14*
X157480000Y-66040000D03*
D15*
X157480000Y-68580000D03*
X157480000Y-71120000D03*
X157480000Y-73660000D03*
X157480000Y-76200000D03*
X157480000Y-78740000D03*
D18*
X116840000Y-135890000D03*
X156210000Y-46990000D03*
X116840000Y-46990000D03*
X156210000Y-135890000D03*
D14*
X115570000Y-102870000D03*
D15*
X115570000Y-105410000D03*
X115570000Y-107950000D03*
X115570000Y-110490000D03*
X115570000Y-113030000D03*
D14*
X123190000Y-102870000D03*
D15*
X123190000Y-105410000D03*
X123190000Y-107950000D03*
X123190000Y-110490000D03*
X123190000Y-113030000D03*
D14*
X152400000Y-86360000D03*
D15*
X152400000Y-88900000D03*
X152400000Y-91440000D03*
D19*
X122555000Y-137160000D03*
D20*
X122555000Y-134620000D03*
X125095000Y-137160000D03*
X125095000Y-134620000D03*
X127635000Y-137160000D03*
X127635000Y-134620000D03*
X130175000Y-137160000D03*
X130175000Y-134620000D03*
X132715000Y-137160000D03*
X132715000Y-134620000D03*
X135255000Y-137160000D03*
X135255000Y-134620000D03*
X137795000Y-137160000D03*
X137795000Y-134620000D03*
X140335000Y-137160000D03*
X140335000Y-134620000D03*
X142875000Y-137160000D03*
X142875000Y-134620000D03*
X145415000Y-137160000D03*
X145415000Y-134620000D03*
X147955000Y-137160000D03*
X147955000Y-134620000D03*
X150495000Y-137160000D03*
X150495000Y-134620000D03*
D21*
X122682000Y-51308000D03*
X124714000Y-44450000D03*
X135382000Y-69850000D03*
X132334000Y-86106000D03*
X151892000Y-78486000D03*
X115316000Y-97536000D03*
X152908000Y-64516000D03*
X116840000Y-82550000D03*
X117348000Y-50419000D03*
X119888000Y-48133000D03*
X135509000Y-44323000D03*
X139573000Y-52832000D03*
X139700000Y-116586000D03*
X131572000Y-116078000D03*
X151384000Y-61722000D03*
X141478000Y-49530000D03*
X137160000Y-96774000D03*
X136398000Y-60706000D03*
X154178000Y-84582000D03*
X156210000Y-50038000D03*
X159004000Y-57150000D03*
X132080000Y-110744000D03*
X129286000Y-75438000D03*
X133858000Y-98552000D03*
X137160000Y-103378000D03*
X132842000Y-67564000D03*
X124460000Y-64770000D03*
X145034000Y-52324000D03*
X159512000Y-62992000D03*
X152654000Y-51308000D03*
X119380000Y-117856000D03*
X118618000Y-130556000D03*
X123355000Y-132334000D03*
X127508000Y-132334000D03*
X125222000Y-118110000D03*
X145288000Y-115316000D03*
X129286000Y-124714000D03*
X131318000Y-124714000D03*
X136525000Y-124714000D03*
X138811000Y-124714000D03*
X142621000Y-124714000D03*
X146304000Y-124460000D03*
X136144000Y-103378000D03*
X137922000Y-47752000D03*
X123698000Y-61722000D03*
X136144000Y-96774000D03*
X143256000Y-68580000D03*
X125095000Y-58420000D03*
X140970000Y-100330000D03*
X133604000Y-101346000D03*
X133604000Y-96774000D03*
X124968000Y-125476000D03*
X120650000Y-115824000D03*
X130048000Y-68580000D03*
X137668000Y-68580000D03*
X128778000Y-61976000D03*
X142748000Y-109220000D03*
X120650000Y-124460000D03*
X142494000Y-109982000D03*
X116840000Y-123698000D03*
X150622000Y-123698000D03*
X128524000Y-105664000D03*
X146304000Y-100330000D03*
X122555000Y-87630000D03*
X122555000Y-81026000D03*
X117602000Y-96012000D03*
X126746000Y-62484000D03*
X122555000Y-73660000D03*
X128270000Y-67310000D03*
X128778000Y-124079000D03*
X128778000Y-97028000D03*
X128270000Y-131572000D03*
X132080000Y-124206000D03*
X126492000Y-107950000D03*
X132080000Y-131572000D03*
X135890000Y-124206000D03*
X128016000Y-108204000D03*
X135890000Y-131445000D03*
X139700000Y-124206000D03*
X128016000Y-109728000D03*
X139700000Y-131445000D03*
X143510000Y-124206000D03*
X127000000Y-104140000D03*
X143510000Y-131445000D03*
X127762000Y-102362000D03*
X147320000Y-124206000D03*
X147320000Y-131445000D03*
X150749000Y-59309000D03*
X150876000Y-60579000D03*
X133604000Y-91948000D03*
X136398000Y-91694000D03*
X141986000Y-94488000D03*
X143510000Y-95504000D03*
X155194000Y-111252000D03*
X154940000Y-105918000D03*
X130048000Y-91440000D03*
X137668000Y-87884000D03*
X137922000Y-88646000D03*
X132080000Y-90424000D03*
X135128000Y-89408000D03*
X139446000Y-89408000D03*
X127508000Y-122428000D03*
X131572000Y-109982000D03*
X126492000Y-122428000D03*
X130810000Y-109474000D03*
X132588000Y-119126000D03*
X139446000Y-109474000D03*
X131826000Y-123063000D03*
X136906000Y-92456000D03*
X134620000Y-123444000D03*
X134112000Y-122682000D03*
X136906000Y-121158000D03*
X138684000Y-120396000D03*
X138430000Y-119634000D03*
X145796000Y-116332000D03*
X143510000Y-108712000D03*
X147066000Y-101092000D03*
X140970000Y-96774000D03*
X145034000Y-124714000D03*
X127254000Y-101600000D03*
X138430000Y-109220000D03*
X131572000Y-118618000D03*
X131064000Y-132334000D03*
X149098000Y-121666000D03*
X136144000Y-109474000D03*
X127254000Y-99314000D03*
X149860000Y-122174000D03*
X136144000Y-108458000D03*
X128778000Y-100330000D03*
X126746000Y-97282000D03*
X142748000Y-91694000D03*
X142748000Y-89662000D03*
X139192000Y-91948000D03*
X142748000Y-94996000D03*
X144526000Y-107696000D03*
X154686000Y-78994000D03*
X144272000Y-106934000D03*
X138176000Y-89408000D03*
X139573000Y-85344000D03*
X140208000Y-70739000D03*
X143764000Y-92964000D03*
X140970000Y-71247000D03*
X144526000Y-92710000D03*
X144780000Y-91948000D03*
X141732000Y-69850000D03*
X146050000Y-92456000D03*
X142494000Y-70358000D03*
X131064000Y-106680000D03*
X131826000Y-105410000D03*
X135890000Y-121920000D03*
X134366000Y-131826000D03*
D22*
X154940000Y-85344000D02*
X154178000Y-84582000D01*
X154940000Y-87884000D02*
X154940000Y-85344000D01*
X132080000Y-110744000D02*
X141986000Y-110744000D01*
X128016000Y-76708000D02*
X129286000Y-75438000D01*
X128016000Y-77851000D02*
X128016000Y-76708000D01*
X123190000Y-98552000D02*
X128016000Y-93726000D01*
X123190000Y-102870000D02*
X123190000Y-98552000D01*
X128016000Y-93726000D02*
X128016000Y-77851000D01*
X152400000Y-88900000D02*
X153924000Y-88900000D01*
X153924000Y-88900000D02*
X154940000Y-87884000D01*
X157480000Y-91440000D02*
X154940000Y-88900000D01*
X154940000Y-88900000D02*
X154940000Y-87884000D01*
X133858000Y-98044000D02*
X132842000Y-97028000D01*
X133858000Y-98552000D02*
X133858000Y-98044000D01*
X129286000Y-92202000D02*
X129286000Y-75438000D01*
X132842000Y-95758000D02*
X129286000Y-92202000D01*
X132842000Y-97028000D02*
X132842000Y-95758000D01*
X135382000Y-101600000D02*
X133858000Y-100076000D01*
X137160000Y-103378000D02*
X135382000Y-101600000D01*
X133858000Y-100076000D02*
X133858000Y-98552000D01*
X137160000Y-105918000D02*
X137160000Y-103378000D01*
X141986000Y-110744000D02*
X137160000Y-105918000D01*
X145288000Y-113538000D02*
X144780000Y-113030000D01*
X141986000Y-110744000D02*
X144272000Y-113030000D01*
X144780000Y-113030000D02*
X144272000Y-113030000D01*
X145288000Y-115316000D02*
X145288000Y-113538000D01*
X158750000Y-91440000D02*
X159258000Y-91948000D01*
X159258000Y-91948000D02*
X159258000Y-108966000D01*
X159258000Y-108966000D02*
X159004000Y-109220000D01*
X159004000Y-109220000D02*
X157480000Y-109220000D01*
X157480000Y-91440000D02*
X158750000Y-91440000D01*
X159004000Y-71120000D02*
X159512000Y-70612000D01*
X159512000Y-70612000D02*
X159512000Y-69088000D01*
X159512000Y-69088000D02*
X159512000Y-62992000D01*
X157480000Y-71120000D02*
X159004000Y-71120000D01*
X131318000Y-124714000D02*
X129286000Y-124714000D01*
X131826000Y-125222000D02*
X136017000Y-125222000D01*
X136017000Y-125222000D02*
X136525000Y-124714000D01*
X131318000Y-124714000D02*
X131826000Y-125222000D01*
X136525000Y-124714000D02*
X138811000Y-124714000D01*
X139446000Y-125349000D02*
X142621000Y-125349000D01*
X138811000Y-124714000D02*
X139446000Y-125349000D01*
X142621000Y-125349000D02*
X142621000Y-124714000D01*
X136652000Y-125857000D02*
X136017000Y-125222000D01*
X140335000Y-134620000D02*
X136652000Y-130937000D01*
X136652000Y-129794000D02*
X136652000Y-130937000D01*
X136652000Y-129794000D02*
X136652000Y-125857000D01*
X145415000Y-125349000D02*
X146304000Y-124460000D01*
X145288000Y-125349000D02*
X145415000Y-125349000D01*
X145288000Y-125349000D02*
X142621000Y-125349000D01*
X125984000Y-78740000D02*
X128016000Y-76708000D01*
X125730000Y-78740000D02*
X125984000Y-78740000D01*
X151384000Y-129540000D02*
X146304000Y-124460000D01*
X152400000Y-129540000D02*
X151384000Y-129540000D01*
X130048000Y-68580000D02*
X127254000Y-68580000D01*
X127254000Y-68580000D02*
X125730000Y-67056000D01*
X133604000Y-96774000D02*
X136144000Y-96774000D01*
X157480000Y-127000000D02*
X154940000Y-124460000D01*
X154940000Y-119380000D02*
X152400000Y-116840000D01*
X154940000Y-124460000D02*
X154940000Y-119380000D01*
X157480000Y-96520000D02*
X154686000Y-93726000D01*
X151384000Y-93726000D02*
X150114000Y-92456000D01*
X154686000Y-93726000D02*
X151384000Y-93726000D01*
X152400000Y-96520000D02*
X150114000Y-94234000D01*
X157480000Y-116840000D02*
X152400000Y-116840000D01*
X152400000Y-116840000D02*
X151130000Y-116840000D01*
X150114000Y-82550000D02*
X146812000Y-79248000D01*
X150114000Y-115824000D02*
X150114000Y-94234000D01*
X150114000Y-94234000D02*
X150114000Y-92456000D01*
X150114000Y-92456000D02*
X150114000Y-82550000D01*
X151130000Y-116840000D02*
X150114000Y-115824000D01*
X133604000Y-96774000D02*
X136398000Y-99568000D01*
X136398000Y-99568000D02*
X137160000Y-100330000D01*
X137160000Y-100330000D02*
X140970000Y-100330000D01*
X157480000Y-68580000D02*
X143256000Y-68580000D01*
X157480000Y-86360000D02*
X150368000Y-79248000D01*
X150368000Y-79248000D02*
X146812000Y-79248000D01*
X134874000Y-79248000D02*
X130556000Y-74930000D01*
X146812000Y-79248000D02*
X134874000Y-79248000D01*
X125730000Y-59055000D02*
X125095000Y-58420000D01*
X125730000Y-66802000D02*
X125730000Y-59055000D01*
X125730000Y-68326000D02*
X125730000Y-67056000D01*
X125730000Y-67056000D02*
X125730000Y-66802000D01*
X125730000Y-68580000D02*
X125730000Y-68326000D01*
X125730000Y-70104000D02*
X125730000Y-68580000D01*
X125730000Y-73660000D02*
X125730000Y-70104000D01*
X123444000Y-70612000D02*
X125730000Y-68326000D01*
X123444000Y-85344000D02*
X123444000Y-70612000D01*
X125730000Y-87630000D02*
X123444000Y-85344000D01*
X120650000Y-97790000D02*
X115570000Y-102870000D01*
X121666000Y-96774000D02*
X120650000Y-97790000D01*
X121666000Y-70866000D02*
X121666000Y-96774000D01*
X122428000Y-70104000D02*
X121666000Y-70866000D01*
X125730000Y-66802000D02*
X122428000Y-70104000D01*
X120650000Y-114046000D02*
X122682000Y-116078000D01*
X122682000Y-116078000D02*
X122682000Y-122682000D01*
X124968000Y-124968000D02*
X122682000Y-122682000D01*
X124968000Y-125476000D02*
X124968000Y-124968000D01*
X120650000Y-114046000D02*
X120650000Y-115824000D01*
X120650000Y-114046000D02*
X120650000Y-97790000D01*
X130556000Y-74930000D02*
X130556000Y-90424000D01*
X130556000Y-90424000D02*
X133604000Y-93472000D01*
X133604000Y-93472000D02*
X133604000Y-96774000D01*
X125730000Y-70104000D02*
X130556000Y-74930000D01*
X124968000Y-132588000D02*
X123825000Y-133731000D01*
X123825000Y-133731000D02*
X123825000Y-135890000D01*
X123825000Y-135890000D02*
X122555000Y-137160000D01*
X124968000Y-125476000D02*
X124968000Y-132588000D01*
X139065000Y-135890000D02*
X123825000Y-135890000D01*
X140335000Y-137160000D02*
X139065000Y-135890000D01*
X137668000Y-68580000D02*
X143256000Y-68580000D01*
X130048000Y-68580000D02*
X137668000Y-68580000D01*
M02*
