G04 #@! TF.FileFunction,Soldermask,Bot*
%FSLAX46Y46*%
G04 Gerber Fmt 4.6, Leading zero omitted, Abs format (unit mm)*
G04 Created by KiCad (PCBNEW (2015-03-23 BZR 5533)-product) date Thu 07 May 2015 15:46:32 SAST*
%MOMM*%
G01*
G04 APERTURE LIST*
%ADD10C,0.100000*%
%ADD11R,1.600000X1.000000*%
%ADD12R,1.000000X1.600000*%
%ADD13R,0.400000X2.000000*%
%ADD14R,2.100000X1.600000*%
%ADD15R,1.800000X1.900000*%
%ADD16R,4.500880X3.299460*%
%ADD17R,4.498340X3.299460*%
%ADD18R,2.000000X1.700000*%
%ADD19R,1.727200X2.032000*%
%ADD20O,1.727200X2.032000*%
%ADD21R,2.032000X1.727200*%
%ADD22O,2.032000X1.727200*%
%ADD23R,2.032000X2.032000*%
%ADD24O,2.032000X2.032000*%
%ADD25R,1.700000X0.900000*%
%ADD26R,0.900000X1.700000*%
%ADD27R,1.950000X0.600000*%
%ADD28R,2.300000X3.000000*%
%ADD29C,4.000000*%
%ADD30R,1.727200X1.727200*%
%ADD31O,1.727200X1.727200*%
%ADD32R,0.650000X1.350000*%
%ADD33R,3.500120X3.500120*%
G04 APERTURE END LIST*
D10*
D11*
X135636000Y-63730000D03*
X135636000Y-60730000D03*
D12*
X121944000Y-131953000D03*
X124944000Y-131953000D03*
D11*
X131445000Y-101195000D03*
X131445000Y-98195000D03*
X138430000Y-101195000D03*
X138430000Y-98195000D03*
X129540000Y-60730000D03*
X129540000Y-63730000D03*
X118110000Y-129135000D03*
X118110000Y-126135000D03*
X118110000Y-119150000D03*
X118110000Y-122150000D03*
X152400000Y-120420000D03*
X152400000Y-123420000D03*
D12*
X156948000Y-52197000D03*
X153948000Y-52197000D03*
X154710000Y-63246000D03*
X157710000Y-63246000D03*
X150090000Y-51562000D03*
X147090000Y-51562000D03*
D11*
X146481800Y-104827200D03*
X146481800Y-101827200D03*
D12*
X128878200Y-69291200D03*
X131878200Y-69291200D03*
D11*
X123825000Y-63270000D03*
X123825000Y-66270000D03*
D13*
X143480000Y-46170000D03*
X144130000Y-46170000D03*
X144780000Y-46170000D03*
X145430000Y-46170000D03*
X146080000Y-46170000D03*
D14*
X147880000Y-45720000D03*
X141680000Y-45720000D03*
D15*
X148780000Y-43170000D03*
X140780000Y-43170000D03*
D16*
X124795280Y-54864000D03*
D17*
X115996720Y-54864000D03*
D18*
X116110000Y-61595000D03*
X120110000Y-61595000D03*
D19*
X129540000Y-58420000D03*
D20*
X132080000Y-58420000D03*
X134620000Y-58420000D03*
D21*
X125730000Y-73660000D03*
D22*
X125730000Y-76200000D03*
X125730000Y-78740000D03*
D21*
X115570000Y-73660000D03*
D22*
X115570000Y-76200000D03*
X115570000Y-78740000D03*
D21*
X115570000Y-87630000D03*
D22*
X115570000Y-90170000D03*
X115570000Y-92710000D03*
D21*
X125730000Y-87630000D03*
D22*
X125730000Y-90170000D03*
X125730000Y-92710000D03*
D21*
X157480000Y-114300000D03*
D22*
X157480000Y-116840000D03*
X157480000Y-119380000D03*
D21*
X157480000Y-124460000D03*
D22*
X157480000Y-127000000D03*
X157480000Y-129540000D03*
D21*
X152400000Y-96520000D03*
D22*
X152400000Y-99060000D03*
X152400000Y-101600000D03*
X152400000Y-104140000D03*
X152400000Y-106680000D03*
X152400000Y-109220000D03*
X152400000Y-111760000D03*
X152400000Y-114300000D03*
D21*
X157480000Y-86360000D03*
D22*
X157480000Y-88900000D03*
X157480000Y-91440000D03*
D23*
X152400000Y-127000000D03*
D24*
X152400000Y-129540000D03*
D21*
X157480000Y-96520000D03*
D22*
X157480000Y-99060000D03*
X157480000Y-101600000D03*
X157480000Y-104140000D03*
X157480000Y-106680000D03*
X157480000Y-109220000D03*
D21*
X157480000Y-66040000D03*
D22*
X157480000Y-68580000D03*
X157480000Y-71120000D03*
X157480000Y-73660000D03*
X157480000Y-76200000D03*
X157480000Y-78740000D03*
D25*
X147320000Y-129720000D03*
X147320000Y-126820000D03*
X120650000Y-129085000D03*
X120650000Y-126185000D03*
X143510000Y-129720000D03*
X143510000Y-126820000D03*
X139700000Y-129720000D03*
X139700000Y-126820000D03*
X135890000Y-129720000D03*
X135890000Y-126820000D03*
X132080000Y-129720000D03*
X132080000Y-126820000D03*
X120650000Y-119200000D03*
X120650000Y-122100000D03*
X128270000Y-129720000D03*
X128270000Y-126820000D03*
D26*
X150040000Y-49022000D03*
X147140000Y-49022000D03*
D27*
X148972000Y-54229000D03*
X148972000Y-55499000D03*
X148972000Y-56769000D03*
X148972000Y-58039000D03*
X148972000Y-59309000D03*
X148972000Y-60579000D03*
X148972000Y-61849000D03*
X148972000Y-63119000D03*
X148972000Y-64389000D03*
X148972000Y-65659000D03*
X139572000Y-65659000D03*
X139572000Y-64389000D03*
X139572000Y-63119000D03*
X139572000Y-61849000D03*
X139572000Y-60579000D03*
X139572000Y-59309000D03*
X139572000Y-58039000D03*
X139572000Y-56769000D03*
X139572000Y-55499000D03*
X139572000Y-54229000D03*
D28*
X153571000Y-54985000D03*
X157071000Y-60585000D03*
X153571000Y-60585000D03*
X157071000Y-54985000D03*
D29*
X116840000Y-135890000D03*
X156210000Y-46990000D03*
X116840000Y-46990000D03*
X156210000Y-135890000D03*
D21*
X115570000Y-102870000D03*
D22*
X115570000Y-105410000D03*
X115570000Y-107950000D03*
X115570000Y-110490000D03*
X115570000Y-113030000D03*
D21*
X123190000Y-102870000D03*
D22*
X123190000Y-105410000D03*
X123190000Y-107950000D03*
X123190000Y-110490000D03*
X123190000Y-113030000D03*
D21*
X152400000Y-86360000D03*
D22*
X152400000Y-88900000D03*
X152400000Y-91440000D03*
D12*
X142216000Y-103378000D03*
X139216000Y-103378000D03*
X121388000Y-82931000D03*
X118388000Y-82931000D03*
X119150000Y-96520000D03*
X122150000Y-96520000D03*
D30*
X122555000Y-137160000D03*
D31*
X122555000Y-134620000D03*
X125095000Y-137160000D03*
X125095000Y-134620000D03*
X127635000Y-137160000D03*
X127635000Y-134620000D03*
X130175000Y-137160000D03*
X130175000Y-134620000D03*
X132715000Y-137160000D03*
X132715000Y-134620000D03*
X135255000Y-137160000D03*
X135255000Y-134620000D03*
X137795000Y-137160000D03*
X137795000Y-134620000D03*
X140335000Y-137160000D03*
X140335000Y-134620000D03*
X142875000Y-137160000D03*
X142875000Y-134620000D03*
X145415000Y-137160000D03*
X145415000Y-134620000D03*
X147955000Y-137160000D03*
X147955000Y-134620000D03*
X150495000Y-137160000D03*
X150495000Y-134620000D03*
D32*
X118815000Y-77470000D03*
X121215000Y-77470000D03*
X121215000Y-80010000D03*
X118815000Y-80010000D03*
X118815000Y-91440000D03*
X121215000Y-91440000D03*
X121215000Y-93980000D03*
X118815000Y-93980000D03*
X118815000Y-74930000D03*
X121215000Y-74930000D03*
X121215000Y-72390000D03*
X118815000Y-72390000D03*
X118815000Y-88900000D03*
X121215000Y-88900000D03*
X121215000Y-86360000D03*
X118815000Y-86360000D03*
D12*
X153849200Y-117602000D03*
X150849200Y-117602000D03*
D33*
X131953000Y-51920140D03*
X131953000Y-45920660D03*
X127254000Y-48920400D03*
M02*
