G04 #@! TF.FileFunction,Legend,Bot*
%FSLAX46Y46*%
G04 Gerber Fmt 4.6, Leading zero omitted, Abs format (unit mm)*
G04 Created by KiCad (PCBNEW (2015-03-23 BZR 5533)-product) date Mon 13 Apr 2015 13:02:17 SAST*
%MOMM*%
G01*
G04 APERTURE LIST*
%ADD10C,0.100000*%
%ADD11C,0.150000*%
%ADD12C,0.002540*%
G04 APERTURE END LIST*
D10*
D11*
X135010000Y-63135000D02*
X135010000Y-65135000D01*
X132960000Y-65135000D02*
X132960000Y-63135000D01*
X122310000Y-134890000D02*
X122310000Y-136890000D01*
X120260000Y-136890000D02*
X120260000Y-134890000D01*
X132470000Y-98695000D02*
X132470000Y-100695000D01*
X130420000Y-100695000D02*
X130420000Y-98695000D01*
X139455000Y-98695000D02*
X139455000Y-100695000D01*
X137405000Y-100695000D02*
X137405000Y-98695000D01*
X130420000Y-65135000D02*
X130420000Y-63135000D01*
X132470000Y-63135000D02*
X132470000Y-65135000D01*
X119135000Y-126635000D02*
X119135000Y-128635000D01*
X117085000Y-128635000D02*
X117085000Y-126635000D01*
X117085000Y-121650000D02*
X117085000Y-119650000D01*
X119135000Y-119650000D02*
X119135000Y-121650000D01*
X155210000Y-50410000D02*
X157210000Y-50410000D01*
X157210000Y-52460000D02*
X155210000Y-52460000D01*
X157210000Y-63890000D02*
X155210000Y-63890000D01*
X155210000Y-61840000D02*
X157210000Y-61840000D01*
X148860000Y-50410000D02*
X150860000Y-50410000D01*
X150860000Y-52460000D02*
X148860000Y-52460000D01*
X145660000Y-98155000D02*
X145660000Y-96155000D01*
X147710000Y-96155000D02*
X147710000Y-98155000D01*
X131048000Y-70367000D02*
X129048000Y-70367000D01*
X129048000Y-68317000D02*
X131048000Y-68317000D01*
X122800000Y-65770000D02*
X122800000Y-63770000D01*
X124850000Y-63770000D02*
X124850000Y-65770000D01*
X148336000Y-45974000D02*
X141224000Y-45974000D01*
X141224000Y-45974000D02*
X141224000Y-41720000D01*
X141224000Y-41720000D02*
X148336000Y-41720000D01*
X148336000Y-41720000D02*
X148336000Y-45974000D01*
X119700040Y-57063640D02*
X118798340Y-57063640D01*
X120997980Y-57063640D02*
X121996200Y-57063640D01*
X117345460Y-58265060D02*
X117345460Y-57063640D01*
X117345460Y-51462940D02*
X117345460Y-52664360D01*
X116796820Y-58265060D02*
X116796820Y-57063640D01*
X116796820Y-51462940D02*
X116796820Y-52664360D01*
X123995180Y-58265060D02*
X123995180Y-57012840D01*
X123995180Y-51462940D02*
X123995180Y-52715160D01*
X119700040Y-56263540D02*
X119700040Y-57863740D01*
X120848120Y-57812940D02*
X120848120Y-56263540D01*
X119697500Y-57063640D02*
X120848120Y-57812940D01*
X119700040Y-57063640D02*
X120850660Y-56263540D01*
X123995180Y-58265060D02*
X116796820Y-58265060D01*
X123995180Y-51462940D02*
X116796820Y-51462940D01*
X119115000Y-76670000D02*
X121515000Y-76670000D01*
X119115000Y-78270000D02*
X121515000Y-78270000D01*
X120915000Y-80810000D02*
X118515000Y-80810000D01*
X120915000Y-79210000D02*
X118515000Y-79210000D01*
X119115000Y-90640000D02*
X121515000Y-90640000D01*
X119115000Y-92240000D02*
X121515000Y-92240000D01*
X120915000Y-94780000D02*
X118515000Y-94780000D01*
X120915000Y-93180000D02*
X118515000Y-93180000D01*
X119115000Y-74130000D02*
X121515000Y-74130000D01*
X119115000Y-75730000D02*
X121515000Y-75730000D01*
X120915000Y-73190000D02*
X118515000Y-73190000D01*
X120915000Y-71590000D02*
X118515000Y-71590000D01*
X119115000Y-88100000D02*
X121515000Y-88100000D01*
X119115000Y-89700000D02*
X121515000Y-89700000D01*
X120915000Y-87160000D02*
X118515000Y-87160000D01*
X120915000Y-85560000D02*
X118515000Y-85560000D01*
X119110000Y-60520000D02*
X117110000Y-60520000D01*
X117110000Y-62670000D02*
X119110000Y-62670000D01*
X127195000Y-127270000D02*
X127195000Y-129270000D01*
X129345000Y-129270000D02*
X129345000Y-127270000D01*
X119575000Y-126635000D02*
X119575000Y-128635000D01*
X121725000Y-128635000D02*
X121725000Y-126635000D01*
X131005000Y-127270000D02*
X131005000Y-129270000D01*
X133155000Y-129270000D02*
X133155000Y-127270000D01*
X134815000Y-127270000D02*
X134815000Y-129270000D01*
X136965000Y-129270000D02*
X136965000Y-127270000D01*
X138625000Y-127270000D02*
X138625000Y-129270000D01*
X140775000Y-129270000D02*
X140775000Y-127270000D01*
X142435000Y-127270000D02*
X142435000Y-129270000D01*
X144585000Y-129270000D02*
X144585000Y-127270000D01*
X121725000Y-121650000D02*
X121725000Y-119650000D01*
X119575000Y-119650000D02*
X119575000Y-121650000D01*
X146245000Y-127270000D02*
X146245000Y-129270000D01*
X148395000Y-129270000D02*
X148395000Y-127270000D01*
X153475000Y-122920000D02*
X153475000Y-120920000D01*
X151325000Y-120920000D02*
X151325000Y-122920000D01*
X148860000Y-49970000D02*
X150860000Y-49970000D01*
X150860000Y-47820000D02*
X148860000Y-47820000D01*
X148147000Y-53369000D02*
X148147000Y-53704000D01*
X140397000Y-53369000D02*
X140397000Y-53704000D01*
X140397000Y-66519000D02*
X140397000Y-66184000D01*
X148147000Y-66519000D02*
X148147000Y-66184000D01*
X148147000Y-53369000D02*
X140397000Y-53369000D01*
X148147000Y-66519000D02*
X140397000Y-66519000D01*
X148147000Y-53704000D02*
X149947000Y-53704000D01*
X157325000Y-60150000D02*
X157325000Y-54150000D01*
X157325000Y-54150000D02*
X153825000Y-54150000D01*
X153825000Y-54150000D02*
X153825000Y-60150000D01*
X153825000Y-60150000D02*
X157325000Y-60150000D01*
X139716000Y-102353000D02*
X141716000Y-102353000D01*
X141716000Y-104403000D02*
X139716000Y-104403000D01*
D12*
G36*
X139583160Y-79791560D02*
X139542520Y-79771240D01*
X139448540Y-79712820D01*
X139313920Y-79623920D01*
X139156440Y-79519780D01*
X138998960Y-79410560D01*
X138869420Y-79324200D01*
X138777980Y-79265780D01*
X138739880Y-79245460D01*
X138719560Y-79250540D01*
X138643360Y-79288640D01*
X138534140Y-79344520D01*
X138470640Y-79377540D01*
X138371580Y-79420720D01*
X138320780Y-79430880D01*
X138313160Y-79415640D01*
X138275060Y-79339440D01*
X138219180Y-79207360D01*
X138142980Y-79034640D01*
X138056620Y-78831440D01*
X137962640Y-78613000D01*
X137871200Y-78389480D01*
X137782300Y-78176120D01*
X137703560Y-77985620D01*
X137640060Y-77830680D01*
X137599420Y-77721460D01*
X137584180Y-77675740D01*
X137589260Y-77665580D01*
X137640060Y-77617320D01*
X137726420Y-77551280D01*
X137916920Y-77396340D01*
X138102340Y-77162660D01*
X138216640Y-76898500D01*
X138254740Y-76603860D01*
X138221720Y-76332080D01*
X138115040Y-76070460D01*
X137932160Y-75834240D01*
X137711180Y-75658980D01*
X137452100Y-75547220D01*
X137160000Y-75511660D01*
X136880600Y-75542140D01*
X136613900Y-75648820D01*
X136377680Y-75829160D01*
X136278620Y-75943460D01*
X136141460Y-76182220D01*
X136062720Y-76438760D01*
X136055100Y-76502260D01*
X136065260Y-76784200D01*
X136149080Y-77053440D01*
X136296400Y-77294740D01*
X136502140Y-77490320D01*
X136530080Y-77510640D01*
X136624060Y-77581760D01*
X136687560Y-77630020D01*
X136738360Y-77670660D01*
X136380220Y-78531720D01*
X136324340Y-78668880D01*
X136225280Y-78905100D01*
X136138920Y-79108300D01*
X136070340Y-79268320D01*
X136022080Y-79377540D01*
X136001760Y-79420720D01*
X135999220Y-79423260D01*
X135968740Y-79428340D01*
X135902700Y-79402940D01*
X135783320Y-79344520D01*
X135702040Y-79303880D01*
X135610600Y-79260700D01*
X135569960Y-79245460D01*
X135534400Y-79263240D01*
X135448040Y-79321660D01*
X135318500Y-79405480D01*
X135166100Y-79509620D01*
X135018780Y-79611220D01*
X134884160Y-79700120D01*
X134785100Y-79761080D01*
X134736840Y-79789020D01*
X134729220Y-79789020D01*
X134688580Y-79763620D01*
X134609840Y-79700120D01*
X134493000Y-79588360D01*
X134327900Y-79425800D01*
X134302500Y-79400400D01*
X134165340Y-79260700D01*
X134053580Y-79143860D01*
X133979920Y-79062580D01*
X133954520Y-79024480D01*
X133954520Y-79024480D01*
X133977380Y-78976220D01*
X134040880Y-78879700D01*
X134129780Y-78742540D01*
X134239000Y-78582520D01*
X134523480Y-78168500D01*
X134366000Y-77777340D01*
X134317740Y-77657960D01*
X134256780Y-77513180D01*
X134213600Y-77409040D01*
X134188200Y-77363320D01*
X134147560Y-77348080D01*
X134038340Y-77322680D01*
X133883400Y-77289660D01*
X133700520Y-77256640D01*
X133522720Y-77223620D01*
X133362700Y-77193140D01*
X133248400Y-77170280D01*
X133197600Y-77160120D01*
X133184900Y-77152500D01*
X133174740Y-77127100D01*
X133167120Y-77073760D01*
X133164580Y-76977240D01*
X133162040Y-76824840D01*
X133162040Y-76603860D01*
X133162040Y-76581000D01*
X133164580Y-76370180D01*
X133167120Y-76202540D01*
X133172200Y-76093320D01*
X133179820Y-76050140D01*
X133179820Y-76050140D01*
X133230620Y-76037440D01*
X133342380Y-76014580D01*
X133502400Y-75981560D01*
X133692900Y-75946000D01*
X133703060Y-75943460D01*
X133893560Y-75907900D01*
X134051040Y-75874880D01*
X134162800Y-75849480D01*
X134208520Y-75834240D01*
X134218680Y-75821540D01*
X134256780Y-75747880D01*
X134312660Y-75631040D01*
X134373620Y-75486260D01*
X134437120Y-75338940D01*
X134490460Y-75204320D01*
X134526020Y-75105260D01*
X134536180Y-75059540D01*
X134536180Y-75059540D01*
X134508240Y-75013820D01*
X134442200Y-74914760D01*
X134350760Y-74780140D01*
X134239000Y-74617580D01*
X134231380Y-74604880D01*
X134122160Y-74444860D01*
X134033260Y-74310240D01*
X133974840Y-74213720D01*
X133954520Y-74170540D01*
X133954520Y-74168000D01*
X133990080Y-74119740D01*
X134071360Y-74030840D01*
X134188200Y-73908920D01*
X134327900Y-73766680D01*
X134373620Y-73723500D01*
X134528560Y-73571100D01*
X134635240Y-73472040D01*
X134703820Y-73418700D01*
X134736840Y-73406000D01*
X134736840Y-73408540D01*
X134785100Y-73436480D01*
X134886700Y-73502520D01*
X135023860Y-73596500D01*
X135186420Y-73705720D01*
X135196580Y-73713340D01*
X135356600Y-73822560D01*
X135488680Y-73911460D01*
X135585200Y-73974960D01*
X135625840Y-74000360D01*
X135633460Y-74000360D01*
X135696960Y-73980040D01*
X135811260Y-73941940D01*
X135950960Y-73886060D01*
X136098280Y-73827640D01*
X136232900Y-73771760D01*
X136334500Y-73723500D01*
X136382760Y-73698100D01*
X136382760Y-73695560D01*
X136400540Y-73637140D01*
X136428480Y-73517760D01*
X136461500Y-73352660D01*
X136499600Y-73157080D01*
X136504680Y-73126600D01*
X136540240Y-72936100D01*
X136570720Y-72778620D01*
X136593580Y-72669400D01*
X136606280Y-72623680D01*
X136631680Y-72618600D01*
X136725660Y-72610980D01*
X136867900Y-72608440D01*
X137040620Y-72605900D01*
X137220960Y-72608440D01*
X137396220Y-72610980D01*
X137548620Y-72616060D01*
X137655300Y-72623680D01*
X137701020Y-72633840D01*
X137703560Y-72636380D01*
X137718800Y-72694800D01*
X137744200Y-72814180D01*
X137779760Y-72979280D01*
X137817860Y-73177400D01*
X137822940Y-73210420D01*
X137858500Y-73400920D01*
X137891520Y-73555860D01*
X137914380Y-73665080D01*
X137927080Y-73705720D01*
X137942320Y-73715880D01*
X138021060Y-73748900D01*
X138148060Y-73802240D01*
X138308080Y-73865740D01*
X138673840Y-74015600D01*
X139120880Y-73705720D01*
X139164060Y-73677780D01*
X139324080Y-73568560D01*
X139458700Y-73479660D01*
X139550140Y-73421240D01*
X139588240Y-73398380D01*
X139590780Y-73400920D01*
X139636500Y-73439020D01*
X139725400Y-73522840D01*
X139847320Y-73642220D01*
X139987020Y-73781920D01*
X140091160Y-73886060D01*
X140215620Y-74013060D01*
X140294360Y-74096880D01*
X140337540Y-74152760D01*
X140352780Y-74185780D01*
X140347700Y-74206100D01*
X140319760Y-74251820D01*
X140253720Y-74350880D01*
X140162280Y-74488040D01*
X140053060Y-74645520D01*
X139961620Y-74780140D01*
X139865100Y-74930000D01*
X139801600Y-75036680D01*
X139778740Y-75090020D01*
X139783820Y-75112880D01*
X139816840Y-75199240D01*
X139870180Y-75333860D01*
X139936220Y-75491340D01*
X140093700Y-75846940D01*
X140327380Y-75890120D01*
X140467080Y-75918060D01*
X140665200Y-75956160D01*
X140853160Y-75991720D01*
X141147800Y-76050140D01*
X141157960Y-77132180D01*
X141112240Y-77152500D01*
X141069060Y-77165200D01*
X140959840Y-77188060D01*
X140804900Y-77218540D01*
X140619480Y-77254100D01*
X140464540Y-77284580D01*
X140304520Y-77312520D01*
X140192760Y-77335380D01*
X140141960Y-77345540D01*
X140129260Y-77363320D01*
X140088620Y-77439520D01*
X140032740Y-77561440D01*
X139971780Y-77708760D01*
X139908280Y-77858620D01*
X139852400Y-77998320D01*
X139811760Y-78105000D01*
X139799060Y-78160880D01*
X139819380Y-78204060D01*
X139880340Y-78295500D01*
X139966700Y-78427580D01*
X140073380Y-78585060D01*
X140182600Y-78742540D01*
X140271500Y-78877160D01*
X140335000Y-78973680D01*
X140360400Y-79016860D01*
X140347700Y-79047340D01*
X140286740Y-79123540D01*
X140167360Y-79245460D01*
X139992100Y-79420720D01*
X139961620Y-79448660D01*
X139821920Y-79583280D01*
X139702540Y-79692500D01*
X139621260Y-79766160D01*
X139583160Y-79791560D01*
X139583160Y-79791560D01*
G37*
X139583160Y-79791560D02*
X139542520Y-79771240D01*
X139448540Y-79712820D01*
X139313920Y-79623920D01*
X139156440Y-79519780D01*
X138998960Y-79410560D01*
X138869420Y-79324200D01*
X138777980Y-79265780D01*
X138739880Y-79245460D01*
X138719560Y-79250540D01*
X138643360Y-79288640D01*
X138534140Y-79344520D01*
X138470640Y-79377540D01*
X138371580Y-79420720D01*
X138320780Y-79430880D01*
X138313160Y-79415640D01*
X138275060Y-79339440D01*
X138219180Y-79207360D01*
X138142980Y-79034640D01*
X138056620Y-78831440D01*
X137962640Y-78613000D01*
X137871200Y-78389480D01*
X137782300Y-78176120D01*
X137703560Y-77985620D01*
X137640060Y-77830680D01*
X137599420Y-77721460D01*
X137584180Y-77675740D01*
X137589260Y-77665580D01*
X137640060Y-77617320D01*
X137726420Y-77551280D01*
X137916920Y-77396340D01*
X138102340Y-77162660D01*
X138216640Y-76898500D01*
X138254740Y-76603860D01*
X138221720Y-76332080D01*
X138115040Y-76070460D01*
X137932160Y-75834240D01*
X137711180Y-75658980D01*
X137452100Y-75547220D01*
X137160000Y-75511660D01*
X136880600Y-75542140D01*
X136613900Y-75648820D01*
X136377680Y-75829160D01*
X136278620Y-75943460D01*
X136141460Y-76182220D01*
X136062720Y-76438760D01*
X136055100Y-76502260D01*
X136065260Y-76784200D01*
X136149080Y-77053440D01*
X136296400Y-77294740D01*
X136502140Y-77490320D01*
X136530080Y-77510640D01*
X136624060Y-77581760D01*
X136687560Y-77630020D01*
X136738360Y-77670660D01*
X136380220Y-78531720D01*
X136324340Y-78668880D01*
X136225280Y-78905100D01*
X136138920Y-79108300D01*
X136070340Y-79268320D01*
X136022080Y-79377540D01*
X136001760Y-79420720D01*
X135999220Y-79423260D01*
X135968740Y-79428340D01*
X135902700Y-79402940D01*
X135783320Y-79344520D01*
X135702040Y-79303880D01*
X135610600Y-79260700D01*
X135569960Y-79245460D01*
X135534400Y-79263240D01*
X135448040Y-79321660D01*
X135318500Y-79405480D01*
X135166100Y-79509620D01*
X135018780Y-79611220D01*
X134884160Y-79700120D01*
X134785100Y-79761080D01*
X134736840Y-79789020D01*
X134729220Y-79789020D01*
X134688580Y-79763620D01*
X134609840Y-79700120D01*
X134493000Y-79588360D01*
X134327900Y-79425800D01*
X134302500Y-79400400D01*
X134165340Y-79260700D01*
X134053580Y-79143860D01*
X133979920Y-79062580D01*
X133954520Y-79024480D01*
X133954520Y-79024480D01*
X133977380Y-78976220D01*
X134040880Y-78879700D01*
X134129780Y-78742540D01*
X134239000Y-78582520D01*
X134523480Y-78168500D01*
X134366000Y-77777340D01*
X134317740Y-77657960D01*
X134256780Y-77513180D01*
X134213600Y-77409040D01*
X134188200Y-77363320D01*
X134147560Y-77348080D01*
X134038340Y-77322680D01*
X133883400Y-77289660D01*
X133700520Y-77256640D01*
X133522720Y-77223620D01*
X133362700Y-77193140D01*
X133248400Y-77170280D01*
X133197600Y-77160120D01*
X133184900Y-77152500D01*
X133174740Y-77127100D01*
X133167120Y-77073760D01*
X133164580Y-76977240D01*
X133162040Y-76824840D01*
X133162040Y-76603860D01*
X133162040Y-76581000D01*
X133164580Y-76370180D01*
X133167120Y-76202540D01*
X133172200Y-76093320D01*
X133179820Y-76050140D01*
X133179820Y-76050140D01*
X133230620Y-76037440D01*
X133342380Y-76014580D01*
X133502400Y-75981560D01*
X133692900Y-75946000D01*
X133703060Y-75943460D01*
X133893560Y-75907900D01*
X134051040Y-75874880D01*
X134162800Y-75849480D01*
X134208520Y-75834240D01*
X134218680Y-75821540D01*
X134256780Y-75747880D01*
X134312660Y-75631040D01*
X134373620Y-75486260D01*
X134437120Y-75338940D01*
X134490460Y-75204320D01*
X134526020Y-75105260D01*
X134536180Y-75059540D01*
X134536180Y-75059540D01*
X134508240Y-75013820D01*
X134442200Y-74914760D01*
X134350760Y-74780140D01*
X134239000Y-74617580D01*
X134231380Y-74604880D01*
X134122160Y-74444860D01*
X134033260Y-74310240D01*
X133974840Y-74213720D01*
X133954520Y-74170540D01*
X133954520Y-74168000D01*
X133990080Y-74119740D01*
X134071360Y-74030840D01*
X134188200Y-73908920D01*
X134327900Y-73766680D01*
X134373620Y-73723500D01*
X134528560Y-73571100D01*
X134635240Y-73472040D01*
X134703820Y-73418700D01*
X134736840Y-73406000D01*
X134736840Y-73408540D01*
X134785100Y-73436480D01*
X134886700Y-73502520D01*
X135023860Y-73596500D01*
X135186420Y-73705720D01*
X135196580Y-73713340D01*
X135356600Y-73822560D01*
X135488680Y-73911460D01*
X135585200Y-73974960D01*
X135625840Y-74000360D01*
X135633460Y-74000360D01*
X135696960Y-73980040D01*
X135811260Y-73941940D01*
X135950960Y-73886060D01*
X136098280Y-73827640D01*
X136232900Y-73771760D01*
X136334500Y-73723500D01*
X136382760Y-73698100D01*
X136382760Y-73695560D01*
X136400540Y-73637140D01*
X136428480Y-73517760D01*
X136461500Y-73352660D01*
X136499600Y-73157080D01*
X136504680Y-73126600D01*
X136540240Y-72936100D01*
X136570720Y-72778620D01*
X136593580Y-72669400D01*
X136606280Y-72623680D01*
X136631680Y-72618600D01*
X136725660Y-72610980D01*
X136867900Y-72608440D01*
X137040620Y-72605900D01*
X137220960Y-72608440D01*
X137396220Y-72610980D01*
X137548620Y-72616060D01*
X137655300Y-72623680D01*
X137701020Y-72633840D01*
X137703560Y-72636380D01*
X137718800Y-72694800D01*
X137744200Y-72814180D01*
X137779760Y-72979280D01*
X137817860Y-73177400D01*
X137822940Y-73210420D01*
X137858500Y-73400920D01*
X137891520Y-73555860D01*
X137914380Y-73665080D01*
X137927080Y-73705720D01*
X137942320Y-73715880D01*
X138021060Y-73748900D01*
X138148060Y-73802240D01*
X138308080Y-73865740D01*
X138673840Y-74015600D01*
X139120880Y-73705720D01*
X139164060Y-73677780D01*
X139324080Y-73568560D01*
X139458700Y-73479660D01*
X139550140Y-73421240D01*
X139588240Y-73398380D01*
X139590780Y-73400920D01*
X139636500Y-73439020D01*
X139725400Y-73522840D01*
X139847320Y-73642220D01*
X139987020Y-73781920D01*
X140091160Y-73886060D01*
X140215620Y-74013060D01*
X140294360Y-74096880D01*
X140337540Y-74152760D01*
X140352780Y-74185780D01*
X140347700Y-74206100D01*
X140319760Y-74251820D01*
X140253720Y-74350880D01*
X140162280Y-74488040D01*
X140053060Y-74645520D01*
X139961620Y-74780140D01*
X139865100Y-74930000D01*
X139801600Y-75036680D01*
X139778740Y-75090020D01*
X139783820Y-75112880D01*
X139816840Y-75199240D01*
X139870180Y-75333860D01*
X139936220Y-75491340D01*
X140093700Y-75846940D01*
X140327380Y-75890120D01*
X140467080Y-75918060D01*
X140665200Y-75956160D01*
X140853160Y-75991720D01*
X141147800Y-76050140D01*
X141157960Y-77132180D01*
X141112240Y-77152500D01*
X141069060Y-77165200D01*
X140959840Y-77188060D01*
X140804900Y-77218540D01*
X140619480Y-77254100D01*
X140464540Y-77284580D01*
X140304520Y-77312520D01*
X140192760Y-77335380D01*
X140141960Y-77345540D01*
X140129260Y-77363320D01*
X140088620Y-77439520D01*
X140032740Y-77561440D01*
X139971780Y-77708760D01*
X139908280Y-77858620D01*
X139852400Y-77998320D01*
X139811760Y-78105000D01*
X139799060Y-78160880D01*
X139819380Y-78204060D01*
X139880340Y-78295500D01*
X139966700Y-78427580D01*
X140073380Y-78585060D01*
X140182600Y-78742540D01*
X140271500Y-78877160D01*
X140335000Y-78973680D01*
X140360400Y-79016860D01*
X140347700Y-79047340D01*
X140286740Y-79123540D01*
X140167360Y-79245460D01*
X139992100Y-79420720D01*
X139961620Y-79448660D01*
X139821920Y-79583280D01*
X139702540Y-79692500D01*
X139621260Y-79766160D01*
X139583160Y-79791560D01*
D10*
X136140000Y-62367334D02*
X136173333Y-62334000D01*
X136206667Y-62234000D01*
X136206667Y-62167334D01*
X136173333Y-62067334D01*
X136106667Y-62000667D01*
X136040000Y-61967334D01*
X135906667Y-61934000D01*
X135806667Y-61934000D01*
X135673333Y-61967334D01*
X135606667Y-62000667D01*
X135540000Y-62067334D01*
X135506667Y-62167334D01*
X135506667Y-62234000D01*
X135540000Y-62334000D01*
X135573333Y-62367334D01*
X135740000Y-62967334D02*
X136206667Y-62967334D01*
X135473333Y-62800667D02*
X135973333Y-62634000D01*
X135973333Y-63067334D01*
X119884000Y-133995334D02*
X119917333Y-133962000D01*
X119950667Y-133862000D01*
X119950667Y-133795334D01*
X119917333Y-133695334D01*
X119850667Y-133628667D01*
X119784000Y-133595334D01*
X119650667Y-133562000D01*
X119550667Y-133562000D01*
X119417333Y-133595334D01*
X119350667Y-133628667D01*
X119284000Y-133695334D01*
X119250667Y-133795334D01*
X119250667Y-133862000D01*
X119284000Y-133962000D01*
X119317333Y-133995334D01*
X119250667Y-134628667D02*
X119250667Y-134295334D01*
X119584000Y-134262000D01*
X119550667Y-134295334D01*
X119517333Y-134362000D01*
X119517333Y-134528667D01*
X119550667Y-134595334D01*
X119584000Y-134628667D01*
X119650667Y-134662000D01*
X119817333Y-134662000D01*
X119884000Y-134628667D01*
X119917333Y-134595334D01*
X119950667Y-134528667D01*
X119950667Y-134362000D01*
X119917333Y-134295334D01*
X119884000Y-134262000D01*
X130044000Y-97927334D02*
X130077333Y-97894000D01*
X130110667Y-97794000D01*
X130110667Y-97727334D01*
X130077333Y-97627334D01*
X130010667Y-97560667D01*
X129944000Y-97527334D01*
X129810667Y-97494000D01*
X129710667Y-97494000D01*
X129577333Y-97527334D01*
X129510667Y-97560667D01*
X129444000Y-97627334D01*
X129410667Y-97727334D01*
X129410667Y-97794000D01*
X129444000Y-97894000D01*
X129477333Y-97927334D01*
X129410667Y-98160667D02*
X129410667Y-98627334D01*
X130110667Y-98327334D01*
X136902000Y-97927334D02*
X136935333Y-97894000D01*
X136968667Y-97794000D01*
X136968667Y-97727334D01*
X136935333Y-97627334D01*
X136868667Y-97560667D01*
X136802000Y-97527334D01*
X136668667Y-97494000D01*
X136568667Y-97494000D01*
X136435333Y-97527334D01*
X136368667Y-97560667D01*
X136302000Y-97627334D01*
X136268667Y-97727334D01*
X136268667Y-97794000D01*
X136302000Y-97894000D01*
X136335333Y-97927334D01*
X136568667Y-98327334D02*
X136535333Y-98260667D01*
X136502000Y-98227334D01*
X136435333Y-98194000D01*
X136402000Y-98194000D01*
X136335333Y-98227334D01*
X136302000Y-98260667D01*
X136268667Y-98327334D01*
X136268667Y-98460667D01*
X136302000Y-98527334D01*
X136335333Y-98560667D01*
X136402000Y-98594000D01*
X136435333Y-98594000D01*
X136502000Y-98560667D01*
X136535333Y-98527334D01*
X136568667Y-98460667D01*
X136568667Y-98327334D01*
X136602000Y-98260667D01*
X136635333Y-98227334D01*
X136702000Y-98194000D01*
X136835333Y-98194000D01*
X136902000Y-98227334D01*
X136935333Y-98260667D01*
X136968667Y-98327334D01*
X136968667Y-98460667D01*
X136935333Y-98527334D01*
X136902000Y-98560667D01*
X136835333Y-98594000D01*
X136702000Y-98594000D01*
X136635333Y-98560667D01*
X136602000Y-98527334D01*
X136568667Y-98460667D01*
X130044000Y-62288000D02*
X130077333Y-62254666D01*
X130110667Y-62154666D01*
X130110667Y-62088000D01*
X130077333Y-61988000D01*
X130010667Y-61921333D01*
X129944000Y-61888000D01*
X129810667Y-61854666D01*
X129710667Y-61854666D01*
X129577333Y-61888000D01*
X129510667Y-61921333D01*
X129444000Y-61988000D01*
X129410667Y-62088000D01*
X129410667Y-62154666D01*
X129444000Y-62254666D01*
X129477333Y-62288000D01*
X130110667Y-62954666D02*
X130110667Y-62554666D01*
X130110667Y-62754666D02*
X129410667Y-62754666D01*
X129510667Y-62688000D01*
X129577333Y-62621333D01*
X129610667Y-62554666D01*
X130110667Y-63621333D02*
X130110667Y-63221333D01*
X130110667Y-63421333D02*
X129410667Y-63421333D01*
X129510667Y-63354667D01*
X129577333Y-63288000D01*
X129610667Y-63221333D01*
X116274000Y-127758000D02*
X116307334Y-127791333D01*
X116407334Y-127824667D01*
X116474000Y-127824667D01*
X116574000Y-127791333D01*
X116640667Y-127724667D01*
X116674000Y-127658000D01*
X116707334Y-127524667D01*
X116707334Y-127424667D01*
X116674000Y-127291333D01*
X116640667Y-127224667D01*
X116574000Y-127158000D01*
X116474000Y-127124667D01*
X116407334Y-127124667D01*
X116307334Y-127158000D01*
X116274000Y-127191333D01*
X115607334Y-127824667D02*
X116007334Y-127824667D01*
X115807334Y-127824667D02*
X115807334Y-127124667D01*
X115874000Y-127224667D01*
X115940667Y-127291333D01*
X116007334Y-127324667D01*
X115340667Y-127191333D02*
X115307333Y-127158000D01*
X115240667Y-127124667D01*
X115074000Y-127124667D01*
X115007333Y-127158000D01*
X114974000Y-127191333D01*
X114940667Y-127258000D01*
X114940667Y-127324667D01*
X114974000Y-127424667D01*
X115374000Y-127824667D01*
X114940667Y-127824667D01*
X116274000Y-119630000D02*
X116307334Y-119663333D01*
X116407334Y-119696667D01*
X116474000Y-119696667D01*
X116574000Y-119663333D01*
X116640667Y-119596667D01*
X116674000Y-119530000D01*
X116707334Y-119396667D01*
X116707334Y-119296667D01*
X116674000Y-119163333D01*
X116640667Y-119096667D01*
X116574000Y-119030000D01*
X116474000Y-118996667D01*
X116407334Y-118996667D01*
X116307334Y-119030000D01*
X116274000Y-119063333D01*
X115607334Y-119696667D02*
X116007334Y-119696667D01*
X115807334Y-119696667D02*
X115807334Y-118996667D01*
X115874000Y-119096667D01*
X115940667Y-119163333D01*
X116007334Y-119196667D01*
X115374000Y-118996667D02*
X114940667Y-118996667D01*
X115174000Y-119263333D01*
X115074000Y-119263333D01*
X115007333Y-119296667D01*
X114974000Y-119330000D01*
X114940667Y-119396667D01*
X114940667Y-119563333D01*
X114974000Y-119630000D01*
X115007333Y-119663333D01*
X115074000Y-119696667D01*
X115274000Y-119696667D01*
X115340667Y-119663333D01*
X115374000Y-119630000D01*
X158946000Y-50542000D02*
X158979334Y-50575333D01*
X159079334Y-50608667D01*
X159146000Y-50608667D01*
X159246000Y-50575333D01*
X159312667Y-50508667D01*
X159346000Y-50442000D01*
X159379334Y-50308667D01*
X159379334Y-50208667D01*
X159346000Y-50075333D01*
X159312667Y-50008667D01*
X159246000Y-49942000D01*
X159146000Y-49908667D01*
X159079334Y-49908667D01*
X158979334Y-49942000D01*
X158946000Y-49975333D01*
X158279334Y-50608667D02*
X158679334Y-50608667D01*
X158479334Y-50608667D02*
X158479334Y-49908667D01*
X158546000Y-50008667D01*
X158612667Y-50075333D01*
X158679334Y-50108667D01*
X157646000Y-49908667D02*
X157979333Y-49908667D01*
X158012667Y-50242000D01*
X157979333Y-50208667D01*
X157912667Y-50175333D01*
X157746000Y-50175333D01*
X157679333Y-50208667D01*
X157646000Y-50242000D01*
X157612667Y-50308667D01*
X157612667Y-50475333D01*
X157646000Y-50542000D01*
X157679333Y-50575333D01*
X157746000Y-50608667D01*
X157912667Y-50608667D01*
X157979333Y-50575333D01*
X158012667Y-50542000D01*
X153104000Y-62480000D02*
X153137334Y-62513333D01*
X153237334Y-62546667D01*
X153304000Y-62546667D01*
X153404000Y-62513333D01*
X153470667Y-62446667D01*
X153504000Y-62380000D01*
X153537334Y-62246667D01*
X153537334Y-62146667D01*
X153504000Y-62013333D01*
X153470667Y-61946667D01*
X153404000Y-61880000D01*
X153304000Y-61846667D01*
X153237334Y-61846667D01*
X153137334Y-61880000D01*
X153104000Y-61913333D01*
X152437334Y-62546667D02*
X152837334Y-62546667D01*
X152637334Y-62546667D02*
X152637334Y-61846667D01*
X152704000Y-61946667D01*
X152770667Y-62013333D01*
X152837334Y-62046667D01*
X151837333Y-61846667D02*
X151970667Y-61846667D01*
X152037333Y-61880000D01*
X152070667Y-61913333D01*
X152137333Y-62013333D01*
X152170667Y-62146667D01*
X152170667Y-62413333D01*
X152137333Y-62480000D01*
X152104000Y-62513333D01*
X152037333Y-62546667D01*
X151904000Y-62546667D01*
X151837333Y-62513333D01*
X151804000Y-62480000D01*
X151770667Y-62413333D01*
X151770667Y-62246667D01*
X151804000Y-62180000D01*
X151837333Y-62146667D01*
X151904000Y-62113333D01*
X152037333Y-62113333D01*
X152104000Y-62146667D01*
X152137333Y-62180000D01*
X152170667Y-62246667D01*
X151580000Y-53336000D02*
X151613334Y-53369333D01*
X151713334Y-53402667D01*
X151780000Y-53402667D01*
X151880000Y-53369333D01*
X151946667Y-53302667D01*
X151980000Y-53236000D01*
X152013334Y-53102667D01*
X152013334Y-53002667D01*
X151980000Y-52869333D01*
X151946667Y-52802667D01*
X151880000Y-52736000D01*
X151780000Y-52702667D01*
X151713334Y-52702667D01*
X151613334Y-52736000D01*
X151580000Y-52769333D01*
X150913334Y-53402667D02*
X151313334Y-53402667D01*
X151113334Y-53402667D02*
X151113334Y-52702667D01*
X151180000Y-52802667D01*
X151246667Y-52869333D01*
X151313334Y-52902667D01*
X150680000Y-52702667D02*
X150213333Y-52702667D01*
X150513333Y-53402667D01*
X145030000Y-95308000D02*
X145063333Y-95274666D01*
X145096667Y-95174666D01*
X145096667Y-95108000D01*
X145063333Y-95008000D01*
X144996667Y-94941333D01*
X144930000Y-94908000D01*
X144796667Y-94874666D01*
X144696667Y-94874666D01*
X144563333Y-94908000D01*
X144496667Y-94941333D01*
X144430000Y-95008000D01*
X144396667Y-95108000D01*
X144396667Y-95174666D01*
X144430000Y-95274666D01*
X144463333Y-95308000D01*
X144463333Y-95574666D02*
X144430000Y-95608000D01*
X144396667Y-95674666D01*
X144396667Y-95841333D01*
X144430000Y-95908000D01*
X144463333Y-95941333D01*
X144530000Y-95974666D01*
X144596667Y-95974666D01*
X144696667Y-95941333D01*
X145096667Y-95541333D01*
X145096667Y-95974666D01*
X144396667Y-96408000D02*
X144396667Y-96474667D01*
X144430000Y-96541333D01*
X144463333Y-96574667D01*
X144530000Y-96608000D01*
X144663333Y-96641333D01*
X144830000Y-96641333D01*
X144963333Y-96608000D01*
X145030000Y-96574667D01*
X145063333Y-96541333D01*
X145096667Y-96474667D01*
X145096667Y-96408000D01*
X145063333Y-96341333D01*
X145030000Y-96308000D01*
X144963333Y-96274667D01*
X144830000Y-96241333D01*
X144663333Y-96241333D01*
X144530000Y-96274667D01*
X144463333Y-96308000D01*
X144430000Y-96341333D01*
X144396667Y-96408000D01*
X132022000Y-71370000D02*
X132055334Y-71403333D01*
X132155334Y-71436667D01*
X132222000Y-71436667D01*
X132322000Y-71403333D01*
X132388667Y-71336667D01*
X132422000Y-71270000D01*
X132455334Y-71136667D01*
X132455334Y-71036667D01*
X132422000Y-70903333D01*
X132388667Y-70836667D01*
X132322000Y-70770000D01*
X132222000Y-70736667D01*
X132155334Y-70736667D01*
X132055334Y-70770000D01*
X132022000Y-70803333D01*
X131755334Y-70803333D02*
X131722000Y-70770000D01*
X131655334Y-70736667D01*
X131488667Y-70736667D01*
X131422000Y-70770000D01*
X131388667Y-70803333D01*
X131355334Y-70870000D01*
X131355334Y-70936667D01*
X131388667Y-71036667D01*
X131788667Y-71436667D01*
X131355334Y-71436667D01*
X131088667Y-70803333D02*
X131055333Y-70770000D01*
X130988667Y-70736667D01*
X130822000Y-70736667D01*
X130755333Y-70770000D01*
X130722000Y-70803333D01*
X130688667Y-70870000D01*
X130688667Y-70936667D01*
X130722000Y-71036667D01*
X131122000Y-71436667D01*
X130688667Y-71436667D01*
X125980000Y-62796000D02*
X126013333Y-62762666D01*
X126046667Y-62662666D01*
X126046667Y-62596000D01*
X126013333Y-62496000D01*
X125946667Y-62429333D01*
X125880000Y-62396000D01*
X125746667Y-62362666D01*
X125646667Y-62362666D01*
X125513333Y-62396000D01*
X125446667Y-62429333D01*
X125380000Y-62496000D01*
X125346667Y-62596000D01*
X125346667Y-62662666D01*
X125380000Y-62762666D01*
X125413333Y-62796000D01*
X125413333Y-63062666D02*
X125380000Y-63096000D01*
X125346667Y-63162666D01*
X125346667Y-63329333D01*
X125380000Y-63396000D01*
X125413333Y-63429333D01*
X125480000Y-63462666D01*
X125546667Y-63462666D01*
X125646667Y-63429333D01*
X126046667Y-63029333D01*
X126046667Y-63462666D01*
X125346667Y-63696000D02*
X125346667Y-64129333D01*
X125613333Y-63896000D01*
X125613333Y-63996000D01*
X125646667Y-64062667D01*
X125680000Y-64096000D01*
X125746667Y-64129333D01*
X125913333Y-64129333D01*
X125980000Y-64096000D01*
X126013333Y-64062667D01*
X126046667Y-63996000D01*
X126046667Y-63796000D01*
X126013333Y-63729333D01*
X125980000Y-63696000D01*
X120912666Y-52640667D02*
X120912666Y-51940667D01*
X120746000Y-51940667D01*
X120646000Y-51974000D01*
X120579333Y-52040667D01*
X120546000Y-52107333D01*
X120512666Y-52240667D01*
X120512666Y-52340667D01*
X120546000Y-52474000D01*
X120579333Y-52540667D01*
X120646000Y-52607333D01*
X120746000Y-52640667D01*
X120912666Y-52640667D01*
X120179333Y-52640667D02*
X120046000Y-52640667D01*
X119979333Y-52607333D01*
X119946000Y-52574000D01*
X119879333Y-52474000D01*
X119846000Y-52340667D01*
X119846000Y-52074000D01*
X119879333Y-52007333D01*
X119912666Y-51974000D01*
X119979333Y-51940667D01*
X120112666Y-51940667D01*
X120179333Y-51974000D01*
X120212666Y-52007333D01*
X120246000Y-52074000D01*
X120246000Y-52240667D01*
X120212666Y-52307333D01*
X120179333Y-52340667D01*
X120112666Y-52374000D01*
X119979333Y-52374000D01*
X119912666Y-52340667D01*
X119879333Y-52307333D01*
X119846000Y-52240667D01*
X123405000Y-79691667D02*
X123405000Y-78991667D01*
X123238334Y-78991667D01*
X123138334Y-79025000D01*
X123071667Y-79091667D01*
X123038334Y-79158333D01*
X123005000Y-79291667D01*
X123005000Y-79391667D01*
X123038334Y-79525000D01*
X123071667Y-79591667D01*
X123138334Y-79658333D01*
X123238334Y-79691667D01*
X123405000Y-79691667D01*
X122338334Y-79691667D02*
X122738334Y-79691667D01*
X122538334Y-79691667D02*
X122538334Y-78991667D01*
X122605000Y-79091667D01*
X122671667Y-79158333D01*
X122738334Y-79191667D01*
X121905000Y-78991667D02*
X121838333Y-78991667D01*
X121771667Y-79025000D01*
X121738333Y-79058333D01*
X121705000Y-79125000D01*
X121671667Y-79258333D01*
X121671667Y-79425000D01*
X121705000Y-79558333D01*
X121738333Y-79625000D01*
X121771667Y-79658333D01*
X121838333Y-79691667D01*
X121905000Y-79691667D01*
X121971667Y-79658333D01*
X122005000Y-79625000D01*
X122038333Y-79558333D01*
X122071667Y-79425000D01*
X122071667Y-79258333D01*
X122038333Y-79125000D01*
X122005000Y-79058333D01*
X121971667Y-79025000D01*
X121905000Y-78991667D01*
X123405000Y-78421667D02*
X123405000Y-77721667D01*
X123238334Y-77721667D01*
X123138334Y-77755000D01*
X123071667Y-77821667D01*
X123038334Y-77888333D01*
X123005000Y-78021667D01*
X123005000Y-78121667D01*
X123038334Y-78255000D01*
X123071667Y-78321667D01*
X123138334Y-78388333D01*
X123238334Y-78421667D01*
X123405000Y-78421667D01*
X122338334Y-78421667D02*
X122738334Y-78421667D01*
X122538334Y-78421667D02*
X122538334Y-77721667D01*
X122605000Y-77821667D01*
X122671667Y-77888333D01*
X122738334Y-77921667D01*
X121671667Y-78421667D02*
X122071667Y-78421667D01*
X121871667Y-78421667D02*
X121871667Y-77721667D01*
X121938333Y-77821667D01*
X122005000Y-77888333D01*
X122071667Y-77921667D01*
X123532000Y-91756667D02*
X123532000Y-91056667D01*
X123365334Y-91056667D01*
X123265334Y-91090000D01*
X123198667Y-91156667D01*
X123165334Y-91223333D01*
X123132000Y-91356667D01*
X123132000Y-91456667D01*
X123165334Y-91590000D01*
X123198667Y-91656667D01*
X123265334Y-91723333D01*
X123365334Y-91756667D01*
X123532000Y-91756667D01*
X122465334Y-91756667D02*
X122865334Y-91756667D01*
X122665334Y-91756667D02*
X122665334Y-91056667D01*
X122732000Y-91156667D01*
X122798667Y-91223333D01*
X122865334Y-91256667D01*
X122198667Y-91123333D02*
X122165333Y-91090000D01*
X122098667Y-91056667D01*
X121932000Y-91056667D01*
X121865333Y-91090000D01*
X121832000Y-91123333D01*
X121798667Y-91190000D01*
X121798667Y-91256667D01*
X121832000Y-91356667D01*
X122232000Y-91756667D01*
X121798667Y-91756667D01*
X123532000Y-94296667D02*
X123532000Y-93596667D01*
X123365334Y-93596667D01*
X123265334Y-93630000D01*
X123198667Y-93696667D01*
X123165334Y-93763333D01*
X123132000Y-93896667D01*
X123132000Y-93996667D01*
X123165334Y-94130000D01*
X123198667Y-94196667D01*
X123265334Y-94263333D01*
X123365334Y-94296667D01*
X123532000Y-94296667D01*
X122465334Y-94296667D02*
X122865334Y-94296667D01*
X122665334Y-94296667D02*
X122665334Y-93596667D01*
X122732000Y-93696667D01*
X122798667Y-93763333D01*
X122865334Y-93796667D01*
X122232000Y-93596667D02*
X121798667Y-93596667D01*
X122032000Y-93863333D01*
X121932000Y-93863333D01*
X121865333Y-93896667D01*
X121832000Y-93930000D01*
X121798667Y-93996667D01*
X121798667Y-94163333D01*
X121832000Y-94230000D01*
X121865333Y-94263333D01*
X121932000Y-94296667D01*
X122132000Y-94296667D01*
X122198667Y-94263333D01*
X122232000Y-94230000D01*
X123405000Y-75246667D02*
X123405000Y-74546667D01*
X123238334Y-74546667D01*
X123138334Y-74580000D01*
X123071667Y-74646667D01*
X123038334Y-74713333D01*
X123005000Y-74846667D01*
X123005000Y-74946667D01*
X123038334Y-75080000D01*
X123071667Y-75146667D01*
X123138334Y-75213333D01*
X123238334Y-75246667D01*
X123405000Y-75246667D01*
X122338334Y-75246667D02*
X122738334Y-75246667D01*
X122538334Y-75246667D02*
X122538334Y-74546667D01*
X122605000Y-74646667D01*
X122671667Y-74713333D01*
X122738334Y-74746667D01*
X121738333Y-74780000D02*
X121738333Y-75246667D01*
X121905000Y-74513333D02*
X122071667Y-75013333D01*
X121638333Y-75013333D01*
X123405000Y-72706667D02*
X123405000Y-72006667D01*
X123238334Y-72006667D01*
X123138334Y-72040000D01*
X123071667Y-72106667D01*
X123038334Y-72173333D01*
X123005000Y-72306667D01*
X123005000Y-72406667D01*
X123038334Y-72540000D01*
X123071667Y-72606667D01*
X123138334Y-72673333D01*
X123238334Y-72706667D01*
X123405000Y-72706667D01*
X122338334Y-72706667D02*
X122738334Y-72706667D01*
X122538334Y-72706667D02*
X122538334Y-72006667D01*
X122605000Y-72106667D01*
X122671667Y-72173333D01*
X122738334Y-72206667D01*
X121705000Y-72006667D02*
X122038333Y-72006667D01*
X122071667Y-72340000D01*
X122038333Y-72306667D01*
X121971667Y-72273333D01*
X121805000Y-72273333D01*
X121738333Y-72306667D01*
X121705000Y-72340000D01*
X121671667Y-72406667D01*
X121671667Y-72573333D01*
X121705000Y-72640000D01*
X121738333Y-72673333D01*
X121805000Y-72706667D01*
X121971667Y-72706667D01*
X122038333Y-72673333D01*
X122071667Y-72640000D01*
X123532000Y-89216667D02*
X123532000Y-88516667D01*
X123365334Y-88516667D01*
X123265334Y-88550000D01*
X123198667Y-88616667D01*
X123165334Y-88683333D01*
X123132000Y-88816667D01*
X123132000Y-88916667D01*
X123165334Y-89050000D01*
X123198667Y-89116667D01*
X123265334Y-89183333D01*
X123365334Y-89216667D01*
X123532000Y-89216667D01*
X122465334Y-89216667D02*
X122865334Y-89216667D01*
X122665334Y-89216667D02*
X122665334Y-88516667D01*
X122732000Y-88616667D01*
X122798667Y-88683333D01*
X122865334Y-88716667D01*
X121865333Y-88516667D02*
X121998667Y-88516667D01*
X122065333Y-88550000D01*
X122098667Y-88583333D01*
X122165333Y-88683333D01*
X122198667Y-88816667D01*
X122198667Y-89083333D01*
X122165333Y-89150000D01*
X122132000Y-89183333D01*
X122065333Y-89216667D01*
X121932000Y-89216667D01*
X121865333Y-89183333D01*
X121832000Y-89150000D01*
X121798667Y-89083333D01*
X121798667Y-88916667D01*
X121832000Y-88850000D01*
X121865333Y-88816667D01*
X121932000Y-88783333D01*
X122065333Y-88783333D01*
X122132000Y-88816667D01*
X122165333Y-88850000D01*
X122198667Y-88916667D01*
X123532000Y-86676667D02*
X123532000Y-85976667D01*
X123365334Y-85976667D01*
X123265334Y-86010000D01*
X123198667Y-86076667D01*
X123165334Y-86143333D01*
X123132000Y-86276667D01*
X123132000Y-86376667D01*
X123165334Y-86510000D01*
X123198667Y-86576667D01*
X123265334Y-86643333D01*
X123365334Y-86676667D01*
X123532000Y-86676667D01*
X122465334Y-86676667D02*
X122865334Y-86676667D01*
X122665334Y-86676667D02*
X122665334Y-85976667D01*
X122732000Y-86076667D01*
X122798667Y-86143333D01*
X122865334Y-86176667D01*
X122232000Y-85976667D02*
X121765333Y-85976667D01*
X122065333Y-86676667D01*
X118597333Y-63196000D02*
X118830666Y-63196000D01*
X118830666Y-63562667D02*
X118830666Y-62862667D01*
X118497333Y-62862667D01*
X117864000Y-63562667D02*
X118264000Y-63562667D01*
X118064000Y-63562667D02*
X118064000Y-62862667D01*
X118130666Y-62962667D01*
X118197333Y-63029333D01*
X118264000Y-63062667D01*
X126808667Y-126629334D02*
X126475333Y-126396000D01*
X126808667Y-126229334D02*
X126108667Y-126229334D01*
X126108667Y-126496000D01*
X126142000Y-126562667D01*
X126175333Y-126596000D01*
X126242000Y-126629334D01*
X126342000Y-126629334D01*
X126408667Y-126596000D01*
X126442000Y-126562667D01*
X126475333Y-126496000D01*
X126475333Y-126229334D01*
X126808667Y-127296000D02*
X126808667Y-126896000D01*
X126808667Y-127096000D02*
X126108667Y-127096000D01*
X126208667Y-127029334D01*
X126275333Y-126962667D01*
X126308667Y-126896000D01*
X123052666Y-128078667D02*
X123286000Y-127745333D01*
X123452666Y-128078667D02*
X123452666Y-127378667D01*
X123186000Y-127378667D01*
X123119333Y-127412000D01*
X123086000Y-127445333D01*
X123052666Y-127512000D01*
X123052666Y-127612000D01*
X123086000Y-127678667D01*
X123119333Y-127712000D01*
X123186000Y-127745333D01*
X123452666Y-127745333D01*
X122786000Y-127445333D02*
X122752666Y-127412000D01*
X122686000Y-127378667D01*
X122519333Y-127378667D01*
X122452666Y-127412000D01*
X122419333Y-127445333D01*
X122386000Y-127512000D01*
X122386000Y-127578667D01*
X122419333Y-127678667D01*
X122819333Y-128078667D01*
X122386000Y-128078667D01*
X130618667Y-126629334D02*
X130285333Y-126396000D01*
X130618667Y-126229334D02*
X129918667Y-126229334D01*
X129918667Y-126496000D01*
X129952000Y-126562667D01*
X129985333Y-126596000D01*
X130052000Y-126629334D01*
X130152000Y-126629334D01*
X130218667Y-126596000D01*
X130252000Y-126562667D01*
X130285333Y-126496000D01*
X130285333Y-126229334D01*
X129918667Y-126862667D02*
X129918667Y-127296000D01*
X130185333Y-127062667D01*
X130185333Y-127162667D01*
X130218667Y-127229334D01*
X130252000Y-127262667D01*
X130318667Y-127296000D01*
X130485333Y-127296000D01*
X130552000Y-127262667D01*
X130585333Y-127229334D01*
X130618667Y-127162667D01*
X130618667Y-126962667D01*
X130585333Y-126896000D01*
X130552000Y-126862667D01*
X134428667Y-126629334D02*
X134095333Y-126396000D01*
X134428667Y-126229334D02*
X133728667Y-126229334D01*
X133728667Y-126496000D01*
X133762000Y-126562667D01*
X133795333Y-126596000D01*
X133862000Y-126629334D01*
X133962000Y-126629334D01*
X134028667Y-126596000D01*
X134062000Y-126562667D01*
X134095333Y-126496000D01*
X134095333Y-126229334D01*
X133962000Y-127229334D02*
X134428667Y-127229334D01*
X133695333Y-127062667D02*
X134195333Y-126896000D01*
X134195333Y-127329334D01*
X138238667Y-126629334D02*
X137905333Y-126396000D01*
X138238667Y-126229334D02*
X137538667Y-126229334D01*
X137538667Y-126496000D01*
X137572000Y-126562667D01*
X137605333Y-126596000D01*
X137672000Y-126629334D01*
X137772000Y-126629334D01*
X137838667Y-126596000D01*
X137872000Y-126562667D01*
X137905333Y-126496000D01*
X137905333Y-126229334D01*
X137538667Y-127262667D02*
X137538667Y-126929334D01*
X137872000Y-126896000D01*
X137838667Y-126929334D01*
X137805333Y-126996000D01*
X137805333Y-127162667D01*
X137838667Y-127229334D01*
X137872000Y-127262667D01*
X137938667Y-127296000D01*
X138105333Y-127296000D01*
X138172000Y-127262667D01*
X138205333Y-127229334D01*
X138238667Y-127162667D01*
X138238667Y-126996000D01*
X138205333Y-126929334D01*
X138172000Y-126896000D01*
X142048667Y-126629334D02*
X141715333Y-126396000D01*
X142048667Y-126229334D02*
X141348667Y-126229334D01*
X141348667Y-126496000D01*
X141382000Y-126562667D01*
X141415333Y-126596000D01*
X141482000Y-126629334D01*
X141582000Y-126629334D01*
X141648667Y-126596000D01*
X141682000Y-126562667D01*
X141715333Y-126496000D01*
X141715333Y-126229334D01*
X141348667Y-127229334D02*
X141348667Y-127096000D01*
X141382000Y-127029334D01*
X141415333Y-126996000D01*
X141515333Y-126929334D01*
X141648667Y-126896000D01*
X141915333Y-126896000D01*
X141982000Y-126929334D01*
X142015333Y-126962667D01*
X142048667Y-127029334D01*
X142048667Y-127162667D01*
X142015333Y-127229334D01*
X141982000Y-127262667D01*
X141915333Y-127296000D01*
X141748667Y-127296000D01*
X141682000Y-127262667D01*
X141648667Y-127229334D01*
X141615333Y-127162667D01*
X141615333Y-127029334D01*
X141648667Y-126962667D01*
X141682000Y-126929334D01*
X141748667Y-126896000D01*
X123306666Y-119696667D02*
X123540000Y-119363333D01*
X123706666Y-119696667D02*
X123706666Y-118996667D01*
X123440000Y-118996667D01*
X123373333Y-119030000D01*
X123340000Y-119063333D01*
X123306666Y-119130000D01*
X123306666Y-119230000D01*
X123340000Y-119296667D01*
X123373333Y-119330000D01*
X123440000Y-119363333D01*
X123706666Y-119363333D01*
X123073333Y-118996667D02*
X122606666Y-118996667D01*
X122906666Y-119696667D01*
X145858667Y-126629334D02*
X145525333Y-126396000D01*
X145858667Y-126229334D02*
X145158667Y-126229334D01*
X145158667Y-126496000D01*
X145192000Y-126562667D01*
X145225333Y-126596000D01*
X145292000Y-126629334D01*
X145392000Y-126629334D01*
X145458667Y-126596000D01*
X145492000Y-126562667D01*
X145525333Y-126496000D01*
X145525333Y-126229334D01*
X145458667Y-127029334D02*
X145425333Y-126962667D01*
X145392000Y-126929334D01*
X145325333Y-126896000D01*
X145292000Y-126896000D01*
X145225333Y-126929334D01*
X145192000Y-126962667D01*
X145158667Y-127029334D01*
X145158667Y-127162667D01*
X145192000Y-127229334D01*
X145225333Y-127262667D01*
X145292000Y-127296000D01*
X145325333Y-127296000D01*
X145392000Y-127262667D01*
X145425333Y-127229334D01*
X145458667Y-127162667D01*
X145458667Y-127029334D01*
X145492000Y-126962667D01*
X145525333Y-126929334D01*
X145592000Y-126896000D01*
X145725333Y-126896000D01*
X145792000Y-126929334D01*
X145825333Y-126962667D01*
X145858667Y-127029334D01*
X145858667Y-127162667D01*
X145825333Y-127229334D01*
X145792000Y-127262667D01*
X145725333Y-127296000D01*
X145592000Y-127296000D01*
X145525333Y-127262667D01*
X145492000Y-127229334D01*
X145458667Y-127162667D01*
X150938667Y-120025334D02*
X150605333Y-119792000D01*
X150938667Y-119625334D02*
X150238667Y-119625334D01*
X150238667Y-119892000D01*
X150272000Y-119958667D01*
X150305333Y-119992000D01*
X150372000Y-120025334D01*
X150472000Y-120025334D01*
X150538667Y-119992000D01*
X150572000Y-119958667D01*
X150605333Y-119892000D01*
X150605333Y-119625334D01*
X150938667Y-120358667D02*
X150938667Y-120492000D01*
X150905333Y-120558667D01*
X150872000Y-120592000D01*
X150772000Y-120658667D01*
X150638667Y-120692000D01*
X150372000Y-120692000D01*
X150305333Y-120658667D01*
X150272000Y-120625334D01*
X150238667Y-120558667D01*
X150238667Y-120425334D01*
X150272000Y-120358667D01*
X150305333Y-120325334D01*
X150372000Y-120292000D01*
X150538667Y-120292000D01*
X150605333Y-120325334D01*
X150638667Y-120358667D01*
X150672000Y-120425334D01*
X150672000Y-120558667D01*
X150638667Y-120625334D01*
X150605333Y-120658667D01*
X150538667Y-120692000D01*
X151580000Y-47814667D02*
X151813334Y-47481333D01*
X151980000Y-47814667D02*
X151980000Y-47114667D01*
X151713334Y-47114667D01*
X151646667Y-47148000D01*
X151613334Y-47181333D01*
X151580000Y-47248000D01*
X151580000Y-47348000D01*
X151613334Y-47414667D01*
X151646667Y-47448000D01*
X151713334Y-47481333D01*
X151980000Y-47481333D01*
X150913334Y-47814667D02*
X151313334Y-47814667D01*
X151113334Y-47814667D02*
X151113334Y-47114667D01*
X151180000Y-47214667D01*
X151246667Y-47281333D01*
X151313334Y-47314667D01*
X150480000Y-47114667D02*
X150413333Y-47114667D01*
X150346667Y-47148000D01*
X150313333Y-47181333D01*
X150280000Y-47248000D01*
X150246667Y-47381333D01*
X150246667Y-47548000D01*
X150280000Y-47681333D01*
X150313333Y-47748000D01*
X150346667Y-47781333D01*
X150413333Y-47814667D01*
X150480000Y-47814667D01*
X150546667Y-47781333D01*
X150580000Y-47748000D01*
X150613333Y-47681333D01*
X150646667Y-47548000D01*
X150646667Y-47381333D01*
X150613333Y-47248000D01*
X150580000Y-47181333D01*
X150546667Y-47148000D01*
X150480000Y-47114667D01*
X144805333Y-52060667D02*
X144805333Y-52627333D01*
X144772000Y-52694000D01*
X144738667Y-52727333D01*
X144672000Y-52760667D01*
X144538667Y-52760667D01*
X144472000Y-52727333D01*
X144438667Y-52694000D01*
X144405333Y-52627333D01*
X144405333Y-52060667D01*
X144138667Y-52060667D02*
X143705334Y-52060667D01*
X143938667Y-52327333D01*
X143838667Y-52327333D01*
X143772000Y-52360667D01*
X143738667Y-52394000D01*
X143705334Y-52460667D01*
X143705334Y-52627333D01*
X143738667Y-52694000D01*
X143772000Y-52727333D01*
X143838667Y-52760667D01*
X144038667Y-52760667D01*
X144105334Y-52727333D01*
X144138667Y-52694000D01*
X151762667Y-54551333D02*
X152462667Y-55018000D01*
X151762667Y-55018000D02*
X152462667Y-54551333D01*
X152462667Y-55651333D02*
X152462667Y-55251333D01*
X152462667Y-55451333D02*
X151762667Y-55451333D01*
X151862667Y-55384667D01*
X151929333Y-55318000D01*
X151962667Y-55251333D01*
D11*
X141358857Y-101435143D02*
X141406476Y-101482762D01*
X141549333Y-101530381D01*
X141644571Y-101530381D01*
X141787429Y-101482762D01*
X141882667Y-101387524D01*
X141930286Y-101292286D01*
X141977905Y-101101810D01*
X141977905Y-100958952D01*
X141930286Y-100768476D01*
X141882667Y-100673238D01*
X141787429Y-100578000D01*
X141644571Y-100530381D01*
X141549333Y-100530381D01*
X141406476Y-100578000D01*
X141358857Y-100625619D01*
X140977905Y-100625619D02*
X140930286Y-100578000D01*
X140835048Y-100530381D01*
X140596952Y-100530381D01*
X140501714Y-100578000D01*
X140454095Y-100625619D01*
X140406476Y-100720857D01*
X140406476Y-100816095D01*
X140454095Y-100958952D01*
X141025524Y-101530381D01*
X140406476Y-101530381D01*
X139549333Y-100863714D02*
X139549333Y-101530381D01*
X139787429Y-100482762D02*
X140025524Y-101197048D01*
X139406476Y-101197048D01*
M02*
