G04 #@! TF.FileFunction,Legend,Top*
%FSLAX46Y46*%
G04 Gerber Fmt 4.6, Leading zero omitted, Abs format (unit mm)*
G04 Created by KiCad (PCBNEW (2015-03-23 BZR 5533)-product) date Mon 13 Apr 2015 13:02:17 SAST*
%MOMM*%
G01*
G04 APERTURE LIST*
%ADD10C,0.100000*%
%ADD11C,0.120000*%
%ADD12C,0.300000*%
%ADD13C,0.150000*%
G04 APERTURE END LIST*
D10*
D11*
X128360004Y-83670000D02*
X128360004Y-84236667D01*
X128326670Y-84303333D01*
X128293337Y-84336667D01*
X128226670Y-84370000D01*
X128126670Y-84370000D01*
X128060004Y-84336667D01*
X128360004Y-84103333D02*
X128293337Y-84136667D01*
X128160004Y-84136667D01*
X128093337Y-84103333D01*
X128060004Y-84070000D01*
X128026670Y-84003333D01*
X128026670Y-83803333D01*
X128060004Y-83736667D01*
X128093337Y-83703333D01*
X128160004Y-83670000D01*
X128293337Y-83670000D01*
X128360004Y-83703333D01*
X128693337Y-84136667D02*
X128693337Y-83670000D01*
X128693337Y-83436667D02*
X128660003Y-83470000D01*
X128693337Y-83503333D01*
X128726670Y-83470000D01*
X128693337Y-83436667D01*
X128693337Y-83503333D01*
X128926670Y-83670000D02*
X129193336Y-83670000D01*
X129026670Y-83436667D02*
X129026670Y-84036667D01*
X129060003Y-84103333D01*
X129126670Y-84136667D01*
X129193336Y-84136667D01*
X129426670Y-84136667D02*
X129426670Y-83436667D01*
X129726670Y-84136667D02*
X129726670Y-83770000D01*
X129693336Y-83703333D01*
X129626670Y-83670000D01*
X129526670Y-83670000D01*
X129460003Y-83703333D01*
X129426670Y-83736667D01*
X130360003Y-83670000D02*
X130360003Y-84136667D01*
X130060003Y-83670000D02*
X130060003Y-84036667D01*
X130093336Y-84103333D01*
X130160003Y-84136667D01*
X130260003Y-84136667D01*
X130326669Y-84103333D01*
X130360003Y-84070000D01*
X130693336Y-84136667D02*
X130693336Y-83436667D01*
X130693336Y-83703333D02*
X130760002Y-83670000D01*
X130893336Y-83670000D01*
X130960002Y-83703333D01*
X130993336Y-83736667D01*
X131026669Y-83803333D01*
X131026669Y-84003333D01*
X130993336Y-84070000D01*
X130960002Y-84103333D01*
X130893336Y-84136667D01*
X130760002Y-84136667D01*
X130693336Y-84103333D01*
X131326669Y-84070000D02*
X131360002Y-84103333D01*
X131326669Y-84136667D01*
X131293335Y-84103333D01*
X131326669Y-84070000D01*
X131326669Y-84136667D01*
X131960002Y-84103333D02*
X131893335Y-84136667D01*
X131760002Y-84136667D01*
X131693335Y-84103333D01*
X131660002Y-84070000D01*
X131626668Y-84003333D01*
X131626668Y-83803333D01*
X131660002Y-83736667D01*
X131693335Y-83703333D01*
X131760002Y-83670000D01*
X131893335Y-83670000D01*
X131960002Y-83703333D01*
X132360002Y-84136667D02*
X132293335Y-84103333D01*
X132260002Y-84070000D01*
X132226668Y-84003333D01*
X132226668Y-83803333D01*
X132260002Y-83736667D01*
X132293335Y-83703333D01*
X132360002Y-83670000D01*
X132460002Y-83670000D01*
X132526668Y-83703333D01*
X132560002Y-83736667D01*
X132593335Y-83803333D01*
X132593335Y-84003333D01*
X132560002Y-84070000D01*
X132526668Y-84103333D01*
X132460002Y-84136667D01*
X132360002Y-84136667D01*
X132893335Y-84136667D02*
X132893335Y-83670000D01*
X132893335Y-83736667D02*
X132926668Y-83703333D01*
X132993335Y-83670000D01*
X133093335Y-83670000D01*
X133160001Y-83703333D01*
X133193335Y-83770000D01*
X133193335Y-84136667D01*
X133193335Y-83770000D02*
X133226668Y-83703333D01*
X133293335Y-83670000D01*
X133393335Y-83670000D01*
X133460001Y-83703333D01*
X133493335Y-83770000D01*
X133493335Y-84136667D01*
X134326668Y-83403333D02*
X133726668Y-84303333D01*
X134560001Y-84136667D02*
X134560001Y-83436667D01*
X134960001Y-84136667D02*
X134660001Y-83736667D01*
X134960001Y-83436667D02*
X134560001Y-83836667D01*
X135360001Y-84136667D02*
X135293334Y-84103333D01*
X135260001Y-84070000D01*
X135226667Y-84003333D01*
X135226667Y-83803333D01*
X135260001Y-83736667D01*
X135293334Y-83703333D01*
X135360001Y-83670000D01*
X135460001Y-83670000D01*
X135526667Y-83703333D01*
X135560001Y-83736667D01*
X135593334Y-83803333D01*
X135593334Y-84003333D01*
X135560001Y-84070000D01*
X135526667Y-84103333D01*
X135460001Y-84136667D01*
X135360001Y-84136667D01*
X135993334Y-84136667D02*
X135926667Y-84103333D01*
X135893334Y-84036667D01*
X135893334Y-83436667D01*
X136260001Y-84136667D02*
X136260001Y-83670000D01*
X136260001Y-83436667D02*
X136226667Y-83470000D01*
X136260001Y-83503333D01*
X136293334Y-83470000D01*
X136260001Y-83436667D01*
X136260001Y-83503333D01*
X136593334Y-83670000D02*
X136593334Y-84270000D01*
X136560000Y-84336667D01*
X136493334Y-84370000D01*
X136460000Y-84370000D01*
X136593334Y-83436667D02*
X136560000Y-83470000D01*
X136593334Y-83503333D01*
X136626667Y-83470000D01*
X136593334Y-83436667D01*
X136593334Y-83503333D01*
X136926667Y-83670000D02*
X136926667Y-84136667D01*
X136926667Y-83736667D02*
X136960000Y-83703333D01*
X137026667Y-83670000D01*
X137126667Y-83670000D01*
X137193333Y-83703333D01*
X137226667Y-83770000D01*
X137226667Y-84136667D01*
X137493333Y-83436667D02*
X137660000Y-84136667D01*
X137793333Y-83636667D01*
X137926666Y-84136667D01*
X138093333Y-83436667D01*
X138460000Y-84136667D02*
X138393333Y-84103333D01*
X138360000Y-84070000D01*
X138326666Y-84003333D01*
X138326666Y-83803333D01*
X138360000Y-83736667D01*
X138393333Y-83703333D01*
X138460000Y-83670000D01*
X138560000Y-83670000D01*
X138626666Y-83703333D01*
X138660000Y-83736667D01*
X138693333Y-83803333D01*
X138693333Y-84003333D01*
X138660000Y-84070000D01*
X138626666Y-84103333D01*
X138560000Y-84136667D01*
X138460000Y-84136667D01*
X139093333Y-84136667D02*
X139026666Y-84103333D01*
X138993333Y-84036667D01*
X138993333Y-83436667D01*
X139260000Y-83670000D02*
X139526666Y-83670000D01*
X139360000Y-84136667D02*
X139360000Y-83536667D01*
X139393333Y-83470000D01*
X139460000Y-83436667D01*
X139526666Y-83436667D01*
X140060000Y-84136667D02*
X140060000Y-83770000D01*
X140026666Y-83703333D01*
X139960000Y-83670000D01*
X139826666Y-83670000D01*
X139760000Y-83703333D01*
X140060000Y-84103333D02*
X139993333Y-84136667D01*
X139826666Y-84136667D01*
X139760000Y-84103333D01*
X139726666Y-84036667D01*
X139726666Y-83970000D01*
X139760000Y-83903333D01*
X139826666Y-83870000D01*
X139993333Y-83870000D01*
X140060000Y-83836667D01*
X140693333Y-84136667D02*
X140693333Y-83770000D01*
X140659999Y-83703333D01*
X140593333Y-83670000D01*
X140459999Y-83670000D01*
X140393333Y-83703333D01*
X140693333Y-84103333D02*
X140626666Y-84136667D01*
X140459999Y-84136667D01*
X140393333Y-84103333D01*
X140359999Y-84036667D01*
X140359999Y-83970000D01*
X140393333Y-83903333D01*
X140459999Y-83870000D01*
X140626666Y-83870000D01*
X140693333Y-83836667D01*
X141026666Y-84136667D02*
X141026666Y-83670000D01*
X141026666Y-83803333D02*
X141059999Y-83736667D01*
X141093332Y-83703333D01*
X141159999Y-83670000D01*
X141226666Y-83670000D01*
X141759999Y-84136667D02*
X141759999Y-83436667D01*
X141759999Y-84103333D02*
X141693332Y-84136667D01*
X141559999Y-84136667D01*
X141493332Y-84103333D01*
X141459999Y-84070000D01*
X141426665Y-84003333D01*
X141426665Y-83803333D01*
X141459999Y-83736667D01*
X141493332Y-83703333D01*
X141559999Y-83670000D01*
X141693332Y-83670000D01*
X141759999Y-83703333D01*
X141993332Y-83670000D02*
X142259998Y-83670000D01*
X142093332Y-83436667D02*
X142093332Y-84036667D01*
X142126665Y-84103333D01*
X142193332Y-84136667D01*
X142259998Y-84136667D01*
X142993332Y-83403333D02*
X142393332Y-84303333D01*
X143626665Y-84136667D02*
X143393331Y-83803333D01*
X143226665Y-84136667D02*
X143226665Y-83436667D01*
X143493331Y-83436667D01*
X143559998Y-83470000D01*
X143593331Y-83503333D01*
X143626665Y-83570000D01*
X143626665Y-83670000D01*
X143593331Y-83736667D01*
X143559998Y-83770000D01*
X143493331Y-83803333D01*
X143226665Y-83803333D01*
X144026665Y-84136667D02*
X143959998Y-84103333D01*
X143926665Y-84070000D01*
X143893331Y-84003333D01*
X143893331Y-83803333D01*
X143926665Y-83736667D01*
X143959998Y-83703333D01*
X144026665Y-83670000D01*
X144126665Y-83670000D01*
X144193331Y-83703333D01*
X144226665Y-83736667D01*
X144259998Y-83803333D01*
X144259998Y-84003333D01*
X144226665Y-84070000D01*
X144193331Y-84103333D01*
X144126665Y-84136667D01*
X144026665Y-84136667D01*
X144793331Y-83770000D02*
X144893331Y-83803333D01*
X144926664Y-83836667D01*
X144959998Y-83903333D01*
X144959998Y-84003333D01*
X144926664Y-84070000D01*
X144893331Y-84103333D01*
X144826664Y-84136667D01*
X144559998Y-84136667D01*
X144559998Y-83436667D01*
X144793331Y-83436667D01*
X144859998Y-83470000D01*
X144893331Y-83503333D01*
X144926664Y-83570000D01*
X144926664Y-83636667D01*
X144893331Y-83703333D01*
X144859998Y-83736667D01*
X144793331Y-83770000D01*
X144559998Y-83770000D01*
X145359998Y-84136667D02*
X145293331Y-84103333D01*
X145259998Y-84070000D01*
X145226664Y-84003333D01*
X145226664Y-83803333D01*
X145259998Y-83736667D01*
X145293331Y-83703333D01*
X145359998Y-83670000D01*
X145459998Y-83670000D01*
X145526664Y-83703333D01*
X145559998Y-83736667D01*
X145593331Y-83803333D01*
X145593331Y-84003333D01*
X145559998Y-84070000D01*
X145526664Y-84103333D01*
X145459998Y-84136667D01*
X145359998Y-84136667D01*
X146293331Y-84070000D02*
X146259997Y-84103333D01*
X146159997Y-84136667D01*
X146093331Y-84136667D01*
X145993331Y-84103333D01*
X145926664Y-84036667D01*
X145893331Y-83970000D01*
X145859997Y-83836667D01*
X145859997Y-83736667D01*
X145893331Y-83603333D01*
X145926664Y-83536667D01*
X145993331Y-83470000D01*
X146093331Y-83436667D01*
X146159997Y-83436667D01*
X146259997Y-83470000D01*
X146293331Y-83503333D01*
D12*
X124493331Y-81913333D02*
X124026665Y-81246667D01*
X123693331Y-81913333D02*
X123693331Y-80513333D01*
X124226665Y-80513333D01*
X124359998Y-80580000D01*
X124426665Y-80646667D01*
X124493331Y-80780000D01*
X124493331Y-80980000D01*
X124426665Y-81113333D01*
X124359998Y-81180000D01*
X124226665Y-81246667D01*
X123693331Y-81246667D01*
X125293331Y-81913333D02*
X125159998Y-81846667D01*
X125093331Y-81780000D01*
X125026665Y-81646667D01*
X125026665Y-81246667D01*
X125093331Y-81113333D01*
X125159998Y-81046667D01*
X125293331Y-80980000D01*
X125493331Y-80980000D01*
X125626665Y-81046667D01*
X125693331Y-81113333D01*
X125759998Y-81246667D01*
X125759998Y-81646667D01*
X125693331Y-81780000D01*
X125626665Y-81846667D01*
X125493331Y-81913333D01*
X125293331Y-81913333D01*
X126359998Y-81913333D02*
X126359998Y-80513333D01*
X126359998Y-81046667D02*
X126493332Y-80980000D01*
X126759998Y-80980000D01*
X126893332Y-81046667D01*
X126959998Y-81113333D01*
X127026665Y-81246667D01*
X127026665Y-81646667D01*
X126959998Y-81780000D01*
X126893332Y-81846667D01*
X126759998Y-81913333D01*
X126493332Y-81913333D01*
X126359998Y-81846667D01*
X127826665Y-81913333D02*
X127693332Y-81846667D01*
X127626665Y-81780000D01*
X127559999Y-81646667D01*
X127559999Y-81246667D01*
X127626665Y-81113333D01*
X127693332Y-81046667D01*
X127826665Y-80980000D01*
X128026665Y-80980000D01*
X128159999Y-81046667D01*
X128226665Y-81113333D01*
X128293332Y-81246667D01*
X128293332Y-81646667D01*
X128226665Y-81780000D01*
X128159999Y-81846667D01*
X128026665Y-81913333D01*
X127826665Y-81913333D01*
X128693332Y-80980000D02*
X129226666Y-80980000D01*
X128893332Y-80513333D02*
X128893332Y-81713333D01*
X128959999Y-81846667D01*
X129093332Y-81913333D01*
X129226666Y-81913333D01*
X129693332Y-81913333D02*
X129693332Y-80980000D01*
X129693332Y-80513333D02*
X129626666Y-80580000D01*
X129693332Y-80646667D01*
X129759999Y-80580000D01*
X129693332Y-80513333D01*
X129693332Y-80646667D01*
X130959999Y-81846667D02*
X130826666Y-81913333D01*
X130559999Y-81913333D01*
X130426666Y-81846667D01*
X130359999Y-81780000D01*
X130293333Y-81646667D01*
X130293333Y-81246667D01*
X130359999Y-81113333D01*
X130426666Y-81046667D01*
X130559999Y-80980000D01*
X130826666Y-80980000D01*
X130959999Y-81046667D01*
X131493333Y-81846667D02*
X131626666Y-81913333D01*
X131893333Y-81913333D01*
X132026666Y-81846667D01*
X132093333Y-81713333D01*
X132093333Y-81646667D01*
X132026666Y-81513333D01*
X131893333Y-81446667D01*
X131693333Y-81446667D01*
X131559999Y-81380000D01*
X131493333Y-81246667D01*
X131493333Y-81180000D01*
X131559999Y-81046667D01*
X131693333Y-80980000D01*
X131893333Y-80980000D01*
X132026666Y-81046667D01*
X134559999Y-81780000D02*
X134493333Y-81846667D01*
X134293333Y-81913333D01*
X134159999Y-81913333D01*
X133959999Y-81846667D01*
X133826666Y-81713333D01*
X133759999Y-81580000D01*
X133693333Y-81313333D01*
X133693333Y-81113333D01*
X133759999Y-80846667D01*
X133826666Y-80713333D01*
X133959999Y-80580000D01*
X134159999Y-80513333D01*
X134293333Y-80513333D01*
X134493333Y-80580000D01*
X134559999Y-80646667D01*
X135359999Y-81913333D02*
X135226666Y-81846667D01*
X135159999Y-81780000D01*
X135093333Y-81646667D01*
X135093333Y-81246667D01*
X135159999Y-81113333D01*
X135226666Y-81046667D01*
X135359999Y-80980000D01*
X135559999Y-80980000D01*
X135693333Y-81046667D01*
X135759999Y-81113333D01*
X135826666Y-81246667D01*
X135826666Y-81646667D01*
X135759999Y-81780000D01*
X135693333Y-81846667D01*
X135559999Y-81913333D01*
X135359999Y-81913333D01*
X136426666Y-80980000D02*
X136426666Y-81913333D01*
X136426666Y-81113333D02*
X136493333Y-81046667D01*
X136626666Y-80980000D01*
X136826666Y-80980000D01*
X136960000Y-81046667D01*
X137026666Y-81180000D01*
X137026666Y-81913333D01*
X137493333Y-80980000D02*
X138026667Y-80980000D01*
X137693333Y-80513333D02*
X137693333Y-81713333D01*
X137760000Y-81846667D01*
X137893333Y-81913333D01*
X138026667Y-81913333D01*
X138493333Y-81913333D02*
X138493333Y-80980000D01*
X138493333Y-81246667D02*
X138560000Y-81113333D01*
X138626667Y-81046667D01*
X138760000Y-80980000D01*
X138893333Y-80980000D01*
X139560000Y-81913333D02*
X139426667Y-81846667D01*
X139360000Y-81780000D01*
X139293334Y-81646667D01*
X139293334Y-81246667D01*
X139360000Y-81113333D01*
X139426667Y-81046667D01*
X139560000Y-80980000D01*
X139760000Y-80980000D01*
X139893334Y-81046667D01*
X139960000Y-81113333D01*
X140026667Y-81246667D01*
X140026667Y-81646667D01*
X139960000Y-81780000D01*
X139893334Y-81846667D01*
X139760000Y-81913333D01*
X139560000Y-81913333D01*
X140826667Y-81913333D02*
X140693334Y-81846667D01*
X140626667Y-81713333D01*
X140626667Y-80513333D01*
X141560000Y-81913333D02*
X141426667Y-81846667D01*
X141360000Y-81713333D01*
X141360000Y-80513333D01*
X142626667Y-81846667D02*
X142493333Y-81913333D01*
X142226667Y-81913333D01*
X142093333Y-81846667D01*
X142026667Y-81713333D01*
X142026667Y-81180000D01*
X142093333Y-81046667D01*
X142226667Y-80980000D01*
X142493333Y-80980000D01*
X142626667Y-81046667D01*
X142693333Y-81180000D01*
X142693333Y-81313333D01*
X142026667Y-81446667D01*
X143293333Y-81913333D02*
X143293333Y-80980000D01*
X143293333Y-81246667D02*
X143360000Y-81113333D01*
X143426667Y-81046667D01*
X143560000Y-80980000D01*
X143693333Y-80980000D01*
X145693334Y-81180000D02*
X145893334Y-81246667D01*
X145960001Y-81313333D01*
X146026667Y-81446667D01*
X146026667Y-81646667D01*
X145960001Y-81780000D01*
X145893334Y-81846667D01*
X145760001Y-81913333D01*
X145226667Y-81913333D01*
X145226667Y-80513333D01*
X145693334Y-80513333D01*
X145826667Y-80580000D01*
X145893334Y-80646667D01*
X145960001Y-80780000D01*
X145960001Y-80913333D01*
X145893334Y-81046667D01*
X145826667Y-81113333D01*
X145693334Y-81180000D01*
X145226667Y-81180000D01*
X146826667Y-81913333D02*
X146693334Y-81846667D01*
X146626667Y-81780000D01*
X146560001Y-81646667D01*
X146560001Y-81246667D01*
X146626667Y-81113333D01*
X146693334Y-81046667D01*
X146826667Y-80980000D01*
X147026667Y-80980000D01*
X147160001Y-81046667D01*
X147226667Y-81113333D01*
X147293334Y-81246667D01*
X147293334Y-81646667D01*
X147226667Y-81780000D01*
X147160001Y-81846667D01*
X147026667Y-81913333D01*
X146826667Y-81913333D01*
X148493334Y-81913333D02*
X148493334Y-81180000D01*
X148426668Y-81046667D01*
X148293334Y-80980000D01*
X148026668Y-80980000D01*
X147893334Y-81046667D01*
X148493334Y-81846667D02*
X148360001Y-81913333D01*
X148026668Y-81913333D01*
X147893334Y-81846667D01*
X147826668Y-81713333D01*
X147826668Y-81580000D01*
X147893334Y-81446667D01*
X148026668Y-81380000D01*
X148360001Y-81380000D01*
X148493334Y-81313333D01*
X149160001Y-81913333D02*
X149160001Y-80980000D01*
X149160001Y-81246667D02*
X149226668Y-81113333D01*
X149293335Y-81046667D01*
X149426668Y-80980000D01*
X149560001Y-80980000D01*
X150626668Y-81913333D02*
X150626668Y-80513333D01*
X150626668Y-81846667D02*
X150493335Y-81913333D01*
X150226668Y-81913333D01*
X150093335Y-81846667D01*
X150026668Y-81780000D01*
X149960002Y-81646667D01*
X149960002Y-81246667D01*
X150026668Y-81113333D01*
X150093335Y-81046667D01*
X150226668Y-80980000D01*
X150493335Y-80980000D01*
X150626668Y-81046667D01*
D13*
X139455000Y-53705000D02*
X139455000Y-51705000D01*
X137405000Y-51705000D02*
X137405000Y-53705000D01*
X143265000Y-53705000D02*
X143265000Y-51705000D01*
X141215000Y-51705000D02*
X141215000Y-53705000D01*
X118355000Y-103140000D02*
X118355000Y-105140000D01*
X120405000Y-105140000D02*
X120405000Y-103140000D01*
X120405000Y-110982000D02*
X120405000Y-108982000D01*
X118355000Y-108982000D02*
X118355000Y-110982000D01*
X141977000Y-58690000D02*
X141977000Y-60690000D01*
X144027000Y-60690000D02*
X144027000Y-58690000D01*
X140725000Y-63865000D02*
X140725000Y-61865000D01*
X138675000Y-61865000D02*
X138675000Y-63865000D01*
X153425000Y-122920000D02*
X153425000Y-120920000D01*
X151375000Y-120920000D02*
X151375000Y-122920000D01*
X142485000Y-112030000D02*
X142485000Y-114030000D01*
X144535000Y-114030000D02*
X144535000Y-112030000D01*
X130819000Y-114030000D02*
X130819000Y-112030000D01*
X128769000Y-112030000D02*
X128769000Y-114030000D01*
X153400000Y-71111000D02*
X151400000Y-71111000D01*
X151400000Y-73161000D02*
X153400000Y-73161000D01*
X136580880Y-41719500D02*
X127579120Y-41719500D01*
X136580880Y-38219380D02*
X127579120Y-38219380D01*
X127579120Y-38219380D02*
X127579120Y-52720240D01*
X127579120Y-52720240D02*
X136580880Y-52720240D01*
X136580880Y-52720240D02*
X136580880Y-38219380D01*
X128170940Y-128170940D02*
X128170940Y-128369060D01*
X128170940Y-128369060D02*
X128369060Y-128369060D01*
X128369060Y-128170940D02*
X128369060Y-128369060D01*
X128170940Y-128170940D02*
X128369060Y-128170940D01*
X127571500Y-128719580D02*
X127571500Y-129067560D01*
X127571500Y-129067560D02*
X127820420Y-129067560D01*
X127820420Y-128719580D02*
X127820420Y-129067560D01*
X127571500Y-128719580D02*
X127820420Y-128719580D01*
X127571500Y-129067560D02*
X127571500Y-129169160D01*
X127571500Y-129169160D02*
X128767840Y-129169160D01*
X128767840Y-129067560D02*
X128767840Y-129169160D01*
X127571500Y-129067560D02*
X128767840Y-129067560D01*
X128818640Y-129067560D02*
X128818640Y-129169160D01*
X128818640Y-129169160D02*
X128968500Y-129169160D01*
X128968500Y-129067560D02*
X128968500Y-129169160D01*
X128818640Y-129067560D02*
X128968500Y-129067560D01*
X127571500Y-127370840D02*
X127571500Y-127472440D01*
X127571500Y-127472440D02*
X128767840Y-127472440D01*
X128767840Y-127370840D02*
X128767840Y-127472440D01*
X127571500Y-127370840D02*
X128767840Y-127370840D01*
X128818640Y-127370840D02*
X128818640Y-127472440D01*
X128818640Y-127472440D02*
X128968500Y-127472440D01*
X128968500Y-127370840D02*
X128968500Y-127472440D01*
X128818640Y-127370840D02*
X128968500Y-127370840D01*
X127571500Y-128719580D02*
X127571500Y-128869440D01*
X127571500Y-128869440D02*
X127820420Y-128869440D01*
X127820420Y-128719580D02*
X127820420Y-128869440D01*
X127571500Y-128719580D02*
X127820420Y-128719580D01*
X127520700Y-129819400D02*
X127520700Y-126720600D01*
X127520700Y-126720600D02*
X129019300Y-126720600D01*
X129019300Y-126720600D02*
X129019300Y-129819400D01*
X129019300Y-129819400D02*
X127520700Y-129819400D01*
X127770646Y-127722738D02*
G75*
G03X127772160Y-128818640I499354J-547262D01*
G01*
X128768398Y-127721867D02*
G75*
G03X127772160Y-127721360I-498398J-548133D01*
G01*
X128769354Y-128817262D02*
G75*
G03X128767840Y-127721360I-499354J547262D01*
G01*
X127771602Y-128818133D02*
G75*
G03X128767840Y-128818640I498398J548133D01*
G01*
X131980940Y-128170940D02*
X131980940Y-128369060D01*
X131980940Y-128369060D02*
X132179060Y-128369060D01*
X132179060Y-128170940D02*
X132179060Y-128369060D01*
X131980940Y-128170940D02*
X132179060Y-128170940D01*
X131381500Y-128719580D02*
X131381500Y-129067560D01*
X131381500Y-129067560D02*
X131630420Y-129067560D01*
X131630420Y-128719580D02*
X131630420Y-129067560D01*
X131381500Y-128719580D02*
X131630420Y-128719580D01*
X131381500Y-129067560D02*
X131381500Y-129169160D01*
X131381500Y-129169160D02*
X132577840Y-129169160D01*
X132577840Y-129067560D02*
X132577840Y-129169160D01*
X131381500Y-129067560D02*
X132577840Y-129067560D01*
X132628640Y-129067560D02*
X132628640Y-129169160D01*
X132628640Y-129169160D02*
X132778500Y-129169160D01*
X132778500Y-129067560D02*
X132778500Y-129169160D01*
X132628640Y-129067560D02*
X132778500Y-129067560D01*
X131381500Y-127370840D02*
X131381500Y-127472440D01*
X131381500Y-127472440D02*
X132577840Y-127472440D01*
X132577840Y-127370840D02*
X132577840Y-127472440D01*
X131381500Y-127370840D02*
X132577840Y-127370840D01*
X132628640Y-127370840D02*
X132628640Y-127472440D01*
X132628640Y-127472440D02*
X132778500Y-127472440D01*
X132778500Y-127370840D02*
X132778500Y-127472440D01*
X132628640Y-127370840D02*
X132778500Y-127370840D01*
X131381500Y-128719580D02*
X131381500Y-128869440D01*
X131381500Y-128869440D02*
X131630420Y-128869440D01*
X131630420Y-128719580D02*
X131630420Y-128869440D01*
X131381500Y-128719580D02*
X131630420Y-128719580D01*
X131330700Y-129819400D02*
X131330700Y-126720600D01*
X131330700Y-126720600D02*
X132829300Y-126720600D01*
X132829300Y-126720600D02*
X132829300Y-129819400D01*
X132829300Y-129819400D02*
X131330700Y-129819400D01*
X131580646Y-127722738D02*
G75*
G03X131582160Y-128818640I499354J-547262D01*
G01*
X132578398Y-127721867D02*
G75*
G03X131582160Y-127721360I-498398J-548133D01*
G01*
X132579354Y-128817262D02*
G75*
G03X132577840Y-127721360I-499354J547262D01*
G01*
X131581602Y-128818133D02*
G75*
G03X132577840Y-128818640I498398J548133D01*
G01*
X135790940Y-128170940D02*
X135790940Y-128369060D01*
X135790940Y-128369060D02*
X135989060Y-128369060D01*
X135989060Y-128170940D02*
X135989060Y-128369060D01*
X135790940Y-128170940D02*
X135989060Y-128170940D01*
X135191500Y-128719580D02*
X135191500Y-129067560D01*
X135191500Y-129067560D02*
X135440420Y-129067560D01*
X135440420Y-128719580D02*
X135440420Y-129067560D01*
X135191500Y-128719580D02*
X135440420Y-128719580D01*
X135191500Y-129067560D02*
X135191500Y-129169160D01*
X135191500Y-129169160D02*
X136387840Y-129169160D01*
X136387840Y-129067560D02*
X136387840Y-129169160D01*
X135191500Y-129067560D02*
X136387840Y-129067560D01*
X136438640Y-129067560D02*
X136438640Y-129169160D01*
X136438640Y-129169160D02*
X136588500Y-129169160D01*
X136588500Y-129067560D02*
X136588500Y-129169160D01*
X136438640Y-129067560D02*
X136588500Y-129067560D01*
X135191500Y-127370840D02*
X135191500Y-127472440D01*
X135191500Y-127472440D02*
X136387840Y-127472440D01*
X136387840Y-127370840D02*
X136387840Y-127472440D01*
X135191500Y-127370840D02*
X136387840Y-127370840D01*
X136438640Y-127370840D02*
X136438640Y-127472440D01*
X136438640Y-127472440D02*
X136588500Y-127472440D01*
X136588500Y-127370840D02*
X136588500Y-127472440D01*
X136438640Y-127370840D02*
X136588500Y-127370840D01*
X135191500Y-128719580D02*
X135191500Y-128869440D01*
X135191500Y-128869440D02*
X135440420Y-128869440D01*
X135440420Y-128719580D02*
X135440420Y-128869440D01*
X135191500Y-128719580D02*
X135440420Y-128719580D01*
X135140700Y-129819400D02*
X135140700Y-126720600D01*
X135140700Y-126720600D02*
X136639300Y-126720600D01*
X136639300Y-126720600D02*
X136639300Y-129819400D01*
X136639300Y-129819400D02*
X135140700Y-129819400D01*
X135390646Y-127722738D02*
G75*
G03X135392160Y-128818640I499354J-547262D01*
G01*
X136388398Y-127721867D02*
G75*
G03X135392160Y-127721360I-498398J-548133D01*
G01*
X136389354Y-128817262D02*
G75*
G03X136387840Y-127721360I-499354J547262D01*
G01*
X135391602Y-128818133D02*
G75*
G03X136387840Y-128818640I498398J548133D01*
G01*
X139600940Y-128170940D02*
X139600940Y-128369060D01*
X139600940Y-128369060D02*
X139799060Y-128369060D01*
X139799060Y-128170940D02*
X139799060Y-128369060D01*
X139600940Y-128170940D02*
X139799060Y-128170940D01*
X139001500Y-128719580D02*
X139001500Y-129067560D01*
X139001500Y-129067560D02*
X139250420Y-129067560D01*
X139250420Y-128719580D02*
X139250420Y-129067560D01*
X139001500Y-128719580D02*
X139250420Y-128719580D01*
X139001500Y-129067560D02*
X139001500Y-129169160D01*
X139001500Y-129169160D02*
X140197840Y-129169160D01*
X140197840Y-129067560D02*
X140197840Y-129169160D01*
X139001500Y-129067560D02*
X140197840Y-129067560D01*
X140248640Y-129067560D02*
X140248640Y-129169160D01*
X140248640Y-129169160D02*
X140398500Y-129169160D01*
X140398500Y-129067560D02*
X140398500Y-129169160D01*
X140248640Y-129067560D02*
X140398500Y-129067560D01*
X139001500Y-127370840D02*
X139001500Y-127472440D01*
X139001500Y-127472440D02*
X140197840Y-127472440D01*
X140197840Y-127370840D02*
X140197840Y-127472440D01*
X139001500Y-127370840D02*
X140197840Y-127370840D01*
X140248640Y-127370840D02*
X140248640Y-127472440D01*
X140248640Y-127472440D02*
X140398500Y-127472440D01*
X140398500Y-127370840D02*
X140398500Y-127472440D01*
X140248640Y-127370840D02*
X140398500Y-127370840D01*
X139001500Y-128719580D02*
X139001500Y-128869440D01*
X139001500Y-128869440D02*
X139250420Y-128869440D01*
X139250420Y-128719580D02*
X139250420Y-128869440D01*
X139001500Y-128719580D02*
X139250420Y-128719580D01*
X138950700Y-129819400D02*
X138950700Y-126720600D01*
X138950700Y-126720600D02*
X140449300Y-126720600D01*
X140449300Y-126720600D02*
X140449300Y-129819400D01*
X140449300Y-129819400D02*
X138950700Y-129819400D01*
X139200646Y-127722738D02*
G75*
G03X139202160Y-128818640I499354J-547262D01*
G01*
X140198398Y-127721867D02*
G75*
G03X139202160Y-127721360I-498398J-548133D01*
G01*
X140199354Y-128817262D02*
G75*
G03X140197840Y-127721360I-499354J547262D01*
G01*
X139201602Y-128818133D02*
G75*
G03X140197840Y-128818640I498398J548133D01*
G01*
X143410940Y-128170940D02*
X143410940Y-128369060D01*
X143410940Y-128369060D02*
X143609060Y-128369060D01*
X143609060Y-128170940D02*
X143609060Y-128369060D01*
X143410940Y-128170940D02*
X143609060Y-128170940D01*
X142811500Y-128719580D02*
X142811500Y-129067560D01*
X142811500Y-129067560D02*
X143060420Y-129067560D01*
X143060420Y-128719580D02*
X143060420Y-129067560D01*
X142811500Y-128719580D02*
X143060420Y-128719580D01*
X142811500Y-129067560D02*
X142811500Y-129169160D01*
X142811500Y-129169160D02*
X144007840Y-129169160D01*
X144007840Y-129067560D02*
X144007840Y-129169160D01*
X142811500Y-129067560D02*
X144007840Y-129067560D01*
X144058640Y-129067560D02*
X144058640Y-129169160D01*
X144058640Y-129169160D02*
X144208500Y-129169160D01*
X144208500Y-129067560D02*
X144208500Y-129169160D01*
X144058640Y-129067560D02*
X144208500Y-129067560D01*
X142811500Y-127370840D02*
X142811500Y-127472440D01*
X142811500Y-127472440D02*
X144007840Y-127472440D01*
X144007840Y-127370840D02*
X144007840Y-127472440D01*
X142811500Y-127370840D02*
X144007840Y-127370840D01*
X144058640Y-127370840D02*
X144058640Y-127472440D01*
X144058640Y-127472440D02*
X144208500Y-127472440D01*
X144208500Y-127370840D02*
X144208500Y-127472440D01*
X144058640Y-127370840D02*
X144208500Y-127370840D01*
X142811500Y-128719580D02*
X142811500Y-128869440D01*
X142811500Y-128869440D02*
X143060420Y-128869440D01*
X143060420Y-128719580D02*
X143060420Y-128869440D01*
X142811500Y-128719580D02*
X143060420Y-128719580D01*
X142760700Y-129819400D02*
X142760700Y-126720600D01*
X142760700Y-126720600D02*
X144259300Y-126720600D01*
X144259300Y-126720600D02*
X144259300Y-129819400D01*
X144259300Y-129819400D02*
X142760700Y-129819400D01*
X143010646Y-127722738D02*
G75*
G03X143012160Y-128818640I499354J-547262D01*
G01*
X144008398Y-127721867D02*
G75*
G03X143012160Y-127721360I-498398J-548133D01*
G01*
X144009354Y-128817262D02*
G75*
G03X144007840Y-127721360I-499354J547262D01*
G01*
X143011602Y-128818133D02*
G75*
G03X144007840Y-128818640I498398J548133D01*
G01*
X147220940Y-128170940D02*
X147220940Y-128369060D01*
X147220940Y-128369060D02*
X147419060Y-128369060D01*
X147419060Y-128170940D02*
X147419060Y-128369060D01*
X147220940Y-128170940D02*
X147419060Y-128170940D01*
X146621500Y-128719580D02*
X146621500Y-129067560D01*
X146621500Y-129067560D02*
X146870420Y-129067560D01*
X146870420Y-128719580D02*
X146870420Y-129067560D01*
X146621500Y-128719580D02*
X146870420Y-128719580D01*
X146621500Y-129067560D02*
X146621500Y-129169160D01*
X146621500Y-129169160D02*
X147817840Y-129169160D01*
X147817840Y-129067560D02*
X147817840Y-129169160D01*
X146621500Y-129067560D02*
X147817840Y-129067560D01*
X147868640Y-129067560D02*
X147868640Y-129169160D01*
X147868640Y-129169160D02*
X148018500Y-129169160D01*
X148018500Y-129067560D02*
X148018500Y-129169160D01*
X147868640Y-129067560D02*
X148018500Y-129067560D01*
X146621500Y-127370840D02*
X146621500Y-127472440D01*
X146621500Y-127472440D02*
X147817840Y-127472440D01*
X147817840Y-127370840D02*
X147817840Y-127472440D01*
X146621500Y-127370840D02*
X147817840Y-127370840D01*
X147868640Y-127370840D02*
X147868640Y-127472440D01*
X147868640Y-127472440D02*
X148018500Y-127472440D01*
X148018500Y-127370840D02*
X148018500Y-127472440D01*
X147868640Y-127370840D02*
X148018500Y-127370840D01*
X146621500Y-128719580D02*
X146621500Y-128869440D01*
X146621500Y-128869440D02*
X146870420Y-128869440D01*
X146870420Y-128719580D02*
X146870420Y-128869440D01*
X146621500Y-128719580D02*
X146870420Y-128719580D01*
X146570700Y-129819400D02*
X146570700Y-126720600D01*
X146570700Y-126720600D02*
X148069300Y-126720600D01*
X148069300Y-126720600D02*
X148069300Y-129819400D01*
X148069300Y-129819400D02*
X146570700Y-129819400D01*
X146820646Y-127722738D02*
G75*
G03X146822160Y-128818640I499354J-547262D01*
G01*
X147818398Y-127721867D02*
G75*
G03X146822160Y-127721360I-498398J-548133D01*
G01*
X147819354Y-128817262D02*
G75*
G03X147817840Y-127721360I-499354J547262D01*
G01*
X146821602Y-128818133D02*
G75*
G03X147817840Y-128818640I498398J548133D01*
G01*
X148490940Y-47089060D02*
X148689060Y-47089060D01*
X148689060Y-47089060D02*
X148689060Y-46890940D01*
X148490940Y-46890940D02*
X148689060Y-46890940D01*
X148490940Y-47089060D02*
X148490940Y-46890940D01*
X149039580Y-47688500D02*
X149387560Y-47688500D01*
X149387560Y-47688500D02*
X149387560Y-47439580D01*
X149039580Y-47439580D02*
X149387560Y-47439580D01*
X149039580Y-47688500D02*
X149039580Y-47439580D01*
X149387560Y-47688500D02*
X149489160Y-47688500D01*
X149489160Y-47688500D02*
X149489160Y-46492160D01*
X149387560Y-46492160D02*
X149489160Y-46492160D01*
X149387560Y-47688500D02*
X149387560Y-46492160D01*
X149387560Y-46441360D02*
X149489160Y-46441360D01*
X149489160Y-46441360D02*
X149489160Y-46291500D01*
X149387560Y-46291500D02*
X149489160Y-46291500D01*
X149387560Y-46441360D02*
X149387560Y-46291500D01*
X147690840Y-47688500D02*
X147792440Y-47688500D01*
X147792440Y-47688500D02*
X147792440Y-46492160D01*
X147690840Y-46492160D02*
X147792440Y-46492160D01*
X147690840Y-47688500D02*
X147690840Y-46492160D01*
X147690840Y-46441360D02*
X147792440Y-46441360D01*
X147792440Y-46441360D02*
X147792440Y-46291500D01*
X147690840Y-46291500D02*
X147792440Y-46291500D01*
X147690840Y-46441360D02*
X147690840Y-46291500D01*
X149039580Y-47688500D02*
X149189440Y-47688500D01*
X149189440Y-47688500D02*
X149189440Y-47439580D01*
X149039580Y-47439580D02*
X149189440Y-47439580D01*
X149039580Y-47688500D02*
X149039580Y-47439580D01*
X150139400Y-47739300D02*
X147040600Y-47739300D01*
X147040600Y-47739300D02*
X147040600Y-46240700D01*
X147040600Y-46240700D02*
X150139400Y-46240700D01*
X150139400Y-46240700D02*
X150139400Y-47739300D01*
X148042738Y-47489354D02*
G75*
G03X149138640Y-47487840I547262J499354D01*
G01*
X148041867Y-46491602D02*
G75*
G03X148041360Y-47487840I548133J-498398D01*
G01*
X149137262Y-46490646D02*
G75*
G03X148041360Y-46492160I-547262J-499354D01*
G01*
X149138133Y-47488398D02*
G75*
G03X149138640Y-46492160I-548133J498398D01*
G01*
X148490940Y-44549060D02*
X148689060Y-44549060D01*
X148689060Y-44549060D02*
X148689060Y-44350940D01*
X148490940Y-44350940D02*
X148689060Y-44350940D01*
X148490940Y-44549060D02*
X148490940Y-44350940D01*
X149039580Y-45148500D02*
X149387560Y-45148500D01*
X149387560Y-45148500D02*
X149387560Y-44899580D01*
X149039580Y-44899580D02*
X149387560Y-44899580D01*
X149039580Y-45148500D02*
X149039580Y-44899580D01*
X149387560Y-45148500D02*
X149489160Y-45148500D01*
X149489160Y-45148500D02*
X149489160Y-43952160D01*
X149387560Y-43952160D02*
X149489160Y-43952160D01*
X149387560Y-45148500D02*
X149387560Y-43952160D01*
X149387560Y-43901360D02*
X149489160Y-43901360D01*
X149489160Y-43901360D02*
X149489160Y-43751500D01*
X149387560Y-43751500D02*
X149489160Y-43751500D01*
X149387560Y-43901360D02*
X149387560Y-43751500D01*
X147690840Y-45148500D02*
X147792440Y-45148500D01*
X147792440Y-45148500D02*
X147792440Y-43952160D01*
X147690840Y-43952160D02*
X147792440Y-43952160D01*
X147690840Y-45148500D02*
X147690840Y-43952160D01*
X147690840Y-43901360D02*
X147792440Y-43901360D01*
X147792440Y-43901360D02*
X147792440Y-43751500D01*
X147690840Y-43751500D02*
X147792440Y-43751500D01*
X147690840Y-43901360D02*
X147690840Y-43751500D01*
X149039580Y-45148500D02*
X149189440Y-45148500D01*
X149189440Y-45148500D02*
X149189440Y-44899580D01*
X149039580Y-44899580D02*
X149189440Y-44899580D01*
X149039580Y-45148500D02*
X149039580Y-44899580D01*
X150139400Y-45199300D02*
X147040600Y-45199300D01*
X147040600Y-45199300D02*
X147040600Y-43700700D01*
X147040600Y-43700700D02*
X150139400Y-43700700D01*
X150139400Y-43700700D02*
X150139400Y-45199300D01*
X148042738Y-44949354D02*
G75*
G03X149138640Y-44947840I547262J499354D01*
G01*
X148041867Y-43951602D02*
G75*
G03X148041360Y-44947840I548133J-498398D01*
G01*
X149137262Y-43950646D02*
G75*
G03X148041360Y-43952160I-547262J-499354D01*
G01*
X149138133Y-44948398D02*
G75*
G03X149138640Y-43952160I-548133J498398D01*
G01*
X116105940Y-65504060D02*
X116304060Y-65504060D01*
X116304060Y-65504060D02*
X116304060Y-65305940D01*
X116105940Y-65305940D02*
X116304060Y-65305940D01*
X116105940Y-65504060D02*
X116105940Y-65305940D01*
X116654580Y-66103500D02*
X117002560Y-66103500D01*
X117002560Y-66103500D02*
X117002560Y-65854580D01*
X116654580Y-65854580D02*
X117002560Y-65854580D01*
X116654580Y-66103500D02*
X116654580Y-65854580D01*
X117002560Y-66103500D02*
X117104160Y-66103500D01*
X117104160Y-66103500D02*
X117104160Y-64907160D01*
X117002560Y-64907160D02*
X117104160Y-64907160D01*
X117002560Y-66103500D02*
X117002560Y-64907160D01*
X117002560Y-64856360D02*
X117104160Y-64856360D01*
X117104160Y-64856360D02*
X117104160Y-64706500D01*
X117002560Y-64706500D02*
X117104160Y-64706500D01*
X117002560Y-64856360D02*
X117002560Y-64706500D01*
X115305840Y-66103500D02*
X115407440Y-66103500D01*
X115407440Y-66103500D02*
X115407440Y-64907160D01*
X115305840Y-64907160D02*
X115407440Y-64907160D01*
X115305840Y-66103500D02*
X115305840Y-64907160D01*
X115305840Y-64856360D02*
X115407440Y-64856360D01*
X115407440Y-64856360D02*
X115407440Y-64706500D01*
X115305840Y-64706500D02*
X115407440Y-64706500D01*
X115305840Y-64856360D02*
X115305840Y-64706500D01*
X116654580Y-66103500D02*
X116804440Y-66103500D01*
X116804440Y-66103500D02*
X116804440Y-65854580D01*
X116654580Y-65854580D02*
X116804440Y-65854580D01*
X116654580Y-66103500D02*
X116654580Y-65854580D01*
X117754400Y-66154300D02*
X114655600Y-66154300D01*
X114655600Y-66154300D02*
X114655600Y-64655700D01*
X114655600Y-64655700D02*
X117754400Y-64655700D01*
X117754400Y-64655700D02*
X117754400Y-66154300D01*
X115657738Y-65904354D02*
G75*
G03X116753640Y-65902840I547262J499354D01*
G01*
X115656867Y-64906602D02*
G75*
G03X115656360Y-65902840I548133J-498398D01*
G01*
X116752262Y-64905646D02*
G75*
G03X115656360Y-64907160I-547262J-499354D01*
G01*
X116753133Y-65903398D02*
G75*
G03X116753640Y-64907160I-548133J498398D01*
G01*
X130810000Y-59690000D02*
X135890000Y-59690000D01*
X135890000Y-59690000D02*
X135890000Y-57150000D01*
X135890000Y-57150000D02*
X130810000Y-57150000D01*
X127990000Y-56870000D02*
X129540000Y-56870000D01*
X130810000Y-57150000D02*
X130810000Y-59690000D01*
X129540000Y-59970000D02*
X127990000Y-59970000D01*
X127990000Y-59970000D02*
X127990000Y-56870000D01*
X124460000Y-74930000D02*
X124460000Y-80010000D01*
X124460000Y-80010000D02*
X127000000Y-80010000D01*
X127000000Y-80010000D02*
X127000000Y-74930000D01*
X127280000Y-72110000D02*
X127280000Y-73660000D01*
X127000000Y-74930000D02*
X124460000Y-74930000D01*
X124180000Y-73660000D02*
X124180000Y-72110000D01*
X124180000Y-72110000D02*
X127280000Y-72110000D01*
X114300000Y-74930000D02*
X114300000Y-80010000D01*
X114300000Y-80010000D02*
X116840000Y-80010000D01*
X116840000Y-80010000D02*
X116840000Y-74930000D01*
X117120000Y-72110000D02*
X117120000Y-73660000D01*
X116840000Y-74930000D02*
X114300000Y-74930000D01*
X114020000Y-73660000D02*
X114020000Y-72110000D01*
X114020000Y-72110000D02*
X117120000Y-72110000D01*
X114300000Y-88900000D02*
X114300000Y-93980000D01*
X114300000Y-93980000D02*
X116840000Y-93980000D01*
X116840000Y-93980000D02*
X116840000Y-88900000D01*
X117120000Y-86080000D02*
X117120000Y-87630000D01*
X116840000Y-88900000D02*
X114300000Y-88900000D01*
X114020000Y-87630000D02*
X114020000Y-86080000D01*
X114020000Y-86080000D02*
X117120000Y-86080000D01*
X124460000Y-88900000D02*
X124460000Y-93980000D01*
X124460000Y-93980000D02*
X127000000Y-93980000D01*
X127000000Y-93980000D02*
X127000000Y-88900000D01*
X127280000Y-86080000D02*
X127280000Y-87630000D01*
X127000000Y-88900000D02*
X124460000Y-88900000D01*
X124180000Y-87630000D02*
X124180000Y-86080000D01*
X124180000Y-86080000D02*
X127280000Y-86080000D01*
X156210000Y-115570000D02*
X156210000Y-120650000D01*
X156210000Y-120650000D02*
X158750000Y-120650000D01*
X158750000Y-120650000D02*
X158750000Y-115570000D01*
X159030000Y-112750000D02*
X159030000Y-114300000D01*
X158750000Y-115570000D02*
X156210000Y-115570000D01*
X155930000Y-114300000D02*
X155930000Y-112750000D01*
X155930000Y-112750000D02*
X159030000Y-112750000D01*
X156210000Y-125730000D02*
X156210000Y-130810000D01*
X156210000Y-130810000D02*
X158750000Y-130810000D01*
X158750000Y-130810000D02*
X158750000Y-125730000D01*
X159030000Y-122910000D02*
X159030000Y-124460000D01*
X158750000Y-125730000D02*
X156210000Y-125730000D01*
X155930000Y-124460000D02*
X155930000Y-122910000D01*
X155930000Y-122910000D02*
X159030000Y-122910000D01*
X153670000Y-97790000D02*
X153670000Y-115570000D01*
X153670000Y-115570000D02*
X151130000Y-115570000D01*
X151130000Y-115570000D02*
X151130000Y-97790000D01*
X153950000Y-94970000D02*
X153950000Y-96520000D01*
X153670000Y-97790000D02*
X151130000Y-97790000D01*
X150850000Y-96520000D02*
X150850000Y-94970000D01*
X150850000Y-94970000D02*
X153950000Y-94970000D01*
X151130000Y-133350000D02*
X123190000Y-133350000D01*
X125730000Y-138430000D02*
X151130000Y-138430000D01*
X151130000Y-133350000D02*
X151130000Y-138430000D01*
X123190000Y-133350000D02*
X123190000Y-135890000D01*
X122910000Y-137160000D02*
X122910000Y-138710000D01*
X123190000Y-135890000D02*
X125730000Y-135890000D01*
X125730000Y-135890000D02*
X125730000Y-138430000D01*
X122910000Y-138710000D02*
X124460000Y-138710000D01*
X156210000Y-87630000D02*
X156210000Y-92710000D01*
X156210000Y-92710000D02*
X158750000Y-92710000D01*
X158750000Y-92710000D02*
X158750000Y-87630000D01*
X159030000Y-84810000D02*
X159030000Y-86360000D01*
X158750000Y-87630000D02*
X156210000Y-87630000D01*
X155930000Y-86360000D02*
X155930000Y-84810000D01*
X155930000Y-84810000D02*
X159030000Y-84810000D01*
X153670000Y-128270000D02*
X153670000Y-130810000D01*
X153950000Y-125450000D02*
X153950000Y-127000000D01*
X153670000Y-128270000D02*
X151130000Y-128270000D01*
X150850000Y-127000000D02*
X150850000Y-125450000D01*
X150850000Y-125450000D02*
X153950000Y-125450000D01*
X151130000Y-128270000D02*
X151130000Y-130810000D01*
X151130000Y-130810000D02*
X153670000Y-130810000D01*
X158750000Y-97790000D02*
X158750000Y-110490000D01*
X158750000Y-110490000D02*
X156210000Y-110490000D01*
X156210000Y-110490000D02*
X156210000Y-97790000D01*
X159030000Y-94970000D02*
X159030000Y-96520000D01*
X158750000Y-97790000D02*
X156210000Y-97790000D01*
X155930000Y-96520000D02*
X155930000Y-94970000D01*
X155930000Y-94970000D02*
X159030000Y-94970000D01*
X158750000Y-67310000D02*
X158750000Y-80010000D01*
X158750000Y-80010000D02*
X156210000Y-80010000D01*
X156210000Y-80010000D02*
X156210000Y-67310000D01*
X159030000Y-64490000D02*
X159030000Y-66040000D01*
X158750000Y-67310000D02*
X156210000Y-67310000D01*
X155930000Y-66040000D02*
X155930000Y-64490000D01*
X155930000Y-64490000D02*
X159030000Y-64490000D01*
X143875000Y-48065000D02*
X141875000Y-48065000D01*
X141875000Y-45915000D02*
X143875000Y-45915000D01*
X143875000Y-45525000D02*
X141875000Y-45525000D01*
X141875000Y-43375000D02*
X143875000Y-43375000D01*
X153400000Y-75751000D02*
X151400000Y-75751000D01*
X151400000Y-73601000D02*
X153400000Y-73601000D01*
X153400000Y-70671000D02*
X151400000Y-70671000D01*
X151400000Y-68521000D02*
X153400000Y-68521000D01*
X122285000Y-66480000D02*
X120285000Y-66480000D01*
X120285000Y-64330000D02*
X122285000Y-64330000D01*
X157960714Y-55880000D02*
G75*
G03X157960714Y-55880000I-1750714J0D01*
G01*
X152985000Y-52655000D02*
X153110000Y-52655000D01*
X159435000Y-52655000D02*
X159310000Y-52655000D01*
X159435000Y-59105000D02*
X159310000Y-59105000D01*
X153110000Y-59105000D02*
X152985000Y-59105000D01*
X154810000Y-52655000D02*
X157610000Y-52655000D01*
X152985000Y-59105000D02*
X152985000Y-52655000D01*
X154810000Y-59105000D02*
X157610000Y-59105000D01*
X159435000Y-59105000D02*
X159435000Y-52655000D01*
X121130714Y-128270000D02*
G75*
G03X121130714Y-128270000I-1750714J0D01*
G01*
X122605000Y-125045000D02*
X122605000Y-125170000D01*
X122605000Y-131495000D02*
X122605000Y-131370000D01*
X116155000Y-131495000D02*
X116155000Y-131370000D01*
X116155000Y-125170000D02*
X116155000Y-125045000D01*
X122605000Y-126870000D02*
X122605000Y-129670000D01*
X116155000Y-125045000D02*
X122605000Y-125045000D01*
X116155000Y-126870000D02*
X116155000Y-129670000D01*
X116155000Y-131495000D02*
X122605000Y-131495000D01*
X121130714Y-120015000D02*
G75*
G03X121130714Y-120015000I-1750714J0D01*
G01*
X116155000Y-123240000D02*
X116155000Y-123115000D01*
X116155000Y-116790000D02*
X116155000Y-116915000D01*
X122605000Y-116790000D02*
X122605000Y-116915000D01*
X122605000Y-123115000D02*
X122605000Y-123240000D01*
X116155000Y-121415000D02*
X116155000Y-118615000D01*
X122605000Y-123240000D02*
X116155000Y-123240000D01*
X122605000Y-121415000D02*
X122605000Y-118615000D01*
X122605000Y-116790000D02*
X116155000Y-116790000D01*
X119634000Y-61976000D02*
X122682000Y-61976000D01*
X122682000Y-61976000D02*
X122682000Y-54864000D01*
X122682000Y-54864000D02*
X119634000Y-54864000D01*
X116586000Y-61976000D02*
X115824000Y-61976000D01*
X115824000Y-61976000D02*
X113538000Y-60452000D01*
X113538000Y-60452000D02*
X113538000Y-56388000D01*
X113538000Y-56388000D02*
X115824000Y-54864000D01*
X115824000Y-54864000D02*
X116586000Y-54864000D01*
X131025000Y-62045000D02*
X131025000Y-62070000D01*
X135675000Y-62045000D02*
X135675000Y-62070000D01*
X135675000Y-67495000D02*
X135675000Y-67470000D01*
X131025000Y-67495000D02*
X131025000Y-67470000D01*
X131025000Y-62045000D02*
X135675000Y-62045000D01*
X131025000Y-67495000D02*
X135675000Y-67495000D01*
X131025000Y-62070000D02*
X129950000Y-62070000D01*
X142335000Y-95155000D02*
X141285000Y-95155000D01*
X142335000Y-105505000D02*
X141285000Y-105505000D01*
X131985000Y-105505000D02*
X133035000Y-105505000D01*
X131985000Y-95155000D02*
X133035000Y-95155000D01*
X142335000Y-95155000D02*
X142335000Y-96205000D01*
X131985000Y-95155000D02*
X131985000Y-96205000D01*
X131985000Y-105505000D02*
X131985000Y-104455000D01*
X142335000Y-105505000D02*
X142335000Y-104455000D01*
X141285000Y-95155000D02*
X141285000Y-93880000D01*
X134160000Y-111280000D02*
X140160000Y-111280000D01*
X140160000Y-111280000D02*
X140160000Y-114780000D01*
X140160000Y-114780000D02*
X134160000Y-114780000D01*
X134160000Y-114780000D02*
X134160000Y-111280000D01*
X119040000Y-135890000D02*
G75*
G03X119040000Y-135890000I-2200000J0D01*
G01*
X158410000Y-46990000D02*
G75*
G03X158410000Y-46990000I-2200000J0D01*
G01*
X119040000Y-46990000D02*
G75*
G03X119040000Y-46990000I-2200000J0D01*
G01*
X158410000Y-135890000D02*
G75*
G03X158410000Y-135890000I-2200000J0D01*
G01*
X114020000Y-102870000D02*
X114020000Y-101320000D01*
X114020000Y-101320000D02*
X117120000Y-101320000D01*
X117120000Y-101320000D02*
X117120000Y-102870000D01*
X116840000Y-104140000D02*
X116840000Y-114300000D01*
X116840000Y-114300000D02*
X114300000Y-114300000D01*
X114300000Y-114300000D02*
X114300000Y-104140000D01*
X116840000Y-104140000D02*
X114300000Y-104140000D01*
X121640000Y-102870000D02*
X121640000Y-101320000D01*
X121640000Y-101320000D02*
X124740000Y-101320000D01*
X124740000Y-101320000D02*
X124740000Y-102870000D01*
X124460000Y-104140000D02*
X124460000Y-114300000D01*
X124460000Y-114300000D02*
X121920000Y-114300000D01*
X121920000Y-114300000D02*
X121920000Y-104140000D01*
X124460000Y-104140000D02*
X121920000Y-104140000D01*
X151130000Y-87630000D02*
X151130000Y-92710000D01*
X151130000Y-92710000D02*
X153670000Y-92710000D01*
X153670000Y-92710000D02*
X153670000Y-87630000D01*
X153950000Y-84810000D02*
X153950000Y-86360000D01*
X153670000Y-87630000D02*
X151130000Y-87630000D01*
X150850000Y-86360000D02*
X150850000Y-84810000D01*
X150850000Y-84810000D02*
X153950000Y-84810000D01*
D10*
X140458000Y-54472666D02*
X140491333Y-54506000D01*
X140524667Y-54606000D01*
X140524667Y-54672666D01*
X140491333Y-54772666D01*
X140424667Y-54839333D01*
X140358000Y-54872666D01*
X140224667Y-54906000D01*
X140124667Y-54906000D01*
X139991333Y-54872666D01*
X139924667Y-54839333D01*
X139858000Y-54772666D01*
X139824667Y-54672666D01*
X139824667Y-54606000D01*
X139858000Y-54506000D01*
X139891333Y-54472666D01*
X140524667Y-53806000D02*
X140524667Y-54206000D01*
X140524667Y-54006000D02*
X139824667Y-54006000D01*
X139924667Y-54072666D01*
X139991333Y-54139333D01*
X140024667Y-54206000D01*
X144522000Y-54472666D02*
X144555333Y-54506000D01*
X144588667Y-54606000D01*
X144588667Y-54672666D01*
X144555333Y-54772666D01*
X144488667Y-54839333D01*
X144422000Y-54872666D01*
X144288667Y-54906000D01*
X144188667Y-54906000D01*
X144055333Y-54872666D01*
X143988667Y-54839333D01*
X143922000Y-54772666D01*
X143888667Y-54672666D01*
X143888667Y-54606000D01*
X143922000Y-54506000D01*
X143955333Y-54472666D01*
X143955333Y-54206000D02*
X143922000Y-54172666D01*
X143888667Y-54106000D01*
X143888667Y-53939333D01*
X143922000Y-53872666D01*
X143955333Y-53839333D01*
X144022000Y-53806000D01*
X144088667Y-53806000D01*
X144188667Y-53839333D01*
X144588667Y-54239333D01*
X144588667Y-53806000D01*
X118106000Y-105780666D02*
X118139333Y-105814000D01*
X118172667Y-105914000D01*
X118172667Y-105980666D01*
X118139333Y-106080666D01*
X118072667Y-106147333D01*
X118006000Y-106180666D01*
X117872667Y-106214000D01*
X117772667Y-106214000D01*
X117639333Y-106180666D01*
X117572667Y-106147333D01*
X117506000Y-106080666D01*
X117472667Y-105980666D01*
X117472667Y-105914000D01*
X117506000Y-105814000D01*
X117539333Y-105780666D01*
X117472667Y-105547333D02*
X117472667Y-105114000D01*
X117739333Y-105347333D01*
X117739333Y-105247333D01*
X117772667Y-105180666D01*
X117806000Y-105147333D01*
X117872667Y-105114000D01*
X118039333Y-105114000D01*
X118106000Y-105147333D01*
X118139333Y-105180666D01*
X118172667Y-105247333D01*
X118172667Y-105447333D01*
X118139333Y-105514000D01*
X118106000Y-105547333D01*
X118106000Y-111368666D02*
X118139333Y-111402000D01*
X118172667Y-111502000D01*
X118172667Y-111568666D01*
X118139333Y-111668666D01*
X118072667Y-111735333D01*
X118006000Y-111768666D01*
X117872667Y-111802000D01*
X117772667Y-111802000D01*
X117639333Y-111768666D01*
X117572667Y-111735333D01*
X117506000Y-111668666D01*
X117472667Y-111568666D01*
X117472667Y-111502000D01*
X117506000Y-111402000D01*
X117539333Y-111368666D01*
X117472667Y-110768666D02*
X117472667Y-110902000D01*
X117506000Y-110968666D01*
X117539333Y-111002000D01*
X117639333Y-111068666D01*
X117772667Y-111102000D01*
X118039333Y-111102000D01*
X118106000Y-111068666D01*
X118139333Y-111035333D01*
X118172667Y-110968666D01*
X118172667Y-110835333D01*
X118139333Y-110768666D01*
X118106000Y-110735333D01*
X118039333Y-110702000D01*
X117872667Y-110702000D01*
X117806000Y-110735333D01*
X117772667Y-110768666D01*
X117739333Y-110835333D01*
X117739333Y-110968666D01*
X117772667Y-111035333D01*
X117806000Y-111068666D01*
X117872667Y-111102000D01*
X145030000Y-61584666D02*
X145063333Y-61618000D01*
X145096667Y-61718000D01*
X145096667Y-61784666D01*
X145063333Y-61884666D01*
X144996667Y-61951333D01*
X144930000Y-61984666D01*
X144796667Y-62018000D01*
X144696667Y-62018000D01*
X144563333Y-61984666D01*
X144496667Y-61951333D01*
X144430000Y-61884666D01*
X144396667Y-61784666D01*
X144396667Y-61718000D01*
X144430000Y-61618000D01*
X144463333Y-61584666D01*
X145096667Y-61251333D02*
X145096667Y-61118000D01*
X145063333Y-61051333D01*
X145030000Y-61018000D01*
X144930000Y-60951333D01*
X144796667Y-60918000D01*
X144530000Y-60918000D01*
X144463333Y-60951333D01*
X144430000Y-60984666D01*
X144396667Y-61051333D01*
X144396667Y-61184666D01*
X144430000Y-61251333D01*
X144463333Y-61284666D01*
X144530000Y-61318000D01*
X144696667Y-61318000D01*
X144763333Y-61284666D01*
X144796667Y-61251333D01*
X144830000Y-61184666D01*
X144830000Y-61051333D01*
X144796667Y-60984666D01*
X144763333Y-60951333D01*
X144696667Y-60918000D01*
X141728000Y-64712000D02*
X141761333Y-64745334D01*
X141794667Y-64845334D01*
X141794667Y-64912000D01*
X141761333Y-65012000D01*
X141694667Y-65078667D01*
X141628000Y-65112000D01*
X141494667Y-65145334D01*
X141394667Y-65145334D01*
X141261333Y-65112000D01*
X141194667Y-65078667D01*
X141128000Y-65012000D01*
X141094667Y-64912000D01*
X141094667Y-64845334D01*
X141128000Y-64745334D01*
X141161333Y-64712000D01*
X141794667Y-64045334D02*
X141794667Y-64445334D01*
X141794667Y-64245334D02*
X141094667Y-64245334D01*
X141194667Y-64312000D01*
X141261333Y-64378667D01*
X141294667Y-64445334D01*
X141094667Y-63612000D02*
X141094667Y-63545333D01*
X141128000Y-63478667D01*
X141161333Y-63445333D01*
X141228000Y-63412000D01*
X141361333Y-63378667D01*
X141528000Y-63378667D01*
X141661333Y-63412000D01*
X141728000Y-63445333D01*
X141761333Y-63478667D01*
X141794667Y-63545333D01*
X141794667Y-63612000D01*
X141761333Y-63678667D01*
X141728000Y-63712000D01*
X141661333Y-63745333D01*
X141528000Y-63778667D01*
X141361333Y-63778667D01*
X141228000Y-63745333D01*
X141161333Y-63712000D01*
X141128000Y-63678667D01*
X141094667Y-63612000D01*
X150872000Y-123640000D02*
X150905333Y-123673334D01*
X150938667Y-123773334D01*
X150938667Y-123840000D01*
X150905333Y-123940000D01*
X150838667Y-124006667D01*
X150772000Y-124040000D01*
X150638667Y-124073334D01*
X150538667Y-124073334D01*
X150405333Y-124040000D01*
X150338667Y-124006667D01*
X150272000Y-123940000D01*
X150238667Y-123840000D01*
X150238667Y-123773334D01*
X150272000Y-123673334D01*
X150305333Y-123640000D01*
X150938667Y-122973334D02*
X150938667Y-123373334D01*
X150938667Y-123173334D02*
X150238667Y-123173334D01*
X150338667Y-123240000D01*
X150405333Y-123306667D01*
X150438667Y-123373334D01*
X150472000Y-122373333D02*
X150938667Y-122373333D01*
X150205333Y-122540000D02*
X150705333Y-122706667D01*
X150705333Y-122273333D01*
X145538000Y-115258000D02*
X145571333Y-115291334D01*
X145604667Y-115391334D01*
X145604667Y-115458000D01*
X145571333Y-115558000D01*
X145504667Y-115624667D01*
X145438000Y-115658000D01*
X145304667Y-115691334D01*
X145204667Y-115691334D01*
X145071333Y-115658000D01*
X145004667Y-115624667D01*
X144938000Y-115558000D01*
X144904667Y-115458000D01*
X144904667Y-115391334D01*
X144938000Y-115291334D01*
X144971333Y-115258000D01*
X145604667Y-114591334D02*
X145604667Y-114991334D01*
X145604667Y-114791334D02*
X144904667Y-114791334D01*
X145004667Y-114858000D01*
X145071333Y-114924667D01*
X145104667Y-114991334D01*
X145204667Y-114191333D02*
X145171333Y-114258000D01*
X145138000Y-114291333D01*
X145071333Y-114324667D01*
X145038000Y-114324667D01*
X144971333Y-114291333D01*
X144938000Y-114258000D01*
X144904667Y-114191333D01*
X144904667Y-114058000D01*
X144938000Y-113991333D01*
X144971333Y-113958000D01*
X145038000Y-113924667D01*
X145071333Y-113924667D01*
X145138000Y-113958000D01*
X145171333Y-113991333D01*
X145204667Y-114058000D01*
X145204667Y-114191333D01*
X145238000Y-114258000D01*
X145271333Y-114291333D01*
X145338000Y-114324667D01*
X145471333Y-114324667D01*
X145538000Y-114291333D01*
X145571333Y-114258000D01*
X145604667Y-114191333D01*
X145604667Y-114058000D01*
X145571333Y-113991333D01*
X145538000Y-113958000D01*
X145471333Y-113924667D01*
X145338000Y-113924667D01*
X145271333Y-113958000D01*
X145238000Y-113991333D01*
X145204667Y-114058000D01*
X128266000Y-115258000D02*
X128299333Y-115291334D01*
X128332667Y-115391334D01*
X128332667Y-115458000D01*
X128299333Y-115558000D01*
X128232667Y-115624667D01*
X128166000Y-115658000D01*
X128032667Y-115691334D01*
X127932667Y-115691334D01*
X127799333Y-115658000D01*
X127732667Y-115624667D01*
X127666000Y-115558000D01*
X127632667Y-115458000D01*
X127632667Y-115391334D01*
X127666000Y-115291334D01*
X127699333Y-115258000D01*
X128332667Y-114591334D02*
X128332667Y-114991334D01*
X128332667Y-114791334D02*
X127632667Y-114791334D01*
X127732667Y-114858000D01*
X127799333Y-114924667D01*
X127832667Y-114991334D01*
X128332667Y-114258000D02*
X128332667Y-114124667D01*
X128299333Y-114058000D01*
X128266000Y-114024667D01*
X128166000Y-113958000D01*
X128032667Y-113924667D01*
X127766000Y-113924667D01*
X127699333Y-113958000D01*
X127666000Y-113991333D01*
X127632667Y-114058000D01*
X127632667Y-114191333D01*
X127666000Y-114258000D01*
X127699333Y-114291333D01*
X127766000Y-114324667D01*
X127932667Y-114324667D01*
X127999333Y-114291333D01*
X128032667Y-114258000D01*
X128066000Y-114191333D01*
X128066000Y-114058000D01*
X128032667Y-113991333D01*
X127999333Y-113958000D01*
X127932667Y-113924667D01*
X148394000Y-71878000D02*
X148360666Y-71911333D01*
X148260666Y-71944667D01*
X148194000Y-71944667D01*
X148094000Y-71911333D01*
X148027333Y-71844667D01*
X147994000Y-71778000D01*
X147960666Y-71644667D01*
X147960666Y-71544667D01*
X147994000Y-71411333D01*
X148027333Y-71344667D01*
X148094000Y-71278000D01*
X148194000Y-71244667D01*
X148260666Y-71244667D01*
X148360666Y-71278000D01*
X148394000Y-71311333D01*
X148660666Y-71311333D02*
X148694000Y-71278000D01*
X148760666Y-71244667D01*
X148927333Y-71244667D01*
X148994000Y-71278000D01*
X149027333Y-71311333D01*
X149060666Y-71378000D01*
X149060666Y-71444667D01*
X149027333Y-71544667D01*
X148627333Y-71944667D01*
X149060666Y-71944667D01*
X149727333Y-71944667D02*
X149327333Y-71944667D01*
X149527333Y-71944667D02*
X149527333Y-71244667D01*
X149460667Y-71344667D01*
X149394000Y-71411333D01*
X149327333Y-71444667D01*
X131230001Y-56069040D02*
X131196667Y-56102373D01*
X131096667Y-56135707D01*
X131030001Y-56135707D01*
X130930001Y-56102373D01*
X130863334Y-56035707D01*
X130830001Y-55969040D01*
X130796667Y-55835707D01*
X130796667Y-55735707D01*
X130830001Y-55602373D01*
X130863334Y-55535707D01*
X130930001Y-55469040D01*
X131030001Y-55435707D01*
X131096667Y-55435707D01*
X131196667Y-55469040D01*
X131230001Y-55502373D01*
X131663334Y-55435707D02*
X131796667Y-55435707D01*
X131863334Y-55469040D01*
X131930001Y-55535707D01*
X131963334Y-55669040D01*
X131963334Y-55902373D01*
X131930001Y-56035707D01*
X131863334Y-56102373D01*
X131796667Y-56135707D01*
X131663334Y-56135707D01*
X131596667Y-56102373D01*
X131530001Y-56035707D01*
X131496667Y-55902373D01*
X131496667Y-55669040D01*
X131530001Y-55535707D01*
X131596667Y-55469040D01*
X131663334Y-55435707D01*
X132263334Y-56135707D02*
X132263334Y-55435707D01*
X132663334Y-56135707D01*
X132663334Y-55435707D01*
X132963333Y-55502373D02*
X132996667Y-55469040D01*
X133063333Y-55435707D01*
X133230000Y-55435707D01*
X133296667Y-55469040D01*
X133330000Y-55502373D01*
X133363333Y-55569040D01*
X133363333Y-55635707D01*
X133330000Y-55735707D01*
X132930000Y-56135707D01*
X133363333Y-56135707D01*
X148327334Y-45782667D02*
X148327334Y-45082667D01*
X148494000Y-45082667D01*
X148594000Y-45116000D01*
X148660667Y-45182667D01*
X148694000Y-45249333D01*
X148727334Y-45382667D01*
X148727334Y-45482667D01*
X148694000Y-45616000D01*
X148660667Y-45682667D01*
X148594000Y-45749333D01*
X148494000Y-45782667D01*
X148327334Y-45782667D01*
X148960667Y-45082667D02*
X149427334Y-45082667D01*
X149127334Y-45782667D01*
X148327334Y-43242667D02*
X148327334Y-42542667D01*
X148494000Y-42542667D01*
X148594000Y-42576000D01*
X148660667Y-42642667D01*
X148694000Y-42709333D01*
X148727334Y-42842667D01*
X148727334Y-42942667D01*
X148694000Y-43076000D01*
X148660667Y-43142667D01*
X148594000Y-43209333D01*
X148494000Y-43242667D01*
X148327334Y-43242667D01*
X149127334Y-42842667D02*
X149060667Y-42809333D01*
X149027334Y-42776000D01*
X148994000Y-42709333D01*
X148994000Y-42676000D01*
X149027334Y-42609333D01*
X149060667Y-42576000D01*
X149127334Y-42542667D01*
X149260667Y-42542667D01*
X149327334Y-42576000D01*
X149360667Y-42609333D01*
X149394000Y-42676000D01*
X149394000Y-42709333D01*
X149360667Y-42776000D01*
X149327334Y-42809333D01*
X149260667Y-42842667D01*
X149127334Y-42842667D01*
X149060667Y-42876000D01*
X149027334Y-42909333D01*
X148994000Y-42976000D01*
X148994000Y-43109333D01*
X149027334Y-43176000D01*
X149060667Y-43209333D01*
X149127334Y-43242667D01*
X149260667Y-43242667D01*
X149327334Y-43209333D01*
X149360667Y-43176000D01*
X149394000Y-43109333D01*
X149394000Y-42976000D01*
X149360667Y-42909333D01*
X149327334Y-42876000D01*
X149260667Y-42842667D01*
X115482000Y-63816667D02*
X115482000Y-63116667D01*
X115648666Y-63116667D01*
X115748666Y-63150000D01*
X115815333Y-63216667D01*
X115848666Y-63283333D01*
X115882000Y-63416667D01*
X115882000Y-63516667D01*
X115848666Y-63650000D01*
X115815333Y-63716667D01*
X115748666Y-63783333D01*
X115648666Y-63816667D01*
X115482000Y-63816667D01*
X116548666Y-63816667D02*
X116148666Y-63816667D01*
X116348666Y-63816667D02*
X116348666Y-63116667D01*
X116282000Y-63216667D01*
X116215333Y-63283333D01*
X116148666Y-63316667D01*
X116948667Y-63416667D02*
X116882000Y-63383333D01*
X116848667Y-63350000D01*
X116815333Y-63283333D01*
X116815333Y-63250000D01*
X116848667Y-63183333D01*
X116882000Y-63150000D01*
X116948667Y-63116667D01*
X117082000Y-63116667D01*
X117148667Y-63150000D01*
X117182000Y-63183333D01*
X117215333Y-63250000D01*
X117215333Y-63283333D01*
X117182000Y-63350000D01*
X117148667Y-63383333D01*
X117082000Y-63416667D01*
X116948667Y-63416667D01*
X116882000Y-63450000D01*
X116848667Y-63483333D01*
X116815333Y-63550000D01*
X116815333Y-63683333D01*
X116848667Y-63750000D01*
X116882000Y-63783333D01*
X116948667Y-63816667D01*
X117082000Y-63816667D01*
X117148667Y-63783333D01*
X117182000Y-63750000D01*
X117215333Y-63683333D01*
X117215333Y-63550000D01*
X117182000Y-63483333D01*
X117148667Y-63450000D01*
X117082000Y-63416667D01*
X127316667Y-59571666D02*
X126616667Y-59571666D01*
X126616667Y-59305000D01*
X126650000Y-59238333D01*
X126683333Y-59205000D01*
X126750000Y-59171666D01*
X126850000Y-59171666D01*
X126916667Y-59205000D01*
X126950000Y-59238333D01*
X126983333Y-59305000D01*
X126983333Y-59571666D01*
X127316667Y-58505000D02*
X127316667Y-58905000D01*
X127316667Y-58705000D02*
X126616667Y-58705000D01*
X126716667Y-58771666D01*
X126783333Y-58838333D01*
X126816667Y-58905000D01*
X128586667Y-76716666D02*
X127886667Y-76716666D01*
X127886667Y-76450000D01*
X127920000Y-76383333D01*
X127953333Y-76350000D01*
X128020000Y-76316666D01*
X128120000Y-76316666D01*
X128186667Y-76350000D01*
X128220000Y-76383333D01*
X128253333Y-76450000D01*
X128253333Y-76716666D01*
X127886667Y-76083333D02*
X127886667Y-75650000D01*
X128153333Y-75883333D01*
X128153333Y-75783333D01*
X128186667Y-75716666D01*
X128220000Y-75683333D01*
X128286667Y-75650000D01*
X128453333Y-75650000D01*
X128520000Y-75683333D01*
X128553333Y-75716666D01*
X128586667Y-75783333D01*
X128586667Y-75983333D01*
X128553333Y-76050000D01*
X128520000Y-76083333D01*
X118426667Y-76716666D02*
X117726667Y-76716666D01*
X117726667Y-76450000D01*
X117760000Y-76383333D01*
X117793333Y-76350000D01*
X117860000Y-76316666D01*
X117960000Y-76316666D01*
X118026667Y-76350000D01*
X118060000Y-76383333D01*
X118093333Y-76450000D01*
X118093333Y-76716666D01*
X117960000Y-75716666D02*
X118426667Y-75716666D01*
X117693333Y-75883333D02*
X118193333Y-76050000D01*
X118193333Y-75616666D01*
X118172667Y-90686666D02*
X117472667Y-90686666D01*
X117472667Y-90420000D01*
X117506000Y-90353333D01*
X117539333Y-90320000D01*
X117606000Y-90286666D01*
X117706000Y-90286666D01*
X117772667Y-90320000D01*
X117806000Y-90353333D01*
X117839333Y-90420000D01*
X117839333Y-90686666D01*
X117472667Y-89653333D02*
X117472667Y-89986666D01*
X117806000Y-90020000D01*
X117772667Y-89986666D01*
X117739333Y-89920000D01*
X117739333Y-89753333D01*
X117772667Y-89686666D01*
X117806000Y-89653333D01*
X117872667Y-89620000D01*
X118039333Y-89620000D01*
X118106000Y-89653333D01*
X118139333Y-89686666D01*
X118172667Y-89753333D01*
X118172667Y-89920000D01*
X118139333Y-89986666D01*
X118106000Y-90020000D01*
X128332667Y-90686666D02*
X127632667Y-90686666D01*
X127632667Y-90420000D01*
X127666000Y-90353333D01*
X127699333Y-90320000D01*
X127766000Y-90286666D01*
X127866000Y-90286666D01*
X127932667Y-90320000D01*
X127966000Y-90353333D01*
X127999333Y-90420000D01*
X127999333Y-90686666D01*
X127632667Y-89686666D02*
X127632667Y-89820000D01*
X127666000Y-89886666D01*
X127699333Y-89920000D01*
X127799333Y-89986666D01*
X127932667Y-90020000D01*
X128199333Y-90020000D01*
X128266000Y-89986666D01*
X128299333Y-89953333D01*
X128332667Y-89886666D01*
X128332667Y-89753333D01*
X128299333Y-89686666D01*
X128266000Y-89653333D01*
X128199333Y-89620000D01*
X128032667Y-89620000D01*
X127966000Y-89653333D01*
X127932667Y-89686666D01*
X127899333Y-89753333D01*
X127899333Y-89886666D01*
X127932667Y-89953333D01*
X127966000Y-89986666D01*
X128032667Y-90020000D01*
X156963334Y-112076667D02*
X156963334Y-111376667D01*
X157230000Y-111376667D01*
X157296667Y-111410000D01*
X157330000Y-111443333D01*
X157363334Y-111510000D01*
X157363334Y-111610000D01*
X157330000Y-111676667D01*
X157296667Y-111710000D01*
X157230000Y-111743333D01*
X156963334Y-111743333D01*
X157596667Y-111376667D02*
X158063334Y-111376667D01*
X157763334Y-112076667D01*
X156963334Y-122490667D02*
X156963334Y-121790667D01*
X157230000Y-121790667D01*
X157296667Y-121824000D01*
X157330000Y-121857333D01*
X157363334Y-121924000D01*
X157363334Y-122024000D01*
X157330000Y-122090667D01*
X157296667Y-122124000D01*
X157230000Y-122157333D01*
X156963334Y-122157333D01*
X157763334Y-122090667D02*
X157696667Y-122057333D01*
X157663334Y-122024000D01*
X157630000Y-121957333D01*
X157630000Y-121924000D01*
X157663334Y-121857333D01*
X157696667Y-121824000D01*
X157763334Y-121790667D01*
X157896667Y-121790667D01*
X157963334Y-121824000D01*
X157996667Y-121857333D01*
X158030000Y-121924000D01*
X158030000Y-121957333D01*
X157996667Y-122024000D01*
X157963334Y-122057333D01*
X157896667Y-122090667D01*
X157763334Y-122090667D01*
X157696667Y-122124000D01*
X157663334Y-122157333D01*
X157630000Y-122224000D01*
X157630000Y-122357333D01*
X157663334Y-122424000D01*
X157696667Y-122457333D01*
X157763334Y-122490667D01*
X157896667Y-122490667D01*
X157963334Y-122457333D01*
X157996667Y-122424000D01*
X158030000Y-122357333D01*
X158030000Y-122224000D01*
X157996667Y-122157333D01*
X157963334Y-122124000D01*
X157896667Y-122090667D01*
X151883334Y-94296667D02*
X151883334Y-93596667D01*
X152150000Y-93596667D01*
X152216667Y-93630000D01*
X152250000Y-93663333D01*
X152283334Y-93730000D01*
X152283334Y-93830000D01*
X152250000Y-93896667D01*
X152216667Y-93930000D01*
X152150000Y-93963333D01*
X151883334Y-93963333D01*
X152616667Y-94296667D02*
X152750000Y-94296667D01*
X152816667Y-94263333D01*
X152850000Y-94230000D01*
X152916667Y-94130000D01*
X152950000Y-93996667D01*
X152950000Y-93730000D01*
X152916667Y-93663333D01*
X152883334Y-93630000D01*
X152816667Y-93596667D01*
X152683334Y-93596667D01*
X152616667Y-93630000D01*
X152583334Y-93663333D01*
X152550000Y-93730000D01*
X152550000Y-93896667D01*
X152583334Y-93963333D01*
X152616667Y-93996667D01*
X152683334Y-94030000D01*
X152816667Y-94030000D01*
X152883334Y-93996667D01*
X152916667Y-93963333D01*
X152950000Y-93896667D01*
X156630000Y-84390667D02*
X156630000Y-83690667D01*
X156896666Y-83690667D01*
X156963333Y-83724000D01*
X156996666Y-83757333D01*
X157030000Y-83824000D01*
X157030000Y-83924000D01*
X156996666Y-83990667D01*
X156963333Y-84024000D01*
X156896666Y-84057333D01*
X156630000Y-84057333D01*
X157696666Y-84390667D02*
X157296666Y-84390667D01*
X157496666Y-84390667D02*
X157496666Y-83690667D01*
X157430000Y-83790667D01*
X157363333Y-83857333D01*
X157296666Y-83890667D01*
X158363333Y-84390667D02*
X157963333Y-84390667D01*
X158163333Y-84390667D02*
X158163333Y-83690667D01*
X158096667Y-83790667D01*
X158030000Y-83857333D01*
X157963333Y-83890667D01*
X151550000Y-125030667D02*
X151550000Y-124330667D01*
X151816666Y-124330667D01*
X151883333Y-124364000D01*
X151916666Y-124397333D01*
X151950000Y-124464000D01*
X151950000Y-124564000D01*
X151916666Y-124630667D01*
X151883333Y-124664000D01*
X151816666Y-124697333D01*
X151550000Y-124697333D01*
X152616666Y-125030667D02*
X152216666Y-125030667D01*
X152416666Y-125030667D02*
X152416666Y-124330667D01*
X152350000Y-124430667D01*
X152283333Y-124497333D01*
X152216666Y-124530667D01*
X152883333Y-124397333D02*
X152916667Y-124364000D01*
X152983333Y-124330667D01*
X153150000Y-124330667D01*
X153216667Y-124364000D01*
X153250000Y-124397333D01*
X153283333Y-124464000D01*
X153283333Y-124530667D01*
X153250000Y-124630667D01*
X152850000Y-125030667D01*
X153283333Y-125030667D01*
X156630000Y-94296667D02*
X156630000Y-93596667D01*
X156896666Y-93596667D01*
X156963333Y-93630000D01*
X156996666Y-93663333D01*
X157030000Y-93730000D01*
X157030000Y-93830000D01*
X156996666Y-93896667D01*
X156963333Y-93930000D01*
X156896666Y-93963333D01*
X156630000Y-93963333D01*
X157696666Y-94296667D02*
X157296666Y-94296667D01*
X157496666Y-94296667D02*
X157496666Y-93596667D01*
X157430000Y-93696667D01*
X157363333Y-93763333D01*
X157296666Y-93796667D01*
X157930000Y-93596667D02*
X158363333Y-93596667D01*
X158130000Y-93863333D01*
X158230000Y-93863333D01*
X158296667Y-93896667D01*
X158330000Y-93930000D01*
X158363333Y-93996667D01*
X158363333Y-94163333D01*
X158330000Y-94230000D01*
X158296667Y-94263333D01*
X158230000Y-94296667D01*
X158030000Y-94296667D01*
X157963333Y-94263333D01*
X157930000Y-94230000D01*
X155256667Y-66890000D02*
X154556667Y-66890000D01*
X154556667Y-66623334D01*
X154590000Y-66556667D01*
X154623333Y-66523334D01*
X154690000Y-66490000D01*
X154790000Y-66490000D01*
X154856667Y-66523334D01*
X154890000Y-66556667D01*
X154923333Y-66623334D01*
X154923333Y-66890000D01*
X155256667Y-65823334D02*
X155256667Y-66223334D01*
X155256667Y-66023334D02*
X154556667Y-66023334D01*
X154656667Y-66090000D01*
X154723333Y-66156667D01*
X154756667Y-66223334D01*
X154790000Y-65223333D02*
X155256667Y-65223333D01*
X154523333Y-65390000D02*
X155023333Y-65556667D01*
X155023333Y-65123333D01*
X141028000Y-49084667D02*
X140794666Y-48751333D01*
X140628000Y-49084667D02*
X140628000Y-48384667D01*
X140894666Y-48384667D01*
X140961333Y-48418000D01*
X140994666Y-48451333D01*
X141028000Y-48518000D01*
X141028000Y-48618000D01*
X140994666Y-48684667D01*
X140961333Y-48718000D01*
X140894666Y-48751333D01*
X140628000Y-48751333D01*
X141694666Y-49084667D02*
X141294666Y-49084667D01*
X141494666Y-49084667D02*
X141494666Y-48384667D01*
X141428000Y-48484667D01*
X141361333Y-48551333D01*
X141294666Y-48584667D01*
X142361333Y-49084667D02*
X141961333Y-49084667D01*
X142161333Y-49084667D02*
X142161333Y-48384667D01*
X142094667Y-48484667D01*
X142028000Y-48551333D01*
X141961333Y-48584667D01*
X140524667Y-46424000D02*
X140191333Y-46657334D01*
X140524667Y-46824000D02*
X139824667Y-46824000D01*
X139824667Y-46557334D01*
X139858000Y-46490667D01*
X139891333Y-46457334D01*
X139958000Y-46424000D01*
X140058000Y-46424000D01*
X140124667Y-46457334D01*
X140158000Y-46490667D01*
X140191333Y-46557334D01*
X140191333Y-46824000D01*
X140524667Y-45757334D02*
X140524667Y-46157334D01*
X140524667Y-45957334D02*
X139824667Y-45957334D01*
X139924667Y-46024000D01*
X139991333Y-46090667D01*
X140024667Y-46157334D01*
X139891333Y-45490667D02*
X139858000Y-45457333D01*
X139824667Y-45390667D01*
X139824667Y-45224000D01*
X139858000Y-45157333D01*
X139891333Y-45124000D01*
X139958000Y-45090667D01*
X140024667Y-45090667D01*
X140124667Y-45124000D01*
X140524667Y-45524000D01*
X140524667Y-45090667D01*
X148394000Y-74230667D02*
X148160666Y-73897333D01*
X147994000Y-74230667D02*
X147994000Y-73530667D01*
X148260666Y-73530667D01*
X148327333Y-73564000D01*
X148360666Y-73597333D01*
X148394000Y-73664000D01*
X148394000Y-73764000D01*
X148360666Y-73830667D01*
X148327333Y-73864000D01*
X148260666Y-73897333D01*
X147994000Y-73897333D01*
X149060666Y-74230667D02*
X148660666Y-74230667D01*
X148860666Y-74230667D02*
X148860666Y-73530667D01*
X148794000Y-73630667D01*
X148727333Y-73697333D01*
X148660666Y-73730667D01*
X149294000Y-73530667D02*
X149727333Y-73530667D01*
X149494000Y-73797333D01*
X149594000Y-73797333D01*
X149660667Y-73830667D01*
X149694000Y-73864000D01*
X149727333Y-73930667D01*
X149727333Y-74097333D01*
X149694000Y-74164000D01*
X149660667Y-74197333D01*
X149594000Y-74230667D01*
X149394000Y-74230667D01*
X149327333Y-74197333D01*
X149294000Y-74164000D01*
X148394000Y-69150667D02*
X148160666Y-68817333D01*
X147994000Y-69150667D02*
X147994000Y-68450667D01*
X148260666Y-68450667D01*
X148327333Y-68484000D01*
X148360666Y-68517333D01*
X148394000Y-68584000D01*
X148394000Y-68684000D01*
X148360666Y-68750667D01*
X148327333Y-68784000D01*
X148260666Y-68817333D01*
X147994000Y-68817333D01*
X149060666Y-69150667D02*
X148660666Y-69150667D01*
X148860666Y-69150667D02*
X148860666Y-68450667D01*
X148794000Y-68550667D01*
X148727333Y-68617333D01*
X148660666Y-68650667D01*
X149660667Y-68684000D02*
X149660667Y-69150667D01*
X149494000Y-68417333D02*
X149327333Y-68917333D01*
X149760667Y-68917333D01*
X119946000Y-67626667D02*
X119712666Y-67293333D01*
X119546000Y-67626667D02*
X119546000Y-66926667D01*
X119812666Y-66926667D01*
X119879333Y-66960000D01*
X119912666Y-66993333D01*
X119946000Y-67060000D01*
X119946000Y-67160000D01*
X119912666Y-67226667D01*
X119879333Y-67260000D01*
X119812666Y-67293333D01*
X119546000Y-67293333D01*
X120612666Y-67626667D02*
X120212666Y-67626667D01*
X120412666Y-67626667D02*
X120412666Y-66926667D01*
X120346000Y-67026667D01*
X120279333Y-67093333D01*
X120212666Y-67126667D01*
X121246000Y-66926667D02*
X120912667Y-66926667D01*
X120879333Y-67260000D01*
X120912667Y-67226667D01*
X120979333Y-67193333D01*
X121146000Y-67193333D01*
X121212667Y-67226667D01*
X121246000Y-67260000D01*
X121279333Y-67326667D01*
X121279333Y-67493333D01*
X121246000Y-67560000D01*
X121212667Y-67593333D01*
X121146000Y-67626667D01*
X120979333Y-67626667D01*
X120912667Y-67593333D01*
X120879333Y-67560000D01*
X152208667Y-56213999D02*
X151875333Y-56447333D01*
X152208667Y-56613999D02*
X151508667Y-56613999D01*
X151508667Y-56347333D01*
X151542000Y-56280666D01*
X151575333Y-56247333D01*
X151642000Y-56213999D01*
X151742000Y-56213999D01*
X151808667Y-56247333D01*
X151842000Y-56280666D01*
X151875333Y-56347333D01*
X151875333Y-56613999D01*
X151842000Y-55913999D02*
X151842000Y-55680666D01*
X152208667Y-55580666D02*
X152208667Y-55913999D01*
X151508667Y-55913999D01*
X151508667Y-55580666D01*
X152175333Y-55314000D02*
X152208667Y-55214000D01*
X152208667Y-55047333D01*
X152175333Y-54980666D01*
X152142000Y-54947333D01*
X152075333Y-54914000D01*
X152008667Y-54914000D01*
X151942000Y-54947333D01*
X151908667Y-54980666D01*
X151875333Y-55047333D01*
X151842000Y-55180666D01*
X151808667Y-55247333D01*
X151775333Y-55280666D01*
X151708667Y-55314000D01*
X151642000Y-55314000D01*
X151575333Y-55280666D01*
X151542000Y-55247333D01*
X151508667Y-55180666D01*
X151508667Y-55014000D01*
X151542000Y-54914000D01*
X151842000Y-54613999D02*
X151842000Y-54380666D01*
X152208667Y-54280666D02*
X152208667Y-54613999D01*
X151508667Y-54613999D01*
X151508667Y-54280666D01*
X151508667Y-54080666D02*
X151508667Y-53680666D01*
X152208667Y-53880666D02*
X151508667Y-53880666D01*
X152208667Y-53080667D02*
X152208667Y-53480667D01*
X152208667Y-53280667D02*
X151508667Y-53280667D01*
X151608667Y-53347333D01*
X151675333Y-53414000D01*
X151708667Y-53480667D01*
X116306667Y-61846667D02*
X116306667Y-62413333D01*
X116340000Y-62480000D01*
X116373333Y-62513333D01*
X116440000Y-62546667D01*
X116573333Y-62546667D01*
X116640000Y-62513333D01*
X116673333Y-62480000D01*
X116706667Y-62413333D01*
X116706667Y-61846667D01*
X117406666Y-62546667D02*
X117006666Y-62546667D01*
X117206666Y-62546667D02*
X117206666Y-61846667D01*
X117140000Y-61946667D01*
X117073333Y-62013333D01*
X117006666Y-62046667D01*
X129514667Y-67942667D02*
X129514667Y-68509333D01*
X129548000Y-68576000D01*
X129581333Y-68609333D01*
X129648000Y-68642667D01*
X129781333Y-68642667D01*
X129848000Y-68609333D01*
X129881333Y-68576000D01*
X129914667Y-68509333D01*
X129914667Y-67942667D01*
X130214666Y-68009333D02*
X130248000Y-67976000D01*
X130314666Y-67942667D01*
X130481333Y-67942667D01*
X130548000Y-67976000D01*
X130581333Y-68009333D01*
X130614666Y-68076000D01*
X130614666Y-68142667D01*
X130581333Y-68242667D01*
X130181333Y-68642667D01*
X130614666Y-68642667D01*
X144142667Y-100863333D02*
X144709333Y-100863333D01*
X144776000Y-100830000D01*
X144809333Y-100796667D01*
X144842667Y-100730000D01*
X144842667Y-100596667D01*
X144809333Y-100530000D01*
X144776000Y-100496667D01*
X144709333Y-100463333D01*
X144142667Y-100463333D01*
X144376000Y-99830000D02*
X144842667Y-99830000D01*
X144109333Y-99996667D02*
X144609333Y-100163334D01*
X144609333Y-99730000D01*
X136593333Y-116710667D02*
X137060000Y-117410667D01*
X137060000Y-116710667D02*
X136593333Y-117410667D01*
X137293333Y-116777333D02*
X137326667Y-116744000D01*
X137393333Y-116710667D01*
X137560000Y-116710667D01*
X137626667Y-116744000D01*
X137660000Y-116777333D01*
X137693333Y-116844000D01*
X137693333Y-116910667D01*
X137660000Y-117010667D01*
X137260000Y-117410667D01*
X137693333Y-117410667D01*
X115053334Y-100900667D02*
X115053334Y-100200667D01*
X115320000Y-100200667D01*
X115386667Y-100234000D01*
X115420000Y-100267333D01*
X115453334Y-100334000D01*
X115453334Y-100434000D01*
X115420000Y-100500667D01*
X115386667Y-100534000D01*
X115320000Y-100567333D01*
X115053334Y-100567333D01*
X115720000Y-100267333D02*
X115753334Y-100234000D01*
X115820000Y-100200667D01*
X115986667Y-100200667D01*
X116053334Y-100234000D01*
X116086667Y-100267333D01*
X116120000Y-100334000D01*
X116120000Y-100400667D01*
X116086667Y-100500667D01*
X115686667Y-100900667D01*
X116120000Y-100900667D01*
X122340000Y-100900667D02*
X122340000Y-100200667D01*
X122606666Y-100200667D01*
X122673333Y-100234000D01*
X122706666Y-100267333D01*
X122740000Y-100334000D01*
X122740000Y-100434000D01*
X122706666Y-100500667D01*
X122673333Y-100534000D01*
X122606666Y-100567333D01*
X122340000Y-100567333D01*
X123406666Y-100900667D02*
X123006666Y-100900667D01*
X123206666Y-100900667D02*
X123206666Y-100200667D01*
X123140000Y-100300667D01*
X123073333Y-100367333D01*
X123006666Y-100400667D01*
X124040000Y-100200667D02*
X123706667Y-100200667D01*
X123673333Y-100534000D01*
X123706667Y-100500667D01*
X123773333Y-100467333D01*
X123940000Y-100467333D01*
X124006667Y-100500667D01*
X124040000Y-100534000D01*
X124073333Y-100600667D01*
X124073333Y-100767333D01*
X124040000Y-100834000D01*
X124006667Y-100867333D01*
X123940000Y-100900667D01*
X123773333Y-100900667D01*
X123706667Y-100867333D01*
X123673333Y-100834000D01*
X151550000Y-84390667D02*
X151550000Y-83690667D01*
X151816666Y-83690667D01*
X151883333Y-83724000D01*
X151916666Y-83757333D01*
X151950000Y-83824000D01*
X151950000Y-83924000D01*
X151916666Y-83990667D01*
X151883333Y-84024000D01*
X151816666Y-84057333D01*
X151550000Y-84057333D01*
X152616666Y-84390667D02*
X152216666Y-84390667D01*
X152416666Y-84390667D02*
X152416666Y-83690667D01*
X152350000Y-83790667D01*
X152283333Y-83857333D01*
X152216666Y-83890667D01*
X153216667Y-83690667D02*
X153083333Y-83690667D01*
X153016667Y-83724000D01*
X152983333Y-83757333D01*
X152916667Y-83857333D01*
X152883333Y-83990667D01*
X152883333Y-84257333D01*
X152916667Y-84324000D01*
X152950000Y-84357333D01*
X153016667Y-84390667D01*
X153150000Y-84390667D01*
X153216667Y-84357333D01*
X153250000Y-84324000D01*
X153283333Y-84257333D01*
X153283333Y-84090667D01*
X153250000Y-84024000D01*
X153216667Y-83990667D01*
X153150000Y-83957333D01*
X153016667Y-83957333D01*
X152950000Y-83990667D01*
X152916667Y-84024000D01*
X152883333Y-84090667D01*
M02*
