G04 #@! TF.FileFunction,Copper,L1,Top,Signal*
%FSLAX46Y46*%
G04 Gerber Fmt 4.6, Leading zero omitted, Abs format (unit mm)*
G04 Created by KiCad (PCBNEW (2015-03-23 BZR 5533)-product) date Tue 21 Apr 2015 08:53:39 SAST*
%MOMM*%
G01*
G04 APERTURE LIST*
%ADD10C,0.100000*%
%ADD11R,1.600000X1.000000*%
%ADD12R,1.000000X1.600000*%
%ADD13R,3.500120X3.500120*%
%ADD14R,1.800860X1.597660*%
%ADD15R,1.597660X1.800860*%
%ADD16R,1.727200X2.032000*%
%ADD17O,1.727200X2.032000*%
%ADD18R,2.032000X1.727200*%
%ADD19O,2.032000X1.727200*%
%ADD20R,2.032000X2.032000*%
%ADD21O,2.032000X2.032000*%
%ADD22R,0.900000X1.700000*%
%ADD23R,1.300000X1.550000*%
%ADD24R,1.550000X1.300000*%
%ADD25R,6.000000X8.000000*%
%ADD26R,2.032000X1.016000*%
%ADD27R,1.000000X0.400000*%
%ADD28R,0.300000X1.500000*%
%ADD29R,1.500000X0.300000*%
%ADD30R,3.000000X2.300000*%
%ADD31C,4.000000*%
%ADD32R,1.727200X1.727200*%
%ADD33O,1.727200X1.727200*%
%ADD34C,0.600000*%
%ADD35C,0.400000*%
%ADD36C,0.250000*%
%ADD37C,0.800000*%
G04 APERTURE END LIST*
D10*
D11*
X138430000Y-51205000D03*
X138430000Y-54205000D03*
X142240000Y-51205000D03*
X142240000Y-54205000D03*
X119380000Y-105640000D03*
X119380000Y-102640000D03*
X119380000Y-108482000D03*
X119380000Y-111482000D03*
X143002000Y-61190000D03*
X143002000Y-58190000D03*
X139700000Y-61365000D03*
X139700000Y-64365000D03*
X152400000Y-120420000D03*
X152400000Y-123420000D03*
X143510000Y-114530000D03*
X143510000Y-111530000D03*
X129794000Y-111530000D03*
X129794000Y-114530000D03*
D12*
X150900000Y-72136000D03*
X153900000Y-72136000D03*
D13*
X132080000Y-51920140D03*
X132080000Y-45920660D03*
X127381000Y-48920400D03*
D14*
X128270000Y-126850140D03*
X128270000Y-129689860D03*
X132080000Y-126850140D03*
X132080000Y-129689860D03*
X135890000Y-126850140D03*
X135890000Y-129689860D03*
X139700000Y-126850140D03*
X139700000Y-129689860D03*
X143510000Y-126850140D03*
X143510000Y-129689860D03*
X147320000Y-126850140D03*
X147320000Y-129689860D03*
D15*
X147424140Y-47752000D03*
X150263860Y-47752000D03*
X147170140Y-44450000D03*
X150009860Y-44450000D03*
X114785140Y-65405000D03*
X117624860Y-65405000D03*
D16*
X129540000Y-58420000D03*
D17*
X132080000Y-58420000D03*
X134620000Y-58420000D03*
D18*
X125730000Y-73660000D03*
D19*
X125730000Y-76200000D03*
X125730000Y-78740000D03*
D18*
X115570000Y-73660000D03*
D19*
X115570000Y-76200000D03*
X115570000Y-78740000D03*
D18*
X115570000Y-87630000D03*
D19*
X115570000Y-90170000D03*
X115570000Y-92710000D03*
D18*
X125730000Y-87630000D03*
D19*
X125730000Y-90170000D03*
X125730000Y-92710000D03*
D18*
X157480000Y-114300000D03*
D19*
X157480000Y-116840000D03*
X157480000Y-119380000D03*
D18*
X157480000Y-124460000D03*
D19*
X157480000Y-127000000D03*
X157480000Y-129540000D03*
D18*
X152400000Y-96520000D03*
D19*
X152400000Y-99060000D03*
X152400000Y-101600000D03*
X152400000Y-104140000D03*
X152400000Y-106680000D03*
X152400000Y-109220000D03*
X152400000Y-111760000D03*
X152400000Y-114300000D03*
D18*
X157480000Y-86360000D03*
D19*
X157480000Y-88900000D03*
X157480000Y-91440000D03*
D20*
X152400000Y-127000000D03*
D21*
X152400000Y-129540000D03*
D18*
X157480000Y-96520000D03*
D19*
X157480000Y-99060000D03*
X157480000Y-101600000D03*
X157480000Y-104140000D03*
X157480000Y-106680000D03*
X157480000Y-109220000D03*
D18*
X157480000Y-66040000D03*
D19*
X157480000Y-68580000D03*
X157480000Y-71120000D03*
X157480000Y-73660000D03*
X157480000Y-76200000D03*
X157480000Y-78740000D03*
D22*
X141552000Y-47752000D03*
X144452000Y-47752000D03*
X141425000Y-44450000D03*
X144325000Y-44450000D03*
X150950000Y-74676000D03*
X153850000Y-74676000D03*
X150950000Y-69596000D03*
X153850000Y-69596000D03*
X119835000Y-65405000D03*
X122735000Y-65405000D03*
D23*
X158460000Y-59855000D03*
X153960000Y-59855000D03*
X153960000Y-51905000D03*
X158460000Y-51905000D03*
D24*
X115405000Y-130520000D03*
X115405000Y-126020000D03*
X123355000Y-126020000D03*
X123355000Y-130520000D03*
X123355000Y-117765000D03*
X123355000Y-122265000D03*
X115405000Y-122265000D03*
X115405000Y-117765000D03*
D25*
X115808000Y-58420000D03*
D26*
X121412000Y-58420000D03*
X121412000Y-56134000D03*
X121412000Y-60706000D03*
D27*
X130450000Y-62495000D03*
X130450000Y-63145000D03*
X130450000Y-63795000D03*
X130450000Y-64445000D03*
X130450000Y-65095000D03*
X130450000Y-65745000D03*
X130450000Y-66395000D03*
X130450000Y-67045000D03*
X136250000Y-67045000D03*
X136250000Y-66395000D03*
X136250000Y-65745000D03*
X136250000Y-65095000D03*
X136250000Y-64445000D03*
X136250000Y-63795000D03*
X136250000Y-63145000D03*
X136250000Y-62495000D03*
D28*
X140910000Y-94630000D03*
X140410000Y-94630000D03*
X139910000Y-94630000D03*
X139410000Y-94630000D03*
X138910000Y-94630000D03*
X138410000Y-94630000D03*
X137910000Y-94630000D03*
X137410000Y-94630000D03*
X136910000Y-94630000D03*
X136410000Y-94630000D03*
X135910000Y-94630000D03*
X135410000Y-94630000D03*
X134910000Y-94630000D03*
X134410000Y-94630000D03*
X133910000Y-94630000D03*
X133410000Y-94630000D03*
D29*
X131460000Y-96580000D03*
X131460000Y-97080000D03*
X131460000Y-97580000D03*
X131460000Y-98080000D03*
X131460000Y-98580000D03*
X131460000Y-99080000D03*
X131460000Y-99580000D03*
X131460000Y-100080000D03*
X131460000Y-100580000D03*
X131460000Y-101080000D03*
X131460000Y-101580000D03*
X131460000Y-102080000D03*
X131460000Y-102580000D03*
X131460000Y-103080000D03*
X131460000Y-103580000D03*
X131460000Y-104080000D03*
D28*
X133410000Y-106030000D03*
X133910000Y-106030000D03*
X134410000Y-106030000D03*
X134910000Y-106030000D03*
X135410000Y-106030000D03*
X135910000Y-106030000D03*
X136410000Y-106030000D03*
X136910000Y-106030000D03*
X137410000Y-106030000D03*
X137910000Y-106030000D03*
X138410000Y-106030000D03*
X138910000Y-106030000D03*
X139410000Y-106030000D03*
X139910000Y-106030000D03*
X140410000Y-106030000D03*
X140910000Y-106030000D03*
D29*
X142860000Y-104080000D03*
X142860000Y-103580000D03*
X142860000Y-103080000D03*
X142860000Y-102580000D03*
X142860000Y-102080000D03*
X142860000Y-101580000D03*
X142860000Y-101080000D03*
X142860000Y-100580000D03*
X142860000Y-100080000D03*
X142860000Y-99580000D03*
X142860000Y-99080000D03*
X142860000Y-98580000D03*
X142860000Y-98080000D03*
X142860000Y-97580000D03*
X142860000Y-97080000D03*
X142860000Y-96580000D03*
D30*
X139960000Y-114780000D03*
X134360000Y-111280000D03*
X134360000Y-114780000D03*
X139960000Y-111280000D03*
D31*
X116840000Y-135890000D03*
X156210000Y-46990000D03*
X116840000Y-46990000D03*
X156210000Y-135890000D03*
D18*
X115570000Y-102870000D03*
D19*
X115570000Y-105410000D03*
X115570000Y-107950000D03*
X115570000Y-110490000D03*
X115570000Y-113030000D03*
D18*
X123190000Y-102870000D03*
D19*
X123190000Y-105410000D03*
X123190000Y-107950000D03*
X123190000Y-110490000D03*
X123190000Y-113030000D03*
D18*
X152400000Y-86360000D03*
D19*
X152400000Y-88900000D03*
X152400000Y-91440000D03*
D32*
X122555000Y-137160000D03*
D33*
X122555000Y-134620000D03*
X125095000Y-137160000D03*
X125095000Y-134620000D03*
X127635000Y-137160000D03*
X127635000Y-134620000D03*
X130175000Y-137160000D03*
X130175000Y-134620000D03*
X132715000Y-137160000D03*
X132715000Y-134620000D03*
X135255000Y-137160000D03*
X135255000Y-134620000D03*
X137795000Y-137160000D03*
X137795000Y-134620000D03*
X140335000Y-137160000D03*
X140335000Y-134620000D03*
X142875000Y-137160000D03*
X142875000Y-134620000D03*
X145415000Y-137160000D03*
X145415000Y-134620000D03*
X147955000Y-137160000D03*
X147955000Y-134620000D03*
X150495000Y-137160000D03*
X150495000Y-134620000D03*
D34*
X122682000Y-51308000D03*
X124714000Y-44450000D03*
X135382000Y-69850000D03*
X132334000Y-86106000D03*
X151892000Y-78486000D03*
X115316000Y-97536000D03*
X152908000Y-64516000D03*
X116840000Y-82550000D03*
X117348000Y-50419000D03*
X119888000Y-48133000D03*
X135509000Y-44323000D03*
X139573000Y-52832000D03*
X139700000Y-116586000D03*
X131572000Y-116078000D03*
X151384000Y-61722000D03*
X141478000Y-49530000D03*
X137160000Y-96774000D03*
X136398000Y-60706000D03*
X154178000Y-84582000D03*
X156210000Y-50038000D03*
X159004000Y-57150000D03*
X132080000Y-110744000D03*
X129286000Y-75438000D03*
X133858000Y-98552000D03*
X137160000Y-103378000D03*
X132842000Y-67564000D03*
X124460000Y-64770000D03*
X145034000Y-52324000D03*
X159512000Y-62992000D03*
X152654000Y-51308000D03*
X119380000Y-117856000D03*
X118618000Y-130556000D03*
X123355000Y-132334000D03*
X127508000Y-132334000D03*
X125222000Y-118110000D03*
X145288000Y-115316000D03*
X129286000Y-124714000D03*
X131318000Y-124714000D03*
X136525000Y-124714000D03*
X138811000Y-124714000D03*
X142621000Y-124714000D03*
X146304000Y-124460000D03*
X136144000Y-103378000D03*
X137922000Y-47752000D03*
X123698000Y-61722000D03*
X136144000Y-96774000D03*
X143256000Y-68580000D03*
X125095000Y-58420000D03*
X140970000Y-100330000D03*
X133604000Y-101346000D03*
X133604000Y-96774000D03*
X124968000Y-125476000D03*
X120650000Y-115824000D03*
X130048000Y-68580000D03*
X137668000Y-68580000D03*
X128778000Y-61976000D03*
X142748000Y-109220000D03*
X120650000Y-124460000D03*
X142494000Y-109982000D03*
X116840000Y-123698000D03*
X150622000Y-123698000D03*
X128524000Y-105664000D03*
X146304000Y-100330000D03*
X122555000Y-87630000D03*
X122555000Y-81026000D03*
X117602000Y-96012000D03*
X126746000Y-62484000D03*
X122555000Y-73660000D03*
X128270000Y-67310000D03*
X128778000Y-124079000D03*
X128778000Y-97028000D03*
X128270000Y-131572000D03*
X132080000Y-124206000D03*
X126492000Y-107950000D03*
X132080000Y-131572000D03*
X135890000Y-124206000D03*
X128016000Y-108204000D03*
X135890000Y-131445000D03*
X139700000Y-124206000D03*
X128016000Y-109728000D03*
X139700000Y-131445000D03*
X143510000Y-124206000D03*
X127000000Y-104140000D03*
X143510000Y-131445000D03*
X127762000Y-102362000D03*
X147320000Y-124206000D03*
X147320000Y-131445000D03*
X150749000Y-59309000D03*
X150876000Y-60579000D03*
X133604000Y-91948000D03*
X136398000Y-91694000D03*
X141986000Y-94488000D03*
X143510000Y-95504000D03*
X155194000Y-111252000D03*
X154940000Y-105918000D03*
X130048000Y-91440000D03*
X137668000Y-87884000D03*
X137922000Y-88646000D03*
X132080000Y-90424000D03*
X135128000Y-89408000D03*
X139446000Y-89408000D03*
X127508000Y-122428000D03*
X131572000Y-109982000D03*
X126492000Y-122428000D03*
X130810000Y-109474000D03*
X132588000Y-119126000D03*
X139446000Y-109474000D03*
X131826000Y-123063000D03*
X136906000Y-92456000D03*
X134620000Y-123444000D03*
X134112000Y-122682000D03*
X136906000Y-121158000D03*
X138684000Y-120396000D03*
X138430000Y-119634000D03*
X145796000Y-116332000D03*
X143510000Y-108712000D03*
X147066000Y-101092000D03*
X140970000Y-96774000D03*
X145034000Y-124714000D03*
X127254000Y-101600000D03*
X138430000Y-109220000D03*
X131572000Y-118618000D03*
X131064000Y-132334000D03*
X149098000Y-121666000D03*
X136144000Y-109474000D03*
X127254000Y-99314000D03*
X149860000Y-122174000D03*
X136144000Y-108458000D03*
X128778000Y-100330000D03*
X126746000Y-97282000D03*
X142748000Y-91694000D03*
X142748000Y-89662000D03*
X139192000Y-91948000D03*
X142748000Y-94996000D03*
X144526000Y-107696000D03*
X154686000Y-78994000D03*
X144272000Y-106934000D03*
X138176000Y-89408000D03*
X139573000Y-85344000D03*
X140208000Y-70739000D03*
X143764000Y-92964000D03*
X140970000Y-71247000D03*
X144526000Y-92710000D03*
X144780000Y-91948000D03*
X141732000Y-69850000D03*
X146050000Y-92456000D03*
X142494000Y-70358000D03*
X131064000Y-106680000D03*
X131826000Y-105410000D03*
X135890000Y-121920000D03*
X134366000Y-131826000D03*
D35*
X142240000Y-51205000D02*
X142240000Y-50292000D01*
X141478000Y-49530000D02*
X138430000Y-49530000D01*
X142240000Y-50292000D02*
X141478000Y-49530000D01*
X138430000Y-51205000D02*
X138430000Y-49530000D01*
X136525000Y-56515000D02*
X136525000Y-50165000D01*
X136525000Y-50165000D02*
X137160000Y-49530000D01*
X137160000Y-49530000D02*
X138430000Y-49530000D01*
X134620000Y-58420000D02*
X136525000Y-56515000D01*
D36*
X136910000Y-96524000D02*
X136910000Y-94630000D01*
X136910000Y-96524000D02*
X137160000Y-96774000D01*
X154432000Y-72136000D02*
X155067000Y-72136000D01*
X153900000Y-72136000D02*
X154432000Y-72136000D01*
X155067000Y-72136000D02*
X156083000Y-71120000D01*
X142240000Y-54205000D02*
X142240000Y-53086000D01*
X144121000Y-52324000D02*
X145034000Y-52324000D01*
X143002000Y-52324000D02*
X144121000Y-52324000D01*
X142240000Y-53086000D02*
X143002000Y-52324000D01*
X143002000Y-58190000D02*
X143002000Y-56896000D01*
X142240000Y-56134000D02*
X142240000Y-54205000D01*
X143002000Y-56896000D02*
X142240000Y-56134000D01*
X137414000Y-59690000D02*
X138430000Y-58674000D01*
X136398000Y-60706000D02*
X137414000Y-59690000D01*
X138430000Y-58674000D02*
X138430000Y-54205000D01*
X124460000Y-64770000D02*
X124714000Y-64516000D01*
X124714000Y-64516000D02*
X124714000Y-60706000D01*
X158460000Y-57150000D02*
X159004000Y-57150000D01*
X131826000Y-111280000D02*
X131826000Y-110998000D01*
X131826000Y-110998000D02*
X132080000Y-110744000D01*
X129794000Y-111530000D02*
X131548000Y-111530000D01*
X131798000Y-111280000D02*
X131826000Y-111280000D01*
X131826000Y-111280000D02*
X134360000Y-111280000D01*
X131548000Y-111530000D02*
X131798000Y-111280000D01*
X130044000Y-111280000D02*
X129794000Y-111530000D01*
X133858000Y-98552000D02*
X133822000Y-98588000D01*
X133604000Y-100330000D02*
X133858000Y-100076000D01*
X133858000Y-100076000D02*
X133858000Y-98624000D01*
X133858000Y-98624000D02*
X133822000Y-98588000D01*
X133354000Y-100580000D02*
X131460000Y-100580000D01*
X133354000Y-100580000D02*
X133604000Y-100330000D01*
X131460000Y-98080000D02*
X133314000Y-98080000D01*
X133822000Y-98588000D02*
X133314000Y-98080000D01*
X137160000Y-103378000D02*
X137410000Y-103628000D01*
X137410000Y-103628000D02*
X137410000Y-106030000D01*
X123825000Y-65405000D02*
X122735000Y-65405000D01*
X124460000Y-64770000D02*
X123825000Y-65405000D01*
X136398000Y-60706000D02*
X132334000Y-60706000D01*
X126746000Y-60706000D02*
X132334000Y-60706000D01*
X126746000Y-60706000D02*
X124714000Y-60706000D01*
X124714000Y-60706000D02*
X123952000Y-60706000D01*
X123952000Y-60706000D02*
X121412000Y-60706000D01*
X132842000Y-62230000D02*
X132842000Y-61214000D01*
X132334000Y-60706000D02*
X132842000Y-61214000D01*
X135128000Y-63795000D02*
X134407000Y-63795000D01*
X134407000Y-63795000D02*
X132842000Y-62230000D01*
X130450000Y-65095000D02*
X132263000Y-65095000D01*
X132263000Y-65095000D02*
X132842000Y-64516000D01*
X132842000Y-64516000D02*
X132842000Y-62230000D01*
X136250000Y-63795000D02*
X135128000Y-63795000D01*
X135128000Y-63795000D02*
X135169000Y-63795000D01*
X138430000Y-54205000D02*
X142240000Y-54205000D01*
X158460000Y-51905000D02*
X158460000Y-57150000D01*
X158460000Y-57150000D02*
X158460000Y-59855000D01*
X158460000Y-51905000D02*
X158460000Y-51780000D01*
X158460000Y-51780000D02*
X156718000Y-50038000D01*
X152654000Y-50292000D02*
X152654000Y-51308000D01*
X152908000Y-50038000D02*
X152654000Y-50292000D01*
X156718000Y-50038000D02*
X156210000Y-50038000D01*
X156210000Y-50038000D02*
X152908000Y-50038000D01*
X134110000Y-111530000D02*
X134360000Y-111280000D01*
X158460000Y-59855000D02*
X158460000Y-61940000D01*
X158460000Y-61940000D02*
X159512000Y-62992000D01*
X156083000Y-71120000D02*
X157480000Y-71120000D01*
X143510000Y-114530000D02*
X143510000Y-114300000D01*
X152400000Y-120420000D02*
X152400000Y-114300000D01*
X119610000Y-102870000D02*
X119380000Y-102640000D01*
X123190000Y-117600000D02*
X123355000Y-117765000D01*
X123190000Y-113030000D02*
X123190000Y-117600000D01*
X121158000Y-113030000D02*
X123190000Y-113030000D01*
X120904000Y-113030000D02*
X121158000Y-113030000D01*
X116169000Y-117765000D02*
X120904000Y-113030000D01*
X115405000Y-117765000D02*
X116169000Y-117765000D01*
X119471000Y-117765000D02*
X119380000Y-117856000D01*
X123355000Y-117765000D02*
X119471000Y-117765000D01*
X116804000Y-130520000D02*
X116840000Y-130556000D01*
X116840000Y-130556000D02*
X118618000Y-130556000D01*
X115405000Y-130520000D02*
X116804000Y-130520000D01*
X123319000Y-130556000D02*
X123355000Y-130520000D01*
X118618000Y-130556000D02*
X123319000Y-130556000D01*
X123861000Y-117765000D02*
X123355000Y-117765000D01*
X123355000Y-132334000D02*
X123355000Y-130520000D01*
X143260000Y-114780000D02*
X139960000Y-114780000D01*
X143510000Y-114530000D02*
X143260000Y-114780000D01*
X124877000Y-117765000D02*
X123355000Y-117765000D01*
X124877000Y-117765000D02*
X125222000Y-118110000D01*
X119888000Y-113030000D02*
X119380000Y-112522000D01*
X119380000Y-112522000D02*
X119380000Y-111482000D01*
X121158000Y-113030000D02*
X119888000Y-113030000D01*
X144502000Y-114530000D02*
X143510000Y-114530000D01*
X144502000Y-114530000D02*
X145288000Y-115316000D01*
X122960000Y-102640000D02*
X123190000Y-102870000D01*
X119380000Y-102640000D02*
X122960000Y-102640000D01*
X155702000Y-119380000D02*
X154662000Y-120420000D01*
X154662000Y-120420000D02*
X152400000Y-120420000D01*
X157480000Y-119380000D02*
X155702000Y-119380000D01*
X135910000Y-103652000D02*
X135910000Y-103612000D01*
X135910000Y-103652000D02*
X135910000Y-106030000D01*
X135910000Y-103612000D02*
X136144000Y-103378000D01*
X137922000Y-47752000D02*
X137922000Y-46228000D01*
X139700000Y-44450000D02*
X141425000Y-44450000D01*
X137922000Y-46228000D02*
X139700000Y-44450000D01*
X141552000Y-47752000D02*
X137922000Y-47752000D01*
X121920000Y-63500000D02*
X123698000Y-61722000D01*
X114785140Y-64284860D02*
X115570000Y-63500000D01*
X114785140Y-65405000D02*
X114785140Y-64284860D01*
X115570000Y-63500000D02*
X121158000Y-63500000D01*
X121158000Y-63500000D02*
X121920000Y-63500000D01*
X136410000Y-96508000D02*
X136144000Y-96774000D01*
X136410000Y-96508000D02*
X136410000Y-94630000D01*
X143002000Y-68326000D02*
X143256000Y-68580000D01*
X143002000Y-68326000D02*
X143002000Y-61190000D01*
X120650000Y-58420000D02*
X121412000Y-58420000D01*
X123190000Y-58420000D02*
X121412000Y-58420000D01*
X125095000Y-58420000D02*
X123190000Y-58420000D01*
X154940000Y-68580000D02*
X157480000Y-68580000D01*
X153924000Y-69596000D02*
X154940000Y-68580000D01*
X153850000Y-69596000D02*
X153924000Y-69596000D01*
X141220000Y-100080000D02*
X140970000Y-100330000D01*
X141220000Y-100080000D02*
X142860000Y-100080000D01*
X133338000Y-101080000D02*
X133604000Y-101346000D01*
X133338000Y-101080000D02*
X131460000Y-101080000D01*
X132798000Y-97580000D02*
X131460000Y-97580000D01*
X132798000Y-97580000D02*
X133604000Y-96774000D01*
X119150000Y-105410000D02*
X119380000Y-105640000D01*
X115570000Y-105410000D02*
X119150000Y-105410000D01*
X116102000Y-108482000D02*
X115570000Y-107950000D01*
X119380000Y-108482000D02*
X116102000Y-108482000D01*
X133477000Y-68580000D02*
X134366000Y-67691000D01*
X134366000Y-67691000D02*
X134366000Y-66548000D01*
X134366000Y-66548000D02*
X135169000Y-65745000D01*
X135169000Y-65745000D02*
X136250000Y-65745000D01*
X130048000Y-68580000D02*
X133477000Y-68580000D01*
X136250000Y-62495000D02*
X138570000Y-62495000D01*
X138570000Y-62495000D02*
X139700000Y-61365000D01*
X136250000Y-63145000D02*
X138480000Y-63145000D01*
X138480000Y-63145000D02*
X139700000Y-64365000D01*
D35*
X130450000Y-62495000D02*
X129297000Y-62495000D01*
X129297000Y-62495000D02*
X128778000Y-61976000D01*
D36*
X139410000Y-107660000D02*
X140716000Y-108966000D01*
X140716000Y-108966000D02*
X142494000Y-108966000D01*
X142494000Y-108966000D02*
X142748000Y-109220000D01*
X139410000Y-107660000D02*
X139410000Y-106030000D01*
X122210000Y-126020000D02*
X120650000Y-124460000D01*
X123355000Y-126020000D02*
X122210000Y-126020000D01*
X123355000Y-126020000D02*
X115405000Y-126020000D01*
X138910000Y-107668000D02*
X138910000Y-107922000D01*
X138910000Y-106030000D02*
X138910000Y-107668000D01*
X141986000Y-109474000D02*
X142494000Y-109982000D01*
X140462000Y-109474000D02*
X141986000Y-109474000D01*
X138910000Y-107922000D02*
X140462000Y-109474000D01*
X117602000Y-122936000D02*
X122684000Y-122936000D01*
X122684000Y-122936000D02*
X123355000Y-122265000D01*
X116838000Y-123698000D02*
X116840000Y-123698000D01*
X115405000Y-122265000D02*
X116838000Y-123698000D01*
X116840000Y-123698000D02*
X117602000Y-122936000D01*
X152400000Y-127000000D02*
X152400000Y-123420000D01*
X152122000Y-123698000D02*
X152400000Y-123420000D01*
X150622000Y-123698000D02*
X152122000Y-123698000D01*
X131460000Y-103080000D02*
X129330000Y-103080000D01*
X128524000Y-103886000D02*
X128524000Y-105664000D01*
X129330000Y-103080000D02*
X128524000Y-103886000D01*
X143510000Y-111530000D02*
X140210000Y-111530000D01*
X140210000Y-111530000D02*
X139960000Y-111280000D01*
X139220000Y-111280000D02*
X139960000Y-111280000D01*
X137414000Y-109474000D02*
X139220000Y-111280000D01*
X136910000Y-106030000D02*
X136910000Y-107446000D01*
X136910000Y-107446000D02*
X137414000Y-107950000D01*
X137414000Y-107950000D02*
X137414000Y-109474000D01*
X129794000Y-114530000D02*
X134110000Y-114530000D01*
X134110000Y-114530000D02*
X134360000Y-114780000D01*
X134110000Y-114530000D02*
X134360000Y-114780000D01*
X134360000Y-114780000D02*
X134902000Y-114780000D01*
X136906000Y-112776000D02*
X136410000Y-113272000D01*
X136410000Y-107708000D02*
X136410000Y-106030000D01*
X136906000Y-108204000D02*
X136906000Y-110490000D01*
X136410000Y-107708000D02*
X136906000Y-108204000D01*
X134902000Y-114780000D02*
X136410000Y-113272000D01*
X136906000Y-110490000D02*
X136906000Y-112776000D01*
X142860000Y-100580000D02*
X146054000Y-100580000D01*
X146054000Y-100580000D02*
X146304000Y-100330000D01*
X153960000Y-51905000D02*
X153960000Y-59855000D01*
X153960000Y-59855000D02*
X153960000Y-64044000D01*
X155956000Y-66040000D02*
X157480000Y-66040000D01*
X153960000Y-64044000D02*
X155956000Y-66040000D01*
X152400000Y-66040000D02*
X150950000Y-67490000D01*
X150950000Y-67490000D02*
X150950000Y-69596000D01*
X155956000Y-66040000D02*
X152400000Y-66040000D01*
X150900000Y-69646000D02*
X150950000Y-69596000D01*
X150900000Y-72136000D02*
X150900000Y-69646000D01*
X150950000Y-72186000D02*
X150900000Y-72136000D01*
X150950000Y-74676000D02*
X150950000Y-72186000D01*
D35*
X117602000Y-94996000D02*
X117602000Y-96012000D01*
X122555000Y-87630000D02*
X122555000Y-90043000D01*
X122555000Y-90043000D02*
X117602000Y-94996000D01*
X129185000Y-63145000D02*
X127407000Y-63145000D01*
X130450000Y-63145000D02*
X129185000Y-63145000D01*
X127407000Y-63145000D02*
X126746000Y-62484000D01*
X128270000Y-67310000D02*
X122555000Y-73025000D01*
X122555000Y-73025000D02*
X122555000Y-73660000D01*
X128535000Y-67045000D02*
X128270000Y-67310000D01*
X130450000Y-67045000D02*
X128535000Y-67045000D01*
X122555000Y-73660000D02*
X122555000Y-81026000D01*
X122555000Y-81026000D02*
X122555000Y-87630000D01*
D36*
X128270000Y-124714000D02*
X128270000Y-124587000D01*
X128270000Y-126850140D02*
X128270000Y-124714000D01*
X128270000Y-124587000D02*
X128778000Y-124079000D01*
X128830000Y-97080000D02*
X128778000Y-97028000D01*
X128830000Y-97080000D02*
X131460000Y-97080000D01*
X128270000Y-131572000D02*
X128270000Y-129689860D01*
X132080000Y-126850140D02*
X132080000Y-124206000D01*
X129032000Y-108966000D02*
X127508000Y-108966000D01*
X130048000Y-106680000D02*
X130048000Y-107950000D01*
X130362000Y-104080000D02*
X130048000Y-104394000D01*
X130048000Y-104394000D02*
X130048000Y-106680000D01*
X130362000Y-104080000D02*
X131460000Y-104080000D01*
X129032000Y-108966000D02*
X130048000Y-107950000D01*
X127508000Y-108966000D02*
X127000000Y-108458000D01*
X126492000Y-107950000D02*
X127000000Y-108458000D01*
X132080000Y-129689860D02*
X132080000Y-131572000D01*
X135890000Y-124206000D02*
X135890000Y-126850140D01*
X129846000Y-103580000D02*
X129286000Y-104140000D01*
X129286000Y-104140000D02*
X129286000Y-106172000D01*
X129846000Y-103580000D02*
X131460000Y-103580000D01*
X129286000Y-106172000D02*
X129286000Y-106934000D01*
X128016000Y-108204000D02*
X129286000Y-106934000D01*
X135890000Y-131445000D02*
X135890000Y-129689860D01*
X139700000Y-126850140D02*
X139700000Y-124206000D01*
X130048000Y-108712000D02*
X129286000Y-109474000D01*
X134410000Y-107906000D02*
X133604000Y-108712000D01*
X133604000Y-108712000D02*
X130048000Y-108712000D01*
X134410000Y-106030000D02*
X134410000Y-107906000D01*
X129286000Y-109474000D02*
X129032000Y-109728000D01*
X128016000Y-109728000D02*
X129032000Y-109728000D01*
X139700000Y-129689860D02*
X139700000Y-131445000D01*
X127000000Y-104140000D02*
X127762000Y-103378000D01*
X128560000Y-102580000D02*
X127762000Y-103378000D01*
X128560000Y-102580000D02*
X131460000Y-102580000D01*
X143510000Y-126850140D02*
X143510000Y-124206000D01*
X143510000Y-131445000D02*
X143510000Y-129689860D01*
X131460000Y-102080000D02*
X128044000Y-102080000D01*
X128044000Y-102080000D02*
X127762000Y-102362000D01*
X147320000Y-124206000D02*
X147320000Y-126850140D01*
X147320000Y-129689860D02*
X147320000Y-131445000D01*
X147424140Y-47752000D02*
X144452000Y-47752000D01*
X151130000Y-50800000D02*
X150263860Y-49933860D01*
X150263860Y-47752000D02*
X150263860Y-49933860D01*
X151130000Y-58420000D02*
X151130000Y-53975000D01*
X151130000Y-53975000D02*
X151130000Y-50800000D01*
X151130000Y-58928000D02*
X151130000Y-58420000D01*
X150749000Y-59309000D02*
X151130000Y-58928000D01*
X144325000Y-44450000D02*
X147170140Y-44450000D01*
X151765000Y-59690000D02*
X150876000Y-60579000D01*
X151765000Y-53975000D02*
X151765000Y-45720000D01*
X151765000Y-59690000D02*
X151765000Y-53975000D01*
X151765000Y-45720000D02*
X150495000Y-44450000D01*
X150495000Y-44450000D02*
X150009860Y-44450000D01*
D35*
X128087000Y-64445000D02*
X117856000Y-74676000D01*
X117856000Y-74676000D02*
X117856000Y-77978000D01*
X117856000Y-77978000D02*
X117094000Y-78740000D01*
X117094000Y-78740000D02*
X115570000Y-78740000D01*
X130450000Y-64445000D02*
X128087000Y-64445000D01*
X128169000Y-66395000D02*
X119380000Y-75184000D01*
X119380000Y-75184000D02*
X119380000Y-90932000D01*
X119380000Y-90932000D02*
X117602000Y-92710000D01*
X117602000Y-92710000D02*
X115570000Y-92710000D01*
X130450000Y-66395000D02*
X128169000Y-66395000D01*
X117856000Y-73660000D02*
X127721000Y-63795000D01*
X127721000Y-63795000D02*
X130450000Y-63795000D01*
X115570000Y-73660000D02*
X117856000Y-73660000D01*
X127803000Y-65745000D02*
X130450000Y-65745000D01*
X118618000Y-74930000D02*
X127803000Y-65745000D01*
X118618000Y-86614000D02*
X118618000Y-74930000D01*
X117602000Y-87630000D02*
X118618000Y-86614000D01*
X115570000Y-87630000D02*
X117602000Y-87630000D01*
D36*
X117624860Y-65405000D02*
X119835000Y-65405000D01*
D37*
X131064000Y-56134000D02*
X132080000Y-57150000D01*
X132080000Y-57150000D02*
X132080000Y-58420000D01*
X121412000Y-56134000D02*
X131064000Y-56134000D01*
D36*
X133910000Y-92254000D02*
X133604000Y-91948000D01*
X133910000Y-94630000D02*
X133910000Y-92254000D01*
X135910000Y-92964000D02*
X135910000Y-92182000D01*
X135910000Y-92182000D02*
X136398000Y-91694000D01*
X135910000Y-92964000D02*
X135910000Y-92944000D01*
X135910000Y-94630000D02*
X135910000Y-92964000D01*
X140910000Y-93532000D02*
X141224000Y-93218000D01*
X141224000Y-93218000D02*
X141732000Y-93218000D01*
X141732000Y-93218000D02*
X141986000Y-93472000D01*
X141986000Y-93472000D02*
X141986000Y-94488000D01*
X140910000Y-94630000D02*
X140910000Y-93532000D01*
X143002000Y-92964000D02*
X143002000Y-93726000D01*
X139910000Y-93008000D02*
X140716000Y-92202000D01*
X140716000Y-92202000D02*
X142240000Y-92202000D01*
X142240000Y-92202000D02*
X143002000Y-92964000D01*
X139910000Y-94630000D02*
X139910000Y-93008000D01*
X143510000Y-94234000D02*
X143510000Y-94488000D01*
X143002000Y-93726000D02*
X143510000Y-94234000D01*
X143510000Y-95504000D02*
X143510000Y-94488000D01*
X155194000Y-106172000D02*
X155194000Y-111252000D01*
X154940000Y-105918000D02*
X155194000Y-106172000D01*
X132842000Y-92964000D02*
X132842000Y-88392000D01*
X132842000Y-88392000D02*
X132842000Y-88138000D01*
X132842000Y-88138000D02*
X133096000Y-87884000D01*
X133410000Y-93532000D02*
X133410000Y-94630000D01*
X133410000Y-87570000D02*
X134874000Y-86106000D01*
X134874000Y-86106000D02*
X146812000Y-86106000D01*
X146812000Y-86106000D02*
X150368000Y-89662000D01*
X150368000Y-89662000D02*
X150368000Y-97028000D01*
X152400000Y-99060000D02*
X150368000Y-97028000D01*
X133096000Y-87884000D02*
X133410000Y-87570000D01*
X133410000Y-93532000D02*
X133096000Y-93218000D01*
X133096000Y-93218000D02*
X132842000Y-92964000D01*
X134410000Y-91694000D02*
X134410000Y-94630000D01*
X134410000Y-91650000D02*
X134410000Y-91694000D01*
X134410000Y-88602000D02*
X134874000Y-88138000D01*
X136398000Y-86614000D02*
X134874000Y-88138000D01*
X149860000Y-99060000D02*
X152400000Y-101600000D01*
X149860000Y-89916000D02*
X149860000Y-99060000D01*
X146558000Y-86614000D02*
X149860000Y-89916000D01*
X136398000Y-86614000D02*
X146558000Y-86614000D01*
X134410000Y-91694000D02*
X134410000Y-88602000D01*
X135410000Y-92456000D02*
X135410000Y-92428000D01*
X135410000Y-94630000D02*
X135410000Y-92456000D01*
X152400000Y-104140000D02*
X152400000Y-103632000D01*
X135410000Y-90142000D02*
X135890000Y-89662000D01*
X135890000Y-89662000D02*
X135890000Y-88646000D01*
X135890000Y-88646000D02*
X136398000Y-88138000D01*
X149352000Y-100584000D02*
X152400000Y-103632000D01*
X136398000Y-88138000D02*
X137414000Y-87122000D01*
X149352000Y-90170000D02*
X149352000Y-100584000D01*
X146304000Y-87122000D02*
X149352000Y-90170000D01*
X137414000Y-87122000D02*
X146304000Y-87122000D01*
X135410000Y-92456000D02*
X135410000Y-90142000D01*
X129286000Y-92202000D02*
X128524000Y-92964000D01*
X129286000Y-92202000D02*
X130048000Y-91440000D01*
X131460000Y-96580000D02*
X129854000Y-96580000D01*
X129403998Y-96580000D02*
X129854000Y-96580000D01*
X128524000Y-95700002D02*
X129403998Y-96580000D01*
X128524000Y-92964000D02*
X128524000Y-95700002D01*
X144272000Y-87630000D02*
X137922000Y-87630000D01*
X137922000Y-87630000D02*
X137668000Y-87884000D01*
X150622000Y-102616000D02*
X149606000Y-101600000D01*
X148844000Y-92202000D02*
X146304000Y-89662000D01*
X152400000Y-106680000D02*
X150622000Y-104902000D01*
X150622000Y-104902000D02*
X150622000Y-103124000D01*
X150622000Y-103124000D02*
X150622000Y-102616000D01*
X148844000Y-100838000D02*
X148844000Y-92202000D01*
X149606000Y-101600000D02*
X148844000Y-100838000D01*
X146304000Y-89662000D02*
X144272000Y-87630000D01*
X152400000Y-109220000D02*
X151834002Y-109220000D01*
X143764000Y-88138000D02*
X138430000Y-88138000D01*
X138430000Y-88138000D02*
X137922000Y-88646000D01*
X137922000Y-88646000D02*
X137922000Y-88646000D01*
X148336000Y-101092000D02*
X150114000Y-102870000D01*
X150114000Y-102870000D02*
X150114000Y-103378000D01*
X128016000Y-97536000D02*
X129060000Y-98580000D01*
X132080000Y-90424000D02*
X129794000Y-90424000D01*
X129794000Y-90424000D02*
X128016000Y-92202000D01*
X128016000Y-92202000D02*
X128016000Y-97536000D01*
X148336000Y-100076000D02*
X148336000Y-92710000D01*
X150114000Y-107499998D02*
X151834002Y-109220000D01*
X150114000Y-107499998D02*
X150114000Y-103378000D01*
X148336000Y-92710000D02*
X146050000Y-90424000D01*
X131460000Y-98580000D02*
X129060000Y-98580000D01*
X148336000Y-100076000D02*
X148336000Y-101092000D01*
X145738002Y-90112002D02*
X146050000Y-90424000D01*
X145738002Y-90112002D02*
X143764000Y-88138000D01*
X143256000Y-88646000D02*
X140716000Y-88646000D01*
X134910000Y-91948000D02*
X134910000Y-89626000D01*
X145542000Y-90932000D02*
X145288000Y-90678000D01*
X147828000Y-93726000D02*
X147828000Y-93218000D01*
X149606000Y-103124000D02*
X147828000Y-101346000D01*
X147828000Y-101346000D02*
X147828000Y-93726000D01*
X149606000Y-109474000D02*
X151892000Y-111760000D01*
X149606000Y-109474000D02*
X149606000Y-103632000D01*
X149606000Y-103632000D02*
X149606000Y-103124000D01*
X147828000Y-93218000D02*
X145542000Y-90932000D01*
X145288000Y-90678000D02*
X143256000Y-88646000D01*
X134910000Y-89626000D02*
X135128000Y-89408000D01*
X140208000Y-88646000D02*
X139446000Y-89408000D01*
X140716000Y-88646000D02*
X140208000Y-88646000D01*
X152400000Y-111760000D02*
X151892000Y-111760000D01*
X134910000Y-91948000D02*
X134910000Y-91912000D01*
X134910000Y-91948000D02*
X134910000Y-94630000D01*
X135410000Y-108712000D02*
X135410000Y-108684000D01*
X135410000Y-106030000D02*
X135410000Y-108712000D01*
X126365000Y-135890000D02*
X126365000Y-132207000D01*
X126365000Y-132207000D02*
X126746000Y-131826000D01*
X126746000Y-125476000D02*
X126746000Y-123952000D01*
X126746000Y-125476000D02*
X126746000Y-131826000D01*
X135128000Y-109220000D02*
X134620000Y-109728000D01*
X135410000Y-108938000D02*
X135410000Y-108712000D01*
X135410000Y-108938000D02*
X135128000Y-109220000D01*
X131826000Y-109728000D02*
X131572000Y-109982000D01*
X134620000Y-109728000D02*
X131826000Y-109728000D01*
X127508000Y-123190000D02*
X127508000Y-122428000D01*
X126746000Y-123952000D02*
X127508000Y-123190000D01*
X125095000Y-137160000D02*
X126365000Y-135890000D01*
X125984000Y-122936000D02*
X125984000Y-131572000D01*
X125984000Y-131572000D02*
X125095000Y-132461000D01*
X125095000Y-132461000D02*
X125095000Y-134620000D01*
X131064000Y-109220000D02*
X130810000Y-109474000D01*
X134910000Y-107914000D02*
X134910000Y-108422000D01*
X134910000Y-106030000D02*
X134910000Y-107914000D01*
X134910000Y-108422000D02*
X134112000Y-109220000D01*
X134112000Y-109220000D02*
X131064000Y-109220000D01*
X126238000Y-122682000D02*
X126492000Y-122428000D01*
X126238000Y-122682000D02*
X125984000Y-122936000D01*
X131826000Y-119888000D02*
X132588000Y-119126000D01*
X138410000Y-108184000D02*
X139446000Y-109220000D01*
X138410000Y-106030000D02*
X138410000Y-108184000D01*
X139446000Y-109220000D02*
X139446000Y-109474000D01*
X131826000Y-123063000D02*
X131826000Y-119888000D01*
X137410000Y-92960000D02*
X136906000Y-92456000D01*
X137410000Y-92960000D02*
X137410000Y-94630000D01*
X142860000Y-101080000D02*
X142872000Y-101092000D01*
X149098000Y-119888000D02*
X145542000Y-123444000D01*
X134620000Y-123444000D02*
X145542000Y-123444000D01*
X146038000Y-101080000D02*
X148590000Y-103632000D01*
X142860000Y-101080000D02*
X146038000Y-101080000D01*
X149098000Y-113284000D02*
X148590000Y-112776000D01*
X148590000Y-112776000D02*
X148590000Y-103632000D01*
X149098000Y-116586000D02*
X149098000Y-113284000D01*
X149098000Y-116586000D02*
X149098000Y-119888000D01*
X145542000Y-122682000D02*
X134112000Y-122682000D01*
X148590000Y-116332000D02*
X148590000Y-119634000D01*
X148082000Y-103886000D02*
X148082000Y-105410000D01*
X148590000Y-113538000D02*
X148082000Y-113030000D01*
X148082000Y-113030000D02*
X148082000Y-105410000D01*
X148590000Y-116332000D02*
X148590000Y-113538000D01*
X145776000Y-101580000D02*
X148082000Y-103886000D01*
X145776000Y-101580000D02*
X142860000Y-101580000D01*
X148590000Y-119634000D02*
X145542000Y-122682000D01*
X147574000Y-115824000D02*
X147574000Y-119126000D01*
X147066000Y-104394000D02*
X147066000Y-105918000D01*
X147574000Y-114103998D02*
X147066000Y-113595998D01*
X147066000Y-113595998D02*
X147066000Y-105918000D01*
X147574000Y-115824000D02*
X147574000Y-114103998D01*
X142860000Y-102580000D02*
X145252000Y-102580000D01*
X145252000Y-102580000D02*
X147066000Y-104394000D01*
X145542000Y-121158000D02*
X138938000Y-121158000D01*
X147574000Y-119126000D02*
X145542000Y-121158000D01*
X138938000Y-121158000D02*
X136906000Y-121158000D01*
X147066000Y-115570000D02*
X147066000Y-118872000D01*
X146558000Y-104648000D02*
X146558000Y-112268000D01*
X147066000Y-115316000D02*
X147066000Y-115570000D01*
X147066000Y-114300000D02*
X147066000Y-115316000D01*
X146558000Y-113792000D02*
X147066000Y-114300000D01*
X146558000Y-112268000D02*
X146558000Y-113792000D01*
X144990000Y-103080000D02*
X142860000Y-103080000D01*
X144990000Y-103080000D02*
X146558000Y-104648000D01*
X145542000Y-120396000D02*
X138684000Y-120396000D01*
X147066000Y-118872000D02*
X145542000Y-120396000D01*
X146558000Y-115316000D02*
X146558000Y-118618000D01*
X146558000Y-114554000D02*
X146050000Y-114046000D01*
X146558000Y-114554000D02*
X146558000Y-114808000D01*
X146558000Y-114808000D02*
X146558000Y-115316000D01*
X146050000Y-114046000D02*
X146050000Y-104902000D01*
X142860000Y-103580000D02*
X144728000Y-103580000D01*
X144728000Y-103580000D02*
X146050000Y-104902000D01*
X145542000Y-119634000D02*
X138430000Y-119634000D01*
X146558000Y-118618000D02*
X145542000Y-119634000D01*
X142860000Y-104080000D02*
X143450000Y-104080000D01*
X145542000Y-114300000D02*
X146050000Y-114808000D01*
X146050000Y-114808000D02*
X146050000Y-116078000D01*
X146050000Y-116078000D02*
X145796000Y-116332000D01*
X144466000Y-104080000D02*
X142860000Y-104080000D01*
X145542000Y-105156000D02*
X145542000Y-109220000D01*
X144466000Y-104080000D02*
X145542000Y-105156000D01*
X145542000Y-109220000D02*
X145542000Y-114300000D01*
X139910000Y-106030000D02*
X139910000Y-107398000D01*
X143198002Y-108400002D02*
X143510000Y-108712000D01*
X140912002Y-108400002D02*
X143198002Y-108400002D01*
X139910000Y-107398000D02*
X140912002Y-108400002D01*
X147320000Y-122428000D02*
X145034000Y-124714000D01*
X149606000Y-120142000D02*
X147320000Y-122428000D01*
X141164000Y-96580000D02*
X140970000Y-96774000D01*
X142860000Y-96580000D02*
X141164000Y-96580000D01*
X149606000Y-113155602D02*
X149606000Y-116840000D01*
X149098000Y-112647602D02*
X149606000Y-113155602D01*
X149098000Y-103378000D02*
X149098000Y-112647602D01*
X147066000Y-101346000D02*
X149098000Y-103378000D01*
X147066000Y-101092000D02*
X147066000Y-101346000D01*
X149606000Y-116840000D02*
X149606000Y-117094000D01*
X149606000Y-117094000D02*
X149606000Y-120142000D01*
X127274000Y-101580000D02*
X127254000Y-101600000D01*
X131460000Y-101580000D02*
X127274000Y-101580000D01*
X130556000Y-124333000D02*
X131064000Y-123825000D01*
X131064000Y-123825000D02*
X131064000Y-123698000D01*
X137910000Y-108700000D02*
X138430000Y-109220000D01*
X137910000Y-108700000D02*
X137910000Y-106030000D01*
X131064000Y-119126000D02*
X131064000Y-119634000D01*
X131572000Y-118618000D02*
X131064000Y-119126000D01*
X131064000Y-119634000D02*
X131064000Y-123698000D01*
X131064000Y-132334000D02*
X130556000Y-131826000D01*
X130556000Y-125222000D02*
X130556000Y-131826000D01*
X130556000Y-125222000D02*
X130556000Y-124333000D01*
X127520000Y-99580000D02*
X127254000Y-99314000D01*
X127520000Y-99580000D02*
X131460000Y-99580000D01*
X149860000Y-132715000D02*
X147955000Y-134620000D01*
X129028000Y-100080000D02*
X128778000Y-100330000D01*
X131460000Y-100080000D02*
X129028000Y-100080000D01*
X149860000Y-122174000D02*
X149860000Y-132715000D01*
X128544000Y-99080000D02*
X128016000Y-98552000D01*
X131460000Y-99080000D02*
X128544000Y-99080000D01*
X128016000Y-98552000D02*
X126746000Y-97282000D01*
X139410000Y-92746000D02*
X140462000Y-91694000D01*
X139410000Y-92746000D02*
X139410000Y-94630000D01*
X140462000Y-91694000D02*
X142240000Y-91694000D01*
X142748000Y-91694000D02*
X142240000Y-91694000D01*
X142240000Y-89154000D02*
X142748000Y-89662000D01*
X138410000Y-91968000D02*
X138410000Y-91460000D01*
X138410000Y-94630000D02*
X138410000Y-92984000D01*
X138410000Y-92984000D02*
X138410000Y-91968000D01*
X140716000Y-89154000D02*
X141986000Y-89154000D01*
X138410000Y-91460000D02*
X140716000Y-89154000D01*
X141986000Y-89154000D02*
X142240000Y-89154000D01*
X138910000Y-92456000D02*
X138910000Y-91976000D01*
X138910000Y-91976000D02*
X138938000Y-91948000D01*
X138938000Y-91948000D02*
X139192000Y-91948000D01*
X138910000Y-94630000D02*
X138910000Y-92456000D01*
X138910000Y-92456000D02*
X138910000Y-92426002D01*
X140410000Y-93395602D02*
X141095602Y-92710000D01*
X141095602Y-92710000D02*
X141986000Y-92710000D01*
X141986000Y-92710000D02*
X142494000Y-93218000D01*
X140410000Y-93395602D02*
X140410000Y-94630000D01*
X142748000Y-94234000D02*
X142494000Y-93980000D01*
X142494000Y-93980000D02*
X142494000Y-93218000D01*
X142748000Y-94996000D02*
X142748000Y-94234000D01*
X141224000Y-107950000D02*
X143764000Y-107950000D01*
X140410000Y-106030000D02*
X140410000Y-107136000D01*
X140410000Y-107136000D02*
X141224000Y-107950000D01*
X144272000Y-107950000D02*
X144526000Y-107696000D01*
X143764000Y-107950000D02*
X144272000Y-107950000D01*
X143764000Y-107442000D02*
X144272000Y-106934000D01*
X140910000Y-106874000D02*
X141478000Y-107442000D01*
X140910000Y-106874000D02*
X140910000Y-106030000D01*
X141478000Y-107442000D02*
X143764000Y-107442000D01*
X157480000Y-76200000D02*
X154686000Y-78994000D01*
X137910000Y-94630000D02*
X137922000Y-89662000D01*
X138176000Y-89408000D02*
X137922000Y-89662000D01*
X153850000Y-81481000D02*
X153850000Y-77544000D01*
X149987000Y-85344000D02*
X153850000Y-81481000D01*
X147320000Y-85344000D02*
X149987000Y-85344000D01*
X139573000Y-85344000D02*
X147320000Y-85344000D01*
X153850000Y-74676000D02*
X153850000Y-77544000D01*
X136641000Y-67045000D02*
X136250000Y-67045000D01*
X136261000Y-67056000D02*
X136250000Y-67045000D01*
X140208000Y-70739000D02*
X140208000Y-70104000D01*
X140208000Y-70104000D02*
X137160000Y-67056000D01*
X137160000Y-67056000D02*
X136261000Y-67056000D01*
X144272000Y-94742000D02*
X144272000Y-93472000D01*
X143764000Y-92964000D02*
X144272000Y-93472000D01*
X142860000Y-97080000D02*
X143966000Y-97080000D01*
X144272000Y-96774000D02*
X144272000Y-94742000D01*
X143966000Y-97080000D02*
X144272000Y-96774000D01*
X140970000Y-71247000D02*
X140970000Y-70104000D01*
X140970000Y-70104000D02*
X137261000Y-66395000D01*
X137261000Y-66395000D02*
X136250000Y-66395000D01*
X144780000Y-97282000D02*
X144780000Y-92964000D01*
X144780000Y-92964000D02*
X144526000Y-92710000D01*
X142860000Y-97580000D02*
X144482000Y-97580000D01*
X144482000Y-97580000D02*
X144722002Y-97339998D01*
X144722002Y-97339998D02*
X144780000Y-97282000D01*
X137485000Y-65095000D02*
X136250000Y-65095000D01*
X145288000Y-94742000D02*
X145288000Y-92964000D01*
X144744000Y-98080000D02*
X145288000Y-97536000D01*
X145288000Y-97536000D02*
X145288000Y-94742000D01*
X142860000Y-98080000D02*
X144744000Y-98080000D01*
X145288000Y-92456000D02*
X144780000Y-91948000D01*
X145288000Y-92964000D02*
X145288000Y-92456000D01*
X141732000Y-69342000D02*
X137668000Y-65278000D01*
X141732000Y-69850000D02*
X141732000Y-69342000D01*
X137668000Y-65278000D02*
X137485000Y-65095000D01*
X145034000Y-98580000D02*
X145006000Y-98580000D01*
X142860000Y-98580000D02*
X145034000Y-98580000D01*
X137597000Y-64445000D02*
X136250000Y-64445000D01*
X145034000Y-98580000D02*
X145796000Y-97818000D01*
X145796000Y-92710000D02*
X146050000Y-92456000D01*
X145796000Y-97818000D02*
X145796000Y-92710000D01*
X142494000Y-69342000D02*
X137668000Y-64516000D01*
X142494000Y-69596000D02*
X142494000Y-69342000D01*
X142494000Y-70358000D02*
X142494000Y-69596000D01*
X137668000Y-64516000D02*
X137597000Y-64445000D01*
X133350000Y-108204000D02*
X132080000Y-108204000D01*
X133910000Y-107644000D02*
X133350000Y-108204000D01*
X133910000Y-107644000D02*
X133910000Y-106030000D01*
X131064000Y-106680000D02*
X131064000Y-107188000D01*
X132080000Y-108204000D02*
X131064000Y-107188000D01*
X133410000Y-106030000D02*
X133410000Y-107382000D01*
X131826000Y-107188000D02*
X131826000Y-105410000D01*
X132334000Y-107696000D02*
X131826000Y-107188000D01*
X133096000Y-107696000D02*
X132334000Y-107696000D01*
X133410000Y-107382000D02*
X133096000Y-107696000D01*
X136144000Y-121920000D02*
X135890000Y-121920000D01*
X148082000Y-119380000D02*
X145542000Y-121920000D01*
X145542000Y-121920000D02*
X136144000Y-121920000D01*
X145514000Y-102080000D02*
X142860000Y-102080000D01*
X145514000Y-102080000D02*
X147574000Y-104140000D01*
X147574000Y-113284000D02*
X148082000Y-113792000D01*
X148082000Y-113792000D02*
X148082000Y-116078000D01*
X147574000Y-104140000D02*
X147574000Y-113284000D01*
X148082000Y-116078000D02*
X148082000Y-119380000D01*
X132715000Y-137160000D02*
X133985000Y-135890000D01*
X133985000Y-132207000D02*
X134366000Y-131826000D01*
X133985000Y-135890000D02*
X133985000Y-132207000D01*
M02*
