G04 #@! TF.FileFunction,Copper,L2,Inr,Signal*
%FSLAX46Y46*%
G04 Gerber Fmt 4.6, Leading zero omitted, Abs format (unit mm)*
G04 Created by KiCad (PCBNEW (2015-03-23 BZR 5533)-product) date Mon 13 Apr 2015 13:02:17 SAST*
%MOMM*%
G01*
G04 APERTURE LIST*
%ADD10C,0.100000*%
%ADD11R,3.500120X3.500120*%
%ADD12R,1.727200X2.032000*%
%ADD13O,1.727200X2.032000*%
%ADD14R,2.032000X1.727200*%
%ADD15O,2.032000X1.727200*%
%ADD16R,1.727200X1.727200*%
%ADD17O,1.727200X1.727200*%
%ADD18R,2.032000X2.032000*%
%ADD19O,2.032000X2.032000*%
%ADD20C,4.000000*%
%ADD21C,0.600000*%
%ADD22C,0.250000*%
%ADD23C,0.254000*%
G04 APERTURE END LIST*
D10*
D11*
X132080000Y-51920140D03*
X132080000Y-45920660D03*
X127381000Y-48920400D03*
D12*
X129540000Y-58420000D03*
D13*
X132080000Y-58420000D03*
X134620000Y-58420000D03*
D14*
X125730000Y-73660000D03*
D15*
X125730000Y-76200000D03*
X125730000Y-78740000D03*
D14*
X115570000Y-73660000D03*
D15*
X115570000Y-76200000D03*
X115570000Y-78740000D03*
D14*
X115570000Y-87630000D03*
D15*
X115570000Y-90170000D03*
X115570000Y-92710000D03*
D14*
X125730000Y-87630000D03*
D15*
X125730000Y-90170000D03*
X125730000Y-92710000D03*
D14*
X157480000Y-114300000D03*
D15*
X157480000Y-116840000D03*
X157480000Y-119380000D03*
D14*
X157480000Y-124460000D03*
D15*
X157480000Y-127000000D03*
X157480000Y-129540000D03*
D14*
X152400000Y-96520000D03*
D15*
X152400000Y-99060000D03*
X152400000Y-101600000D03*
X152400000Y-104140000D03*
X152400000Y-106680000D03*
X152400000Y-109220000D03*
X152400000Y-111760000D03*
X152400000Y-114300000D03*
D16*
X124460000Y-137160000D03*
D17*
X124460000Y-134620000D03*
X127000000Y-137160000D03*
X127000000Y-134620000D03*
X129540000Y-137160000D03*
X129540000Y-134620000D03*
X132080000Y-137160000D03*
X132080000Y-134620000D03*
X134620000Y-137160000D03*
X134620000Y-134620000D03*
X137160000Y-137160000D03*
X137160000Y-134620000D03*
X139700000Y-137160000D03*
X139700000Y-134620000D03*
X142240000Y-137160000D03*
X142240000Y-134620000D03*
X144780000Y-137160000D03*
X144780000Y-134620000D03*
X147320000Y-137160000D03*
X147320000Y-134620000D03*
X149860000Y-137160000D03*
X149860000Y-134620000D03*
D14*
X157480000Y-86360000D03*
D15*
X157480000Y-88900000D03*
X157480000Y-91440000D03*
D18*
X152400000Y-127000000D03*
D19*
X152400000Y-129540000D03*
D14*
X157480000Y-96520000D03*
D15*
X157480000Y-99060000D03*
X157480000Y-101600000D03*
X157480000Y-104140000D03*
X157480000Y-106680000D03*
X157480000Y-109220000D03*
D14*
X157480000Y-66040000D03*
D15*
X157480000Y-68580000D03*
X157480000Y-71120000D03*
X157480000Y-73660000D03*
X157480000Y-76200000D03*
X157480000Y-78740000D03*
D20*
X116840000Y-135890000D03*
X156210000Y-46990000D03*
X116840000Y-46990000D03*
X156210000Y-135890000D03*
D14*
X115570000Y-102870000D03*
D15*
X115570000Y-105410000D03*
X115570000Y-107950000D03*
X115570000Y-110490000D03*
X115570000Y-113030000D03*
D14*
X123190000Y-102870000D03*
D15*
X123190000Y-105410000D03*
X123190000Y-107950000D03*
X123190000Y-110490000D03*
X123190000Y-113030000D03*
D14*
X152400000Y-86360000D03*
D15*
X152400000Y-88900000D03*
X152400000Y-91440000D03*
D21*
X142240000Y-49530000D03*
X116840000Y-82550000D03*
X154940000Y-95758000D03*
X139446000Y-77724000D03*
X153162000Y-83566000D03*
X129286000Y-75438000D03*
X133858000Y-98552000D03*
X137160000Y-103378000D03*
X137160000Y-96774000D03*
X132080000Y-110744000D03*
X132842000Y-67564000D03*
X124460000Y-64770000D03*
X145034000Y-52324000D03*
X132334000Y-60706000D03*
X159512000Y-62992000D03*
X152654000Y-51308000D03*
X144780000Y-113030000D03*
X119380000Y-117856000D03*
X118618000Y-130556000D03*
X131318000Y-125476000D03*
X135128000Y-125476000D03*
X138938000Y-125476000D03*
X142748000Y-125476000D03*
X146558000Y-125476000D03*
X129032000Y-125476000D03*
X125222000Y-119126000D03*
X136144000Y-96774000D03*
X143256000Y-68580000D03*
X134366000Y-68580000D03*
X125095000Y-58420000D03*
X135255000Y-54610000D03*
X140970000Y-100330000D03*
X133604000Y-101346000D03*
X136144000Y-103378000D03*
X133604000Y-96774000D03*
X124968000Y-125476000D03*
X120650000Y-115824000D03*
X128778000Y-61976000D03*
X120650000Y-124460000D03*
X142748000Y-109220000D03*
X116840000Y-123698000D03*
X142494000Y-109982000D03*
X150622000Y-123698000D03*
X128524000Y-105664000D03*
X146304000Y-100330000D03*
X126746000Y-62484000D03*
X122555000Y-87630000D03*
X122555000Y-73660000D03*
X128270000Y-67310000D03*
X128778000Y-97028000D03*
X128270000Y-124714000D03*
X128270000Y-131572000D03*
X126492000Y-107950000D03*
X132080000Y-124714000D03*
X132080000Y-131572000D03*
X135890000Y-124714000D03*
X128016000Y-108204000D03*
X135890000Y-131445000D03*
X139700000Y-124714000D03*
X128016000Y-109728000D03*
X139700000Y-131445000D03*
X143510000Y-124714000D03*
X127000000Y-104140000D03*
X143510000Y-131445000D03*
X127762000Y-102362000D03*
X147320000Y-124714000D03*
X147320000Y-131445000D03*
X151130000Y-58420000D03*
X151765000Y-59690000D03*
X133604000Y-91186000D03*
X136144000Y-90932000D03*
X141986000Y-94488000D03*
X143510000Y-95504000D03*
X155194000Y-111252000D03*
X154940000Y-105918000D03*
X130048000Y-91440000D03*
X137668000Y-87884000D03*
X137160000Y-88646000D03*
X132080000Y-90424000D03*
X135128000Y-89408000D03*
X139446000Y-88900000D03*
X131572000Y-109982000D03*
X127508000Y-122428000D03*
X130810000Y-109474000D03*
X126492000Y-122428000D03*
X139446000Y-109474000D03*
X131826000Y-123952000D03*
X133096000Y-116840000D03*
X136906000Y-92456000D03*
X135128000Y-119888000D03*
X134620000Y-118872000D03*
X139192000Y-117856000D03*
X141986000Y-117094000D03*
X140970000Y-117094000D03*
X145542000Y-115316000D03*
X143510000Y-108712000D03*
X145034000Y-121412000D03*
X147066000Y-101092000D03*
X140970000Y-96774000D03*
X145796000Y-122174000D03*
X132588000Y-120650000D03*
X127254000Y-101600000D03*
X130048000Y-132588000D03*
X138430000Y-109220000D03*
X131064000Y-123698000D03*
X132080000Y-116840000D03*
X149098000Y-118618000D03*
X136144000Y-109474000D03*
X127254000Y-99314000D03*
X149860000Y-117856000D03*
X136144000Y-108458000D03*
X128778000Y-100330000D03*
X126746000Y-97282000D03*
X142748000Y-91186000D03*
X141732000Y-90932000D03*
X140404002Y-90932000D03*
X142748000Y-94996000D03*
X144526000Y-107696000D03*
X154686000Y-78994000D03*
X144272000Y-106934000D03*
X139700000Y-81788000D03*
X138176000Y-89408000D03*
X140208000Y-72644000D03*
X143764000Y-92964000D03*
X140970000Y-73660000D03*
X144526000Y-92710000D03*
X144780000Y-91948000D03*
X141732000Y-72898000D03*
X146050000Y-92456000D03*
X142494000Y-73660000D03*
X131064000Y-106680000D03*
X131826000Y-105410000D03*
X137414000Y-118618000D03*
X134874000Y-132588000D03*
D22*
X123190000Y-102870000D02*
X123190000Y-98552000D01*
X128016000Y-93726000D02*
X128016000Y-76708000D01*
X123190000Y-98552000D02*
X128016000Y-93726000D01*
X152400000Y-88900000D02*
X153924000Y-88900000D01*
X153924000Y-88900000D02*
X154940000Y-87884000D01*
X157480000Y-91440000D02*
X154940000Y-88900000D01*
X154940000Y-88900000D02*
X154940000Y-87884000D01*
X154940000Y-87884000D02*
X154940000Y-85344000D01*
X154940000Y-85344000D02*
X153162000Y-83566000D01*
X125730000Y-78740000D02*
X125984000Y-78740000D01*
X125984000Y-78740000D02*
X128016000Y-76708000D01*
X128016000Y-76708000D02*
X129286000Y-75438000D01*
X133858000Y-98044000D02*
X132842000Y-97028000D01*
X132842000Y-97028000D02*
X132842000Y-95758000D01*
X132842000Y-95758000D02*
X129286000Y-92202000D01*
X129286000Y-92202000D02*
X129286000Y-75438000D01*
X133858000Y-98552000D02*
X133858000Y-98044000D01*
X135382000Y-101600000D02*
X133858000Y-100076000D01*
X137160000Y-103378000D02*
X135382000Y-101600000D01*
X133858000Y-100076000D02*
X133858000Y-98552000D01*
X141986000Y-110744000D02*
X132080000Y-110744000D01*
X144780000Y-113030000D02*
X144272000Y-113030000D01*
X137160000Y-105918000D02*
X137160000Y-103378000D01*
X144272000Y-113030000D02*
X141986000Y-110744000D01*
X141986000Y-110744000D02*
X137160000Y-105918000D01*
X157480000Y-71120000D02*
X159512000Y-69088000D01*
X159512000Y-69088000D02*
X159512000Y-62992000D01*
X134366000Y-68580000D02*
X127254000Y-68580000D01*
X127254000Y-68580000D02*
X125730000Y-67056000D01*
X133604000Y-96774000D02*
X136144000Y-96774000D01*
X142240000Y-137160000D02*
X140970000Y-135890000D01*
X125730000Y-135890000D02*
X124460000Y-137160000D01*
X140970000Y-135890000D02*
X125730000Y-135890000D01*
X157480000Y-127000000D02*
X154940000Y-124460000D01*
X154940000Y-119380000D02*
X152400000Y-116840000D01*
X154940000Y-124460000D02*
X154940000Y-119380000D01*
X157480000Y-96520000D02*
X154686000Y-93726000D01*
X151384000Y-93726000D02*
X150114000Y-92456000D01*
X154686000Y-93726000D02*
X151384000Y-93726000D01*
X152400000Y-96520000D02*
X150114000Y-94234000D01*
X157480000Y-116840000D02*
X152400000Y-116840000D01*
X152400000Y-116840000D02*
X151130000Y-116840000D01*
X150114000Y-82550000D02*
X146812000Y-79248000D01*
X150114000Y-115824000D02*
X150114000Y-94234000D01*
X150114000Y-94234000D02*
X150114000Y-92456000D01*
X150114000Y-92456000D02*
X150114000Y-82550000D01*
X151130000Y-116840000D02*
X150114000Y-115824000D01*
X133604000Y-96774000D02*
X136398000Y-99568000D01*
X136398000Y-99568000D02*
X137160000Y-100330000D01*
X137160000Y-100330000D02*
X140970000Y-100330000D01*
X143256000Y-68580000D02*
X134366000Y-68580000D01*
X157480000Y-68580000D02*
X143256000Y-68580000D01*
X157480000Y-86360000D02*
X150368000Y-79248000D01*
X150368000Y-79248000D02*
X146812000Y-79248000D01*
X134874000Y-79248000D02*
X130556000Y-74930000D01*
X146812000Y-79248000D02*
X134874000Y-79248000D01*
X125730000Y-59055000D02*
X125095000Y-58420000D01*
X125730000Y-66802000D02*
X125730000Y-59055000D01*
X125730000Y-68326000D02*
X125730000Y-67056000D01*
X125730000Y-67056000D02*
X125730000Y-66802000D01*
X125730000Y-68580000D02*
X125730000Y-68326000D01*
X125730000Y-70104000D02*
X125730000Y-68580000D01*
X125730000Y-73660000D02*
X125730000Y-70104000D01*
X123444000Y-70612000D02*
X125730000Y-68326000D01*
X123444000Y-85344000D02*
X123444000Y-70612000D01*
X125730000Y-87630000D02*
X123444000Y-85344000D01*
X120650000Y-97790000D02*
X115570000Y-102870000D01*
X121666000Y-96774000D02*
X120650000Y-97790000D01*
X121666000Y-70866000D02*
X121666000Y-96774000D01*
X122428000Y-70104000D02*
X121666000Y-70866000D01*
X125730000Y-66802000D02*
X122428000Y-70104000D01*
X120650000Y-114046000D02*
X122682000Y-116078000D01*
X122682000Y-122682000D02*
X122682000Y-135382000D01*
X122682000Y-116078000D02*
X122682000Y-122682000D01*
X122682000Y-135382000D02*
X124460000Y-137160000D01*
X124968000Y-124968000D02*
X122682000Y-122682000D01*
X124968000Y-125476000D02*
X124968000Y-124968000D01*
X120650000Y-114046000D02*
X120650000Y-115824000D01*
X120650000Y-114046000D02*
X120650000Y-97790000D01*
X130556000Y-74930000D02*
X130556000Y-90424000D01*
X130556000Y-90424000D02*
X133604000Y-93472000D01*
X133604000Y-93472000D02*
X133604000Y-96774000D01*
X125730000Y-70104000D02*
X130556000Y-74930000D01*
D23*
G36*
X159893000Y-139573000D02*
X159163345Y-139573000D01*
X159163345Y-127000000D01*
X159049271Y-126426511D01*
X158724415Y-125940330D01*
X158708632Y-125929784D01*
X158738123Y-125924063D01*
X158950927Y-125784273D01*
X159093377Y-125573240D01*
X159143440Y-125323600D01*
X159143440Y-123596400D01*
X159096463Y-123354277D01*
X159087358Y-123340416D01*
X159087358Y-119739026D01*
X158966217Y-119507000D01*
X157607000Y-119507000D01*
X157607000Y-120720924D01*
X157841913Y-120865184D01*
X158394320Y-120671954D01*
X158830732Y-120282036D01*
X159084709Y-119754791D01*
X159087358Y-119739026D01*
X159087358Y-123340416D01*
X158956673Y-123141473D01*
X158745640Y-122999023D01*
X158496000Y-122948960D01*
X157353000Y-122948960D01*
X157353000Y-120720924D01*
X157353000Y-119507000D01*
X155993783Y-119507000D01*
X155872642Y-119739026D01*
X155875291Y-119754791D01*
X156129268Y-120282036D01*
X156565680Y-120671954D01*
X157118087Y-120865184D01*
X157353000Y-120720924D01*
X157353000Y-122948960D01*
X156464000Y-122948960D01*
X156221877Y-122995937D01*
X156009073Y-123135727D01*
X155866623Y-123346760D01*
X155816560Y-123596400D01*
X155816560Y-124261758D01*
X155700000Y-124145198D01*
X155700000Y-119380000D01*
X155651746Y-119137413D01*
X155642148Y-119089161D01*
X155642148Y-119089160D01*
X155477401Y-118842599D01*
X154234802Y-117600000D01*
X156035351Y-117600000D01*
X156235585Y-117899670D01*
X156545069Y-118106460D01*
X156129268Y-118477964D01*
X155875291Y-119005209D01*
X155872642Y-119020974D01*
X155993783Y-119253000D01*
X157353000Y-119253000D01*
X157353000Y-119233000D01*
X157607000Y-119233000D01*
X157607000Y-119253000D01*
X158966217Y-119253000D01*
X159087358Y-119020974D01*
X159084709Y-119005209D01*
X158830732Y-118477964D01*
X158414930Y-118106460D01*
X158724415Y-117899670D01*
X159049271Y-117413489D01*
X159163345Y-116840000D01*
X159049271Y-116266511D01*
X158724415Y-115780330D01*
X158708632Y-115769784D01*
X158738123Y-115764063D01*
X158950927Y-115624273D01*
X159093377Y-115413240D01*
X159143440Y-115163600D01*
X159143440Y-113436400D01*
X159096463Y-113194277D01*
X159087358Y-113180416D01*
X159087358Y-109579026D01*
X158966217Y-109347000D01*
X157607000Y-109347000D01*
X157607000Y-110560924D01*
X157841913Y-110705184D01*
X158394320Y-110511954D01*
X158830732Y-110122036D01*
X159084709Y-109594791D01*
X159087358Y-109579026D01*
X159087358Y-113180416D01*
X158956673Y-112981473D01*
X158745640Y-112839023D01*
X158496000Y-112788960D01*
X157353000Y-112788960D01*
X157353000Y-110560924D01*
X157353000Y-109347000D01*
X155993783Y-109347000D01*
X155872642Y-109579026D01*
X155875291Y-109594791D01*
X156129268Y-110122036D01*
X156565680Y-110511954D01*
X157118087Y-110705184D01*
X157353000Y-110560924D01*
X157353000Y-112788960D01*
X156464000Y-112788960D01*
X156221877Y-112835937D01*
X156129162Y-112896841D01*
X156129162Y-111066833D01*
X155987117Y-110723057D01*
X155724327Y-110459808D01*
X155380799Y-110317162D01*
X155008833Y-110316838D01*
X154665057Y-110458883D01*
X154401808Y-110721673D01*
X154259162Y-111065201D01*
X154258838Y-111437167D01*
X154400883Y-111780943D01*
X154663673Y-112044192D01*
X155007201Y-112186838D01*
X155379167Y-112187162D01*
X155722943Y-112045117D01*
X155986192Y-111782327D01*
X156128838Y-111438799D01*
X156129162Y-111066833D01*
X156129162Y-112896841D01*
X156009073Y-112975727D01*
X155866623Y-113186760D01*
X155816560Y-113436400D01*
X155816560Y-115163600D01*
X155863537Y-115405723D01*
X156003327Y-115618527D01*
X156214360Y-115760977D01*
X156252962Y-115768718D01*
X156235585Y-115780330D01*
X156035351Y-116080000D01*
X154007358Y-116080000D01*
X154007358Y-114659026D01*
X153886217Y-114427000D01*
X152527000Y-114427000D01*
X152527000Y-115640924D01*
X152761913Y-115785184D01*
X153314320Y-115591954D01*
X153750732Y-115202036D01*
X154004709Y-114674791D01*
X154007358Y-114659026D01*
X154007358Y-116080000D01*
X152400000Y-116080000D01*
X151444802Y-116080000D01*
X150874000Y-115509198D01*
X150874000Y-114838187D01*
X151049268Y-115202036D01*
X151485680Y-115591954D01*
X152038087Y-115785184D01*
X152273000Y-115640924D01*
X152273000Y-114427000D01*
X152253000Y-114427000D01*
X152253000Y-114173000D01*
X152273000Y-114173000D01*
X152273000Y-114153000D01*
X152527000Y-114153000D01*
X152527000Y-114173000D01*
X153886217Y-114173000D01*
X154007358Y-113940974D01*
X154004709Y-113925209D01*
X153750732Y-113397964D01*
X153334930Y-113026460D01*
X153644415Y-112819670D01*
X153969271Y-112333489D01*
X154083345Y-111760000D01*
X153969271Y-111186511D01*
X153644415Y-110700330D01*
X153329634Y-110490000D01*
X153644415Y-110279670D01*
X153969271Y-109793489D01*
X154083345Y-109220000D01*
X153969271Y-108646511D01*
X153644415Y-108160330D01*
X153329634Y-107950000D01*
X153644415Y-107739670D01*
X153969271Y-107253489D01*
X154083345Y-106680000D01*
X153969271Y-106106511D01*
X153644415Y-105620330D01*
X153329634Y-105410000D01*
X153644415Y-105199670D01*
X153969271Y-104713489D01*
X154083345Y-104140000D01*
X153969271Y-103566511D01*
X153644415Y-103080330D01*
X153329634Y-102870000D01*
X153644415Y-102659670D01*
X153969271Y-102173489D01*
X154083345Y-101600000D01*
X153969271Y-101026511D01*
X153644415Y-100540330D01*
X153329634Y-100330000D01*
X153644415Y-100119670D01*
X153969271Y-99633489D01*
X154083345Y-99060000D01*
X153969271Y-98486511D01*
X153644415Y-98000330D01*
X153628632Y-97989784D01*
X153658123Y-97984063D01*
X153870927Y-97844273D01*
X154013377Y-97633240D01*
X154063440Y-97383600D01*
X154063440Y-95656400D01*
X154016463Y-95414277D01*
X153876673Y-95201473D01*
X153665640Y-95059023D01*
X153416000Y-95008960D01*
X151963762Y-95008960D01*
X151440802Y-94486000D01*
X154371198Y-94486000D01*
X155816560Y-95931362D01*
X155816560Y-97383600D01*
X155863537Y-97625723D01*
X156003327Y-97838527D01*
X156214360Y-97980977D01*
X156252962Y-97988718D01*
X156235585Y-98000330D01*
X155910729Y-98486511D01*
X155796655Y-99060000D01*
X155910729Y-99633489D01*
X156235585Y-100119670D01*
X156550365Y-100330000D01*
X156235585Y-100540330D01*
X155910729Y-101026511D01*
X155796655Y-101600000D01*
X155910729Y-102173489D01*
X156235585Y-102659670D01*
X156550365Y-102870000D01*
X156235585Y-103080330D01*
X155910729Y-103566511D01*
X155796655Y-104140000D01*
X155910729Y-104713489D01*
X156235585Y-105199670D01*
X156550365Y-105410000D01*
X156235585Y-105620330D01*
X155910729Y-106106511D01*
X155875162Y-106285318D01*
X155875162Y-105732833D01*
X155733117Y-105389057D01*
X155470327Y-105125808D01*
X155126799Y-104983162D01*
X154754833Y-104982838D01*
X154411057Y-105124883D01*
X154147808Y-105387673D01*
X154005162Y-105731201D01*
X154004838Y-106103167D01*
X154146883Y-106446943D01*
X154409673Y-106710192D01*
X154753201Y-106852838D01*
X155125167Y-106853162D01*
X155468943Y-106711117D01*
X155732192Y-106448327D01*
X155874838Y-106104799D01*
X155875162Y-105732833D01*
X155875162Y-106285318D01*
X155796655Y-106680000D01*
X155910729Y-107253489D01*
X156235585Y-107739670D01*
X156545069Y-107946460D01*
X156129268Y-108317964D01*
X155875291Y-108845209D01*
X155872642Y-108860974D01*
X155993783Y-109093000D01*
X157353000Y-109093000D01*
X157353000Y-109073000D01*
X157607000Y-109073000D01*
X157607000Y-109093000D01*
X158966217Y-109093000D01*
X159087358Y-108860974D01*
X159084709Y-108845209D01*
X158830732Y-108317964D01*
X158414930Y-107946460D01*
X158724415Y-107739670D01*
X159049271Y-107253489D01*
X159163345Y-106680000D01*
X159049271Y-106106511D01*
X158724415Y-105620330D01*
X158409634Y-105410000D01*
X158724415Y-105199670D01*
X159049271Y-104713489D01*
X159163345Y-104140000D01*
X159049271Y-103566511D01*
X158724415Y-103080330D01*
X158409634Y-102870000D01*
X158724415Y-102659670D01*
X159049271Y-102173489D01*
X159163345Y-101600000D01*
X159049271Y-101026511D01*
X158724415Y-100540330D01*
X158409634Y-100330000D01*
X158724415Y-100119670D01*
X159049271Y-99633489D01*
X159163345Y-99060000D01*
X159049271Y-98486511D01*
X158724415Y-98000330D01*
X158708632Y-97989784D01*
X158738123Y-97984063D01*
X158950927Y-97844273D01*
X159093377Y-97633240D01*
X159143440Y-97383600D01*
X159143440Y-95656400D01*
X159096463Y-95414277D01*
X159087358Y-95400416D01*
X159087358Y-91799026D01*
X158966217Y-91567000D01*
X157607000Y-91567000D01*
X157607000Y-92780924D01*
X157841913Y-92925184D01*
X158394320Y-92731954D01*
X158830732Y-92342036D01*
X159084709Y-91814791D01*
X159087358Y-91799026D01*
X159087358Y-95400416D01*
X158956673Y-95201473D01*
X158745640Y-95059023D01*
X158496000Y-95008960D01*
X157353000Y-95008960D01*
X157353000Y-92780924D01*
X157353000Y-91567000D01*
X155993783Y-91567000D01*
X155872642Y-91799026D01*
X155875291Y-91814791D01*
X156129268Y-92342036D01*
X156565680Y-92731954D01*
X157118087Y-92925184D01*
X157353000Y-92780924D01*
X157353000Y-95008960D01*
X157043762Y-95008960D01*
X155223401Y-93188599D01*
X154976839Y-93023852D01*
X154686000Y-92966000D01*
X151698802Y-92966000D01*
X151387297Y-92654495D01*
X151641766Y-92824526D01*
X152215255Y-92938600D01*
X152584745Y-92938600D01*
X153158234Y-92824526D01*
X153644415Y-92499670D01*
X153969271Y-92013489D01*
X154083345Y-91440000D01*
X153969271Y-90866511D01*
X153644415Y-90380330D01*
X153334930Y-90173539D01*
X153750732Y-89802036D01*
X154004709Y-89274791D01*
X154007358Y-89259026D01*
X153886217Y-89027000D01*
X152527000Y-89027000D01*
X152527000Y-89047000D01*
X152273000Y-89047000D01*
X152273000Y-89027000D01*
X152253000Y-89027000D01*
X152253000Y-88773000D01*
X152273000Y-88773000D01*
X152273000Y-88753000D01*
X152527000Y-88753000D01*
X152527000Y-88773000D01*
X153886217Y-88773000D01*
X154007358Y-88540974D01*
X154004709Y-88525209D01*
X153750732Y-87997964D01*
X153574298Y-87840326D01*
X153658123Y-87824063D01*
X153870927Y-87684273D01*
X154013377Y-87473240D01*
X154063440Y-87223600D01*
X154063440Y-85496400D01*
X154016463Y-85254277D01*
X153876673Y-85041473D01*
X153665640Y-84899023D01*
X153416000Y-84848960D01*
X151384000Y-84848960D01*
X151141877Y-84895937D01*
X150929073Y-85035727D01*
X150874000Y-85117315D01*
X150874000Y-82550000D01*
X150816148Y-82259161D01*
X150816148Y-82259160D01*
X150651401Y-82012599D01*
X148646802Y-80008000D01*
X150053198Y-80008000D01*
X155816560Y-85771362D01*
X155816560Y-87223600D01*
X155863537Y-87465723D01*
X156003327Y-87678527D01*
X156214360Y-87820977D01*
X156252962Y-87828718D01*
X156235585Y-87840330D01*
X155910729Y-88326511D01*
X155796655Y-88900000D01*
X155910729Y-89473489D01*
X156235585Y-89959670D01*
X156545069Y-90166460D01*
X156129268Y-90537964D01*
X155875291Y-91065209D01*
X155872642Y-91080974D01*
X155993783Y-91313000D01*
X157353000Y-91313000D01*
X157353000Y-91293000D01*
X157607000Y-91293000D01*
X157607000Y-91313000D01*
X158966217Y-91313000D01*
X159087358Y-91080974D01*
X159084709Y-91065209D01*
X158830732Y-90537964D01*
X158414930Y-90166460D01*
X158724415Y-89959670D01*
X159049271Y-89473489D01*
X159163345Y-88900000D01*
X159163345Y-78740000D01*
X159049271Y-78166511D01*
X158724415Y-77680330D01*
X158409634Y-77470000D01*
X158724415Y-77259670D01*
X159049271Y-76773489D01*
X159163345Y-76200000D01*
X159049271Y-75626511D01*
X158724415Y-75140330D01*
X158409634Y-74930000D01*
X158724415Y-74719670D01*
X159049271Y-74233489D01*
X159163345Y-73660000D01*
X159049271Y-73086511D01*
X158724415Y-72600330D01*
X158414930Y-72393539D01*
X158830732Y-72022036D01*
X159084709Y-71494791D01*
X159087358Y-71479026D01*
X158966217Y-71247000D01*
X157607000Y-71247000D01*
X157607000Y-71267000D01*
X157353000Y-71267000D01*
X157353000Y-71247000D01*
X155993783Y-71247000D01*
X155872642Y-71479026D01*
X155875291Y-71494791D01*
X156129268Y-72022036D01*
X156545069Y-72393539D01*
X156235585Y-72600330D01*
X155910729Y-73086511D01*
X155796655Y-73660000D01*
X155910729Y-74233489D01*
X156235585Y-74719670D01*
X156550365Y-74930000D01*
X156235585Y-75140330D01*
X155910729Y-75626511D01*
X155796655Y-76200000D01*
X155910729Y-76773489D01*
X156235585Y-77259670D01*
X156550365Y-77470000D01*
X156235585Y-77680330D01*
X155910729Y-78166511D01*
X155796655Y-78740000D01*
X155910729Y-79313489D01*
X156235585Y-79799670D01*
X156721766Y-80124526D01*
X157295255Y-80238600D01*
X157664745Y-80238600D01*
X158238234Y-80124526D01*
X158724415Y-79799670D01*
X159049271Y-79313489D01*
X159163345Y-78740000D01*
X159163345Y-88900000D01*
X159049271Y-88326511D01*
X158724415Y-87840330D01*
X158708632Y-87829784D01*
X158738123Y-87824063D01*
X158950927Y-87684273D01*
X159093377Y-87473240D01*
X159143440Y-87223600D01*
X159143440Y-85496400D01*
X159096463Y-85254277D01*
X158956673Y-85041473D01*
X158745640Y-84899023D01*
X158496000Y-84848960D01*
X157043762Y-84848960D01*
X155621162Y-83426360D01*
X155621162Y-78808833D01*
X155479117Y-78465057D01*
X155216327Y-78201808D01*
X154872799Y-78059162D01*
X154500833Y-78058838D01*
X154157057Y-78200883D01*
X153893808Y-78463673D01*
X153751162Y-78807201D01*
X153750838Y-79179167D01*
X153892883Y-79522943D01*
X154155673Y-79786192D01*
X154499201Y-79928838D01*
X154871167Y-79929162D01*
X155214943Y-79787117D01*
X155478192Y-79524327D01*
X155620838Y-79180799D01*
X155621162Y-78808833D01*
X155621162Y-83426360D01*
X150905401Y-78710599D01*
X150658839Y-78545852D01*
X150368000Y-78488000D01*
X146812000Y-78488000D01*
X143429162Y-78488000D01*
X143429162Y-73474833D01*
X143287117Y-73131057D01*
X143024327Y-72867808D01*
X142680799Y-72725162D01*
X142667151Y-72725150D01*
X142667162Y-72712833D01*
X142525117Y-72369057D01*
X142262327Y-72105808D01*
X141918799Y-71963162D01*
X141546833Y-71962838D01*
X141203057Y-72104883D01*
X141057111Y-72250574D01*
X141001117Y-72115057D01*
X140738327Y-71851808D01*
X140394799Y-71709162D01*
X140022833Y-71708838D01*
X139679057Y-71850883D01*
X139415808Y-72113673D01*
X139273162Y-72457201D01*
X139272838Y-72829167D01*
X139414883Y-73172943D01*
X139677673Y-73436192D01*
X140021201Y-73578838D01*
X140035069Y-73578850D01*
X140034838Y-73845167D01*
X140176883Y-74188943D01*
X140439673Y-74452192D01*
X140783201Y-74594838D01*
X141155167Y-74595162D01*
X141498943Y-74453117D01*
X141732176Y-74220290D01*
X141963673Y-74452192D01*
X142307201Y-74594838D01*
X142679167Y-74595162D01*
X143022943Y-74453117D01*
X143286192Y-74190327D01*
X143428838Y-73846799D01*
X143429162Y-73474833D01*
X143429162Y-78488000D01*
X135188802Y-78488000D01*
X131093401Y-74392599D01*
X126490000Y-69789198D01*
X126490000Y-68890802D01*
X126716599Y-69117401D01*
X126963160Y-69282148D01*
X126963161Y-69282148D01*
X127011413Y-69291746D01*
X127254000Y-69340000D01*
X133803537Y-69340000D01*
X133835673Y-69372192D01*
X134179201Y-69514838D01*
X134551167Y-69515162D01*
X134894943Y-69373117D01*
X134928117Y-69340000D01*
X142693537Y-69340000D01*
X142725673Y-69372192D01*
X143069201Y-69514838D01*
X143441167Y-69515162D01*
X143784943Y-69373117D01*
X143818117Y-69340000D01*
X156035351Y-69340000D01*
X156235585Y-69639670D01*
X156545069Y-69846460D01*
X156129268Y-70217964D01*
X155875291Y-70745209D01*
X155872642Y-70760974D01*
X155993783Y-70993000D01*
X157353000Y-70993000D01*
X157353000Y-70973000D01*
X157607000Y-70973000D01*
X157607000Y-70993000D01*
X158966217Y-70993000D01*
X159087358Y-70760974D01*
X159084709Y-70745209D01*
X158830732Y-70217964D01*
X158414930Y-69846460D01*
X158724415Y-69639670D01*
X159049271Y-69153489D01*
X159163345Y-68580000D01*
X159049271Y-68006511D01*
X158724415Y-67520330D01*
X158708632Y-67509784D01*
X158738123Y-67504063D01*
X158950927Y-67364273D01*
X159093377Y-67153240D01*
X159143440Y-66903600D01*
X159143440Y-65176400D01*
X159096463Y-64934277D01*
X158956673Y-64721473D01*
X158845457Y-64646400D01*
X158845457Y-46468166D01*
X158445147Y-45499342D01*
X157704557Y-44757458D01*
X156736433Y-44355458D01*
X155688166Y-44354543D01*
X154719342Y-44754853D01*
X153977458Y-45495443D01*
X153575458Y-46463567D01*
X153574543Y-47511834D01*
X153974853Y-48480658D01*
X154715443Y-49222542D01*
X155683567Y-49624542D01*
X156731834Y-49625457D01*
X157700658Y-49225147D01*
X158442542Y-48484557D01*
X158844542Y-47516433D01*
X158845457Y-46468166D01*
X158845457Y-64646400D01*
X158745640Y-64579023D01*
X158496000Y-64528960D01*
X156464000Y-64528960D01*
X156221877Y-64575937D01*
X156009073Y-64715727D01*
X155866623Y-64926760D01*
X155816560Y-65176400D01*
X155816560Y-66903600D01*
X155863537Y-67145723D01*
X156003327Y-67358527D01*
X156214360Y-67500977D01*
X156252962Y-67508718D01*
X156235585Y-67520330D01*
X156035351Y-67820000D01*
X152700162Y-67820000D01*
X152700162Y-59504833D01*
X152558117Y-59161057D01*
X152295327Y-58897808D01*
X151995667Y-58773378D01*
X152064838Y-58606799D01*
X152065162Y-58234833D01*
X151923117Y-57891057D01*
X151660327Y-57627808D01*
X151316799Y-57485162D01*
X150944833Y-57484838D01*
X150601057Y-57626883D01*
X150337808Y-57889673D01*
X150195162Y-58233201D01*
X150194838Y-58605167D01*
X150336883Y-58948943D01*
X150599673Y-59212192D01*
X150899332Y-59336621D01*
X150830162Y-59503201D01*
X150829838Y-59875167D01*
X150971883Y-60218943D01*
X151234673Y-60482192D01*
X151578201Y-60624838D01*
X151950167Y-60625162D01*
X152293943Y-60483117D01*
X152557192Y-60220327D01*
X152699838Y-59876799D01*
X152700162Y-59504833D01*
X152700162Y-67820000D01*
X143818462Y-67820000D01*
X143786327Y-67787808D01*
X143442799Y-67645162D01*
X143175162Y-67644928D01*
X143175162Y-49344833D01*
X143033117Y-49001057D01*
X142770327Y-48737808D01*
X142426799Y-48595162D01*
X142054833Y-48594838D01*
X141711057Y-48736883D01*
X141447808Y-48999673D01*
X141305162Y-49343201D01*
X141304838Y-49715167D01*
X141446883Y-50058943D01*
X141709673Y-50322192D01*
X142053201Y-50464838D01*
X142425167Y-50465162D01*
X142768943Y-50323117D01*
X143032192Y-50060327D01*
X143174838Y-49716799D01*
X143175162Y-49344833D01*
X143175162Y-67644928D01*
X143070833Y-67644838D01*
X142727057Y-67786883D01*
X142693882Y-67820000D01*
X136190162Y-67820000D01*
X136190162Y-54424833D01*
X136048117Y-54081057D01*
X135785327Y-53817808D01*
X135441799Y-53675162D01*
X135069833Y-53674838D01*
X134726057Y-53816883D01*
X134477500Y-54065006D01*
X134477500Y-53670200D01*
X134477500Y-50170080D01*
X134465060Y-50105963D01*
X134465060Y-47797029D01*
X134465060Y-46206410D01*
X134465060Y-45634910D01*
X134465060Y-44044291D01*
X134368387Y-43810902D01*
X134189759Y-43632273D01*
X133956370Y-43535600D01*
X133703751Y-43535600D01*
X132365750Y-43535600D01*
X132207000Y-43694350D01*
X132207000Y-45793660D01*
X134306310Y-45793660D01*
X134465060Y-45634910D01*
X134465060Y-46206410D01*
X134306310Y-46047660D01*
X132207000Y-46047660D01*
X132207000Y-48146970D01*
X132365750Y-48305720D01*
X133703751Y-48305720D01*
X133956370Y-48305720D01*
X134189759Y-48209047D01*
X134368387Y-48030418D01*
X134465060Y-47797029D01*
X134465060Y-50105963D01*
X134430523Y-49927957D01*
X134290733Y-49715153D01*
X134079700Y-49572703D01*
X133830060Y-49522640D01*
X130329940Y-49522640D01*
X130087817Y-49569617D01*
X129875013Y-49709407D01*
X129778500Y-49852386D01*
X129778500Y-47998760D01*
X129791613Y-48030418D01*
X129970241Y-48209047D01*
X130203630Y-48305720D01*
X130456249Y-48305720D01*
X131794250Y-48305720D01*
X131953000Y-48146970D01*
X131953000Y-46047660D01*
X131953000Y-45793660D01*
X131953000Y-43694350D01*
X131794250Y-43535600D01*
X130456249Y-43535600D01*
X130203630Y-43535600D01*
X129970241Y-43632273D01*
X129791613Y-43810902D01*
X129694940Y-44044291D01*
X129694940Y-45634910D01*
X129853690Y-45793660D01*
X131953000Y-45793660D01*
X131953000Y-46047660D01*
X129853690Y-46047660D01*
X129694940Y-46206410D01*
X129694940Y-46872526D01*
X129591733Y-46715413D01*
X129380700Y-46572963D01*
X129131060Y-46522900D01*
X125630940Y-46522900D01*
X125388817Y-46569877D01*
X125176013Y-46709667D01*
X125033563Y-46920700D01*
X124983500Y-47170340D01*
X124983500Y-50670460D01*
X125030477Y-50912583D01*
X125170267Y-51125387D01*
X125381300Y-51267837D01*
X125630940Y-51317900D01*
X129131060Y-51317900D01*
X129373183Y-51270923D01*
X129585987Y-51131133D01*
X129682500Y-50988153D01*
X129682500Y-53670200D01*
X129729477Y-53912323D01*
X129869267Y-54125127D01*
X130080300Y-54267577D01*
X130329940Y-54317640D01*
X133830060Y-54317640D01*
X134072183Y-54270663D01*
X134284987Y-54130873D01*
X134427437Y-53919840D01*
X134477500Y-53670200D01*
X134477500Y-54065006D01*
X134462808Y-54079673D01*
X134320162Y-54423201D01*
X134319838Y-54795167D01*
X134461883Y-55138943D01*
X134724673Y-55402192D01*
X135068201Y-55544838D01*
X135440167Y-55545162D01*
X135783943Y-55403117D01*
X136047192Y-55140327D01*
X136189838Y-54796799D01*
X136190162Y-54424833D01*
X136190162Y-67820000D01*
X136118600Y-67820000D01*
X136118600Y-58604745D01*
X136118600Y-58235255D01*
X136004526Y-57661766D01*
X135679670Y-57175585D01*
X135193489Y-56850729D01*
X134620000Y-56736655D01*
X134046511Y-56850729D01*
X133560330Y-57175585D01*
X133350000Y-57490365D01*
X133139670Y-57175585D01*
X132653489Y-56850729D01*
X132080000Y-56736655D01*
X131506511Y-56850729D01*
X131020330Y-57175585D01*
X131009784Y-57191367D01*
X131004063Y-57161877D01*
X130864273Y-56949073D01*
X130653240Y-56806623D01*
X130403600Y-56756560D01*
X128676400Y-56756560D01*
X128434277Y-56803537D01*
X128221473Y-56943327D01*
X128079023Y-57154360D01*
X128028960Y-57404000D01*
X128028960Y-59436000D01*
X128075937Y-59678123D01*
X128215727Y-59890927D01*
X128426760Y-60033377D01*
X128676400Y-60083440D01*
X130403600Y-60083440D01*
X130645723Y-60036463D01*
X130858527Y-59896673D01*
X131000977Y-59685640D01*
X131008718Y-59647037D01*
X131020330Y-59664415D01*
X131506511Y-59989271D01*
X132080000Y-60103345D01*
X132653489Y-59989271D01*
X133139670Y-59664415D01*
X133350000Y-59349634D01*
X133560330Y-59664415D01*
X134046511Y-59989271D01*
X134620000Y-60103345D01*
X135193489Y-59989271D01*
X135679670Y-59664415D01*
X136004526Y-59178234D01*
X136118600Y-58604745D01*
X136118600Y-67820000D01*
X134928462Y-67820000D01*
X134896327Y-67787808D01*
X134552799Y-67645162D01*
X134180833Y-67644838D01*
X133837057Y-67786883D01*
X133803882Y-67820000D01*
X129713162Y-67820000D01*
X129713162Y-61790833D01*
X129571117Y-61447057D01*
X129308327Y-61183808D01*
X128964799Y-61041162D01*
X128592833Y-61040838D01*
X128249057Y-61182883D01*
X127985808Y-61445673D01*
X127843162Y-61789201D01*
X127842838Y-62161167D01*
X127984883Y-62504943D01*
X128247673Y-62768192D01*
X128591201Y-62910838D01*
X128963167Y-62911162D01*
X129306943Y-62769117D01*
X129570192Y-62506327D01*
X129712838Y-62162799D01*
X129713162Y-61790833D01*
X129713162Y-67820000D01*
X129070632Y-67820000D01*
X129204838Y-67496799D01*
X129205162Y-67124833D01*
X129063117Y-66781057D01*
X128800327Y-66517808D01*
X128456799Y-66375162D01*
X128084833Y-66374838D01*
X127741057Y-66516883D01*
X127477808Y-66779673D01*
X127335162Y-67123201D01*
X127334838Y-67495167D01*
X127398821Y-67650019D01*
X126490000Y-66741198D01*
X126490000Y-63390103D01*
X126559201Y-63418838D01*
X126931167Y-63419162D01*
X127274943Y-63277117D01*
X127538192Y-63014327D01*
X127680838Y-62670799D01*
X127681162Y-62298833D01*
X127539117Y-61955057D01*
X127276327Y-61691808D01*
X126932799Y-61549162D01*
X126560833Y-61548838D01*
X126490000Y-61578105D01*
X126490000Y-59055000D01*
X126432148Y-58764161D01*
X126267401Y-58517599D01*
X126030122Y-58280320D01*
X126030162Y-58234833D01*
X125888117Y-57891057D01*
X125625327Y-57627808D01*
X125281799Y-57485162D01*
X124909833Y-57484838D01*
X124566057Y-57626883D01*
X124302808Y-57889673D01*
X124160162Y-58233201D01*
X124159838Y-58605167D01*
X124301883Y-58948943D01*
X124564673Y-59212192D01*
X124908201Y-59354838D01*
X124955076Y-59354878D01*
X124970000Y-59369802D01*
X124970000Y-66487198D01*
X121890599Y-69566599D01*
X121128599Y-70328599D01*
X120963852Y-70575161D01*
X120906000Y-70866000D01*
X120906000Y-96459198D01*
X120112599Y-97252599D01*
X119475457Y-97889741D01*
X119475457Y-46468166D01*
X119075147Y-45499342D01*
X118334557Y-44757458D01*
X117366433Y-44355458D01*
X116318166Y-44354543D01*
X115349342Y-44754853D01*
X114607458Y-45495443D01*
X114205458Y-46463567D01*
X114204543Y-47511834D01*
X114604853Y-48480658D01*
X115345443Y-49222542D01*
X116313567Y-49624542D01*
X117361834Y-49625457D01*
X118330658Y-49225147D01*
X119072542Y-48484557D01*
X119474542Y-47516433D01*
X119475457Y-46468166D01*
X119475457Y-97889741D01*
X117253345Y-100111853D01*
X117253345Y-92710000D01*
X117139271Y-92136511D01*
X116814415Y-91650330D01*
X116499634Y-91440000D01*
X116814415Y-91229670D01*
X117139271Y-90743489D01*
X117253345Y-90170000D01*
X117253345Y-78740000D01*
X117139271Y-78166511D01*
X116814415Y-77680330D01*
X116499634Y-77470000D01*
X116814415Y-77259670D01*
X117139271Y-76773489D01*
X117253345Y-76200000D01*
X117139271Y-75626511D01*
X116814415Y-75140330D01*
X116798632Y-75129784D01*
X116828123Y-75124063D01*
X117040927Y-74984273D01*
X117183377Y-74773240D01*
X117233440Y-74523600D01*
X117233440Y-72796400D01*
X117186463Y-72554277D01*
X117046673Y-72341473D01*
X116835640Y-72199023D01*
X116586000Y-72148960D01*
X114554000Y-72148960D01*
X114311877Y-72195937D01*
X114099073Y-72335727D01*
X113956623Y-72546760D01*
X113906560Y-72796400D01*
X113906560Y-74523600D01*
X113953537Y-74765723D01*
X114093327Y-74978527D01*
X114304360Y-75120977D01*
X114342962Y-75128718D01*
X114325585Y-75140330D01*
X114000729Y-75626511D01*
X113886655Y-76200000D01*
X114000729Y-76773489D01*
X114325585Y-77259670D01*
X114640365Y-77470000D01*
X114325585Y-77680330D01*
X114000729Y-78166511D01*
X113886655Y-78740000D01*
X114000729Y-79313489D01*
X114325585Y-79799670D01*
X114811766Y-80124526D01*
X115385255Y-80238600D01*
X115754745Y-80238600D01*
X116328234Y-80124526D01*
X116814415Y-79799670D01*
X117139271Y-79313489D01*
X117253345Y-78740000D01*
X117253345Y-90170000D01*
X117139271Y-89596511D01*
X116814415Y-89110330D01*
X116798632Y-89099784D01*
X116828123Y-89094063D01*
X117040927Y-88954273D01*
X117183377Y-88743240D01*
X117233440Y-88493600D01*
X117233440Y-86766400D01*
X117186463Y-86524277D01*
X117046673Y-86311473D01*
X116835640Y-86169023D01*
X116586000Y-86118960D01*
X114554000Y-86118960D01*
X114311877Y-86165937D01*
X114099073Y-86305727D01*
X113956623Y-86516760D01*
X113906560Y-86766400D01*
X113906560Y-88493600D01*
X113953537Y-88735723D01*
X114093327Y-88948527D01*
X114304360Y-89090977D01*
X114342962Y-89098718D01*
X114325585Y-89110330D01*
X114000729Y-89596511D01*
X113886655Y-90170000D01*
X114000729Y-90743489D01*
X114325585Y-91229670D01*
X114640365Y-91440000D01*
X114325585Y-91650330D01*
X114000729Y-92136511D01*
X113886655Y-92710000D01*
X114000729Y-93283489D01*
X114325585Y-93769670D01*
X114811766Y-94094526D01*
X115385255Y-94208600D01*
X115754745Y-94208600D01*
X116328234Y-94094526D01*
X116814415Y-93769670D01*
X117139271Y-93283489D01*
X117253345Y-92710000D01*
X117253345Y-100111853D01*
X116006238Y-101358960D01*
X114554000Y-101358960D01*
X114311877Y-101405937D01*
X114099073Y-101545727D01*
X113956623Y-101756760D01*
X113906560Y-102006400D01*
X113906560Y-103733600D01*
X113953537Y-103975723D01*
X114093327Y-104188527D01*
X114304360Y-104330977D01*
X114342962Y-104338718D01*
X114325585Y-104350330D01*
X114000729Y-104836511D01*
X113886655Y-105410000D01*
X114000729Y-105983489D01*
X114325585Y-106469670D01*
X114640365Y-106680000D01*
X114325585Y-106890330D01*
X114000729Y-107376511D01*
X113886655Y-107950000D01*
X114000729Y-108523489D01*
X114325585Y-109009670D01*
X114640365Y-109220000D01*
X114325585Y-109430330D01*
X114000729Y-109916511D01*
X113886655Y-110490000D01*
X114000729Y-111063489D01*
X114325585Y-111549670D01*
X114640365Y-111760000D01*
X114325585Y-111970330D01*
X114000729Y-112456511D01*
X113886655Y-113030000D01*
X114000729Y-113603489D01*
X114325585Y-114089670D01*
X114811766Y-114414526D01*
X115385255Y-114528600D01*
X115754745Y-114528600D01*
X116328234Y-114414526D01*
X116814415Y-114089670D01*
X117139271Y-113603489D01*
X117253345Y-113030000D01*
X117139271Y-112456511D01*
X116814415Y-111970330D01*
X116499634Y-111760000D01*
X116814415Y-111549670D01*
X117139271Y-111063489D01*
X117253345Y-110490000D01*
X117139271Y-109916511D01*
X116814415Y-109430330D01*
X116499634Y-109220000D01*
X116814415Y-109009670D01*
X117139271Y-108523489D01*
X117253345Y-107950000D01*
X117139271Y-107376511D01*
X116814415Y-106890330D01*
X116499634Y-106680000D01*
X116814415Y-106469670D01*
X117139271Y-105983489D01*
X117253345Y-105410000D01*
X117139271Y-104836511D01*
X116814415Y-104350330D01*
X116798632Y-104339784D01*
X116828123Y-104334063D01*
X117040927Y-104194273D01*
X117183377Y-103983240D01*
X117233440Y-103733600D01*
X117233440Y-102281362D01*
X119890000Y-99624802D01*
X119890000Y-114046000D01*
X119890000Y-115261537D01*
X119857808Y-115293673D01*
X119715162Y-115637201D01*
X119714838Y-116009167D01*
X119856883Y-116352943D01*
X120119673Y-116616192D01*
X120463201Y-116758838D01*
X120835167Y-116759162D01*
X121178943Y-116617117D01*
X121442192Y-116354327D01*
X121571681Y-116042483D01*
X121922000Y-116392802D01*
X121922000Y-122682000D01*
X121922000Y-135382000D01*
X121979852Y-135672839D01*
X122144599Y-135919401D01*
X122948960Y-136723762D01*
X122948960Y-138023600D01*
X122995937Y-138265723D01*
X123135727Y-138478527D01*
X123346760Y-138620977D01*
X123596400Y-138671040D01*
X125323600Y-138671040D01*
X125565723Y-138624063D01*
X125778527Y-138484273D01*
X125920977Y-138273240D01*
X125929179Y-138232340D01*
X125940330Y-138249029D01*
X126426511Y-138573885D01*
X127000000Y-138687959D01*
X127573489Y-138573885D01*
X128059670Y-138249029D01*
X128270000Y-137934248D01*
X128480330Y-138249029D01*
X128966511Y-138573885D01*
X129540000Y-138687959D01*
X130113489Y-138573885D01*
X130599670Y-138249029D01*
X130810000Y-137934248D01*
X131020330Y-138249029D01*
X131506511Y-138573885D01*
X132080000Y-138687959D01*
X132653489Y-138573885D01*
X133139670Y-138249029D01*
X133350000Y-137934248D01*
X133560330Y-138249029D01*
X134046511Y-138573885D01*
X134620000Y-138687959D01*
X135193489Y-138573885D01*
X135679670Y-138249029D01*
X135890000Y-137934248D01*
X136100330Y-138249029D01*
X136586511Y-138573885D01*
X137160000Y-138687959D01*
X137733489Y-138573885D01*
X138219670Y-138249029D01*
X138430000Y-137934248D01*
X138640330Y-138249029D01*
X139126511Y-138573885D01*
X139700000Y-138687959D01*
X140273489Y-138573885D01*
X140759670Y-138249029D01*
X140970000Y-137934248D01*
X141180330Y-138249029D01*
X141666511Y-138573885D01*
X142240000Y-138687959D01*
X142813489Y-138573885D01*
X143299670Y-138249029D01*
X143510000Y-137934248D01*
X143720330Y-138249029D01*
X144206511Y-138573885D01*
X144780000Y-138687959D01*
X145353489Y-138573885D01*
X145839670Y-138249029D01*
X146050000Y-137934248D01*
X146260330Y-138249029D01*
X146746511Y-138573885D01*
X147320000Y-138687959D01*
X147893489Y-138573885D01*
X148379670Y-138249029D01*
X148590000Y-137934248D01*
X148800330Y-138249029D01*
X149286511Y-138573885D01*
X149860000Y-138687959D01*
X150433489Y-138573885D01*
X150919670Y-138249029D01*
X151244526Y-137762848D01*
X151358600Y-137189359D01*
X151358600Y-137130641D01*
X151244526Y-136557152D01*
X150919670Y-136070971D01*
X150648827Y-135890000D01*
X150919670Y-135709029D01*
X151244526Y-135222848D01*
X151358600Y-134649359D01*
X151358600Y-134590641D01*
X151244526Y-134017152D01*
X150919670Y-133530971D01*
X150433489Y-133206115D01*
X149860000Y-133092041D01*
X149286511Y-133206115D01*
X148800330Y-133530971D01*
X148590000Y-133845751D01*
X148379670Y-133530971D01*
X148255162Y-133447777D01*
X148255162Y-131259833D01*
X148255162Y-124528833D01*
X148113117Y-124185057D01*
X148001162Y-124072906D01*
X148001162Y-100906833D01*
X147859117Y-100563057D01*
X147596327Y-100299808D01*
X147252799Y-100157162D01*
X147239151Y-100157150D01*
X147239162Y-100144833D01*
X147097117Y-99801057D01*
X146985162Y-99688906D01*
X146985162Y-92270833D01*
X146843117Y-91927057D01*
X146580327Y-91663808D01*
X146236799Y-91521162D01*
X145864833Y-91520838D01*
X145651579Y-91608952D01*
X145573117Y-91419057D01*
X145310327Y-91155808D01*
X144966799Y-91013162D01*
X144594833Y-91012838D01*
X144251057Y-91154883D01*
X143987808Y-91417673D01*
X143845162Y-91761201D01*
X143844928Y-92029069D01*
X143683162Y-92028928D01*
X143683162Y-91000833D01*
X143541117Y-90657057D01*
X143278327Y-90393808D01*
X142934799Y-90251162D01*
X142562833Y-90250838D01*
X142428550Y-90306322D01*
X142262327Y-90139808D01*
X141918799Y-89997162D01*
X141546833Y-89996838D01*
X141203057Y-90138883D01*
X141067996Y-90273708D01*
X140934329Y-90139808D01*
X140635162Y-90015582D01*
X140635162Y-81602833D01*
X140493117Y-81259057D01*
X140230327Y-80995808D01*
X139886799Y-80853162D01*
X139514833Y-80852838D01*
X139171057Y-80994883D01*
X138907808Y-81257673D01*
X138765162Y-81601201D01*
X138764838Y-81973167D01*
X138906883Y-82316943D01*
X139169673Y-82580192D01*
X139513201Y-82722838D01*
X139885167Y-82723162D01*
X140228943Y-82581117D01*
X140492192Y-82318327D01*
X140634838Y-81974799D01*
X140635162Y-81602833D01*
X140635162Y-90015582D01*
X140590801Y-89997162D01*
X140381162Y-89996979D01*
X140381162Y-88714833D01*
X140239117Y-88371057D01*
X139976327Y-88107808D01*
X139632799Y-87965162D01*
X139260833Y-87964838D01*
X138917057Y-88106883D01*
X138653808Y-88369673D01*
X138574357Y-88561009D01*
X138389957Y-88484439D01*
X138460192Y-88414327D01*
X138602838Y-88070799D01*
X138603162Y-87698833D01*
X138461117Y-87355057D01*
X138198327Y-87091808D01*
X137854799Y-86949162D01*
X137482833Y-86948838D01*
X137139057Y-87090883D01*
X136875808Y-87353673D01*
X136733162Y-87697201D01*
X136733063Y-87810735D01*
X136631057Y-87852883D01*
X136367808Y-88115673D01*
X136225162Y-88459201D01*
X136224838Y-88831167D01*
X136366883Y-89174943D01*
X136629673Y-89438192D01*
X136973201Y-89580838D01*
X137240848Y-89581071D01*
X137240838Y-89593167D01*
X137382883Y-89936943D01*
X137645673Y-90200192D01*
X137989201Y-90342838D01*
X138361167Y-90343162D01*
X138704943Y-90201117D01*
X138968192Y-89938327D01*
X139047642Y-89746990D01*
X139259201Y-89834838D01*
X139631167Y-89835162D01*
X139974943Y-89693117D01*
X140238192Y-89430327D01*
X140380838Y-89086799D01*
X140381162Y-88714833D01*
X140381162Y-89996979D01*
X140218835Y-89996838D01*
X139875059Y-90138883D01*
X139611810Y-90401673D01*
X139469164Y-90745201D01*
X139468840Y-91117167D01*
X139610885Y-91460943D01*
X139873675Y-91724192D01*
X140217203Y-91866838D01*
X140589169Y-91867162D01*
X140932945Y-91725117D01*
X141068005Y-91590291D01*
X141201673Y-91724192D01*
X141545201Y-91866838D01*
X141917167Y-91867162D01*
X142051449Y-91811677D01*
X142217673Y-91978192D01*
X142561201Y-92120838D01*
X142933167Y-92121162D01*
X143276943Y-91979117D01*
X143540192Y-91716327D01*
X143682838Y-91372799D01*
X143683162Y-91000833D01*
X143683162Y-92028928D01*
X143578833Y-92028838D01*
X143235057Y-92170883D01*
X142971808Y-92433673D01*
X142829162Y-92777201D01*
X142828838Y-93149167D01*
X142970883Y-93492943D01*
X143233673Y-93756192D01*
X143577201Y-93898838D01*
X143949167Y-93899162D01*
X144292943Y-93757117D01*
X144405360Y-93644895D01*
X144711167Y-93645162D01*
X145054943Y-93503117D01*
X145318192Y-93240327D01*
X145375074Y-93103340D01*
X145519673Y-93248192D01*
X145863201Y-93390838D01*
X146235167Y-93391162D01*
X146578943Y-93249117D01*
X146842192Y-92986327D01*
X146984838Y-92642799D01*
X146985162Y-92270833D01*
X146985162Y-99688906D01*
X146834327Y-99537808D01*
X146490799Y-99395162D01*
X146118833Y-99394838D01*
X145775057Y-99536883D01*
X145511808Y-99799673D01*
X145369162Y-100143201D01*
X145368838Y-100515167D01*
X145510883Y-100858943D01*
X145773673Y-101122192D01*
X146117201Y-101264838D01*
X146130848Y-101264849D01*
X146130838Y-101277167D01*
X146272883Y-101620943D01*
X146535673Y-101884192D01*
X146879201Y-102026838D01*
X147251167Y-102027162D01*
X147594943Y-101885117D01*
X147858192Y-101622327D01*
X148000838Y-101278799D01*
X148001162Y-100906833D01*
X148001162Y-124072906D01*
X147850327Y-123921808D01*
X147506799Y-123779162D01*
X147134833Y-123778838D01*
X146791057Y-123920883D01*
X146731162Y-123980673D01*
X146731162Y-121988833D01*
X146589117Y-121645057D01*
X146477162Y-121532906D01*
X146477162Y-115130833D01*
X146335117Y-114787057D01*
X146072327Y-114523808D01*
X145728799Y-114381162D01*
X145461162Y-114380928D01*
X145461162Y-107510833D01*
X145319117Y-107167057D01*
X145206895Y-107054639D01*
X145207162Y-106748833D01*
X145065117Y-106405057D01*
X144802327Y-106141808D01*
X144458799Y-105999162D01*
X144445162Y-105999150D01*
X144445162Y-95318833D01*
X144303117Y-94975057D01*
X144040327Y-94711808D01*
X143696799Y-94569162D01*
X143583264Y-94569063D01*
X143541117Y-94467057D01*
X143278327Y-94203808D01*
X142934799Y-94061162D01*
X142821264Y-94061063D01*
X142779117Y-93959057D01*
X142516327Y-93695808D01*
X142172799Y-93553162D01*
X141800833Y-93552838D01*
X141457057Y-93694883D01*
X141193808Y-93957673D01*
X141051162Y-94301201D01*
X141050838Y-94673167D01*
X141192883Y-95016943D01*
X141455673Y-95280192D01*
X141799201Y-95422838D01*
X141912735Y-95422936D01*
X141954883Y-95524943D01*
X142217673Y-95788192D01*
X142561201Y-95930838D01*
X142674735Y-95930936D01*
X142716883Y-96032943D01*
X142979673Y-96296192D01*
X143323201Y-96438838D01*
X143695167Y-96439162D01*
X144038943Y-96297117D01*
X144302192Y-96034327D01*
X144444838Y-95690799D01*
X144445162Y-95318833D01*
X144445162Y-105999150D01*
X144086833Y-105998838D01*
X143743057Y-106140883D01*
X143479808Y-106403673D01*
X143337162Y-106747201D01*
X143336838Y-107119167D01*
X143478883Y-107462943D01*
X143591104Y-107575360D01*
X143590928Y-107777069D01*
X143324833Y-107776838D01*
X142981057Y-107918883D01*
X142717808Y-108181673D01*
X142674929Y-108284935D01*
X142562833Y-108284838D01*
X142219057Y-108426883D01*
X141955808Y-108689673D01*
X141813162Y-109033201D01*
X141812894Y-109340780D01*
X141701808Y-109451673D01*
X141559162Y-109795201D01*
X141558838Y-110167167D01*
X141700883Y-110510943D01*
X141963673Y-110774192D01*
X142307201Y-110916838D01*
X142679167Y-110917162D01*
X143022943Y-110775117D01*
X143286192Y-110512327D01*
X143428838Y-110168799D01*
X143429105Y-109861219D01*
X143540192Y-109750327D01*
X143583070Y-109647064D01*
X143695167Y-109647162D01*
X144038943Y-109505117D01*
X144302192Y-109242327D01*
X144444838Y-108898799D01*
X144445071Y-108630930D01*
X144711167Y-108631162D01*
X145054943Y-108489117D01*
X145318192Y-108226327D01*
X145460838Y-107882799D01*
X145461162Y-107510833D01*
X145461162Y-114380928D01*
X145356833Y-114380838D01*
X145013057Y-114522883D01*
X144749808Y-114785673D01*
X144607162Y-115129201D01*
X144606838Y-115501167D01*
X144748883Y-115844943D01*
X145011673Y-116108192D01*
X145355201Y-116250838D01*
X145727167Y-116251162D01*
X146070943Y-116109117D01*
X146334192Y-115846327D01*
X146476838Y-115502799D01*
X146477162Y-115130833D01*
X146477162Y-121532906D01*
X146326327Y-121381808D01*
X145982799Y-121239162D01*
X145969151Y-121239150D01*
X145969162Y-121226833D01*
X145827117Y-120883057D01*
X145564327Y-120619808D01*
X145220799Y-120477162D01*
X144848833Y-120476838D01*
X144505057Y-120618883D01*
X144241808Y-120881673D01*
X144099162Y-121225201D01*
X144098838Y-121597167D01*
X144240883Y-121940943D01*
X144503673Y-122204192D01*
X144847201Y-122346838D01*
X144860848Y-122346849D01*
X144860838Y-122359167D01*
X145002883Y-122702943D01*
X145265673Y-122966192D01*
X145609201Y-123108838D01*
X145981167Y-123109162D01*
X146324943Y-122967117D01*
X146588192Y-122704327D01*
X146730838Y-122360799D01*
X146731162Y-121988833D01*
X146731162Y-123980673D01*
X146527808Y-124183673D01*
X146385162Y-124527201D01*
X146384838Y-124899167D01*
X146526883Y-125242943D01*
X146789673Y-125506192D01*
X147133201Y-125648838D01*
X147505167Y-125649162D01*
X147848943Y-125507117D01*
X148112192Y-125244327D01*
X148254838Y-124900799D01*
X148255162Y-124528833D01*
X148255162Y-131259833D01*
X148113117Y-130916057D01*
X147850327Y-130652808D01*
X147506799Y-130510162D01*
X147134833Y-130509838D01*
X146791057Y-130651883D01*
X146527808Y-130914673D01*
X146385162Y-131258201D01*
X146384838Y-131630167D01*
X146526883Y-131973943D01*
X146789673Y-132237192D01*
X147133201Y-132379838D01*
X147505167Y-132380162D01*
X147848943Y-132238117D01*
X148112192Y-131975327D01*
X148254838Y-131631799D01*
X148255162Y-131259833D01*
X148255162Y-133447777D01*
X147893489Y-133206115D01*
X147320000Y-133092041D01*
X146746511Y-133206115D01*
X146260330Y-133530971D01*
X146050000Y-133845751D01*
X145839670Y-133530971D01*
X145353489Y-133206115D01*
X144780000Y-133092041D01*
X144445162Y-133158644D01*
X144445162Y-131259833D01*
X144445162Y-124528833D01*
X144303117Y-124185057D01*
X144040327Y-123921808D01*
X143696799Y-123779162D01*
X143324833Y-123778838D01*
X142981057Y-123920883D01*
X142921162Y-123980673D01*
X142921162Y-116908833D01*
X142779117Y-116565057D01*
X142516327Y-116301808D01*
X142172799Y-116159162D01*
X141800833Y-116158838D01*
X141477628Y-116292382D01*
X141156799Y-116159162D01*
X140784833Y-116158838D01*
X140441057Y-116300883D01*
X140381162Y-116360673D01*
X140381162Y-109288833D01*
X140239117Y-108945057D01*
X139976327Y-108681808D01*
X139632799Y-108539162D01*
X139260833Y-108538838D01*
X139126550Y-108594322D01*
X138960327Y-108427808D01*
X138616799Y-108285162D01*
X138244833Y-108284838D01*
X137901057Y-108426883D01*
X137637808Y-108689673D01*
X137495162Y-109033201D01*
X137494838Y-109405167D01*
X137636883Y-109748943D01*
X137899673Y-110012192D01*
X138243201Y-110154838D01*
X138615167Y-110155162D01*
X138749449Y-110099677D01*
X138915673Y-110266192D01*
X139259201Y-110408838D01*
X139631167Y-110409162D01*
X139974943Y-110267117D01*
X140238192Y-110004327D01*
X140380838Y-109660799D01*
X140381162Y-109288833D01*
X140381162Y-116360673D01*
X140177808Y-116563673D01*
X140035162Y-116907201D01*
X140034838Y-117279167D01*
X140176883Y-117622943D01*
X140439673Y-117886192D01*
X140783201Y-118028838D01*
X141155167Y-118029162D01*
X141478371Y-117895617D01*
X141799201Y-118028838D01*
X142171167Y-118029162D01*
X142514943Y-117887117D01*
X142778192Y-117624327D01*
X142920838Y-117280799D01*
X142921162Y-116908833D01*
X142921162Y-123980673D01*
X142717808Y-124183673D01*
X142575162Y-124527201D01*
X142574838Y-124899167D01*
X142716883Y-125242943D01*
X142979673Y-125506192D01*
X143323201Y-125648838D01*
X143695167Y-125649162D01*
X144038943Y-125507117D01*
X144302192Y-125244327D01*
X144444838Y-124900799D01*
X144445162Y-124528833D01*
X144445162Y-131259833D01*
X144303117Y-130916057D01*
X144040327Y-130652808D01*
X143696799Y-130510162D01*
X143324833Y-130509838D01*
X142981057Y-130651883D01*
X142717808Y-130914673D01*
X142575162Y-131258201D01*
X142574838Y-131630167D01*
X142716883Y-131973943D01*
X142979673Y-132237192D01*
X143323201Y-132379838D01*
X143695167Y-132380162D01*
X144038943Y-132238117D01*
X144302192Y-131975327D01*
X144444838Y-131631799D01*
X144445162Y-131259833D01*
X144445162Y-133158644D01*
X144206511Y-133206115D01*
X143720330Y-133530971D01*
X143504336Y-133854228D01*
X143446821Y-133731510D01*
X143014947Y-133337312D01*
X142599026Y-133165042D01*
X142367000Y-133286183D01*
X142367000Y-134493000D01*
X142387000Y-134493000D01*
X142387000Y-134747000D01*
X142367000Y-134747000D01*
X142367000Y-134767000D01*
X142113000Y-134767000D01*
X142113000Y-134747000D01*
X142093000Y-134747000D01*
X142093000Y-134493000D01*
X142113000Y-134493000D01*
X142113000Y-133286183D01*
X141880974Y-133165042D01*
X141465053Y-133337312D01*
X141033179Y-133731510D01*
X140975663Y-133854228D01*
X140759670Y-133530971D01*
X140635162Y-133447777D01*
X140635162Y-131259833D01*
X140635162Y-124528833D01*
X140493117Y-124185057D01*
X140230327Y-123921808D01*
X140127162Y-123878969D01*
X140127162Y-117670833D01*
X139985117Y-117327057D01*
X139722327Y-117063808D01*
X139378799Y-116921162D01*
X139006833Y-116920838D01*
X138663057Y-117062883D01*
X138399808Y-117325673D01*
X138257162Y-117669201D01*
X138256838Y-118041167D01*
X138398883Y-118384943D01*
X138661673Y-118648192D01*
X139005201Y-118790838D01*
X139377167Y-118791162D01*
X139720943Y-118649117D01*
X139984192Y-118386327D01*
X140126838Y-118042799D01*
X140127162Y-117670833D01*
X140127162Y-123878969D01*
X139886799Y-123779162D01*
X139514833Y-123778838D01*
X139171057Y-123920883D01*
X138907808Y-124183673D01*
X138765162Y-124527201D01*
X138764838Y-124899167D01*
X138906883Y-125242943D01*
X139169673Y-125506192D01*
X139513201Y-125648838D01*
X139885167Y-125649162D01*
X140228943Y-125507117D01*
X140492192Y-125244327D01*
X140634838Y-124900799D01*
X140635162Y-124528833D01*
X140635162Y-131259833D01*
X140493117Y-130916057D01*
X140230327Y-130652808D01*
X139886799Y-130510162D01*
X139514833Y-130509838D01*
X139171057Y-130651883D01*
X138907808Y-130914673D01*
X138765162Y-131258201D01*
X138764838Y-131630167D01*
X138906883Y-131973943D01*
X139169673Y-132237192D01*
X139513201Y-132379838D01*
X139885167Y-132380162D01*
X140228943Y-132238117D01*
X140492192Y-131975327D01*
X140634838Y-131631799D01*
X140635162Y-131259833D01*
X140635162Y-133447777D01*
X140273489Y-133206115D01*
X139700000Y-133092041D01*
X139126511Y-133206115D01*
X138640330Y-133530971D01*
X138430000Y-133845751D01*
X138349162Y-133724768D01*
X138349162Y-118432833D01*
X138207117Y-118089057D01*
X137944327Y-117825808D01*
X137600799Y-117683162D01*
X137228833Y-117682838D01*
X137079162Y-117744680D01*
X137079162Y-109288833D01*
X136945617Y-108965628D01*
X137078838Y-108644799D01*
X137079162Y-108272833D01*
X137079162Y-103192833D01*
X136937117Y-102849057D01*
X136674327Y-102585808D01*
X136330799Y-102443162D01*
X135958833Y-102442838D01*
X135615057Y-102584883D01*
X135351808Y-102847673D01*
X135209162Y-103191201D01*
X135208838Y-103563167D01*
X135350883Y-103906943D01*
X135613673Y-104170192D01*
X135957201Y-104312838D01*
X136329167Y-104313162D01*
X136672943Y-104171117D01*
X136936192Y-103908327D01*
X137078838Y-103564799D01*
X137079162Y-103192833D01*
X137079162Y-108272833D01*
X136937117Y-107929057D01*
X136674327Y-107665808D01*
X136330799Y-107523162D01*
X135958833Y-107522838D01*
X135615057Y-107664883D01*
X135351808Y-107927673D01*
X135209162Y-108271201D01*
X135208838Y-108643167D01*
X135342382Y-108966371D01*
X135209162Y-109287201D01*
X135208838Y-109659167D01*
X135350883Y-110002943D01*
X135613673Y-110266192D01*
X135957201Y-110408838D01*
X136329167Y-110409162D01*
X136672943Y-110267117D01*
X136936192Y-110004327D01*
X137078838Y-109660799D01*
X137079162Y-109288833D01*
X137079162Y-117744680D01*
X136885057Y-117824883D01*
X136621808Y-118087673D01*
X136479162Y-118431201D01*
X136478838Y-118803167D01*
X136620883Y-119146943D01*
X136883673Y-119410192D01*
X137227201Y-119552838D01*
X137599167Y-119553162D01*
X137942943Y-119411117D01*
X138206192Y-119148327D01*
X138348838Y-118804799D01*
X138349162Y-118432833D01*
X138349162Y-133724768D01*
X138219670Y-133530971D01*
X137733489Y-133206115D01*
X137160000Y-133092041D01*
X136586511Y-133206115D01*
X136100330Y-133530971D01*
X135890000Y-133845751D01*
X135679670Y-133530971D01*
X135423975Y-133360121D01*
X135666192Y-133118327D01*
X135808838Y-132774799D01*
X135809162Y-132402833D01*
X135799695Y-132379922D01*
X136075167Y-132380162D01*
X136418943Y-132238117D01*
X136682192Y-131975327D01*
X136824838Y-131631799D01*
X136825162Y-131259833D01*
X136825162Y-124528833D01*
X136683117Y-124185057D01*
X136420327Y-123921808D01*
X136076799Y-123779162D01*
X136063162Y-123779150D01*
X136063162Y-119702833D01*
X135921117Y-119359057D01*
X135658327Y-119095808D01*
X135554843Y-119052837D01*
X135555162Y-118686833D01*
X135413117Y-118343057D01*
X135150327Y-118079808D01*
X134806799Y-117937162D01*
X134539162Y-117936928D01*
X134539162Y-101160833D01*
X134397117Y-100817057D01*
X134134327Y-100553808D01*
X133790799Y-100411162D01*
X133418833Y-100410838D01*
X133075057Y-100552883D01*
X132811808Y-100815673D01*
X132669162Y-101159201D01*
X132668838Y-101531167D01*
X132810883Y-101874943D01*
X133073673Y-102138192D01*
X133417201Y-102280838D01*
X133789167Y-102281162D01*
X134132943Y-102139117D01*
X134396192Y-101876327D01*
X134538838Y-101532799D01*
X134539162Y-101160833D01*
X134539162Y-117936928D01*
X134434833Y-117936838D01*
X134091057Y-118078883D01*
X134031162Y-118138673D01*
X134031162Y-116654833D01*
X133889117Y-116311057D01*
X133626327Y-116047808D01*
X133282799Y-115905162D01*
X132910833Y-115904838D01*
X132761162Y-115966680D01*
X132761162Y-105224833D01*
X132619117Y-104881057D01*
X132356327Y-104617808D01*
X132012799Y-104475162D01*
X131640833Y-104474838D01*
X131297057Y-104616883D01*
X131033808Y-104879673D01*
X130891162Y-105223201D01*
X130890838Y-105595167D01*
X130952707Y-105744902D01*
X130878833Y-105744838D01*
X130535057Y-105886883D01*
X130271808Y-106149673D01*
X130129162Y-106493201D01*
X130128838Y-106865167D01*
X130270883Y-107208943D01*
X130533673Y-107472192D01*
X130877201Y-107614838D01*
X131249167Y-107615162D01*
X131592943Y-107473117D01*
X131856192Y-107210327D01*
X131998838Y-106866799D01*
X131999162Y-106494833D01*
X131937292Y-106345097D01*
X132011167Y-106345162D01*
X132354943Y-106203117D01*
X132618192Y-105940327D01*
X132760838Y-105596799D01*
X132761162Y-105224833D01*
X132761162Y-115966680D01*
X132587628Y-116038382D01*
X132507162Y-116004969D01*
X132507162Y-109796833D01*
X132365117Y-109453057D01*
X132102327Y-109189808D01*
X131758799Y-109047162D01*
X131645264Y-109047063D01*
X131603117Y-108945057D01*
X131340327Y-108681808D01*
X130996799Y-108539162D01*
X130624833Y-108538838D01*
X130281057Y-108680883D01*
X130017808Y-108943673D01*
X129875162Y-109287201D01*
X129874838Y-109659167D01*
X130016883Y-110002943D01*
X130279673Y-110266192D01*
X130623201Y-110408838D01*
X130736735Y-110408936D01*
X130778883Y-110510943D01*
X131041673Y-110774192D01*
X131385201Y-110916838D01*
X131757167Y-110917162D01*
X132100943Y-110775117D01*
X132364192Y-110512327D01*
X132506838Y-110168799D01*
X132507162Y-109796833D01*
X132507162Y-116004969D01*
X132266799Y-115905162D01*
X131894833Y-115904838D01*
X131551057Y-116046883D01*
X131287808Y-116309673D01*
X131145162Y-116653201D01*
X131144838Y-117025167D01*
X131286883Y-117368943D01*
X131549673Y-117632192D01*
X131893201Y-117774838D01*
X132265167Y-117775162D01*
X132588371Y-117641617D01*
X132909201Y-117774838D01*
X133281167Y-117775162D01*
X133624943Y-117633117D01*
X133888192Y-117370327D01*
X134030838Y-117026799D01*
X134031162Y-116654833D01*
X134031162Y-118138673D01*
X133827808Y-118341673D01*
X133685162Y-118685201D01*
X133684838Y-119057167D01*
X133826883Y-119400943D01*
X134089673Y-119664192D01*
X134193156Y-119707162D01*
X134192838Y-120073167D01*
X134334883Y-120416943D01*
X134597673Y-120680192D01*
X134941201Y-120822838D01*
X135313167Y-120823162D01*
X135656943Y-120681117D01*
X135920192Y-120418327D01*
X136062838Y-120074799D01*
X136063162Y-119702833D01*
X136063162Y-123779150D01*
X135704833Y-123778838D01*
X135361057Y-123920883D01*
X135097808Y-124183673D01*
X134955162Y-124527201D01*
X134954838Y-124899167D01*
X135096883Y-125242943D01*
X135359673Y-125506192D01*
X135703201Y-125648838D01*
X136075167Y-125649162D01*
X136418943Y-125507117D01*
X136682192Y-125244327D01*
X136824838Y-124900799D01*
X136825162Y-124528833D01*
X136825162Y-131259833D01*
X136683117Y-130916057D01*
X136420327Y-130652808D01*
X136076799Y-130510162D01*
X135704833Y-130509838D01*
X135361057Y-130651883D01*
X135097808Y-130914673D01*
X134955162Y-131258201D01*
X134954838Y-131630167D01*
X134964304Y-131653077D01*
X134688833Y-131652838D01*
X134345057Y-131794883D01*
X134081808Y-132057673D01*
X133939162Y-132401201D01*
X133938838Y-132773167D01*
X134080883Y-133116943D01*
X134149457Y-133185637D01*
X134046511Y-133206115D01*
X133560330Y-133530971D01*
X133523162Y-133586596D01*
X133523162Y-120464833D01*
X133381117Y-120121057D01*
X133118327Y-119857808D01*
X132774799Y-119715162D01*
X132402833Y-119714838D01*
X132059057Y-119856883D01*
X131795808Y-120119673D01*
X131653162Y-120463201D01*
X131652838Y-120835167D01*
X131794883Y-121178943D01*
X132057673Y-121442192D01*
X132401201Y-121584838D01*
X132773167Y-121585162D01*
X133116943Y-121443117D01*
X133380192Y-121180327D01*
X133522838Y-120836799D01*
X133523162Y-120464833D01*
X133523162Y-133586596D01*
X133350000Y-133845751D01*
X133139670Y-133530971D01*
X133015162Y-133447777D01*
X133015162Y-131386833D01*
X133015162Y-124528833D01*
X132873117Y-124185057D01*
X132760895Y-124072639D01*
X132761162Y-123766833D01*
X132619117Y-123423057D01*
X132356327Y-123159808D01*
X132012799Y-123017162D01*
X131705219Y-123016894D01*
X131594327Y-122905808D01*
X131250799Y-122763162D01*
X130878833Y-122762838D01*
X130535057Y-122904883D01*
X130271808Y-123167673D01*
X130129162Y-123511201D01*
X130128838Y-123883167D01*
X130270883Y-124226943D01*
X130533673Y-124490192D01*
X130877201Y-124632838D01*
X131145069Y-124633071D01*
X131144838Y-124899167D01*
X131286883Y-125242943D01*
X131549673Y-125506192D01*
X131893201Y-125648838D01*
X132265167Y-125649162D01*
X132608943Y-125507117D01*
X132872192Y-125244327D01*
X133014838Y-124900799D01*
X133015162Y-124528833D01*
X133015162Y-131386833D01*
X132873117Y-131043057D01*
X132610327Y-130779808D01*
X132266799Y-130637162D01*
X131894833Y-130636838D01*
X131551057Y-130778883D01*
X131287808Y-131041673D01*
X131145162Y-131385201D01*
X131144838Y-131757167D01*
X131286883Y-132100943D01*
X131549673Y-132364192D01*
X131893201Y-132506838D01*
X132265167Y-132507162D01*
X132608943Y-132365117D01*
X132872192Y-132102327D01*
X133014838Y-131758799D01*
X133015162Y-131386833D01*
X133015162Y-133447777D01*
X132653489Y-133206115D01*
X132080000Y-133092041D01*
X131506511Y-133206115D01*
X131020330Y-133530971D01*
X130810000Y-133845751D01*
X130599670Y-133530971D01*
X130452408Y-133432573D01*
X130576943Y-133381117D01*
X130840192Y-133118327D01*
X130982838Y-132774799D01*
X130983162Y-132402833D01*
X130841117Y-132059057D01*
X130578327Y-131795808D01*
X130234799Y-131653162D01*
X129862833Y-131652838D01*
X129713162Y-131714680D01*
X129713162Y-100144833D01*
X129713162Y-96842833D01*
X129571117Y-96499057D01*
X129308327Y-96235808D01*
X128964799Y-96093162D01*
X128592833Y-96092838D01*
X128249057Y-96234883D01*
X127985808Y-96497673D01*
X127843162Y-96841201D01*
X127842838Y-97213167D01*
X127984883Y-97556943D01*
X128247673Y-97820192D01*
X128591201Y-97962838D01*
X128963167Y-97963162D01*
X129306943Y-97821117D01*
X129570192Y-97558327D01*
X129712838Y-97214799D01*
X129713162Y-96842833D01*
X129713162Y-100144833D01*
X129571117Y-99801057D01*
X129308327Y-99537808D01*
X128964799Y-99395162D01*
X128592833Y-99394838D01*
X128249057Y-99536883D01*
X128120612Y-99665103D01*
X128188838Y-99500799D01*
X128189162Y-99128833D01*
X128047117Y-98785057D01*
X127784327Y-98521808D01*
X127681162Y-98478969D01*
X127681162Y-97096833D01*
X127539117Y-96753057D01*
X127337358Y-96550945D01*
X127337358Y-93069026D01*
X127216217Y-92837000D01*
X125857000Y-92837000D01*
X125857000Y-94050924D01*
X126091913Y-94195184D01*
X126644320Y-94001954D01*
X127080732Y-93612036D01*
X127334709Y-93084791D01*
X127337358Y-93069026D01*
X127337358Y-96550945D01*
X127276327Y-96489808D01*
X126932799Y-96347162D01*
X126560833Y-96346838D01*
X126217057Y-96488883D01*
X125953808Y-96751673D01*
X125811162Y-97095201D01*
X125810838Y-97467167D01*
X125952883Y-97810943D01*
X126215673Y-98074192D01*
X126559201Y-98216838D01*
X126931167Y-98217162D01*
X127274943Y-98075117D01*
X127538192Y-97812327D01*
X127680838Y-97468799D01*
X127681162Y-97096833D01*
X127681162Y-98478969D01*
X127440799Y-98379162D01*
X127068833Y-98378838D01*
X126725057Y-98520883D01*
X126461808Y-98783673D01*
X126319162Y-99127201D01*
X126318838Y-99499167D01*
X126460883Y-99842943D01*
X126723673Y-100106192D01*
X127067201Y-100248838D01*
X127439167Y-100249162D01*
X127782943Y-100107117D01*
X127911387Y-99978896D01*
X127843162Y-100143201D01*
X127842838Y-100515167D01*
X127984883Y-100858943D01*
X128247673Y-101122192D01*
X128591201Y-101264838D01*
X128963167Y-101265162D01*
X129306943Y-101123117D01*
X129570192Y-100860327D01*
X129712838Y-100516799D01*
X129713162Y-100144833D01*
X129713162Y-131714680D01*
X129519057Y-131794883D01*
X129459162Y-131854673D01*
X129459162Y-105478833D01*
X129317117Y-105135057D01*
X129054327Y-104871808D01*
X128710799Y-104729162D01*
X128697162Y-104729150D01*
X128697162Y-102176833D01*
X128555117Y-101833057D01*
X128292327Y-101569808D01*
X128189064Y-101526929D01*
X128189162Y-101414833D01*
X128047117Y-101071057D01*
X127784327Y-100807808D01*
X127440799Y-100665162D01*
X127068833Y-100664838D01*
X126725057Y-100806883D01*
X126461808Y-101069673D01*
X126319162Y-101413201D01*
X126318838Y-101785167D01*
X126460883Y-102128943D01*
X126723673Y-102392192D01*
X126826935Y-102435070D01*
X126826838Y-102547167D01*
X126968883Y-102890943D01*
X127231673Y-103154192D01*
X127575201Y-103296838D01*
X127947167Y-103297162D01*
X128290943Y-103155117D01*
X128554192Y-102892327D01*
X128696838Y-102548799D01*
X128697162Y-102176833D01*
X128697162Y-104729150D01*
X128338833Y-104728838D01*
X127995057Y-104870883D01*
X127935162Y-104930673D01*
X127935162Y-103954833D01*
X127793117Y-103611057D01*
X127530327Y-103347808D01*
X127186799Y-103205162D01*
X126814833Y-103204838D01*
X126471057Y-103346883D01*
X126207808Y-103609673D01*
X126065162Y-103953201D01*
X126064838Y-104325167D01*
X126206883Y-104668943D01*
X126469673Y-104932192D01*
X126813201Y-105074838D01*
X127185167Y-105075162D01*
X127528943Y-104933117D01*
X127792192Y-104670327D01*
X127934838Y-104326799D01*
X127935162Y-103954833D01*
X127935162Y-104930673D01*
X127731808Y-105133673D01*
X127589162Y-105477201D01*
X127588838Y-105849167D01*
X127730883Y-106192943D01*
X127993673Y-106456192D01*
X128337201Y-106598838D01*
X128709167Y-106599162D01*
X129052943Y-106457117D01*
X129316192Y-106194327D01*
X129458838Y-105850799D01*
X129459162Y-105478833D01*
X129459162Y-131854673D01*
X129255808Y-132057673D01*
X129205162Y-132179641D01*
X129205162Y-131386833D01*
X129205162Y-124528833D01*
X129063117Y-124185057D01*
X128951162Y-124072906D01*
X128951162Y-109542833D01*
X128809117Y-109199057D01*
X128576290Y-108965823D01*
X128808192Y-108734327D01*
X128950838Y-108390799D01*
X128951162Y-108018833D01*
X128809117Y-107675057D01*
X128546327Y-107411808D01*
X128202799Y-107269162D01*
X127830833Y-107268838D01*
X127487057Y-107410883D01*
X127341111Y-107556574D01*
X127285117Y-107421057D01*
X127022327Y-107157808D01*
X126678799Y-107015162D01*
X126306833Y-107014838D01*
X125963057Y-107156883D01*
X125699808Y-107419673D01*
X125603000Y-107652811D01*
X125603000Y-94050924D01*
X125603000Y-92837000D01*
X124243783Y-92837000D01*
X124122642Y-93069026D01*
X124125291Y-93084791D01*
X124379268Y-93612036D01*
X124815680Y-94001954D01*
X125368087Y-94195184D01*
X125603000Y-94050924D01*
X125603000Y-107652811D01*
X125557162Y-107763201D01*
X125556838Y-108135167D01*
X125698883Y-108478943D01*
X125961673Y-108742192D01*
X126305201Y-108884838D01*
X126677167Y-108885162D01*
X127020943Y-108743117D01*
X127166888Y-108597425D01*
X127222883Y-108732943D01*
X127455709Y-108966176D01*
X127223808Y-109197673D01*
X127081162Y-109541201D01*
X127080838Y-109913167D01*
X127222883Y-110256943D01*
X127485673Y-110520192D01*
X127829201Y-110662838D01*
X128201167Y-110663162D01*
X128544943Y-110521117D01*
X128808192Y-110258327D01*
X128950838Y-109914799D01*
X128951162Y-109542833D01*
X128951162Y-124072906D01*
X128800327Y-123921808D01*
X128456799Y-123779162D01*
X128443162Y-123779150D01*
X128443162Y-122242833D01*
X128301117Y-121899057D01*
X128038327Y-121635808D01*
X127694799Y-121493162D01*
X127322833Y-121492838D01*
X126999628Y-121626382D01*
X126678799Y-121493162D01*
X126306833Y-121492838D01*
X125963057Y-121634883D01*
X125699808Y-121897673D01*
X125557162Y-122241201D01*
X125556838Y-122613167D01*
X125698883Y-122956943D01*
X125961673Y-123220192D01*
X126305201Y-123362838D01*
X126677167Y-123363162D01*
X127000371Y-123229617D01*
X127321201Y-123362838D01*
X127693167Y-123363162D01*
X128036943Y-123221117D01*
X128300192Y-122958327D01*
X128442838Y-122614799D01*
X128443162Y-122242833D01*
X128443162Y-123779150D01*
X128084833Y-123778838D01*
X127741057Y-123920883D01*
X127477808Y-124183673D01*
X127335162Y-124527201D01*
X127334838Y-124899167D01*
X127476883Y-125242943D01*
X127739673Y-125506192D01*
X128083201Y-125648838D01*
X128455167Y-125649162D01*
X128798943Y-125507117D01*
X129062192Y-125244327D01*
X129204838Y-124900799D01*
X129205162Y-124528833D01*
X129205162Y-131386833D01*
X129063117Y-131043057D01*
X128800327Y-130779808D01*
X128456799Y-130637162D01*
X128084833Y-130636838D01*
X127741057Y-130778883D01*
X127477808Y-131041673D01*
X127335162Y-131385201D01*
X127334838Y-131757167D01*
X127476883Y-132100943D01*
X127739673Y-132364192D01*
X128083201Y-132506838D01*
X128455167Y-132507162D01*
X128798943Y-132365117D01*
X129062192Y-132102327D01*
X129204838Y-131758799D01*
X129205162Y-131386833D01*
X129205162Y-132179641D01*
X129113162Y-132401201D01*
X129112838Y-132773167D01*
X129254883Y-133116943D01*
X129281377Y-133143484D01*
X128966511Y-133206115D01*
X128480330Y-133530971D01*
X128270000Y-133845751D01*
X128059670Y-133530971D01*
X127573489Y-133206115D01*
X127000000Y-133092041D01*
X126426511Y-133206115D01*
X125940330Y-133530971D01*
X125724336Y-133854228D01*
X125666821Y-133731510D01*
X125234947Y-133337312D01*
X124819026Y-133165042D01*
X124587000Y-133286183D01*
X124587000Y-134493000D01*
X124607000Y-134493000D01*
X124607000Y-134747000D01*
X124587000Y-134747000D01*
X124587000Y-134767000D01*
X124333000Y-134767000D01*
X124333000Y-134747000D01*
X124313000Y-134747000D01*
X124313000Y-134493000D01*
X124333000Y-134493000D01*
X124333000Y-133286183D01*
X124100974Y-133165042D01*
X123685053Y-133337312D01*
X123442000Y-133559161D01*
X123442000Y-124516802D01*
X124086337Y-125161139D01*
X124033162Y-125289201D01*
X124032838Y-125661167D01*
X124174883Y-126004943D01*
X124437673Y-126268192D01*
X124781201Y-126410838D01*
X125153167Y-126411162D01*
X125496943Y-126269117D01*
X125760192Y-126006327D01*
X125902838Y-125662799D01*
X125903162Y-125290833D01*
X125761117Y-124947057D01*
X125714556Y-124900415D01*
X125670148Y-124677161D01*
X125670148Y-124677160D01*
X125505401Y-124430599D01*
X124841000Y-123766198D01*
X124841000Y-103859910D01*
X124841000Y-103607291D01*
X124841000Y-103155750D01*
X124841000Y-102584250D01*
X124841000Y-102132709D01*
X124841000Y-101880090D01*
X124744327Y-101646701D01*
X124565698Y-101468073D01*
X124332309Y-101371400D01*
X123475750Y-101371400D01*
X123317000Y-101530150D01*
X123317000Y-102743000D01*
X124682250Y-102743000D01*
X124841000Y-102584250D01*
X124841000Y-103155750D01*
X124682250Y-102997000D01*
X123317000Y-102997000D01*
X123317000Y-104069076D01*
X123317000Y-104209850D01*
X123317000Y-105283000D01*
X124676217Y-105283000D01*
X124797358Y-105050974D01*
X124794709Y-105035209D01*
X124540732Y-104507964D01*
X124368139Y-104353758D01*
X124565698Y-104271927D01*
X124744327Y-104093299D01*
X124841000Y-103859910D01*
X124841000Y-123766198D01*
X124797358Y-123722556D01*
X124797358Y-113389026D01*
X124797358Y-112670974D01*
X124794709Y-112655209D01*
X124540732Y-112127964D01*
X124128891Y-111760000D01*
X124540732Y-111392036D01*
X124794709Y-110864791D01*
X124797358Y-110849026D01*
X124797358Y-110130974D01*
X124794709Y-110115209D01*
X124540732Y-109587964D01*
X124128891Y-109220000D01*
X124540732Y-108852036D01*
X124794709Y-108324791D01*
X124797358Y-108309026D01*
X124797358Y-107590974D01*
X124794709Y-107575209D01*
X124540732Y-107047964D01*
X124128891Y-106680000D01*
X124540732Y-106312036D01*
X124794709Y-105784791D01*
X124797358Y-105769026D01*
X124676217Y-105537000D01*
X123317000Y-105537000D01*
X123317000Y-106609076D01*
X123317000Y-106750924D01*
X123317000Y-107823000D01*
X124676217Y-107823000D01*
X124797358Y-107590974D01*
X124797358Y-108309026D01*
X124676217Y-108077000D01*
X123317000Y-108077000D01*
X123317000Y-109149076D01*
X123317000Y-109290924D01*
X123317000Y-110363000D01*
X124676217Y-110363000D01*
X124797358Y-110130974D01*
X124797358Y-110849026D01*
X124676217Y-110617000D01*
X123317000Y-110617000D01*
X123317000Y-111689076D01*
X123317000Y-111830924D01*
X123317000Y-112903000D01*
X124676217Y-112903000D01*
X124797358Y-112670974D01*
X124797358Y-113389026D01*
X124676217Y-113157000D01*
X123317000Y-113157000D01*
X123317000Y-114370924D01*
X123551913Y-114515184D01*
X124104320Y-114321954D01*
X124540732Y-113932036D01*
X124794709Y-113404791D01*
X124797358Y-113389026D01*
X124797358Y-123722556D01*
X123442000Y-122367198D01*
X123442000Y-116078000D01*
X123384148Y-115787161D01*
X123219401Y-115540599D01*
X123063000Y-115384198D01*
X123063000Y-114370924D01*
X123063000Y-113157000D01*
X123063000Y-112903000D01*
X123063000Y-111830924D01*
X123063000Y-111689076D01*
X123063000Y-110617000D01*
X123063000Y-110363000D01*
X123063000Y-109290924D01*
X123063000Y-109149076D01*
X123063000Y-108077000D01*
X123063000Y-107823000D01*
X123063000Y-106750924D01*
X123063000Y-106609076D01*
X123063000Y-105537000D01*
X123063000Y-105283000D01*
X123063000Y-104209850D01*
X123063000Y-104069076D01*
X123063000Y-102997000D01*
X123063000Y-102743000D01*
X123063000Y-101530150D01*
X122904250Y-101371400D01*
X122047691Y-101371400D01*
X121814302Y-101468073D01*
X121635673Y-101646701D01*
X121539000Y-101880090D01*
X121539000Y-102132709D01*
X121539000Y-102584250D01*
X121697750Y-102743000D01*
X123063000Y-102743000D01*
X123063000Y-102997000D01*
X121697750Y-102997000D01*
X121539000Y-103155750D01*
X121539000Y-103607291D01*
X121539000Y-103859910D01*
X121635673Y-104093299D01*
X121814302Y-104271927D01*
X122011860Y-104353758D01*
X121839268Y-104507964D01*
X121585291Y-105035209D01*
X121582642Y-105050974D01*
X121703783Y-105283000D01*
X123063000Y-105283000D01*
X123063000Y-105537000D01*
X121703783Y-105537000D01*
X121582642Y-105769026D01*
X121585291Y-105784791D01*
X121839268Y-106312036D01*
X122251108Y-106680000D01*
X121839268Y-107047964D01*
X121585291Y-107575209D01*
X121582642Y-107590974D01*
X121703783Y-107823000D01*
X123063000Y-107823000D01*
X123063000Y-108077000D01*
X121703783Y-108077000D01*
X121582642Y-108309026D01*
X121585291Y-108324791D01*
X121839268Y-108852036D01*
X122251108Y-109220000D01*
X121839268Y-109587964D01*
X121585291Y-110115209D01*
X121582642Y-110130974D01*
X121703783Y-110363000D01*
X123063000Y-110363000D01*
X123063000Y-110617000D01*
X121703783Y-110617000D01*
X121582642Y-110849026D01*
X121585291Y-110864791D01*
X121839268Y-111392036D01*
X122251108Y-111760000D01*
X121839268Y-112127964D01*
X121585291Y-112655209D01*
X121582642Y-112670974D01*
X121703783Y-112903000D01*
X123063000Y-112903000D01*
X123063000Y-113157000D01*
X121703783Y-113157000D01*
X121582642Y-113389026D01*
X121585291Y-113404791D01*
X121839268Y-113932036D01*
X122275680Y-114321954D01*
X122828087Y-114515184D01*
X123063000Y-114370924D01*
X123063000Y-115384198D01*
X121410000Y-113731198D01*
X121410000Y-98104802D01*
X122203401Y-97311401D01*
X122368148Y-97064839D01*
X122426000Y-96774000D01*
X122426000Y-88564888D01*
X122740167Y-88565162D01*
X123083943Y-88423117D01*
X123347192Y-88160327D01*
X123489838Y-87816799D01*
X123490162Y-87444833D01*
X123348117Y-87101057D01*
X123085327Y-86837808D01*
X122741799Y-86695162D01*
X122426000Y-86694886D01*
X122426000Y-74594888D01*
X122684000Y-74595113D01*
X122684000Y-85344000D01*
X122741852Y-85634839D01*
X122906599Y-85881401D01*
X124066560Y-87041362D01*
X124066560Y-88493600D01*
X124113537Y-88735723D01*
X124253327Y-88948527D01*
X124464360Y-89090977D01*
X124502962Y-89098718D01*
X124485585Y-89110330D01*
X124160729Y-89596511D01*
X124046655Y-90170000D01*
X124160729Y-90743489D01*
X124485585Y-91229670D01*
X124795069Y-91436460D01*
X124379268Y-91807964D01*
X124125291Y-92335209D01*
X124122642Y-92350974D01*
X124243783Y-92583000D01*
X125603000Y-92583000D01*
X125603000Y-92563000D01*
X125857000Y-92563000D01*
X125857000Y-92583000D01*
X127216217Y-92583000D01*
X127337358Y-92350974D01*
X127334709Y-92335209D01*
X127080732Y-91807964D01*
X126664930Y-91436460D01*
X126974415Y-91229670D01*
X127299271Y-90743489D01*
X127413345Y-90170000D01*
X127299271Y-89596511D01*
X126974415Y-89110330D01*
X126958632Y-89099784D01*
X126988123Y-89094063D01*
X127200927Y-88954273D01*
X127343377Y-88743240D01*
X127393440Y-88493600D01*
X127393440Y-86766400D01*
X127346463Y-86524277D01*
X127337358Y-86510416D01*
X127337358Y-79099026D01*
X127216217Y-78867000D01*
X125857000Y-78867000D01*
X125857000Y-80080924D01*
X126091913Y-80225184D01*
X126644320Y-80031954D01*
X127080732Y-79642036D01*
X127334709Y-79114791D01*
X127337358Y-79099026D01*
X127337358Y-86510416D01*
X127206673Y-86311473D01*
X126995640Y-86169023D01*
X126746000Y-86118960D01*
X125293762Y-86118960D01*
X124204000Y-85029198D01*
X124204000Y-79278187D01*
X124379268Y-79642036D01*
X124815680Y-80031954D01*
X125368087Y-80225184D01*
X125603000Y-80080924D01*
X125603000Y-78867000D01*
X125583000Y-78867000D01*
X125583000Y-78613000D01*
X125603000Y-78613000D01*
X125603000Y-78593000D01*
X125857000Y-78593000D01*
X125857000Y-78613000D01*
X127216217Y-78613000D01*
X127337358Y-78380974D01*
X127334709Y-78365209D01*
X127080732Y-77837964D01*
X126664930Y-77466460D01*
X126974415Y-77259670D01*
X127299271Y-76773489D01*
X127413345Y-76200000D01*
X127299271Y-75626511D01*
X126974415Y-75140330D01*
X126958632Y-75129784D01*
X126988123Y-75124063D01*
X127200927Y-74984273D01*
X127343377Y-74773240D01*
X127393440Y-74523600D01*
X127393440Y-72842242D01*
X129796000Y-75244802D01*
X129796000Y-90424000D01*
X129815934Y-90524216D01*
X129519057Y-90646883D01*
X129255808Y-90909673D01*
X129113162Y-91253201D01*
X129112838Y-91625167D01*
X129254883Y-91968943D01*
X129517673Y-92232192D01*
X129861201Y-92374838D01*
X130233167Y-92375162D01*
X130576943Y-92233117D01*
X130840192Y-91970327D01*
X130895156Y-91837958D01*
X132844000Y-93786802D01*
X132844000Y-96211537D01*
X132811808Y-96243673D01*
X132669162Y-96587201D01*
X132668838Y-96959167D01*
X132810883Y-97302943D01*
X133073673Y-97566192D01*
X133417201Y-97708838D01*
X133464076Y-97708878D01*
X135860599Y-100105401D01*
X136622599Y-100867401D01*
X136869161Y-101032148D01*
X137160000Y-101090000D01*
X140407537Y-101090000D01*
X140439673Y-101122192D01*
X140783201Y-101264838D01*
X141155167Y-101265162D01*
X141498943Y-101123117D01*
X141762192Y-100860327D01*
X141904838Y-100516799D01*
X141905162Y-100144833D01*
X141905162Y-96588833D01*
X141763117Y-96245057D01*
X141500327Y-95981808D01*
X141156799Y-95839162D01*
X140784833Y-95838838D01*
X140441057Y-95980883D01*
X140177808Y-96243673D01*
X140035162Y-96587201D01*
X140034838Y-96959167D01*
X140176883Y-97302943D01*
X140439673Y-97566192D01*
X140783201Y-97708838D01*
X141155167Y-97709162D01*
X141498943Y-97567117D01*
X141762192Y-97304327D01*
X141904838Y-96960799D01*
X141905162Y-96588833D01*
X141905162Y-100144833D01*
X141763117Y-99801057D01*
X141500327Y-99537808D01*
X141156799Y-99395162D01*
X140784833Y-99394838D01*
X140441057Y-99536883D01*
X140407882Y-99570000D01*
X137841162Y-99570000D01*
X137841162Y-92270833D01*
X137699117Y-91927057D01*
X137436327Y-91663808D01*
X137092799Y-91521162D01*
X136877442Y-91520974D01*
X136936192Y-91462327D01*
X137078838Y-91118799D01*
X137079162Y-90746833D01*
X136937117Y-90403057D01*
X136674327Y-90139808D01*
X136330799Y-89997162D01*
X135958833Y-89996838D01*
X135792895Y-90065401D01*
X135920192Y-89938327D01*
X136062838Y-89594799D01*
X136063162Y-89222833D01*
X135921117Y-88879057D01*
X135658327Y-88615808D01*
X135314799Y-88473162D01*
X134942833Y-88472838D01*
X134599057Y-88614883D01*
X134335808Y-88877673D01*
X134193162Y-89221201D01*
X134192838Y-89593167D01*
X134334883Y-89936943D01*
X134597673Y-90200192D01*
X134941201Y-90342838D01*
X135313167Y-90343162D01*
X135479104Y-90274598D01*
X135351808Y-90401673D01*
X135209162Y-90745201D01*
X135208838Y-91117167D01*
X135350883Y-91460943D01*
X135613673Y-91724192D01*
X135957201Y-91866838D01*
X136172557Y-91867025D01*
X136113808Y-91925673D01*
X135971162Y-92269201D01*
X135970838Y-92641167D01*
X136112883Y-92984943D01*
X136375673Y-93248192D01*
X136719201Y-93390838D01*
X137091167Y-93391162D01*
X137434943Y-93249117D01*
X137698192Y-92986327D01*
X137840838Y-92642799D01*
X137841162Y-92270833D01*
X137841162Y-99570000D01*
X137474802Y-99570000D01*
X136935401Y-99030599D01*
X135438802Y-97534000D01*
X135581537Y-97534000D01*
X135613673Y-97566192D01*
X135957201Y-97708838D01*
X136329167Y-97709162D01*
X136672943Y-97567117D01*
X136936192Y-97304327D01*
X137078838Y-96960799D01*
X137079162Y-96588833D01*
X136937117Y-96245057D01*
X136674327Y-95981808D01*
X136330799Y-95839162D01*
X135958833Y-95838838D01*
X135615057Y-95980883D01*
X135581882Y-96014000D01*
X134364000Y-96014000D01*
X134364000Y-93472000D01*
X134306148Y-93181161D01*
X134141401Y-92934599D01*
X133264042Y-92057240D01*
X133417201Y-92120838D01*
X133789167Y-92121162D01*
X134132943Y-91979117D01*
X134396192Y-91716327D01*
X134538838Y-91372799D01*
X134539162Y-91000833D01*
X134397117Y-90657057D01*
X134134327Y-90393808D01*
X133790799Y-90251162D01*
X133418833Y-90250838D01*
X133075057Y-90392883D01*
X133014975Y-90452859D01*
X133015162Y-90238833D01*
X132873117Y-89895057D01*
X132610327Y-89631808D01*
X132266799Y-89489162D01*
X131894833Y-89488838D01*
X131551057Y-89630883D01*
X131316000Y-89865530D01*
X131316000Y-76764802D01*
X134336599Y-79785401D01*
X134583161Y-79950148D01*
X134874000Y-80008000D01*
X146497197Y-80008000D01*
X149354000Y-82864802D01*
X149354000Y-92456000D01*
X149354000Y-94234000D01*
X149354000Y-115824000D01*
X149411852Y-116114839D01*
X149576599Y-116361401D01*
X150199957Y-116984759D01*
X150046799Y-116921162D01*
X149674833Y-116920838D01*
X149331057Y-117062883D01*
X149067808Y-117325673D01*
X148925162Y-117669201D01*
X148925150Y-117682848D01*
X148912833Y-117682838D01*
X148569057Y-117824883D01*
X148305808Y-118087673D01*
X148163162Y-118431201D01*
X148162838Y-118803167D01*
X148304883Y-119146943D01*
X148567673Y-119410192D01*
X148911201Y-119552838D01*
X149283167Y-119553162D01*
X149626943Y-119411117D01*
X149890192Y-119148327D01*
X150032838Y-118804799D01*
X150032849Y-118791151D01*
X150045167Y-118791162D01*
X150388943Y-118649117D01*
X150652192Y-118386327D01*
X150794838Y-118042799D01*
X150795162Y-117670833D01*
X150704932Y-117452459D01*
X150839161Y-117542148D01*
X151130000Y-117600000D01*
X152085198Y-117600000D01*
X154180000Y-119694802D01*
X154180000Y-124460000D01*
X154237852Y-124750839D01*
X154402599Y-124997401D01*
X155897618Y-126492420D01*
X155796655Y-127000000D01*
X155910729Y-127573489D01*
X156235585Y-128059670D01*
X156545069Y-128266460D01*
X156129268Y-128637964D01*
X155875291Y-129165209D01*
X155872642Y-129180974D01*
X155993783Y-129413000D01*
X157353000Y-129413000D01*
X157353000Y-129393000D01*
X157607000Y-129393000D01*
X157607000Y-129413000D01*
X158966217Y-129413000D01*
X159087358Y-129180974D01*
X159084709Y-129165209D01*
X158830732Y-128637964D01*
X158414930Y-128266460D01*
X158724415Y-128059670D01*
X159049271Y-127573489D01*
X159163345Y-127000000D01*
X159163345Y-139573000D01*
X159087358Y-139573000D01*
X159087358Y-129899026D01*
X158966217Y-129667000D01*
X157607000Y-129667000D01*
X157607000Y-130880924D01*
X157841913Y-131025184D01*
X158394320Y-130831954D01*
X158830732Y-130442036D01*
X159084709Y-129914791D01*
X159087358Y-129899026D01*
X159087358Y-139573000D01*
X158845457Y-139573000D01*
X158845457Y-135368166D01*
X158445147Y-134399342D01*
X157704557Y-133657458D01*
X157353000Y-133511478D01*
X157353000Y-130880924D01*
X157353000Y-129667000D01*
X155993783Y-129667000D01*
X155872642Y-129899026D01*
X155875291Y-129914791D01*
X156129268Y-130442036D01*
X156565680Y-130831954D01*
X157118087Y-131025184D01*
X157353000Y-130880924D01*
X157353000Y-133511478D01*
X156736433Y-133255458D01*
X155688166Y-133254543D01*
X154719342Y-133654853D01*
X154063440Y-134309610D01*
X154063440Y-128016000D01*
X154063440Y-125984000D01*
X154016463Y-125741877D01*
X153876673Y-125529073D01*
X153665640Y-125386623D01*
X153416000Y-125336560D01*
X151557162Y-125336560D01*
X151557162Y-123512833D01*
X151415117Y-123169057D01*
X151152327Y-122905808D01*
X150808799Y-122763162D01*
X150436833Y-122762838D01*
X150093057Y-122904883D01*
X149829808Y-123167673D01*
X149687162Y-123511201D01*
X149686838Y-123883167D01*
X149828883Y-124226943D01*
X150091673Y-124490192D01*
X150435201Y-124632838D01*
X150807167Y-124633162D01*
X151150943Y-124491117D01*
X151414192Y-124228327D01*
X151556838Y-123884799D01*
X151557162Y-123512833D01*
X151557162Y-125336560D01*
X151384000Y-125336560D01*
X151141877Y-125383537D01*
X150929073Y-125523327D01*
X150786623Y-125734360D01*
X150736560Y-125984000D01*
X150736560Y-128016000D01*
X150783537Y-128258123D01*
X150923327Y-128470927D01*
X151083043Y-128578737D01*
X150993615Y-128675182D01*
X150794025Y-129157056D01*
X150913164Y-129413000D01*
X152273000Y-129413000D01*
X152273000Y-129393000D01*
X152527000Y-129393000D01*
X152527000Y-129413000D01*
X153886836Y-129413000D01*
X154005975Y-129157056D01*
X153806385Y-128675182D01*
X153716425Y-128578164D01*
X153870927Y-128476673D01*
X154013377Y-128265640D01*
X154063440Y-128016000D01*
X154063440Y-134309610D01*
X154005975Y-134366975D01*
X154005975Y-129922944D01*
X153886836Y-129667000D01*
X152527000Y-129667000D01*
X152527000Y-131027367D01*
X152782946Y-131145983D01*
X153368379Y-130877188D01*
X153806385Y-130404818D01*
X154005975Y-129922944D01*
X154005975Y-134366975D01*
X153977458Y-134395443D01*
X153575458Y-135363567D01*
X153574543Y-136411834D01*
X153974853Y-137380658D01*
X154715443Y-138122542D01*
X155683567Y-138524542D01*
X156731834Y-138525457D01*
X157700658Y-138125147D01*
X158442542Y-137384557D01*
X158844542Y-136416433D01*
X158845457Y-135368166D01*
X158845457Y-139573000D01*
X152273000Y-139573000D01*
X152273000Y-131027367D01*
X152273000Y-129667000D01*
X150913164Y-129667000D01*
X150794025Y-129922944D01*
X150993615Y-130404818D01*
X151431621Y-130877188D01*
X152017054Y-131145983D01*
X152273000Y-131027367D01*
X152273000Y-139573000D01*
X121585162Y-139573000D01*
X121585162Y-124274833D01*
X121443117Y-123931057D01*
X121180327Y-123667808D01*
X120836799Y-123525162D01*
X120464833Y-123524838D01*
X120121057Y-123666883D01*
X119857808Y-123929673D01*
X119715162Y-124273201D01*
X119714838Y-124645167D01*
X119856883Y-124988943D01*
X120119673Y-125252192D01*
X120463201Y-125394838D01*
X120835167Y-125395162D01*
X121178943Y-125253117D01*
X121442192Y-124990327D01*
X121584838Y-124646799D01*
X121585162Y-124274833D01*
X121585162Y-139573000D01*
X119475457Y-139573000D01*
X119475457Y-135368166D01*
X119075147Y-134399342D01*
X118334557Y-133657458D01*
X117775162Y-133425177D01*
X117775162Y-123512833D01*
X117633117Y-123169057D01*
X117370327Y-122905808D01*
X117026799Y-122763162D01*
X116654833Y-122762838D01*
X116311057Y-122904883D01*
X116047808Y-123167673D01*
X115905162Y-123511201D01*
X115904838Y-123883167D01*
X116046883Y-124226943D01*
X116309673Y-124490192D01*
X116653201Y-124632838D01*
X117025167Y-124633162D01*
X117368943Y-124491117D01*
X117632192Y-124228327D01*
X117774838Y-123884799D01*
X117775162Y-123512833D01*
X117775162Y-133425177D01*
X117366433Y-133255458D01*
X116318166Y-133254543D01*
X115349342Y-133654853D01*
X114607458Y-134395443D01*
X114205458Y-135363567D01*
X114204543Y-136411834D01*
X114604853Y-137380658D01*
X115345443Y-138122542D01*
X116313567Y-138524542D01*
X117361834Y-138525457D01*
X118330658Y-138125147D01*
X119072542Y-137384557D01*
X119474542Y-136416433D01*
X119475457Y-135368166D01*
X119475457Y-139573000D01*
X113157000Y-139573000D01*
X113157000Y-43307000D01*
X159893000Y-43307000D01*
X159893000Y-139573000D01*
X159893000Y-139573000D01*
G37*
X159893000Y-139573000D02*
X159163345Y-139573000D01*
X159163345Y-127000000D01*
X159049271Y-126426511D01*
X158724415Y-125940330D01*
X158708632Y-125929784D01*
X158738123Y-125924063D01*
X158950927Y-125784273D01*
X159093377Y-125573240D01*
X159143440Y-125323600D01*
X159143440Y-123596400D01*
X159096463Y-123354277D01*
X159087358Y-123340416D01*
X159087358Y-119739026D01*
X158966217Y-119507000D01*
X157607000Y-119507000D01*
X157607000Y-120720924D01*
X157841913Y-120865184D01*
X158394320Y-120671954D01*
X158830732Y-120282036D01*
X159084709Y-119754791D01*
X159087358Y-119739026D01*
X159087358Y-123340416D01*
X158956673Y-123141473D01*
X158745640Y-122999023D01*
X158496000Y-122948960D01*
X157353000Y-122948960D01*
X157353000Y-120720924D01*
X157353000Y-119507000D01*
X155993783Y-119507000D01*
X155872642Y-119739026D01*
X155875291Y-119754791D01*
X156129268Y-120282036D01*
X156565680Y-120671954D01*
X157118087Y-120865184D01*
X157353000Y-120720924D01*
X157353000Y-122948960D01*
X156464000Y-122948960D01*
X156221877Y-122995937D01*
X156009073Y-123135727D01*
X155866623Y-123346760D01*
X155816560Y-123596400D01*
X155816560Y-124261758D01*
X155700000Y-124145198D01*
X155700000Y-119380000D01*
X155651746Y-119137413D01*
X155642148Y-119089161D01*
X155642148Y-119089160D01*
X155477401Y-118842599D01*
X154234802Y-117600000D01*
X156035351Y-117600000D01*
X156235585Y-117899670D01*
X156545069Y-118106460D01*
X156129268Y-118477964D01*
X155875291Y-119005209D01*
X155872642Y-119020974D01*
X155993783Y-119253000D01*
X157353000Y-119253000D01*
X157353000Y-119233000D01*
X157607000Y-119233000D01*
X157607000Y-119253000D01*
X158966217Y-119253000D01*
X159087358Y-119020974D01*
X159084709Y-119005209D01*
X158830732Y-118477964D01*
X158414930Y-118106460D01*
X158724415Y-117899670D01*
X159049271Y-117413489D01*
X159163345Y-116840000D01*
X159049271Y-116266511D01*
X158724415Y-115780330D01*
X158708632Y-115769784D01*
X158738123Y-115764063D01*
X158950927Y-115624273D01*
X159093377Y-115413240D01*
X159143440Y-115163600D01*
X159143440Y-113436400D01*
X159096463Y-113194277D01*
X159087358Y-113180416D01*
X159087358Y-109579026D01*
X158966217Y-109347000D01*
X157607000Y-109347000D01*
X157607000Y-110560924D01*
X157841913Y-110705184D01*
X158394320Y-110511954D01*
X158830732Y-110122036D01*
X159084709Y-109594791D01*
X159087358Y-109579026D01*
X159087358Y-113180416D01*
X158956673Y-112981473D01*
X158745640Y-112839023D01*
X158496000Y-112788960D01*
X157353000Y-112788960D01*
X157353000Y-110560924D01*
X157353000Y-109347000D01*
X155993783Y-109347000D01*
X155872642Y-109579026D01*
X155875291Y-109594791D01*
X156129268Y-110122036D01*
X156565680Y-110511954D01*
X157118087Y-110705184D01*
X157353000Y-110560924D01*
X157353000Y-112788960D01*
X156464000Y-112788960D01*
X156221877Y-112835937D01*
X156129162Y-112896841D01*
X156129162Y-111066833D01*
X155987117Y-110723057D01*
X155724327Y-110459808D01*
X155380799Y-110317162D01*
X155008833Y-110316838D01*
X154665057Y-110458883D01*
X154401808Y-110721673D01*
X154259162Y-111065201D01*
X154258838Y-111437167D01*
X154400883Y-111780943D01*
X154663673Y-112044192D01*
X155007201Y-112186838D01*
X155379167Y-112187162D01*
X155722943Y-112045117D01*
X155986192Y-111782327D01*
X156128838Y-111438799D01*
X156129162Y-111066833D01*
X156129162Y-112896841D01*
X156009073Y-112975727D01*
X155866623Y-113186760D01*
X155816560Y-113436400D01*
X155816560Y-115163600D01*
X155863537Y-115405723D01*
X156003327Y-115618527D01*
X156214360Y-115760977D01*
X156252962Y-115768718D01*
X156235585Y-115780330D01*
X156035351Y-116080000D01*
X154007358Y-116080000D01*
X154007358Y-114659026D01*
X153886217Y-114427000D01*
X152527000Y-114427000D01*
X152527000Y-115640924D01*
X152761913Y-115785184D01*
X153314320Y-115591954D01*
X153750732Y-115202036D01*
X154004709Y-114674791D01*
X154007358Y-114659026D01*
X154007358Y-116080000D01*
X152400000Y-116080000D01*
X151444802Y-116080000D01*
X150874000Y-115509198D01*
X150874000Y-114838187D01*
X151049268Y-115202036D01*
X151485680Y-115591954D01*
X152038087Y-115785184D01*
X152273000Y-115640924D01*
X152273000Y-114427000D01*
X152253000Y-114427000D01*
X152253000Y-114173000D01*
X152273000Y-114173000D01*
X152273000Y-114153000D01*
X152527000Y-114153000D01*
X152527000Y-114173000D01*
X153886217Y-114173000D01*
X154007358Y-113940974D01*
X154004709Y-113925209D01*
X153750732Y-113397964D01*
X153334930Y-113026460D01*
X153644415Y-112819670D01*
X153969271Y-112333489D01*
X154083345Y-111760000D01*
X153969271Y-111186511D01*
X153644415Y-110700330D01*
X153329634Y-110490000D01*
X153644415Y-110279670D01*
X153969271Y-109793489D01*
X154083345Y-109220000D01*
X153969271Y-108646511D01*
X153644415Y-108160330D01*
X153329634Y-107950000D01*
X153644415Y-107739670D01*
X153969271Y-107253489D01*
X154083345Y-106680000D01*
X153969271Y-106106511D01*
X153644415Y-105620330D01*
X153329634Y-105410000D01*
X153644415Y-105199670D01*
X153969271Y-104713489D01*
X154083345Y-104140000D01*
X153969271Y-103566511D01*
X153644415Y-103080330D01*
X153329634Y-102870000D01*
X153644415Y-102659670D01*
X153969271Y-102173489D01*
X154083345Y-101600000D01*
X153969271Y-101026511D01*
X153644415Y-100540330D01*
X153329634Y-100330000D01*
X153644415Y-100119670D01*
X153969271Y-99633489D01*
X154083345Y-99060000D01*
X153969271Y-98486511D01*
X153644415Y-98000330D01*
X153628632Y-97989784D01*
X153658123Y-97984063D01*
X153870927Y-97844273D01*
X154013377Y-97633240D01*
X154063440Y-97383600D01*
X154063440Y-95656400D01*
X154016463Y-95414277D01*
X153876673Y-95201473D01*
X153665640Y-95059023D01*
X153416000Y-95008960D01*
X151963762Y-95008960D01*
X151440802Y-94486000D01*
X154371198Y-94486000D01*
X155816560Y-95931362D01*
X155816560Y-97383600D01*
X155863537Y-97625723D01*
X156003327Y-97838527D01*
X156214360Y-97980977D01*
X156252962Y-97988718D01*
X156235585Y-98000330D01*
X155910729Y-98486511D01*
X155796655Y-99060000D01*
X155910729Y-99633489D01*
X156235585Y-100119670D01*
X156550365Y-100330000D01*
X156235585Y-100540330D01*
X155910729Y-101026511D01*
X155796655Y-101600000D01*
X155910729Y-102173489D01*
X156235585Y-102659670D01*
X156550365Y-102870000D01*
X156235585Y-103080330D01*
X155910729Y-103566511D01*
X155796655Y-104140000D01*
X155910729Y-104713489D01*
X156235585Y-105199670D01*
X156550365Y-105410000D01*
X156235585Y-105620330D01*
X155910729Y-106106511D01*
X155875162Y-106285318D01*
X155875162Y-105732833D01*
X155733117Y-105389057D01*
X155470327Y-105125808D01*
X155126799Y-104983162D01*
X154754833Y-104982838D01*
X154411057Y-105124883D01*
X154147808Y-105387673D01*
X154005162Y-105731201D01*
X154004838Y-106103167D01*
X154146883Y-106446943D01*
X154409673Y-106710192D01*
X154753201Y-106852838D01*
X155125167Y-106853162D01*
X155468943Y-106711117D01*
X155732192Y-106448327D01*
X155874838Y-106104799D01*
X155875162Y-105732833D01*
X155875162Y-106285318D01*
X155796655Y-106680000D01*
X155910729Y-107253489D01*
X156235585Y-107739670D01*
X156545069Y-107946460D01*
X156129268Y-108317964D01*
X155875291Y-108845209D01*
X155872642Y-108860974D01*
X155993783Y-109093000D01*
X157353000Y-109093000D01*
X157353000Y-109073000D01*
X157607000Y-109073000D01*
X157607000Y-109093000D01*
X158966217Y-109093000D01*
X159087358Y-108860974D01*
X159084709Y-108845209D01*
X158830732Y-108317964D01*
X158414930Y-107946460D01*
X158724415Y-107739670D01*
X159049271Y-107253489D01*
X159163345Y-106680000D01*
X159049271Y-106106511D01*
X158724415Y-105620330D01*
X158409634Y-105410000D01*
X158724415Y-105199670D01*
X159049271Y-104713489D01*
X159163345Y-104140000D01*
X159049271Y-103566511D01*
X158724415Y-103080330D01*
X158409634Y-102870000D01*
X158724415Y-102659670D01*
X159049271Y-102173489D01*
X159163345Y-101600000D01*
X159049271Y-101026511D01*
X158724415Y-100540330D01*
X158409634Y-100330000D01*
X158724415Y-100119670D01*
X159049271Y-99633489D01*
X159163345Y-99060000D01*
X159049271Y-98486511D01*
X158724415Y-98000330D01*
X158708632Y-97989784D01*
X158738123Y-97984063D01*
X158950927Y-97844273D01*
X159093377Y-97633240D01*
X159143440Y-97383600D01*
X159143440Y-95656400D01*
X159096463Y-95414277D01*
X159087358Y-95400416D01*
X159087358Y-91799026D01*
X158966217Y-91567000D01*
X157607000Y-91567000D01*
X157607000Y-92780924D01*
X157841913Y-92925184D01*
X158394320Y-92731954D01*
X158830732Y-92342036D01*
X159084709Y-91814791D01*
X159087358Y-91799026D01*
X159087358Y-95400416D01*
X158956673Y-95201473D01*
X158745640Y-95059023D01*
X158496000Y-95008960D01*
X157353000Y-95008960D01*
X157353000Y-92780924D01*
X157353000Y-91567000D01*
X155993783Y-91567000D01*
X155872642Y-91799026D01*
X155875291Y-91814791D01*
X156129268Y-92342036D01*
X156565680Y-92731954D01*
X157118087Y-92925184D01*
X157353000Y-92780924D01*
X157353000Y-95008960D01*
X157043762Y-95008960D01*
X155223401Y-93188599D01*
X154976839Y-93023852D01*
X154686000Y-92966000D01*
X151698802Y-92966000D01*
X151387297Y-92654495D01*
X151641766Y-92824526D01*
X152215255Y-92938600D01*
X152584745Y-92938600D01*
X153158234Y-92824526D01*
X153644415Y-92499670D01*
X153969271Y-92013489D01*
X154083345Y-91440000D01*
X153969271Y-90866511D01*
X153644415Y-90380330D01*
X153334930Y-90173539D01*
X153750732Y-89802036D01*
X154004709Y-89274791D01*
X154007358Y-89259026D01*
X153886217Y-89027000D01*
X152527000Y-89027000D01*
X152527000Y-89047000D01*
X152273000Y-89047000D01*
X152273000Y-89027000D01*
X152253000Y-89027000D01*
X152253000Y-88773000D01*
X152273000Y-88773000D01*
X152273000Y-88753000D01*
X152527000Y-88753000D01*
X152527000Y-88773000D01*
X153886217Y-88773000D01*
X154007358Y-88540974D01*
X154004709Y-88525209D01*
X153750732Y-87997964D01*
X153574298Y-87840326D01*
X153658123Y-87824063D01*
X153870927Y-87684273D01*
X154013377Y-87473240D01*
X154063440Y-87223600D01*
X154063440Y-85496400D01*
X154016463Y-85254277D01*
X153876673Y-85041473D01*
X153665640Y-84899023D01*
X153416000Y-84848960D01*
X151384000Y-84848960D01*
X151141877Y-84895937D01*
X150929073Y-85035727D01*
X150874000Y-85117315D01*
X150874000Y-82550000D01*
X150816148Y-82259161D01*
X150816148Y-82259160D01*
X150651401Y-82012599D01*
X148646802Y-80008000D01*
X150053198Y-80008000D01*
X155816560Y-85771362D01*
X155816560Y-87223600D01*
X155863537Y-87465723D01*
X156003327Y-87678527D01*
X156214360Y-87820977D01*
X156252962Y-87828718D01*
X156235585Y-87840330D01*
X155910729Y-88326511D01*
X155796655Y-88900000D01*
X155910729Y-89473489D01*
X156235585Y-89959670D01*
X156545069Y-90166460D01*
X156129268Y-90537964D01*
X155875291Y-91065209D01*
X155872642Y-91080974D01*
X155993783Y-91313000D01*
X157353000Y-91313000D01*
X157353000Y-91293000D01*
X157607000Y-91293000D01*
X157607000Y-91313000D01*
X158966217Y-91313000D01*
X159087358Y-91080974D01*
X159084709Y-91065209D01*
X158830732Y-90537964D01*
X158414930Y-90166460D01*
X158724415Y-89959670D01*
X159049271Y-89473489D01*
X159163345Y-88900000D01*
X159163345Y-78740000D01*
X159049271Y-78166511D01*
X158724415Y-77680330D01*
X158409634Y-77470000D01*
X158724415Y-77259670D01*
X159049271Y-76773489D01*
X159163345Y-76200000D01*
X159049271Y-75626511D01*
X158724415Y-75140330D01*
X158409634Y-74930000D01*
X158724415Y-74719670D01*
X159049271Y-74233489D01*
X159163345Y-73660000D01*
X159049271Y-73086511D01*
X158724415Y-72600330D01*
X158414930Y-72393539D01*
X158830732Y-72022036D01*
X159084709Y-71494791D01*
X159087358Y-71479026D01*
X158966217Y-71247000D01*
X157607000Y-71247000D01*
X157607000Y-71267000D01*
X157353000Y-71267000D01*
X157353000Y-71247000D01*
X155993783Y-71247000D01*
X155872642Y-71479026D01*
X155875291Y-71494791D01*
X156129268Y-72022036D01*
X156545069Y-72393539D01*
X156235585Y-72600330D01*
X155910729Y-73086511D01*
X155796655Y-73660000D01*
X155910729Y-74233489D01*
X156235585Y-74719670D01*
X156550365Y-74930000D01*
X156235585Y-75140330D01*
X155910729Y-75626511D01*
X155796655Y-76200000D01*
X155910729Y-76773489D01*
X156235585Y-77259670D01*
X156550365Y-77470000D01*
X156235585Y-77680330D01*
X155910729Y-78166511D01*
X155796655Y-78740000D01*
X155910729Y-79313489D01*
X156235585Y-79799670D01*
X156721766Y-80124526D01*
X157295255Y-80238600D01*
X157664745Y-80238600D01*
X158238234Y-80124526D01*
X158724415Y-79799670D01*
X159049271Y-79313489D01*
X159163345Y-78740000D01*
X159163345Y-88900000D01*
X159049271Y-88326511D01*
X158724415Y-87840330D01*
X158708632Y-87829784D01*
X158738123Y-87824063D01*
X158950927Y-87684273D01*
X159093377Y-87473240D01*
X159143440Y-87223600D01*
X159143440Y-85496400D01*
X159096463Y-85254277D01*
X158956673Y-85041473D01*
X158745640Y-84899023D01*
X158496000Y-84848960D01*
X157043762Y-84848960D01*
X155621162Y-83426360D01*
X155621162Y-78808833D01*
X155479117Y-78465057D01*
X155216327Y-78201808D01*
X154872799Y-78059162D01*
X154500833Y-78058838D01*
X154157057Y-78200883D01*
X153893808Y-78463673D01*
X153751162Y-78807201D01*
X153750838Y-79179167D01*
X153892883Y-79522943D01*
X154155673Y-79786192D01*
X154499201Y-79928838D01*
X154871167Y-79929162D01*
X155214943Y-79787117D01*
X155478192Y-79524327D01*
X155620838Y-79180799D01*
X155621162Y-78808833D01*
X155621162Y-83426360D01*
X150905401Y-78710599D01*
X150658839Y-78545852D01*
X150368000Y-78488000D01*
X146812000Y-78488000D01*
X143429162Y-78488000D01*
X143429162Y-73474833D01*
X143287117Y-73131057D01*
X143024327Y-72867808D01*
X142680799Y-72725162D01*
X142667151Y-72725150D01*
X142667162Y-72712833D01*
X142525117Y-72369057D01*
X142262327Y-72105808D01*
X141918799Y-71963162D01*
X141546833Y-71962838D01*
X141203057Y-72104883D01*
X141057111Y-72250574D01*
X141001117Y-72115057D01*
X140738327Y-71851808D01*
X140394799Y-71709162D01*
X140022833Y-71708838D01*
X139679057Y-71850883D01*
X139415808Y-72113673D01*
X139273162Y-72457201D01*
X139272838Y-72829167D01*
X139414883Y-73172943D01*
X139677673Y-73436192D01*
X140021201Y-73578838D01*
X140035069Y-73578850D01*
X140034838Y-73845167D01*
X140176883Y-74188943D01*
X140439673Y-74452192D01*
X140783201Y-74594838D01*
X141155167Y-74595162D01*
X141498943Y-74453117D01*
X141732176Y-74220290D01*
X141963673Y-74452192D01*
X142307201Y-74594838D01*
X142679167Y-74595162D01*
X143022943Y-74453117D01*
X143286192Y-74190327D01*
X143428838Y-73846799D01*
X143429162Y-73474833D01*
X143429162Y-78488000D01*
X135188802Y-78488000D01*
X131093401Y-74392599D01*
X126490000Y-69789198D01*
X126490000Y-68890802D01*
X126716599Y-69117401D01*
X126963160Y-69282148D01*
X126963161Y-69282148D01*
X127011413Y-69291746D01*
X127254000Y-69340000D01*
X133803537Y-69340000D01*
X133835673Y-69372192D01*
X134179201Y-69514838D01*
X134551167Y-69515162D01*
X134894943Y-69373117D01*
X134928117Y-69340000D01*
X142693537Y-69340000D01*
X142725673Y-69372192D01*
X143069201Y-69514838D01*
X143441167Y-69515162D01*
X143784943Y-69373117D01*
X143818117Y-69340000D01*
X156035351Y-69340000D01*
X156235585Y-69639670D01*
X156545069Y-69846460D01*
X156129268Y-70217964D01*
X155875291Y-70745209D01*
X155872642Y-70760974D01*
X155993783Y-70993000D01*
X157353000Y-70993000D01*
X157353000Y-70973000D01*
X157607000Y-70973000D01*
X157607000Y-70993000D01*
X158966217Y-70993000D01*
X159087358Y-70760974D01*
X159084709Y-70745209D01*
X158830732Y-70217964D01*
X158414930Y-69846460D01*
X158724415Y-69639670D01*
X159049271Y-69153489D01*
X159163345Y-68580000D01*
X159049271Y-68006511D01*
X158724415Y-67520330D01*
X158708632Y-67509784D01*
X158738123Y-67504063D01*
X158950927Y-67364273D01*
X159093377Y-67153240D01*
X159143440Y-66903600D01*
X159143440Y-65176400D01*
X159096463Y-64934277D01*
X158956673Y-64721473D01*
X158845457Y-64646400D01*
X158845457Y-46468166D01*
X158445147Y-45499342D01*
X157704557Y-44757458D01*
X156736433Y-44355458D01*
X155688166Y-44354543D01*
X154719342Y-44754853D01*
X153977458Y-45495443D01*
X153575458Y-46463567D01*
X153574543Y-47511834D01*
X153974853Y-48480658D01*
X154715443Y-49222542D01*
X155683567Y-49624542D01*
X156731834Y-49625457D01*
X157700658Y-49225147D01*
X158442542Y-48484557D01*
X158844542Y-47516433D01*
X158845457Y-46468166D01*
X158845457Y-64646400D01*
X158745640Y-64579023D01*
X158496000Y-64528960D01*
X156464000Y-64528960D01*
X156221877Y-64575937D01*
X156009073Y-64715727D01*
X155866623Y-64926760D01*
X155816560Y-65176400D01*
X155816560Y-66903600D01*
X155863537Y-67145723D01*
X156003327Y-67358527D01*
X156214360Y-67500977D01*
X156252962Y-67508718D01*
X156235585Y-67520330D01*
X156035351Y-67820000D01*
X152700162Y-67820000D01*
X152700162Y-59504833D01*
X152558117Y-59161057D01*
X152295327Y-58897808D01*
X151995667Y-58773378D01*
X152064838Y-58606799D01*
X152065162Y-58234833D01*
X151923117Y-57891057D01*
X151660327Y-57627808D01*
X151316799Y-57485162D01*
X150944833Y-57484838D01*
X150601057Y-57626883D01*
X150337808Y-57889673D01*
X150195162Y-58233201D01*
X150194838Y-58605167D01*
X150336883Y-58948943D01*
X150599673Y-59212192D01*
X150899332Y-59336621D01*
X150830162Y-59503201D01*
X150829838Y-59875167D01*
X150971883Y-60218943D01*
X151234673Y-60482192D01*
X151578201Y-60624838D01*
X151950167Y-60625162D01*
X152293943Y-60483117D01*
X152557192Y-60220327D01*
X152699838Y-59876799D01*
X152700162Y-59504833D01*
X152700162Y-67820000D01*
X143818462Y-67820000D01*
X143786327Y-67787808D01*
X143442799Y-67645162D01*
X143175162Y-67644928D01*
X143175162Y-49344833D01*
X143033117Y-49001057D01*
X142770327Y-48737808D01*
X142426799Y-48595162D01*
X142054833Y-48594838D01*
X141711057Y-48736883D01*
X141447808Y-48999673D01*
X141305162Y-49343201D01*
X141304838Y-49715167D01*
X141446883Y-50058943D01*
X141709673Y-50322192D01*
X142053201Y-50464838D01*
X142425167Y-50465162D01*
X142768943Y-50323117D01*
X143032192Y-50060327D01*
X143174838Y-49716799D01*
X143175162Y-49344833D01*
X143175162Y-67644928D01*
X143070833Y-67644838D01*
X142727057Y-67786883D01*
X142693882Y-67820000D01*
X136190162Y-67820000D01*
X136190162Y-54424833D01*
X136048117Y-54081057D01*
X135785327Y-53817808D01*
X135441799Y-53675162D01*
X135069833Y-53674838D01*
X134726057Y-53816883D01*
X134477500Y-54065006D01*
X134477500Y-53670200D01*
X134477500Y-50170080D01*
X134465060Y-50105963D01*
X134465060Y-47797029D01*
X134465060Y-46206410D01*
X134465060Y-45634910D01*
X134465060Y-44044291D01*
X134368387Y-43810902D01*
X134189759Y-43632273D01*
X133956370Y-43535600D01*
X133703751Y-43535600D01*
X132365750Y-43535600D01*
X132207000Y-43694350D01*
X132207000Y-45793660D01*
X134306310Y-45793660D01*
X134465060Y-45634910D01*
X134465060Y-46206410D01*
X134306310Y-46047660D01*
X132207000Y-46047660D01*
X132207000Y-48146970D01*
X132365750Y-48305720D01*
X133703751Y-48305720D01*
X133956370Y-48305720D01*
X134189759Y-48209047D01*
X134368387Y-48030418D01*
X134465060Y-47797029D01*
X134465060Y-50105963D01*
X134430523Y-49927957D01*
X134290733Y-49715153D01*
X134079700Y-49572703D01*
X133830060Y-49522640D01*
X130329940Y-49522640D01*
X130087817Y-49569617D01*
X129875013Y-49709407D01*
X129778500Y-49852386D01*
X129778500Y-47998760D01*
X129791613Y-48030418D01*
X129970241Y-48209047D01*
X130203630Y-48305720D01*
X130456249Y-48305720D01*
X131794250Y-48305720D01*
X131953000Y-48146970D01*
X131953000Y-46047660D01*
X131953000Y-45793660D01*
X131953000Y-43694350D01*
X131794250Y-43535600D01*
X130456249Y-43535600D01*
X130203630Y-43535600D01*
X129970241Y-43632273D01*
X129791613Y-43810902D01*
X129694940Y-44044291D01*
X129694940Y-45634910D01*
X129853690Y-45793660D01*
X131953000Y-45793660D01*
X131953000Y-46047660D01*
X129853690Y-46047660D01*
X129694940Y-46206410D01*
X129694940Y-46872526D01*
X129591733Y-46715413D01*
X129380700Y-46572963D01*
X129131060Y-46522900D01*
X125630940Y-46522900D01*
X125388817Y-46569877D01*
X125176013Y-46709667D01*
X125033563Y-46920700D01*
X124983500Y-47170340D01*
X124983500Y-50670460D01*
X125030477Y-50912583D01*
X125170267Y-51125387D01*
X125381300Y-51267837D01*
X125630940Y-51317900D01*
X129131060Y-51317900D01*
X129373183Y-51270923D01*
X129585987Y-51131133D01*
X129682500Y-50988153D01*
X129682500Y-53670200D01*
X129729477Y-53912323D01*
X129869267Y-54125127D01*
X130080300Y-54267577D01*
X130329940Y-54317640D01*
X133830060Y-54317640D01*
X134072183Y-54270663D01*
X134284987Y-54130873D01*
X134427437Y-53919840D01*
X134477500Y-53670200D01*
X134477500Y-54065006D01*
X134462808Y-54079673D01*
X134320162Y-54423201D01*
X134319838Y-54795167D01*
X134461883Y-55138943D01*
X134724673Y-55402192D01*
X135068201Y-55544838D01*
X135440167Y-55545162D01*
X135783943Y-55403117D01*
X136047192Y-55140327D01*
X136189838Y-54796799D01*
X136190162Y-54424833D01*
X136190162Y-67820000D01*
X136118600Y-67820000D01*
X136118600Y-58604745D01*
X136118600Y-58235255D01*
X136004526Y-57661766D01*
X135679670Y-57175585D01*
X135193489Y-56850729D01*
X134620000Y-56736655D01*
X134046511Y-56850729D01*
X133560330Y-57175585D01*
X133350000Y-57490365D01*
X133139670Y-57175585D01*
X132653489Y-56850729D01*
X132080000Y-56736655D01*
X131506511Y-56850729D01*
X131020330Y-57175585D01*
X131009784Y-57191367D01*
X131004063Y-57161877D01*
X130864273Y-56949073D01*
X130653240Y-56806623D01*
X130403600Y-56756560D01*
X128676400Y-56756560D01*
X128434277Y-56803537D01*
X128221473Y-56943327D01*
X128079023Y-57154360D01*
X128028960Y-57404000D01*
X128028960Y-59436000D01*
X128075937Y-59678123D01*
X128215727Y-59890927D01*
X128426760Y-60033377D01*
X128676400Y-60083440D01*
X130403600Y-60083440D01*
X130645723Y-60036463D01*
X130858527Y-59896673D01*
X131000977Y-59685640D01*
X131008718Y-59647037D01*
X131020330Y-59664415D01*
X131506511Y-59989271D01*
X132080000Y-60103345D01*
X132653489Y-59989271D01*
X133139670Y-59664415D01*
X133350000Y-59349634D01*
X133560330Y-59664415D01*
X134046511Y-59989271D01*
X134620000Y-60103345D01*
X135193489Y-59989271D01*
X135679670Y-59664415D01*
X136004526Y-59178234D01*
X136118600Y-58604745D01*
X136118600Y-67820000D01*
X134928462Y-67820000D01*
X134896327Y-67787808D01*
X134552799Y-67645162D01*
X134180833Y-67644838D01*
X133837057Y-67786883D01*
X133803882Y-67820000D01*
X129713162Y-67820000D01*
X129713162Y-61790833D01*
X129571117Y-61447057D01*
X129308327Y-61183808D01*
X128964799Y-61041162D01*
X128592833Y-61040838D01*
X128249057Y-61182883D01*
X127985808Y-61445673D01*
X127843162Y-61789201D01*
X127842838Y-62161167D01*
X127984883Y-62504943D01*
X128247673Y-62768192D01*
X128591201Y-62910838D01*
X128963167Y-62911162D01*
X129306943Y-62769117D01*
X129570192Y-62506327D01*
X129712838Y-62162799D01*
X129713162Y-61790833D01*
X129713162Y-67820000D01*
X129070632Y-67820000D01*
X129204838Y-67496799D01*
X129205162Y-67124833D01*
X129063117Y-66781057D01*
X128800327Y-66517808D01*
X128456799Y-66375162D01*
X128084833Y-66374838D01*
X127741057Y-66516883D01*
X127477808Y-66779673D01*
X127335162Y-67123201D01*
X127334838Y-67495167D01*
X127398821Y-67650019D01*
X126490000Y-66741198D01*
X126490000Y-63390103D01*
X126559201Y-63418838D01*
X126931167Y-63419162D01*
X127274943Y-63277117D01*
X127538192Y-63014327D01*
X127680838Y-62670799D01*
X127681162Y-62298833D01*
X127539117Y-61955057D01*
X127276327Y-61691808D01*
X126932799Y-61549162D01*
X126560833Y-61548838D01*
X126490000Y-61578105D01*
X126490000Y-59055000D01*
X126432148Y-58764161D01*
X126267401Y-58517599D01*
X126030122Y-58280320D01*
X126030162Y-58234833D01*
X125888117Y-57891057D01*
X125625327Y-57627808D01*
X125281799Y-57485162D01*
X124909833Y-57484838D01*
X124566057Y-57626883D01*
X124302808Y-57889673D01*
X124160162Y-58233201D01*
X124159838Y-58605167D01*
X124301883Y-58948943D01*
X124564673Y-59212192D01*
X124908201Y-59354838D01*
X124955076Y-59354878D01*
X124970000Y-59369802D01*
X124970000Y-66487198D01*
X121890599Y-69566599D01*
X121128599Y-70328599D01*
X120963852Y-70575161D01*
X120906000Y-70866000D01*
X120906000Y-96459198D01*
X120112599Y-97252599D01*
X119475457Y-97889741D01*
X119475457Y-46468166D01*
X119075147Y-45499342D01*
X118334557Y-44757458D01*
X117366433Y-44355458D01*
X116318166Y-44354543D01*
X115349342Y-44754853D01*
X114607458Y-45495443D01*
X114205458Y-46463567D01*
X114204543Y-47511834D01*
X114604853Y-48480658D01*
X115345443Y-49222542D01*
X116313567Y-49624542D01*
X117361834Y-49625457D01*
X118330658Y-49225147D01*
X119072542Y-48484557D01*
X119474542Y-47516433D01*
X119475457Y-46468166D01*
X119475457Y-97889741D01*
X117253345Y-100111853D01*
X117253345Y-92710000D01*
X117139271Y-92136511D01*
X116814415Y-91650330D01*
X116499634Y-91440000D01*
X116814415Y-91229670D01*
X117139271Y-90743489D01*
X117253345Y-90170000D01*
X117253345Y-78740000D01*
X117139271Y-78166511D01*
X116814415Y-77680330D01*
X116499634Y-77470000D01*
X116814415Y-77259670D01*
X117139271Y-76773489D01*
X117253345Y-76200000D01*
X117139271Y-75626511D01*
X116814415Y-75140330D01*
X116798632Y-75129784D01*
X116828123Y-75124063D01*
X117040927Y-74984273D01*
X117183377Y-74773240D01*
X117233440Y-74523600D01*
X117233440Y-72796400D01*
X117186463Y-72554277D01*
X117046673Y-72341473D01*
X116835640Y-72199023D01*
X116586000Y-72148960D01*
X114554000Y-72148960D01*
X114311877Y-72195937D01*
X114099073Y-72335727D01*
X113956623Y-72546760D01*
X113906560Y-72796400D01*
X113906560Y-74523600D01*
X113953537Y-74765723D01*
X114093327Y-74978527D01*
X114304360Y-75120977D01*
X114342962Y-75128718D01*
X114325585Y-75140330D01*
X114000729Y-75626511D01*
X113886655Y-76200000D01*
X114000729Y-76773489D01*
X114325585Y-77259670D01*
X114640365Y-77470000D01*
X114325585Y-77680330D01*
X114000729Y-78166511D01*
X113886655Y-78740000D01*
X114000729Y-79313489D01*
X114325585Y-79799670D01*
X114811766Y-80124526D01*
X115385255Y-80238600D01*
X115754745Y-80238600D01*
X116328234Y-80124526D01*
X116814415Y-79799670D01*
X117139271Y-79313489D01*
X117253345Y-78740000D01*
X117253345Y-90170000D01*
X117139271Y-89596511D01*
X116814415Y-89110330D01*
X116798632Y-89099784D01*
X116828123Y-89094063D01*
X117040927Y-88954273D01*
X117183377Y-88743240D01*
X117233440Y-88493600D01*
X117233440Y-86766400D01*
X117186463Y-86524277D01*
X117046673Y-86311473D01*
X116835640Y-86169023D01*
X116586000Y-86118960D01*
X114554000Y-86118960D01*
X114311877Y-86165937D01*
X114099073Y-86305727D01*
X113956623Y-86516760D01*
X113906560Y-86766400D01*
X113906560Y-88493600D01*
X113953537Y-88735723D01*
X114093327Y-88948527D01*
X114304360Y-89090977D01*
X114342962Y-89098718D01*
X114325585Y-89110330D01*
X114000729Y-89596511D01*
X113886655Y-90170000D01*
X114000729Y-90743489D01*
X114325585Y-91229670D01*
X114640365Y-91440000D01*
X114325585Y-91650330D01*
X114000729Y-92136511D01*
X113886655Y-92710000D01*
X114000729Y-93283489D01*
X114325585Y-93769670D01*
X114811766Y-94094526D01*
X115385255Y-94208600D01*
X115754745Y-94208600D01*
X116328234Y-94094526D01*
X116814415Y-93769670D01*
X117139271Y-93283489D01*
X117253345Y-92710000D01*
X117253345Y-100111853D01*
X116006238Y-101358960D01*
X114554000Y-101358960D01*
X114311877Y-101405937D01*
X114099073Y-101545727D01*
X113956623Y-101756760D01*
X113906560Y-102006400D01*
X113906560Y-103733600D01*
X113953537Y-103975723D01*
X114093327Y-104188527D01*
X114304360Y-104330977D01*
X114342962Y-104338718D01*
X114325585Y-104350330D01*
X114000729Y-104836511D01*
X113886655Y-105410000D01*
X114000729Y-105983489D01*
X114325585Y-106469670D01*
X114640365Y-106680000D01*
X114325585Y-106890330D01*
X114000729Y-107376511D01*
X113886655Y-107950000D01*
X114000729Y-108523489D01*
X114325585Y-109009670D01*
X114640365Y-109220000D01*
X114325585Y-109430330D01*
X114000729Y-109916511D01*
X113886655Y-110490000D01*
X114000729Y-111063489D01*
X114325585Y-111549670D01*
X114640365Y-111760000D01*
X114325585Y-111970330D01*
X114000729Y-112456511D01*
X113886655Y-113030000D01*
X114000729Y-113603489D01*
X114325585Y-114089670D01*
X114811766Y-114414526D01*
X115385255Y-114528600D01*
X115754745Y-114528600D01*
X116328234Y-114414526D01*
X116814415Y-114089670D01*
X117139271Y-113603489D01*
X117253345Y-113030000D01*
X117139271Y-112456511D01*
X116814415Y-111970330D01*
X116499634Y-111760000D01*
X116814415Y-111549670D01*
X117139271Y-111063489D01*
X117253345Y-110490000D01*
X117139271Y-109916511D01*
X116814415Y-109430330D01*
X116499634Y-109220000D01*
X116814415Y-109009670D01*
X117139271Y-108523489D01*
X117253345Y-107950000D01*
X117139271Y-107376511D01*
X116814415Y-106890330D01*
X116499634Y-106680000D01*
X116814415Y-106469670D01*
X117139271Y-105983489D01*
X117253345Y-105410000D01*
X117139271Y-104836511D01*
X116814415Y-104350330D01*
X116798632Y-104339784D01*
X116828123Y-104334063D01*
X117040927Y-104194273D01*
X117183377Y-103983240D01*
X117233440Y-103733600D01*
X117233440Y-102281362D01*
X119890000Y-99624802D01*
X119890000Y-114046000D01*
X119890000Y-115261537D01*
X119857808Y-115293673D01*
X119715162Y-115637201D01*
X119714838Y-116009167D01*
X119856883Y-116352943D01*
X120119673Y-116616192D01*
X120463201Y-116758838D01*
X120835167Y-116759162D01*
X121178943Y-116617117D01*
X121442192Y-116354327D01*
X121571681Y-116042483D01*
X121922000Y-116392802D01*
X121922000Y-122682000D01*
X121922000Y-135382000D01*
X121979852Y-135672839D01*
X122144599Y-135919401D01*
X122948960Y-136723762D01*
X122948960Y-138023600D01*
X122995937Y-138265723D01*
X123135727Y-138478527D01*
X123346760Y-138620977D01*
X123596400Y-138671040D01*
X125323600Y-138671040D01*
X125565723Y-138624063D01*
X125778527Y-138484273D01*
X125920977Y-138273240D01*
X125929179Y-138232340D01*
X125940330Y-138249029D01*
X126426511Y-138573885D01*
X127000000Y-138687959D01*
X127573489Y-138573885D01*
X128059670Y-138249029D01*
X128270000Y-137934248D01*
X128480330Y-138249029D01*
X128966511Y-138573885D01*
X129540000Y-138687959D01*
X130113489Y-138573885D01*
X130599670Y-138249029D01*
X130810000Y-137934248D01*
X131020330Y-138249029D01*
X131506511Y-138573885D01*
X132080000Y-138687959D01*
X132653489Y-138573885D01*
X133139670Y-138249029D01*
X133350000Y-137934248D01*
X133560330Y-138249029D01*
X134046511Y-138573885D01*
X134620000Y-138687959D01*
X135193489Y-138573885D01*
X135679670Y-138249029D01*
X135890000Y-137934248D01*
X136100330Y-138249029D01*
X136586511Y-138573885D01*
X137160000Y-138687959D01*
X137733489Y-138573885D01*
X138219670Y-138249029D01*
X138430000Y-137934248D01*
X138640330Y-138249029D01*
X139126511Y-138573885D01*
X139700000Y-138687959D01*
X140273489Y-138573885D01*
X140759670Y-138249029D01*
X140970000Y-137934248D01*
X141180330Y-138249029D01*
X141666511Y-138573885D01*
X142240000Y-138687959D01*
X142813489Y-138573885D01*
X143299670Y-138249029D01*
X143510000Y-137934248D01*
X143720330Y-138249029D01*
X144206511Y-138573885D01*
X144780000Y-138687959D01*
X145353489Y-138573885D01*
X145839670Y-138249029D01*
X146050000Y-137934248D01*
X146260330Y-138249029D01*
X146746511Y-138573885D01*
X147320000Y-138687959D01*
X147893489Y-138573885D01*
X148379670Y-138249029D01*
X148590000Y-137934248D01*
X148800330Y-138249029D01*
X149286511Y-138573885D01*
X149860000Y-138687959D01*
X150433489Y-138573885D01*
X150919670Y-138249029D01*
X151244526Y-137762848D01*
X151358600Y-137189359D01*
X151358600Y-137130641D01*
X151244526Y-136557152D01*
X150919670Y-136070971D01*
X150648827Y-135890000D01*
X150919670Y-135709029D01*
X151244526Y-135222848D01*
X151358600Y-134649359D01*
X151358600Y-134590641D01*
X151244526Y-134017152D01*
X150919670Y-133530971D01*
X150433489Y-133206115D01*
X149860000Y-133092041D01*
X149286511Y-133206115D01*
X148800330Y-133530971D01*
X148590000Y-133845751D01*
X148379670Y-133530971D01*
X148255162Y-133447777D01*
X148255162Y-131259833D01*
X148255162Y-124528833D01*
X148113117Y-124185057D01*
X148001162Y-124072906D01*
X148001162Y-100906833D01*
X147859117Y-100563057D01*
X147596327Y-100299808D01*
X147252799Y-100157162D01*
X147239151Y-100157150D01*
X147239162Y-100144833D01*
X147097117Y-99801057D01*
X146985162Y-99688906D01*
X146985162Y-92270833D01*
X146843117Y-91927057D01*
X146580327Y-91663808D01*
X146236799Y-91521162D01*
X145864833Y-91520838D01*
X145651579Y-91608952D01*
X145573117Y-91419057D01*
X145310327Y-91155808D01*
X144966799Y-91013162D01*
X144594833Y-91012838D01*
X144251057Y-91154883D01*
X143987808Y-91417673D01*
X143845162Y-91761201D01*
X143844928Y-92029069D01*
X143683162Y-92028928D01*
X143683162Y-91000833D01*
X143541117Y-90657057D01*
X143278327Y-90393808D01*
X142934799Y-90251162D01*
X142562833Y-90250838D01*
X142428550Y-90306322D01*
X142262327Y-90139808D01*
X141918799Y-89997162D01*
X141546833Y-89996838D01*
X141203057Y-90138883D01*
X141067996Y-90273708D01*
X140934329Y-90139808D01*
X140635162Y-90015582D01*
X140635162Y-81602833D01*
X140493117Y-81259057D01*
X140230327Y-80995808D01*
X139886799Y-80853162D01*
X139514833Y-80852838D01*
X139171057Y-80994883D01*
X138907808Y-81257673D01*
X138765162Y-81601201D01*
X138764838Y-81973167D01*
X138906883Y-82316943D01*
X139169673Y-82580192D01*
X139513201Y-82722838D01*
X139885167Y-82723162D01*
X140228943Y-82581117D01*
X140492192Y-82318327D01*
X140634838Y-81974799D01*
X140635162Y-81602833D01*
X140635162Y-90015582D01*
X140590801Y-89997162D01*
X140381162Y-89996979D01*
X140381162Y-88714833D01*
X140239117Y-88371057D01*
X139976327Y-88107808D01*
X139632799Y-87965162D01*
X139260833Y-87964838D01*
X138917057Y-88106883D01*
X138653808Y-88369673D01*
X138574357Y-88561009D01*
X138389957Y-88484439D01*
X138460192Y-88414327D01*
X138602838Y-88070799D01*
X138603162Y-87698833D01*
X138461117Y-87355057D01*
X138198327Y-87091808D01*
X137854799Y-86949162D01*
X137482833Y-86948838D01*
X137139057Y-87090883D01*
X136875808Y-87353673D01*
X136733162Y-87697201D01*
X136733063Y-87810735D01*
X136631057Y-87852883D01*
X136367808Y-88115673D01*
X136225162Y-88459201D01*
X136224838Y-88831167D01*
X136366883Y-89174943D01*
X136629673Y-89438192D01*
X136973201Y-89580838D01*
X137240848Y-89581071D01*
X137240838Y-89593167D01*
X137382883Y-89936943D01*
X137645673Y-90200192D01*
X137989201Y-90342838D01*
X138361167Y-90343162D01*
X138704943Y-90201117D01*
X138968192Y-89938327D01*
X139047642Y-89746990D01*
X139259201Y-89834838D01*
X139631167Y-89835162D01*
X139974943Y-89693117D01*
X140238192Y-89430327D01*
X140380838Y-89086799D01*
X140381162Y-88714833D01*
X140381162Y-89996979D01*
X140218835Y-89996838D01*
X139875059Y-90138883D01*
X139611810Y-90401673D01*
X139469164Y-90745201D01*
X139468840Y-91117167D01*
X139610885Y-91460943D01*
X139873675Y-91724192D01*
X140217203Y-91866838D01*
X140589169Y-91867162D01*
X140932945Y-91725117D01*
X141068005Y-91590291D01*
X141201673Y-91724192D01*
X141545201Y-91866838D01*
X141917167Y-91867162D01*
X142051449Y-91811677D01*
X142217673Y-91978192D01*
X142561201Y-92120838D01*
X142933167Y-92121162D01*
X143276943Y-91979117D01*
X143540192Y-91716327D01*
X143682838Y-91372799D01*
X143683162Y-91000833D01*
X143683162Y-92028928D01*
X143578833Y-92028838D01*
X143235057Y-92170883D01*
X142971808Y-92433673D01*
X142829162Y-92777201D01*
X142828838Y-93149167D01*
X142970883Y-93492943D01*
X143233673Y-93756192D01*
X143577201Y-93898838D01*
X143949167Y-93899162D01*
X144292943Y-93757117D01*
X144405360Y-93644895D01*
X144711167Y-93645162D01*
X145054943Y-93503117D01*
X145318192Y-93240327D01*
X145375074Y-93103340D01*
X145519673Y-93248192D01*
X145863201Y-93390838D01*
X146235167Y-93391162D01*
X146578943Y-93249117D01*
X146842192Y-92986327D01*
X146984838Y-92642799D01*
X146985162Y-92270833D01*
X146985162Y-99688906D01*
X146834327Y-99537808D01*
X146490799Y-99395162D01*
X146118833Y-99394838D01*
X145775057Y-99536883D01*
X145511808Y-99799673D01*
X145369162Y-100143201D01*
X145368838Y-100515167D01*
X145510883Y-100858943D01*
X145773673Y-101122192D01*
X146117201Y-101264838D01*
X146130848Y-101264849D01*
X146130838Y-101277167D01*
X146272883Y-101620943D01*
X146535673Y-101884192D01*
X146879201Y-102026838D01*
X147251167Y-102027162D01*
X147594943Y-101885117D01*
X147858192Y-101622327D01*
X148000838Y-101278799D01*
X148001162Y-100906833D01*
X148001162Y-124072906D01*
X147850327Y-123921808D01*
X147506799Y-123779162D01*
X147134833Y-123778838D01*
X146791057Y-123920883D01*
X146731162Y-123980673D01*
X146731162Y-121988833D01*
X146589117Y-121645057D01*
X146477162Y-121532906D01*
X146477162Y-115130833D01*
X146335117Y-114787057D01*
X146072327Y-114523808D01*
X145728799Y-114381162D01*
X145461162Y-114380928D01*
X145461162Y-107510833D01*
X145319117Y-107167057D01*
X145206895Y-107054639D01*
X145207162Y-106748833D01*
X145065117Y-106405057D01*
X144802327Y-106141808D01*
X144458799Y-105999162D01*
X144445162Y-105999150D01*
X144445162Y-95318833D01*
X144303117Y-94975057D01*
X144040327Y-94711808D01*
X143696799Y-94569162D01*
X143583264Y-94569063D01*
X143541117Y-94467057D01*
X143278327Y-94203808D01*
X142934799Y-94061162D01*
X142821264Y-94061063D01*
X142779117Y-93959057D01*
X142516327Y-93695808D01*
X142172799Y-93553162D01*
X141800833Y-93552838D01*
X141457057Y-93694883D01*
X141193808Y-93957673D01*
X141051162Y-94301201D01*
X141050838Y-94673167D01*
X141192883Y-95016943D01*
X141455673Y-95280192D01*
X141799201Y-95422838D01*
X141912735Y-95422936D01*
X141954883Y-95524943D01*
X142217673Y-95788192D01*
X142561201Y-95930838D01*
X142674735Y-95930936D01*
X142716883Y-96032943D01*
X142979673Y-96296192D01*
X143323201Y-96438838D01*
X143695167Y-96439162D01*
X144038943Y-96297117D01*
X144302192Y-96034327D01*
X144444838Y-95690799D01*
X144445162Y-95318833D01*
X144445162Y-105999150D01*
X144086833Y-105998838D01*
X143743057Y-106140883D01*
X143479808Y-106403673D01*
X143337162Y-106747201D01*
X143336838Y-107119167D01*
X143478883Y-107462943D01*
X143591104Y-107575360D01*
X143590928Y-107777069D01*
X143324833Y-107776838D01*
X142981057Y-107918883D01*
X142717808Y-108181673D01*
X142674929Y-108284935D01*
X142562833Y-108284838D01*
X142219057Y-108426883D01*
X141955808Y-108689673D01*
X141813162Y-109033201D01*
X141812894Y-109340780D01*
X141701808Y-109451673D01*
X141559162Y-109795201D01*
X141558838Y-110167167D01*
X141700883Y-110510943D01*
X141963673Y-110774192D01*
X142307201Y-110916838D01*
X142679167Y-110917162D01*
X143022943Y-110775117D01*
X143286192Y-110512327D01*
X143428838Y-110168799D01*
X143429105Y-109861219D01*
X143540192Y-109750327D01*
X143583070Y-109647064D01*
X143695167Y-109647162D01*
X144038943Y-109505117D01*
X144302192Y-109242327D01*
X144444838Y-108898799D01*
X144445071Y-108630930D01*
X144711167Y-108631162D01*
X145054943Y-108489117D01*
X145318192Y-108226327D01*
X145460838Y-107882799D01*
X145461162Y-107510833D01*
X145461162Y-114380928D01*
X145356833Y-114380838D01*
X145013057Y-114522883D01*
X144749808Y-114785673D01*
X144607162Y-115129201D01*
X144606838Y-115501167D01*
X144748883Y-115844943D01*
X145011673Y-116108192D01*
X145355201Y-116250838D01*
X145727167Y-116251162D01*
X146070943Y-116109117D01*
X146334192Y-115846327D01*
X146476838Y-115502799D01*
X146477162Y-115130833D01*
X146477162Y-121532906D01*
X146326327Y-121381808D01*
X145982799Y-121239162D01*
X145969151Y-121239150D01*
X145969162Y-121226833D01*
X145827117Y-120883057D01*
X145564327Y-120619808D01*
X145220799Y-120477162D01*
X144848833Y-120476838D01*
X144505057Y-120618883D01*
X144241808Y-120881673D01*
X144099162Y-121225201D01*
X144098838Y-121597167D01*
X144240883Y-121940943D01*
X144503673Y-122204192D01*
X144847201Y-122346838D01*
X144860848Y-122346849D01*
X144860838Y-122359167D01*
X145002883Y-122702943D01*
X145265673Y-122966192D01*
X145609201Y-123108838D01*
X145981167Y-123109162D01*
X146324943Y-122967117D01*
X146588192Y-122704327D01*
X146730838Y-122360799D01*
X146731162Y-121988833D01*
X146731162Y-123980673D01*
X146527808Y-124183673D01*
X146385162Y-124527201D01*
X146384838Y-124899167D01*
X146526883Y-125242943D01*
X146789673Y-125506192D01*
X147133201Y-125648838D01*
X147505167Y-125649162D01*
X147848943Y-125507117D01*
X148112192Y-125244327D01*
X148254838Y-124900799D01*
X148255162Y-124528833D01*
X148255162Y-131259833D01*
X148113117Y-130916057D01*
X147850327Y-130652808D01*
X147506799Y-130510162D01*
X147134833Y-130509838D01*
X146791057Y-130651883D01*
X146527808Y-130914673D01*
X146385162Y-131258201D01*
X146384838Y-131630167D01*
X146526883Y-131973943D01*
X146789673Y-132237192D01*
X147133201Y-132379838D01*
X147505167Y-132380162D01*
X147848943Y-132238117D01*
X148112192Y-131975327D01*
X148254838Y-131631799D01*
X148255162Y-131259833D01*
X148255162Y-133447777D01*
X147893489Y-133206115D01*
X147320000Y-133092041D01*
X146746511Y-133206115D01*
X146260330Y-133530971D01*
X146050000Y-133845751D01*
X145839670Y-133530971D01*
X145353489Y-133206115D01*
X144780000Y-133092041D01*
X144445162Y-133158644D01*
X144445162Y-131259833D01*
X144445162Y-124528833D01*
X144303117Y-124185057D01*
X144040327Y-123921808D01*
X143696799Y-123779162D01*
X143324833Y-123778838D01*
X142981057Y-123920883D01*
X142921162Y-123980673D01*
X142921162Y-116908833D01*
X142779117Y-116565057D01*
X142516327Y-116301808D01*
X142172799Y-116159162D01*
X141800833Y-116158838D01*
X141477628Y-116292382D01*
X141156799Y-116159162D01*
X140784833Y-116158838D01*
X140441057Y-116300883D01*
X140381162Y-116360673D01*
X140381162Y-109288833D01*
X140239117Y-108945057D01*
X139976327Y-108681808D01*
X139632799Y-108539162D01*
X139260833Y-108538838D01*
X139126550Y-108594322D01*
X138960327Y-108427808D01*
X138616799Y-108285162D01*
X138244833Y-108284838D01*
X137901057Y-108426883D01*
X137637808Y-108689673D01*
X137495162Y-109033201D01*
X137494838Y-109405167D01*
X137636883Y-109748943D01*
X137899673Y-110012192D01*
X138243201Y-110154838D01*
X138615167Y-110155162D01*
X138749449Y-110099677D01*
X138915673Y-110266192D01*
X139259201Y-110408838D01*
X139631167Y-110409162D01*
X139974943Y-110267117D01*
X140238192Y-110004327D01*
X140380838Y-109660799D01*
X140381162Y-109288833D01*
X140381162Y-116360673D01*
X140177808Y-116563673D01*
X140035162Y-116907201D01*
X140034838Y-117279167D01*
X140176883Y-117622943D01*
X140439673Y-117886192D01*
X140783201Y-118028838D01*
X141155167Y-118029162D01*
X141478371Y-117895617D01*
X141799201Y-118028838D01*
X142171167Y-118029162D01*
X142514943Y-117887117D01*
X142778192Y-117624327D01*
X142920838Y-117280799D01*
X142921162Y-116908833D01*
X142921162Y-123980673D01*
X142717808Y-124183673D01*
X142575162Y-124527201D01*
X142574838Y-124899167D01*
X142716883Y-125242943D01*
X142979673Y-125506192D01*
X143323201Y-125648838D01*
X143695167Y-125649162D01*
X144038943Y-125507117D01*
X144302192Y-125244327D01*
X144444838Y-124900799D01*
X144445162Y-124528833D01*
X144445162Y-131259833D01*
X144303117Y-130916057D01*
X144040327Y-130652808D01*
X143696799Y-130510162D01*
X143324833Y-130509838D01*
X142981057Y-130651883D01*
X142717808Y-130914673D01*
X142575162Y-131258201D01*
X142574838Y-131630167D01*
X142716883Y-131973943D01*
X142979673Y-132237192D01*
X143323201Y-132379838D01*
X143695167Y-132380162D01*
X144038943Y-132238117D01*
X144302192Y-131975327D01*
X144444838Y-131631799D01*
X144445162Y-131259833D01*
X144445162Y-133158644D01*
X144206511Y-133206115D01*
X143720330Y-133530971D01*
X143504336Y-133854228D01*
X143446821Y-133731510D01*
X143014947Y-133337312D01*
X142599026Y-133165042D01*
X142367000Y-133286183D01*
X142367000Y-134493000D01*
X142387000Y-134493000D01*
X142387000Y-134747000D01*
X142367000Y-134747000D01*
X142367000Y-134767000D01*
X142113000Y-134767000D01*
X142113000Y-134747000D01*
X142093000Y-134747000D01*
X142093000Y-134493000D01*
X142113000Y-134493000D01*
X142113000Y-133286183D01*
X141880974Y-133165042D01*
X141465053Y-133337312D01*
X141033179Y-133731510D01*
X140975663Y-133854228D01*
X140759670Y-133530971D01*
X140635162Y-133447777D01*
X140635162Y-131259833D01*
X140635162Y-124528833D01*
X140493117Y-124185057D01*
X140230327Y-123921808D01*
X140127162Y-123878969D01*
X140127162Y-117670833D01*
X139985117Y-117327057D01*
X139722327Y-117063808D01*
X139378799Y-116921162D01*
X139006833Y-116920838D01*
X138663057Y-117062883D01*
X138399808Y-117325673D01*
X138257162Y-117669201D01*
X138256838Y-118041167D01*
X138398883Y-118384943D01*
X138661673Y-118648192D01*
X139005201Y-118790838D01*
X139377167Y-118791162D01*
X139720943Y-118649117D01*
X139984192Y-118386327D01*
X140126838Y-118042799D01*
X140127162Y-117670833D01*
X140127162Y-123878969D01*
X139886799Y-123779162D01*
X139514833Y-123778838D01*
X139171057Y-123920883D01*
X138907808Y-124183673D01*
X138765162Y-124527201D01*
X138764838Y-124899167D01*
X138906883Y-125242943D01*
X139169673Y-125506192D01*
X139513201Y-125648838D01*
X139885167Y-125649162D01*
X140228943Y-125507117D01*
X140492192Y-125244327D01*
X140634838Y-124900799D01*
X140635162Y-124528833D01*
X140635162Y-131259833D01*
X140493117Y-130916057D01*
X140230327Y-130652808D01*
X139886799Y-130510162D01*
X139514833Y-130509838D01*
X139171057Y-130651883D01*
X138907808Y-130914673D01*
X138765162Y-131258201D01*
X138764838Y-131630167D01*
X138906883Y-131973943D01*
X139169673Y-132237192D01*
X139513201Y-132379838D01*
X139885167Y-132380162D01*
X140228943Y-132238117D01*
X140492192Y-131975327D01*
X140634838Y-131631799D01*
X140635162Y-131259833D01*
X140635162Y-133447777D01*
X140273489Y-133206115D01*
X139700000Y-133092041D01*
X139126511Y-133206115D01*
X138640330Y-133530971D01*
X138430000Y-133845751D01*
X138349162Y-133724768D01*
X138349162Y-118432833D01*
X138207117Y-118089057D01*
X137944327Y-117825808D01*
X137600799Y-117683162D01*
X137228833Y-117682838D01*
X137079162Y-117744680D01*
X137079162Y-109288833D01*
X136945617Y-108965628D01*
X137078838Y-108644799D01*
X137079162Y-108272833D01*
X137079162Y-103192833D01*
X136937117Y-102849057D01*
X136674327Y-102585808D01*
X136330799Y-102443162D01*
X135958833Y-102442838D01*
X135615057Y-102584883D01*
X135351808Y-102847673D01*
X135209162Y-103191201D01*
X135208838Y-103563167D01*
X135350883Y-103906943D01*
X135613673Y-104170192D01*
X135957201Y-104312838D01*
X136329167Y-104313162D01*
X136672943Y-104171117D01*
X136936192Y-103908327D01*
X137078838Y-103564799D01*
X137079162Y-103192833D01*
X137079162Y-108272833D01*
X136937117Y-107929057D01*
X136674327Y-107665808D01*
X136330799Y-107523162D01*
X135958833Y-107522838D01*
X135615057Y-107664883D01*
X135351808Y-107927673D01*
X135209162Y-108271201D01*
X135208838Y-108643167D01*
X135342382Y-108966371D01*
X135209162Y-109287201D01*
X135208838Y-109659167D01*
X135350883Y-110002943D01*
X135613673Y-110266192D01*
X135957201Y-110408838D01*
X136329167Y-110409162D01*
X136672943Y-110267117D01*
X136936192Y-110004327D01*
X137078838Y-109660799D01*
X137079162Y-109288833D01*
X137079162Y-117744680D01*
X136885057Y-117824883D01*
X136621808Y-118087673D01*
X136479162Y-118431201D01*
X136478838Y-118803167D01*
X136620883Y-119146943D01*
X136883673Y-119410192D01*
X137227201Y-119552838D01*
X137599167Y-119553162D01*
X137942943Y-119411117D01*
X138206192Y-119148327D01*
X138348838Y-118804799D01*
X138349162Y-118432833D01*
X138349162Y-133724768D01*
X138219670Y-133530971D01*
X137733489Y-133206115D01*
X137160000Y-133092041D01*
X136586511Y-133206115D01*
X136100330Y-133530971D01*
X135890000Y-133845751D01*
X135679670Y-133530971D01*
X135423975Y-133360121D01*
X135666192Y-133118327D01*
X135808838Y-132774799D01*
X135809162Y-132402833D01*
X135799695Y-132379922D01*
X136075167Y-132380162D01*
X136418943Y-132238117D01*
X136682192Y-131975327D01*
X136824838Y-131631799D01*
X136825162Y-131259833D01*
X136825162Y-124528833D01*
X136683117Y-124185057D01*
X136420327Y-123921808D01*
X136076799Y-123779162D01*
X136063162Y-123779150D01*
X136063162Y-119702833D01*
X135921117Y-119359057D01*
X135658327Y-119095808D01*
X135554843Y-119052837D01*
X135555162Y-118686833D01*
X135413117Y-118343057D01*
X135150327Y-118079808D01*
X134806799Y-117937162D01*
X134539162Y-117936928D01*
X134539162Y-101160833D01*
X134397117Y-100817057D01*
X134134327Y-100553808D01*
X133790799Y-100411162D01*
X133418833Y-100410838D01*
X133075057Y-100552883D01*
X132811808Y-100815673D01*
X132669162Y-101159201D01*
X132668838Y-101531167D01*
X132810883Y-101874943D01*
X133073673Y-102138192D01*
X133417201Y-102280838D01*
X133789167Y-102281162D01*
X134132943Y-102139117D01*
X134396192Y-101876327D01*
X134538838Y-101532799D01*
X134539162Y-101160833D01*
X134539162Y-117936928D01*
X134434833Y-117936838D01*
X134091057Y-118078883D01*
X134031162Y-118138673D01*
X134031162Y-116654833D01*
X133889117Y-116311057D01*
X133626327Y-116047808D01*
X133282799Y-115905162D01*
X132910833Y-115904838D01*
X132761162Y-115966680D01*
X132761162Y-105224833D01*
X132619117Y-104881057D01*
X132356327Y-104617808D01*
X132012799Y-104475162D01*
X131640833Y-104474838D01*
X131297057Y-104616883D01*
X131033808Y-104879673D01*
X130891162Y-105223201D01*
X130890838Y-105595167D01*
X130952707Y-105744902D01*
X130878833Y-105744838D01*
X130535057Y-105886883D01*
X130271808Y-106149673D01*
X130129162Y-106493201D01*
X130128838Y-106865167D01*
X130270883Y-107208943D01*
X130533673Y-107472192D01*
X130877201Y-107614838D01*
X131249167Y-107615162D01*
X131592943Y-107473117D01*
X131856192Y-107210327D01*
X131998838Y-106866799D01*
X131999162Y-106494833D01*
X131937292Y-106345097D01*
X132011167Y-106345162D01*
X132354943Y-106203117D01*
X132618192Y-105940327D01*
X132760838Y-105596799D01*
X132761162Y-105224833D01*
X132761162Y-115966680D01*
X132587628Y-116038382D01*
X132507162Y-116004969D01*
X132507162Y-109796833D01*
X132365117Y-109453057D01*
X132102327Y-109189808D01*
X131758799Y-109047162D01*
X131645264Y-109047063D01*
X131603117Y-108945057D01*
X131340327Y-108681808D01*
X130996799Y-108539162D01*
X130624833Y-108538838D01*
X130281057Y-108680883D01*
X130017808Y-108943673D01*
X129875162Y-109287201D01*
X129874838Y-109659167D01*
X130016883Y-110002943D01*
X130279673Y-110266192D01*
X130623201Y-110408838D01*
X130736735Y-110408936D01*
X130778883Y-110510943D01*
X131041673Y-110774192D01*
X131385201Y-110916838D01*
X131757167Y-110917162D01*
X132100943Y-110775117D01*
X132364192Y-110512327D01*
X132506838Y-110168799D01*
X132507162Y-109796833D01*
X132507162Y-116004969D01*
X132266799Y-115905162D01*
X131894833Y-115904838D01*
X131551057Y-116046883D01*
X131287808Y-116309673D01*
X131145162Y-116653201D01*
X131144838Y-117025167D01*
X131286883Y-117368943D01*
X131549673Y-117632192D01*
X131893201Y-117774838D01*
X132265167Y-117775162D01*
X132588371Y-117641617D01*
X132909201Y-117774838D01*
X133281167Y-117775162D01*
X133624943Y-117633117D01*
X133888192Y-117370327D01*
X134030838Y-117026799D01*
X134031162Y-116654833D01*
X134031162Y-118138673D01*
X133827808Y-118341673D01*
X133685162Y-118685201D01*
X133684838Y-119057167D01*
X133826883Y-119400943D01*
X134089673Y-119664192D01*
X134193156Y-119707162D01*
X134192838Y-120073167D01*
X134334883Y-120416943D01*
X134597673Y-120680192D01*
X134941201Y-120822838D01*
X135313167Y-120823162D01*
X135656943Y-120681117D01*
X135920192Y-120418327D01*
X136062838Y-120074799D01*
X136063162Y-119702833D01*
X136063162Y-123779150D01*
X135704833Y-123778838D01*
X135361057Y-123920883D01*
X135097808Y-124183673D01*
X134955162Y-124527201D01*
X134954838Y-124899167D01*
X135096883Y-125242943D01*
X135359673Y-125506192D01*
X135703201Y-125648838D01*
X136075167Y-125649162D01*
X136418943Y-125507117D01*
X136682192Y-125244327D01*
X136824838Y-124900799D01*
X136825162Y-124528833D01*
X136825162Y-131259833D01*
X136683117Y-130916057D01*
X136420327Y-130652808D01*
X136076799Y-130510162D01*
X135704833Y-130509838D01*
X135361057Y-130651883D01*
X135097808Y-130914673D01*
X134955162Y-131258201D01*
X134954838Y-131630167D01*
X134964304Y-131653077D01*
X134688833Y-131652838D01*
X134345057Y-131794883D01*
X134081808Y-132057673D01*
X133939162Y-132401201D01*
X133938838Y-132773167D01*
X134080883Y-133116943D01*
X134149457Y-133185637D01*
X134046511Y-133206115D01*
X133560330Y-133530971D01*
X133523162Y-133586596D01*
X133523162Y-120464833D01*
X133381117Y-120121057D01*
X133118327Y-119857808D01*
X132774799Y-119715162D01*
X132402833Y-119714838D01*
X132059057Y-119856883D01*
X131795808Y-120119673D01*
X131653162Y-120463201D01*
X131652838Y-120835167D01*
X131794883Y-121178943D01*
X132057673Y-121442192D01*
X132401201Y-121584838D01*
X132773167Y-121585162D01*
X133116943Y-121443117D01*
X133380192Y-121180327D01*
X133522838Y-120836799D01*
X133523162Y-120464833D01*
X133523162Y-133586596D01*
X133350000Y-133845751D01*
X133139670Y-133530971D01*
X133015162Y-133447777D01*
X133015162Y-131386833D01*
X133015162Y-124528833D01*
X132873117Y-124185057D01*
X132760895Y-124072639D01*
X132761162Y-123766833D01*
X132619117Y-123423057D01*
X132356327Y-123159808D01*
X132012799Y-123017162D01*
X131705219Y-123016894D01*
X131594327Y-122905808D01*
X131250799Y-122763162D01*
X130878833Y-122762838D01*
X130535057Y-122904883D01*
X130271808Y-123167673D01*
X130129162Y-123511201D01*
X130128838Y-123883167D01*
X130270883Y-124226943D01*
X130533673Y-124490192D01*
X130877201Y-124632838D01*
X131145069Y-124633071D01*
X131144838Y-124899167D01*
X131286883Y-125242943D01*
X131549673Y-125506192D01*
X131893201Y-125648838D01*
X132265167Y-125649162D01*
X132608943Y-125507117D01*
X132872192Y-125244327D01*
X133014838Y-124900799D01*
X133015162Y-124528833D01*
X133015162Y-131386833D01*
X132873117Y-131043057D01*
X132610327Y-130779808D01*
X132266799Y-130637162D01*
X131894833Y-130636838D01*
X131551057Y-130778883D01*
X131287808Y-131041673D01*
X131145162Y-131385201D01*
X131144838Y-131757167D01*
X131286883Y-132100943D01*
X131549673Y-132364192D01*
X131893201Y-132506838D01*
X132265167Y-132507162D01*
X132608943Y-132365117D01*
X132872192Y-132102327D01*
X133014838Y-131758799D01*
X133015162Y-131386833D01*
X133015162Y-133447777D01*
X132653489Y-133206115D01*
X132080000Y-133092041D01*
X131506511Y-133206115D01*
X131020330Y-133530971D01*
X130810000Y-133845751D01*
X130599670Y-133530971D01*
X130452408Y-133432573D01*
X130576943Y-133381117D01*
X130840192Y-133118327D01*
X130982838Y-132774799D01*
X130983162Y-132402833D01*
X130841117Y-132059057D01*
X130578327Y-131795808D01*
X130234799Y-131653162D01*
X129862833Y-131652838D01*
X129713162Y-131714680D01*
X129713162Y-100144833D01*
X129713162Y-96842833D01*
X129571117Y-96499057D01*
X129308327Y-96235808D01*
X128964799Y-96093162D01*
X128592833Y-96092838D01*
X128249057Y-96234883D01*
X127985808Y-96497673D01*
X127843162Y-96841201D01*
X127842838Y-97213167D01*
X127984883Y-97556943D01*
X128247673Y-97820192D01*
X128591201Y-97962838D01*
X128963167Y-97963162D01*
X129306943Y-97821117D01*
X129570192Y-97558327D01*
X129712838Y-97214799D01*
X129713162Y-96842833D01*
X129713162Y-100144833D01*
X129571117Y-99801057D01*
X129308327Y-99537808D01*
X128964799Y-99395162D01*
X128592833Y-99394838D01*
X128249057Y-99536883D01*
X128120612Y-99665103D01*
X128188838Y-99500799D01*
X128189162Y-99128833D01*
X128047117Y-98785057D01*
X127784327Y-98521808D01*
X127681162Y-98478969D01*
X127681162Y-97096833D01*
X127539117Y-96753057D01*
X127337358Y-96550945D01*
X127337358Y-93069026D01*
X127216217Y-92837000D01*
X125857000Y-92837000D01*
X125857000Y-94050924D01*
X126091913Y-94195184D01*
X126644320Y-94001954D01*
X127080732Y-93612036D01*
X127334709Y-93084791D01*
X127337358Y-93069026D01*
X127337358Y-96550945D01*
X127276327Y-96489808D01*
X126932799Y-96347162D01*
X126560833Y-96346838D01*
X126217057Y-96488883D01*
X125953808Y-96751673D01*
X125811162Y-97095201D01*
X125810838Y-97467167D01*
X125952883Y-97810943D01*
X126215673Y-98074192D01*
X126559201Y-98216838D01*
X126931167Y-98217162D01*
X127274943Y-98075117D01*
X127538192Y-97812327D01*
X127680838Y-97468799D01*
X127681162Y-97096833D01*
X127681162Y-98478969D01*
X127440799Y-98379162D01*
X127068833Y-98378838D01*
X126725057Y-98520883D01*
X126461808Y-98783673D01*
X126319162Y-99127201D01*
X126318838Y-99499167D01*
X126460883Y-99842943D01*
X126723673Y-100106192D01*
X127067201Y-100248838D01*
X127439167Y-100249162D01*
X127782943Y-100107117D01*
X127911387Y-99978896D01*
X127843162Y-100143201D01*
X127842838Y-100515167D01*
X127984883Y-100858943D01*
X128247673Y-101122192D01*
X128591201Y-101264838D01*
X128963167Y-101265162D01*
X129306943Y-101123117D01*
X129570192Y-100860327D01*
X129712838Y-100516799D01*
X129713162Y-100144833D01*
X129713162Y-131714680D01*
X129519057Y-131794883D01*
X129459162Y-131854673D01*
X129459162Y-105478833D01*
X129317117Y-105135057D01*
X129054327Y-104871808D01*
X128710799Y-104729162D01*
X128697162Y-104729150D01*
X128697162Y-102176833D01*
X128555117Y-101833057D01*
X128292327Y-101569808D01*
X128189064Y-101526929D01*
X128189162Y-101414833D01*
X128047117Y-101071057D01*
X127784327Y-100807808D01*
X127440799Y-100665162D01*
X127068833Y-100664838D01*
X126725057Y-100806883D01*
X126461808Y-101069673D01*
X126319162Y-101413201D01*
X126318838Y-101785167D01*
X126460883Y-102128943D01*
X126723673Y-102392192D01*
X126826935Y-102435070D01*
X126826838Y-102547167D01*
X126968883Y-102890943D01*
X127231673Y-103154192D01*
X127575201Y-103296838D01*
X127947167Y-103297162D01*
X128290943Y-103155117D01*
X128554192Y-102892327D01*
X128696838Y-102548799D01*
X128697162Y-102176833D01*
X128697162Y-104729150D01*
X128338833Y-104728838D01*
X127995057Y-104870883D01*
X127935162Y-104930673D01*
X127935162Y-103954833D01*
X127793117Y-103611057D01*
X127530327Y-103347808D01*
X127186799Y-103205162D01*
X126814833Y-103204838D01*
X126471057Y-103346883D01*
X126207808Y-103609673D01*
X126065162Y-103953201D01*
X126064838Y-104325167D01*
X126206883Y-104668943D01*
X126469673Y-104932192D01*
X126813201Y-105074838D01*
X127185167Y-105075162D01*
X127528943Y-104933117D01*
X127792192Y-104670327D01*
X127934838Y-104326799D01*
X127935162Y-103954833D01*
X127935162Y-104930673D01*
X127731808Y-105133673D01*
X127589162Y-105477201D01*
X127588838Y-105849167D01*
X127730883Y-106192943D01*
X127993673Y-106456192D01*
X128337201Y-106598838D01*
X128709167Y-106599162D01*
X129052943Y-106457117D01*
X129316192Y-106194327D01*
X129458838Y-105850799D01*
X129459162Y-105478833D01*
X129459162Y-131854673D01*
X129255808Y-132057673D01*
X129205162Y-132179641D01*
X129205162Y-131386833D01*
X129205162Y-124528833D01*
X129063117Y-124185057D01*
X128951162Y-124072906D01*
X128951162Y-109542833D01*
X128809117Y-109199057D01*
X128576290Y-108965823D01*
X128808192Y-108734327D01*
X128950838Y-108390799D01*
X128951162Y-108018833D01*
X128809117Y-107675057D01*
X128546327Y-107411808D01*
X128202799Y-107269162D01*
X127830833Y-107268838D01*
X127487057Y-107410883D01*
X127341111Y-107556574D01*
X127285117Y-107421057D01*
X127022327Y-107157808D01*
X126678799Y-107015162D01*
X126306833Y-107014838D01*
X125963057Y-107156883D01*
X125699808Y-107419673D01*
X125603000Y-107652811D01*
X125603000Y-94050924D01*
X125603000Y-92837000D01*
X124243783Y-92837000D01*
X124122642Y-93069026D01*
X124125291Y-93084791D01*
X124379268Y-93612036D01*
X124815680Y-94001954D01*
X125368087Y-94195184D01*
X125603000Y-94050924D01*
X125603000Y-107652811D01*
X125557162Y-107763201D01*
X125556838Y-108135167D01*
X125698883Y-108478943D01*
X125961673Y-108742192D01*
X126305201Y-108884838D01*
X126677167Y-108885162D01*
X127020943Y-108743117D01*
X127166888Y-108597425D01*
X127222883Y-108732943D01*
X127455709Y-108966176D01*
X127223808Y-109197673D01*
X127081162Y-109541201D01*
X127080838Y-109913167D01*
X127222883Y-110256943D01*
X127485673Y-110520192D01*
X127829201Y-110662838D01*
X128201167Y-110663162D01*
X128544943Y-110521117D01*
X128808192Y-110258327D01*
X128950838Y-109914799D01*
X128951162Y-109542833D01*
X128951162Y-124072906D01*
X128800327Y-123921808D01*
X128456799Y-123779162D01*
X128443162Y-123779150D01*
X128443162Y-122242833D01*
X128301117Y-121899057D01*
X128038327Y-121635808D01*
X127694799Y-121493162D01*
X127322833Y-121492838D01*
X126999628Y-121626382D01*
X126678799Y-121493162D01*
X126306833Y-121492838D01*
X125963057Y-121634883D01*
X125699808Y-121897673D01*
X125557162Y-122241201D01*
X125556838Y-122613167D01*
X125698883Y-122956943D01*
X125961673Y-123220192D01*
X126305201Y-123362838D01*
X126677167Y-123363162D01*
X127000371Y-123229617D01*
X127321201Y-123362838D01*
X127693167Y-123363162D01*
X128036943Y-123221117D01*
X128300192Y-122958327D01*
X128442838Y-122614799D01*
X128443162Y-122242833D01*
X128443162Y-123779150D01*
X128084833Y-123778838D01*
X127741057Y-123920883D01*
X127477808Y-124183673D01*
X127335162Y-124527201D01*
X127334838Y-124899167D01*
X127476883Y-125242943D01*
X127739673Y-125506192D01*
X128083201Y-125648838D01*
X128455167Y-125649162D01*
X128798943Y-125507117D01*
X129062192Y-125244327D01*
X129204838Y-124900799D01*
X129205162Y-124528833D01*
X129205162Y-131386833D01*
X129063117Y-131043057D01*
X128800327Y-130779808D01*
X128456799Y-130637162D01*
X128084833Y-130636838D01*
X127741057Y-130778883D01*
X127477808Y-131041673D01*
X127335162Y-131385201D01*
X127334838Y-131757167D01*
X127476883Y-132100943D01*
X127739673Y-132364192D01*
X128083201Y-132506838D01*
X128455167Y-132507162D01*
X128798943Y-132365117D01*
X129062192Y-132102327D01*
X129204838Y-131758799D01*
X129205162Y-131386833D01*
X129205162Y-132179641D01*
X129113162Y-132401201D01*
X129112838Y-132773167D01*
X129254883Y-133116943D01*
X129281377Y-133143484D01*
X128966511Y-133206115D01*
X128480330Y-133530971D01*
X128270000Y-133845751D01*
X128059670Y-133530971D01*
X127573489Y-133206115D01*
X127000000Y-133092041D01*
X126426511Y-133206115D01*
X125940330Y-133530971D01*
X125724336Y-133854228D01*
X125666821Y-133731510D01*
X125234947Y-133337312D01*
X124819026Y-133165042D01*
X124587000Y-133286183D01*
X124587000Y-134493000D01*
X124607000Y-134493000D01*
X124607000Y-134747000D01*
X124587000Y-134747000D01*
X124587000Y-134767000D01*
X124333000Y-134767000D01*
X124333000Y-134747000D01*
X124313000Y-134747000D01*
X124313000Y-134493000D01*
X124333000Y-134493000D01*
X124333000Y-133286183D01*
X124100974Y-133165042D01*
X123685053Y-133337312D01*
X123442000Y-133559161D01*
X123442000Y-124516802D01*
X124086337Y-125161139D01*
X124033162Y-125289201D01*
X124032838Y-125661167D01*
X124174883Y-126004943D01*
X124437673Y-126268192D01*
X124781201Y-126410838D01*
X125153167Y-126411162D01*
X125496943Y-126269117D01*
X125760192Y-126006327D01*
X125902838Y-125662799D01*
X125903162Y-125290833D01*
X125761117Y-124947057D01*
X125714556Y-124900415D01*
X125670148Y-124677161D01*
X125670148Y-124677160D01*
X125505401Y-124430599D01*
X124841000Y-123766198D01*
X124841000Y-103859910D01*
X124841000Y-103607291D01*
X124841000Y-103155750D01*
X124841000Y-102584250D01*
X124841000Y-102132709D01*
X124841000Y-101880090D01*
X124744327Y-101646701D01*
X124565698Y-101468073D01*
X124332309Y-101371400D01*
X123475750Y-101371400D01*
X123317000Y-101530150D01*
X123317000Y-102743000D01*
X124682250Y-102743000D01*
X124841000Y-102584250D01*
X124841000Y-103155750D01*
X124682250Y-102997000D01*
X123317000Y-102997000D01*
X123317000Y-104069076D01*
X123317000Y-104209850D01*
X123317000Y-105283000D01*
X124676217Y-105283000D01*
X124797358Y-105050974D01*
X124794709Y-105035209D01*
X124540732Y-104507964D01*
X124368139Y-104353758D01*
X124565698Y-104271927D01*
X124744327Y-104093299D01*
X124841000Y-103859910D01*
X124841000Y-123766198D01*
X124797358Y-123722556D01*
X124797358Y-113389026D01*
X124797358Y-112670974D01*
X124794709Y-112655209D01*
X124540732Y-112127964D01*
X124128891Y-111760000D01*
X124540732Y-111392036D01*
X124794709Y-110864791D01*
X124797358Y-110849026D01*
X124797358Y-110130974D01*
X124794709Y-110115209D01*
X124540732Y-109587964D01*
X124128891Y-109220000D01*
X124540732Y-108852036D01*
X124794709Y-108324791D01*
X124797358Y-108309026D01*
X124797358Y-107590974D01*
X124794709Y-107575209D01*
X124540732Y-107047964D01*
X124128891Y-106680000D01*
X124540732Y-106312036D01*
X124794709Y-105784791D01*
X124797358Y-105769026D01*
X124676217Y-105537000D01*
X123317000Y-105537000D01*
X123317000Y-106609076D01*
X123317000Y-106750924D01*
X123317000Y-107823000D01*
X124676217Y-107823000D01*
X124797358Y-107590974D01*
X124797358Y-108309026D01*
X124676217Y-108077000D01*
X123317000Y-108077000D01*
X123317000Y-109149076D01*
X123317000Y-109290924D01*
X123317000Y-110363000D01*
X124676217Y-110363000D01*
X124797358Y-110130974D01*
X124797358Y-110849026D01*
X124676217Y-110617000D01*
X123317000Y-110617000D01*
X123317000Y-111689076D01*
X123317000Y-111830924D01*
X123317000Y-112903000D01*
X124676217Y-112903000D01*
X124797358Y-112670974D01*
X124797358Y-113389026D01*
X124676217Y-113157000D01*
X123317000Y-113157000D01*
X123317000Y-114370924D01*
X123551913Y-114515184D01*
X124104320Y-114321954D01*
X124540732Y-113932036D01*
X124794709Y-113404791D01*
X124797358Y-113389026D01*
X124797358Y-123722556D01*
X123442000Y-122367198D01*
X123442000Y-116078000D01*
X123384148Y-115787161D01*
X123219401Y-115540599D01*
X123063000Y-115384198D01*
X123063000Y-114370924D01*
X123063000Y-113157000D01*
X123063000Y-112903000D01*
X123063000Y-111830924D01*
X123063000Y-111689076D01*
X123063000Y-110617000D01*
X123063000Y-110363000D01*
X123063000Y-109290924D01*
X123063000Y-109149076D01*
X123063000Y-108077000D01*
X123063000Y-107823000D01*
X123063000Y-106750924D01*
X123063000Y-106609076D01*
X123063000Y-105537000D01*
X123063000Y-105283000D01*
X123063000Y-104209850D01*
X123063000Y-104069076D01*
X123063000Y-102997000D01*
X123063000Y-102743000D01*
X123063000Y-101530150D01*
X122904250Y-101371400D01*
X122047691Y-101371400D01*
X121814302Y-101468073D01*
X121635673Y-101646701D01*
X121539000Y-101880090D01*
X121539000Y-102132709D01*
X121539000Y-102584250D01*
X121697750Y-102743000D01*
X123063000Y-102743000D01*
X123063000Y-102997000D01*
X121697750Y-102997000D01*
X121539000Y-103155750D01*
X121539000Y-103607291D01*
X121539000Y-103859910D01*
X121635673Y-104093299D01*
X121814302Y-104271927D01*
X122011860Y-104353758D01*
X121839268Y-104507964D01*
X121585291Y-105035209D01*
X121582642Y-105050974D01*
X121703783Y-105283000D01*
X123063000Y-105283000D01*
X123063000Y-105537000D01*
X121703783Y-105537000D01*
X121582642Y-105769026D01*
X121585291Y-105784791D01*
X121839268Y-106312036D01*
X122251108Y-106680000D01*
X121839268Y-107047964D01*
X121585291Y-107575209D01*
X121582642Y-107590974D01*
X121703783Y-107823000D01*
X123063000Y-107823000D01*
X123063000Y-108077000D01*
X121703783Y-108077000D01*
X121582642Y-108309026D01*
X121585291Y-108324791D01*
X121839268Y-108852036D01*
X122251108Y-109220000D01*
X121839268Y-109587964D01*
X121585291Y-110115209D01*
X121582642Y-110130974D01*
X121703783Y-110363000D01*
X123063000Y-110363000D01*
X123063000Y-110617000D01*
X121703783Y-110617000D01*
X121582642Y-110849026D01*
X121585291Y-110864791D01*
X121839268Y-111392036D01*
X122251108Y-111760000D01*
X121839268Y-112127964D01*
X121585291Y-112655209D01*
X121582642Y-112670974D01*
X121703783Y-112903000D01*
X123063000Y-112903000D01*
X123063000Y-113157000D01*
X121703783Y-113157000D01*
X121582642Y-113389026D01*
X121585291Y-113404791D01*
X121839268Y-113932036D01*
X122275680Y-114321954D01*
X122828087Y-114515184D01*
X123063000Y-114370924D01*
X123063000Y-115384198D01*
X121410000Y-113731198D01*
X121410000Y-98104802D01*
X122203401Y-97311401D01*
X122368148Y-97064839D01*
X122426000Y-96774000D01*
X122426000Y-88564888D01*
X122740167Y-88565162D01*
X123083943Y-88423117D01*
X123347192Y-88160327D01*
X123489838Y-87816799D01*
X123490162Y-87444833D01*
X123348117Y-87101057D01*
X123085327Y-86837808D01*
X122741799Y-86695162D01*
X122426000Y-86694886D01*
X122426000Y-74594888D01*
X122684000Y-74595113D01*
X122684000Y-85344000D01*
X122741852Y-85634839D01*
X122906599Y-85881401D01*
X124066560Y-87041362D01*
X124066560Y-88493600D01*
X124113537Y-88735723D01*
X124253327Y-88948527D01*
X124464360Y-89090977D01*
X124502962Y-89098718D01*
X124485585Y-89110330D01*
X124160729Y-89596511D01*
X124046655Y-90170000D01*
X124160729Y-90743489D01*
X124485585Y-91229670D01*
X124795069Y-91436460D01*
X124379268Y-91807964D01*
X124125291Y-92335209D01*
X124122642Y-92350974D01*
X124243783Y-92583000D01*
X125603000Y-92583000D01*
X125603000Y-92563000D01*
X125857000Y-92563000D01*
X125857000Y-92583000D01*
X127216217Y-92583000D01*
X127337358Y-92350974D01*
X127334709Y-92335209D01*
X127080732Y-91807964D01*
X126664930Y-91436460D01*
X126974415Y-91229670D01*
X127299271Y-90743489D01*
X127413345Y-90170000D01*
X127299271Y-89596511D01*
X126974415Y-89110330D01*
X126958632Y-89099784D01*
X126988123Y-89094063D01*
X127200927Y-88954273D01*
X127343377Y-88743240D01*
X127393440Y-88493600D01*
X127393440Y-86766400D01*
X127346463Y-86524277D01*
X127337358Y-86510416D01*
X127337358Y-79099026D01*
X127216217Y-78867000D01*
X125857000Y-78867000D01*
X125857000Y-80080924D01*
X126091913Y-80225184D01*
X126644320Y-80031954D01*
X127080732Y-79642036D01*
X127334709Y-79114791D01*
X127337358Y-79099026D01*
X127337358Y-86510416D01*
X127206673Y-86311473D01*
X126995640Y-86169023D01*
X126746000Y-86118960D01*
X125293762Y-86118960D01*
X124204000Y-85029198D01*
X124204000Y-79278187D01*
X124379268Y-79642036D01*
X124815680Y-80031954D01*
X125368087Y-80225184D01*
X125603000Y-80080924D01*
X125603000Y-78867000D01*
X125583000Y-78867000D01*
X125583000Y-78613000D01*
X125603000Y-78613000D01*
X125603000Y-78593000D01*
X125857000Y-78593000D01*
X125857000Y-78613000D01*
X127216217Y-78613000D01*
X127337358Y-78380974D01*
X127334709Y-78365209D01*
X127080732Y-77837964D01*
X126664930Y-77466460D01*
X126974415Y-77259670D01*
X127299271Y-76773489D01*
X127413345Y-76200000D01*
X127299271Y-75626511D01*
X126974415Y-75140330D01*
X126958632Y-75129784D01*
X126988123Y-75124063D01*
X127200927Y-74984273D01*
X127343377Y-74773240D01*
X127393440Y-74523600D01*
X127393440Y-72842242D01*
X129796000Y-75244802D01*
X129796000Y-90424000D01*
X129815934Y-90524216D01*
X129519057Y-90646883D01*
X129255808Y-90909673D01*
X129113162Y-91253201D01*
X129112838Y-91625167D01*
X129254883Y-91968943D01*
X129517673Y-92232192D01*
X129861201Y-92374838D01*
X130233167Y-92375162D01*
X130576943Y-92233117D01*
X130840192Y-91970327D01*
X130895156Y-91837958D01*
X132844000Y-93786802D01*
X132844000Y-96211537D01*
X132811808Y-96243673D01*
X132669162Y-96587201D01*
X132668838Y-96959167D01*
X132810883Y-97302943D01*
X133073673Y-97566192D01*
X133417201Y-97708838D01*
X133464076Y-97708878D01*
X135860599Y-100105401D01*
X136622599Y-100867401D01*
X136869161Y-101032148D01*
X137160000Y-101090000D01*
X140407537Y-101090000D01*
X140439673Y-101122192D01*
X140783201Y-101264838D01*
X141155167Y-101265162D01*
X141498943Y-101123117D01*
X141762192Y-100860327D01*
X141904838Y-100516799D01*
X141905162Y-100144833D01*
X141905162Y-96588833D01*
X141763117Y-96245057D01*
X141500327Y-95981808D01*
X141156799Y-95839162D01*
X140784833Y-95838838D01*
X140441057Y-95980883D01*
X140177808Y-96243673D01*
X140035162Y-96587201D01*
X140034838Y-96959167D01*
X140176883Y-97302943D01*
X140439673Y-97566192D01*
X140783201Y-97708838D01*
X141155167Y-97709162D01*
X141498943Y-97567117D01*
X141762192Y-97304327D01*
X141904838Y-96960799D01*
X141905162Y-96588833D01*
X141905162Y-100144833D01*
X141763117Y-99801057D01*
X141500327Y-99537808D01*
X141156799Y-99395162D01*
X140784833Y-99394838D01*
X140441057Y-99536883D01*
X140407882Y-99570000D01*
X137841162Y-99570000D01*
X137841162Y-92270833D01*
X137699117Y-91927057D01*
X137436327Y-91663808D01*
X137092799Y-91521162D01*
X136877442Y-91520974D01*
X136936192Y-91462327D01*
X137078838Y-91118799D01*
X137079162Y-90746833D01*
X136937117Y-90403057D01*
X136674327Y-90139808D01*
X136330799Y-89997162D01*
X135958833Y-89996838D01*
X135792895Y-90065401D01*
X135920192Y-89938327D01*
X136062838Y-89594799D01*
X136063162Y-89222833D01*
X135921117Y-88879057D01*
X135658327Y-88615808D01*
X135314799Y-88473162D01*
X134942833Y-88472838D01*
X134599057Y-88614883D01*
X134335808Y-88877673D01*
X134193162Y-89221201D01*
X134192838Y-89593167D01*
X134334883Y-89936943D01*
X134597673Y-90200192D01*
X134941201Y-90342838D01*
X135313167Y-90343162D01*
X135479104Y-90274598D01*
X135351808Y-90401673D01*
X135209162Y-90745201D01*
X135208838Y-91117167D01*
X135350883Y-91460943D01*
X135613673Y-91724192D01*
X135957201Y-91866838D01*
X136172557Y-91867025D01*
X136113808Y-91925673D01*
X135971162Y-92269201D01*
X135970838Y-92641167D01*
X136112883Y-92984943D01*
X136375673Y-93248192D01*
X136719201Y-93390838D01*
X137091167Y-93391162D01*
X137434943Y-93249117D01*
X137698192Y-92986327D01*
X137840838Y-92642799D01*
X137841162Y-92270833D01*
X137841162Y-99570000D01*
X137474802Y-99570000D01*
X136935401Y-99030599D01*
X135438802Y-97534000D01*
X135581537Y-97534000D01*
X135613673Y-97566192D01*
X135957201Y-97708838D01*
X136329167Y-97709162D01*
X136672943Y-97567117D01*
X136936192Y-97304327D01*
X137078838Y-96960799D01*
X137079162Y-96588833D01*
X136937117Y-96245057D01*
X136674327Y-95981808D01*
X136330799Y-95839162D01*
X135958833Y-95838838D01*
X135615057Y-95980883D01*
X135581882Y-96014000D01*
X134364000Y-96014000D01*
X134364000Y-93472000D01*
X134306148Y-93181161D01*
X134141401Y-92934599D01*
X133264042Y-92057240D01*
X133417201Y-92120838D01*
X133789167Y-92121162D01*
X134132943Y-91979117D01*
X134396192Y-91716327D01*
X134538838Y-91372799D01*
X134539162Y-91000833D01*
X134397117Y-90657057D01*
X134134327Y-90393808D01*
X133790799Y-90251162D01*
X133418833Y-90250838D01*
X133075057Y-90392883D01*
X133014975Y-90452859D01*
X133015162Y-90238833D01*
X132873117Y-89895057D01*
X132610327Y-89631808D01*
X132266799Y-89489162D01*
X131894833Y-89488838D01*
X131551057Y-89630883D01*
X131316000Y-89865530D01*
X131316000Y-76764802D01*
X134336599Y-79785401D01*
X134583161Y-79950148D01*
X134874000Y-80008000D01*
X146497197Y-80008000D01*
X149354000Y-82864802D01*
X149354000Y-92456000D01*
X149354000Y-94234000D01*
X149354000Y-115824000D01*
X149411852Y-116114839D01*
X149576599Y-116361401D01*
X150199957Y-116984759D01*
X150046799Y-116921162D01*
X149674833Y-116920838D01*
X149331057Y-117062883D01*
X149067808Y-117325673D01*
X148925162Y-117669201D01*
X148925150Y-117682848D01*
X148912833Y-117682838D01*
X148569057Y-117824883D01*
X148305808Y-118087673D01*
X148163162Y-118431201D01*
X148162838Y-118803167D01*
X148304883Y-119146943D01*
X148567673Y-119410192D01*
X148911201Y-119552838D01*
X149283167Y-119553162D01*
X149626943Y-119411117D01*
X149890192Y-119148327D01*
X150032838Y-118804799D01*
X150032849Y-118791151D01*
X150045167Y-118791162D01*
X150388943Y-118649117D01*
X150652192Y-118386327D01*
X150794838Y-118042799D01*
X150795162Y-117670833D01*
X150704932Y-117452459D01*
X150839161Y-117542148D01*
X151130000Y-117600000D01*
X152085198Y-117600000D01*
X154180000Y-119694802D01*
X154180000Y-124460000D01*
X154237852Y-124750839D01*
X154402599Y-124997401D01*
X155897618Y-126492420D01*
X155796655Y-127000000D01*
X155910729Y-127573489D01*
X156235585Y-128059670D01*
X156545069Y-128266460D01*
X156129268Y-128637964D01*
X155875291Y-129165209D01*
X155872642Y-129180974D01*
X155993783Y-129413000D01*
X157353000Y-129413000D01*
X157353000Y-129393000D01*
X157607000Y-129393000D01*
X157607000Y-129413000D01*
X158966217Y-129413000D01*
X159087358Y-129180974D01*
X159084709Y-129165209D01*
X158830732Y-128637964D01*
X158414930Y-128266460D01*
X158724415Y-128059670D01*
X159049271Y-127573489D01*
X159163345Y-127000000D01*
X159163345Y-139573000D01*
X159087358Y-139573000D01*
X159087358Y-129899026D01*
X158966217Y-129667000D01*
X157607000Y-129667000D01*
X157607000Y-130880924D01*
X157841913Y-131025184D01*
X158394320Y-130831954D01*
X158830732Y-130442036D01*
X159084709Y-129914791D01*
X159087358Y-129899026D01*
X159087358Y-139573000D01*
X158845457Y-139573000D01*
X158845457Y-135368166D01*
X158445147Y-134399342D01*
X157704557Y-133657458D01*
X157353000Y-133511478D01*
X157353000Y-130880924D01*
X157353000Y-129667000D01*
X155993783Y-129667000D01*
X155872642Y-129899026D01*
X155875291Y-129914791D01*
X156129268Y-130442036D01*
X156565680Y-130831954D01*
X157118087Y-131025184D01*
X157353000Y-130880924D01*
X157353000Y-133511478D01*
X156736433Y-133255458D01*
X155688166Y-133254543D01*
X154719342Y-133654853D01*
X154063440Y-134309610D01*
X154063440Y-128016000D01*
X154063440Y-125984000D01*
X154016463Y-125741877D01*
X153876673Y-125529073D01*
X153665640Y-125386623D01*
X153416000Y-125336560D01*
X151557162Y-125336560D01*
X151557162Y-123512833D01*
X151415117Y-123169057D01*
X151152327Y-122905808D01*
X150808799Y-122763162D01*
X150436833Y-122762838D01*
X150093057Y-122904883D01*
X149829808Y-123167673D01*
X149687162Y-123511201D01*
X149686838Y-123883167D01*
X149828883Y-124226943D01*
X150091673Y-124490192D01*
X150435201Y-124632838D01*
X150807167Y-124633162D01*
X151150943Y-124491117D01*
X151414192Y-124228327D01*
X151556838Y-123884799D01*
X151557162Y-123512833D01*
X151557162Y-125336560D01*
X151384000Y-125336560D01*
X151141877Y-125383537D01*
X150929073Y-125523327D01*
X150786623Y-125734360D01*
X150736560Y-125984000D01*
X150736560Y-128016000D01*
X150783537Y-128258123D01*
X150923327Y-128470927D01*
X151083043Y-128578737D01*
X150993615Y-128675182D01*
X150794025Y-129157056D01*
X150913164Y-129413000D01*
X152273000Y-129413000D01*
X152273000Y-129393000D01*
X152527000Y-129393000D01*
X152527000Y-129413000D01*
X153886836Y-129413000D01*
X154005975Y-129157056D01*
X153806385Y-128675182D01*
X153716425Y-128578164D01*
X153870927Y-128476673D01*
X154013377Y-128265640D01*
X154063440Y-128016000D01*
X154063440Y-134309610D01*
X154005975Y-134366975D01*
X154005975Y-129922944D01*
X153886836Y-129667000D01*
X152527000Y-129667000D01*
X152527000Y-131027367D01*
X152782946Y-131145983D01*
X153368379Y-130877188D01*
X153806385Y-130404818D01*
X154005975Y-129922944D01*
X154005975Y-134366975D01*
X153977458Y-134395443D01*
X153575458Y-135363567D01*
X153574543Y-136411834D01*
X153974853Y-137380658D01*
X154715443Y-138122542D01*
X155683567Y-138524542D01*
X156731834Y-138525457D01*
X157700658Y-138125147D01*
X158442542Y-137384557D01*
X158844542Y-136416433D01*
X158845457Y-135368166D01*
X158845457Y-139573000D01*
X152273000Y-139573000D01*
X152273000Y-131027367D01*
X152273000Y-129667000D01*
X150913164Y-129667000D01*
X150794025Y-129922944D01*
X150993615Y-130404818D01*
X151431621Y-130877188D01*
X152017054Y-131145983D01*
X152273000Y-131027367D01*
X152273000Y-139573000D01*
X121585162Y-139573000D01*
X121585162Y-124274833D01*
X121443117Y-123931057D01*
X121180327Y-123667808D01*
X120836799Y-123525162D01*
X120464833Y-123524838D01*
X120121057Y-123666883D01*
X119857808Y-123929673D01*
X119715162Y-124273201D01*
X119714838Y-124645167D01*
X119856883Y-124988943D01*
X120119673Y-125252192D01*
X120463201Y-125394838D01*
X120835167Y-125395162D01*
X121178943Y-125253117D01*
X121442192Y-124990327D01*
X121584838Y-124646799D01*
X121585162Y-124274833D01*
X121585162Y-139573000D01*
X119475457Y-139573000D01*
X119475457Y-135368166D01*
X119075147Y-134399342D01*
X118334557Y-133657458D01*
X117775162Y-133425177D01*
X117775162Y-123512833D01*
X117633117Y-123169057D01*
X117370327Y-122905808D01*
X117026799Y-122763162D01*
X116654833Y-122762838D01*
X116311057Y-122904883D01*
X116047808Y-123167673D01*
X115905162Y-123511201D01*
X115904838Y-123883167D01*
X116046883Y-124226943D01*
X116309673Y-124490192D01*
X116653201Y-124632838D01*
X117025167Y-124633162D01*
X117368943Y-124491117D01*
X117632192Y-124228327D01*
X117774838Y-123884799D01*
X117775162Y-123512833D01*
X117775162Y-133425177D01*
X117366433Y-133255458D01*
X116318166Y-133254543D01*
X115349342Y-133654853D01*
X114607458Y-134395443D01*
X114205458Y-135363567D01*
X114204543Y-136411834D01*
X114604853Y-137380658D01*
X115345443Y-138122542D01*
X116313567Y-138524542D01*
X117361834Y-138525457D01*
X118330658Y-138125147D01*
X119072542Y-137384557D01*
X119474542Y-136416433D01*
X119475457Y-135368166D01*
X119475457Y-139573000D01*
X113157000Y-139573000D01*
X113157000Y-43307000D01*
X159893000Y-43307000D01*
X159893000Y-139573000D01*
M02*
