G04 #@! TF.FileFunction,Legend,Bot*
%FSLAX46Y46*%
G04 Gerber Fmt 4.6, Leading zero omitted, Abs format (unit mm)*
G04 Created by KiCad (PCBNEW (2015-03-23 BZR 5533)-product) date Wed 06 May 2015 16:30:24 SAST*
%MOMM*%
G01*
G04 APERTURE LIST*
%ADD10C,0.100000*%
%ADD11C,0.150000*%
%ADD12C,0.002540*%
G04 APERTURE END LIST*
D10*
D11*
X136661000Y-61230000D02*
X136661000Y-63230000D01*
X134611000Y-63230000D02*
X134611000Y-61230000D01*
X118126000Y-131309000D02*
X120126000Y-131309000D01*
X120126000Y-133359000D02*
X118126000Y-133359000D01*
X132470000Y-98695000D02*
X132470000Y-100695000D01*
X130420000Y-100695000D02*
X130420000Y-98695000D01*
X139455000Y-98695000D02*
X139455000Y-100695000D01*
X137405000Y-100695000D02*
X137405000Y-98695000D01*
X128515000Y-63230000D02*
X128515000Y-61230000D01*
X130565000Y-61230000D02*
X130565000Y-63230000D01*
X119135000Y-126635000D02*
X119135000Y-128635000D01*
X117085000Y-128635000D02*
X117085000Y-126635000D01*
X117085000Y-121650000D02*
X117085000Y-119650000D01*
X119135000Y-119650000D02*
X119135000Y-121650000D01*
X151375000Y-122920000D02*
X151375000Y-120920000D01*
X153425000Y-120920000D02*
X153425000Y-122920000D01*
X155210000Y-50410000D02*
X157210000Y-50410000D01*
X157210000Y-52460000D02*
X155210000Y-52460000D01*
X157210000Y-63890000D02*
X155210000Y-63890000D01*
X155210000Y-61840000D02*
X157210000Y-61840000D01*
X147590000Y-50537000D02*
X149590000Y-50537000D01*
X149590000Y-52587000D02*
X147590000Y-52587000D01*
X147506800Y-102327200D02*
X147506800Y-104327200D01*
X145456800Y-104327200D02*
X145456800Y-102327200D01*
X131378200Y-70316200D02*
X129378200Y-70316200D01*
X129378200Y-68266200D02*
X131378200Y-68266200D01*
X122800000Y-65770000D02*
X122800000Y-63770000D01*
X124850000Y-63770000D02*
X124850000Y-65770000D01*
X148336000Y-45974000D02*
X141224000Y-45974000D01*
X141224000Y-45974000D02*
X141224000Y-41720000D01*
X141224000Y-41720000D02*
X148336000Y-41720000D01*
X148336000Y-41720000D02*
X148336000Y-45974000D01*
X119700040Y-57063640D02*
X118798340Y-57063640D01*
X120997980Y-57063640D02*
X121996200Y-57063640D01*
X117345460Y-58265060D02*
X117345460Y-57063640D01*
X117345460Y-51462940D02*
X117345460Y-52664360D01*
X116796820Y-58265060D02*
X116796820Y-57063640D01*
X116796820Y-51462940D02*
X116796820Y-52664360D01*
X123995180Y-58265060D02*
X123995180Y-57012840D01*
X123995180Y-51462940D02*
X123995180Y-52715160D01*
X119700040Y-56263540D02*
X119700040Y-57863740D01*
X120848120Y-57812940D02*
X120848120Y-56263540D01*
X119697500Y-57063640D02*
X120848120Y-57812940D01*
X119700040Y-57063640D02*
X120850660Y-56263540D01*
X123995180Y-58265060D02*
X116796820Y-58265060D01*
X123995180Y-51462940D02*
X116796820Y-51462940D01*
X119110000Y-60520000D02*
X117110000Y-60520000D01*
X117110000Y-62670000D02*
X119110000Y-62670000D01*
X146245000Y-127270000D02*
X146245000Y-129270000D01*
X148395000Y-129270000D02*
X148395000Y-127270000D01*
X119575000Y-126635000D02*
X119575000Y-128635000D01*
X121725000Y-128635000D02*
X121725000Y-126635000D01*
X142435000Y-127270000D02*
X142435000Y-129270000D01*
X144585000Y-129270000D02*
X144585000Y-127270000D01*
X138625000Y-127270000D02*
X138625000Y-129270000D01*
X140775000Y-129270000D02*
X140775000Y-127270000D01*
X134815000Y-127270000D02*
X134815000Y-129270000D01*
X136965000Y-129270000D02*
X136965000Y-127270000D01*
X131005000Y-127270000D02*
X131005000Y-129270000D01*
X133155000Y-129270000D02*
X133155000Y-127270000D01*
X121725000Y-121650000D02*
X121725000Y-119650000D01*
X119575000Y-119650000D02*
X119575000Y-121650000D01*
X127195000Y-127270000D02*
X127195000Y-129270000D01*
X129345000Y-129270000D02*
X129345000Y-127270000D01*
X147590000Y-50097000D02*
X149590000Y-50097000D01*
X149590000Y-47947000D02*
X147590000Y-47947000D01*
X148147000Y-53369000D02*
X148147000Y-53704000D01*
X140397000Y-53369000D02*
X140397000Y-53704000D01*
X140397000Y-66519000D02*
X140397000Y-66184000D01*
X148147000Y-66519000D02*
X148147000Y-66184000D01*
X148147000Y-53369000D02*
X140397000Y-53369000D01*
X148147000Y-66519000D02*
X140397000Y-66519000D01*
X148147000Y-53704000D02*
X149947000Y-53704000D01*
X157325000Y-60150000D02*
X157325000Y-54150000D01*
X157325000Y-54150000D02*
X153825000Y-54150000D01*
X153825000Y-54150000D02*
X153825000Y-60150000D01*
X153825000Y-60150000D02*
X157325000Y-60150000D01*
X139716000Y-102353000D02*
X141716000Y-102353000D01*
X141716000Y-104403000D02*
X139716000Y-104403000D01*
D12*
G36*
X139583160Y-79791560D02*
X139542520Y-79771240D01*
X139448540Y-79712820D01*
X139313920Y-79623920D01*
X139156440Y-79519780D01*
X138998960Y-79410560D01*
X138869420Y-79324200D01*
X138777980Y-79265780D01*
X138739880Y-79245460D01*
X138719560Y-79250540D01*
X138643360Y-79288640D01*
X138534140Y-79344520D01*
X138470640Y-79377540D01*
X138371580Y-79420720D01*
X138320780Y-79430880D01*
X138313160Y-79415640D01*
X138275060Y-79339440D01*
X138219180Y-79207360D01*
X138142980Y-79034640D01*
X138056620Y-78831440D01*
X137962640Y-78613000D01*
X137871200Y-78389480D01*
X137782300Y-78176120D01*
X137703560Y-77985620D01*
X137640060Y-77830680D01*
X137599420Y-77721460D01*
X137584180Y-77675740D01*
X137589260Y-77665580D01*
X137640060Y-77617320D01*
X137726420Y-77551280D01*
X137916920Y-77396340D01*
X138102340Y-77162660D01*
X138216640Y-76898500D01*
X138254740Y-76603860D01*
X138221720Y-76332080D01*
X138115040Y-76070460D01*
X137932160Y-75834240D01*
X137711180Y-75658980D01*
X137452100Y-75547220D01*
X137160000Y-75511660D01*
X136880600Y-75542140D01*
X136613900Y-75648820D01*
X136377680Y-75829160D01*
X136278620Y-75943460D01*
X136141460Y-76182220D01*
X136062720Y-76438760D01*
X136055100Y-76502260D01*
X136065260Y-76784200D01*
X136149080Y-77053440D01*
X136296400Y-77294740D01*
X136502140Y-77490320D01*
X136530080Y-77510640D01*
X136624060Y-77581760D01*
X136687560Y-77630020D01*
X136738360Y-77670660D01*
X136380220Y-78531720D01*
X136324340Y-78668880D01*
X136225280Y-78905100D01*
X136138920Y-79108300D01*
X136070340Y-79268320D01*
X136022080Y-79377540D01*
X136001760Y-79420720D01*
X135999220Y-79423260D01*
X135968740Y-79428340D01*
X135902700Y-79402940D01*
X135783320Y-79344520D01*
X135702040Y-79303880D01*
X135610600Y-79260700D01*
X135569960Y-79245460D01*
X135534400Y-79263240D01*
X135448040Y-79321660D01*
X135318500Y-79405480D01*
X135166100Y-79509620D01*
X135018780Y-79611220D01*
X134884160Y-79700120D01*
X134785100Y-79761080D01*
X134736840Y-79789020D01*
X134729220Y-79789020D01*
X134688580Y-79763620D01*
X134609840Y-79700120D01*
X134493000Y-79588360D01*
X134327900Y-79425800D01*
X134302500Y-79400400D01*
X134165340Y-79260700D01*
X134053580Y-79143860D01*
X133979920Y-79062580D01*
X133954520Y-79024480D01*
X133954520Y-79024480D01*
X133977380Y-78976220D01*
X134040880Y-78879700D01*
X134129780Y-78742540D01*
X134239000Y-78582520D01*
X134523480Y-78168500D01*
X134366000Y-77777340D01*
X134317740Y-77657960D01*
X134256780Y-77513180D01*
X134213600Y-77409040D01*
X134188200Y-77363320D01*
X134147560Y-77348080D01*
X134038340Y-77322680D01*
X133883400Y-77289660D01*
X133700520Y-77256640D01*
X133522720Y-77223620D01*
X133362700Y-77193140D01*
X133248400Y-77170280D01*
X133197600Y-77160120D01*
X133184900Y-77152500D01*
X133174740Y-77127100D01*
X133167120Y-77073760D01*
X133164580Y-76977240D01*
X133162040Y-76824840D01*
X133162040Y-76603860D01*
X133162040Y-76581000D01*
X133164580Y-76370180D01*
X133167120Y-76202540D01*
X133172200Y-76093320D01*
X133179820Y-76050140D01*
X133179820Y-76050140D01*
X133230620Y-76037440D01*
X133342380Y-76014580D01*
X133502400Y-75981560D01*
X133692900Y-75946000D01*
X133703060Y-75943460D01*
X133893560Y-75907900D01*
X134051040Y-75874880D01*
X134162800Y-75849480D01*
X134208520Y-75834240D01*
X134218680Y-75821540D01*
X134256780Y-75747880D01*
X134312660Y-75631040D01*
X134373620Y-75486260D01*
X134437120Y-75338940D01*
X134490460Y-75204320D01*
X134526020Y-75105260D01*
X134536180Y-75059540D01*
X134536180Y-75059540D01*
X134508240Y-75013820D01*
X134442200Y-74914760D01*
X134350760Y-74780140D01*
X134239000Y-74617580D01*
X134231380Y-74604880D01*
X134122160Y-74444860D01*
X134033260Y-74310240D01*
X133974840Y-74213720D01*
X133954520Y-74170540D01*
X133954520Y-74168000D01*
X133990080Y-74119740D01*
X134071360Y-74030840D01*
X134188200Y-73908920D01*
X134327900Y-73766680D01*
X134373620Y-73723500D01*
X134528560Y-73571100D01*
X134635240Y-73472040D01*
X134703820Y-73418700D01*
X134736840Y-73406000D01*
X134736840Y-73408540D01*
X134785100Y-73436480D01*
X134886700Y-73502520D01*
X135023860Y-73596500D01*
X135186420Y-73705720D01*
X135196580Y-73713340D01*
X135356600Y-73822560D01*
X135488680Y-73911460D01*
X135585200Y-73974960D01*
X135625840Y-74000360D01*
X135633460Y-74000360D01*
X135696960Y-73980040D01*
X135811260Y-73941940D01*
X135950960Y-73886060D01*
X136098280Y-73827640D01*
X136232900Y-73771760D01*
X136334500Y-73723500D01*
X136382760Y-73698100D01*
X136382760Y-73695560D01*
X136400540Y-73637140D01*
X136428480Y-73517760D01*
X136461500Y-73352660D01*
X136499600Y-73157080D01*
X136504680Y-73126600D01*
X136540240Y-72936100D01*
X136570720Y-72778620D01*
X136593580Y-72669400D01*
X136606280Y-72623680D01*
X136631680Y-72618600D01*
X136725660Y-72610980D01*
X136867900Y-72608440D01*
X137040620Y-72605900D01*
X137220960Y-72608440D01*
X137396220Y-72610980D01*
X137548620Y-72616060D01*
X137655300Y-72623680D01*
X137701020Y-72633840D01*
X137703560Y-72636380D01*
X137718800Y-72694800D01*
X137744200Y-72814180D01*
X137779760Y-72979280D01*
X137817860Y-73177400D01*
X137822940Y-73210420D01*
X137858500Y-73400920D01*
X137891520Y-73555860D01*
X137914380Y-73665080D01*
X137927080Y-73705720D01*
X137942320Y-73715880D01*
X138021060Y-73748900D01*
X138148060Y-73802240D01*
X138308080Y-73865740D01*
X138673840Y-74015600D01*
X139120880Y-73705720D01*
X139164060Y-73677780D01*
X139324080Y-73568560D01*
X139458700Y-73479660D01*
X139550140Y-73421240D01*
X139588240Y-73398380D01*
X139590780Y-73400920D01*
X139636500Y-73439020D01*
X139725400Y-73522840D01*
X139847320Y-73642220D01*
X139987020Y-73781920D01*
X140091160Y-73886060D01*
X140215620Y-74013060D01*
X140294360Y-74096880D01*
X140337540Y-74152760D01*
X140352780Y-74185780D01*
X140347700Y-74206100D01*
X140319760Y-74251820D01*
X140253720Y-74350880D01*
X140162280Y-74488040D01*
X140053060Y-74645520D01*
X139961620Y-74780140D01*
X139865100Y-74930000D01*
X139801600Y-75036680D01*
X139778740Y-75090020D01*
X139783820Y-75112880D01*
X139816840Y-75199240D01*
X139870180Y-75333860D01*
X139936220Y-75491340D01*
X140093700Y-75846940D01*
X140327380Y-75890120D01*
X140467080Y-75918060D01*
X140665200Y-75956160D01*
X140853160Y-75991720D01*
X141147800Y-76050140D01*
X141157960Y-77132180D01*
X141112240Y-77152500D01*
X141069060Y-77165200D01*
X140959840Y-77188060D01*
X140804900Y-77218540D01*
X140619480Y-77254100D01*
X140464540Y-77284580D01*
X140304520Y-77312520D01*
X140192760Y-77335380D01*
X140141960Y-77345540D01*
X140129260Y-77363320D01*
X140088620Y-77439520D01*
X140032740Y-77561440D01*
X139971780Y-77708760D01*
X139908280Y-77858620D01*
X139852400Y-77998320D01*
X139811760Y-78105000D01*
X139799060Y-78160880D01*
X139819380Y-78204060D01*
X139880340Y-78295500D01*
X139966700Y-78427580D01*
X140073380Y-78585060D01*
X140182600Y-78742540D01*
X140271500Y-78877160D01*
X140335000Y-78973680D01*
X140360400Y-79016860D01*
X140347700Y-79047340D01*
X140286740Y-79123540D01*
X140167360Y-79245460D01*
X139992100Y-79420720D01*
X139961620Y-79448660D01*
X139821920Y-79583280D01*
X139702540Y-79692500D01*
X139621260Y-79766160D01*
X139583160Y-79791560D01*
X139583160Y-79791560D01*
G37*
X139583160Y-79791560D02*
X139542520Y-79771240D01*
X139448540Y-79712820D01*
X139313920Y-79623920D01*
X139156440Y-79519780D01*
X138998960Y-79410560D01*
X138869420Y-79324200D01*
X138777980Y-79265780D01*
X138739880Y-79245460D01*
X138719560Y-79250540D01*
X138643360Y-79288640D01*
X138534140Y-79344520D01*
X138470640Y-79377540D01*
X138371580Y-79420720D01*
X138320780Y-79430880D01*
X138313160Y-79415640D01*
X138275060Y-79339440D01*
X138219180Y-79207360D01*
X138142980Y-79034640D01*
X138056620Y-78831440D01*
X137962640Y-78613000D01*
X137871200Y-78389480D01*
X137782300Y-78176120D01*
X137703560Y-77985620D01*
X137640060Y-77830680D01*
X137599420Y-77721460D01*
X137584180Y-77675740D01*
X137589260Y-77665580D01*
X137640060Y-77617320D01*
X137726420Y-77551280D01*
X137916920Y-77396340D01*
X138102340Y-77162660D01*
X138216640Y-76898500D01*
X138254740Y-76603860D01*
X138221720Y-76332080D01*
X138115040Y-76070460D01*
X137932160Y-75834240D01*
X137711180Y-75658980D01*
X137452100Y-75547220D01*
X137160000Y-75511660D01*
X136880600Y-75542140D01*
X136613900Y-75648820D01*
X136377680Y-75829160D01*
X136278620Y-75943460D01*
X136141460Y-76182220D01*
X136062720Y-76438760D01*
X136055100Y-76502260D01*
X136065260Y-76784200D01*
X136149080Y-77053440D01*
X136296400Y-77294740D01*
X136502140Y-77490320D01*
X136530080Y-77510640D01*
X136624060Y-77581760D01*
X136687560Y-77630020D01*
X136738360Y-77670660D01*
X136380220Y-78531720D01*
X136324340Y-78668880D01*
X136225280Y-78905100D01*
X136138920Y-79108300D01*
X136070340Y-79268320D01*
X136022080Y-79377540D01*
X136001760Y-79420720D01*
X135999220Y-79423260D01*
X135968740Y-79428340D01*
X135902700Y-79402940D01*
X135783320Y-79344520D01*
X135702040Y-79303880D01*
X135610600Y-79260700D01*
X135569960Y-79245460D01*
X135534400Y-79263240D01*
X135448040Y-79321660D01*
X135318500Y-79405480D01*
X135166100Y-79509620D01*
X135018780Y-79611220D01*
X134884160Y-79700120D01*
X134785100Y-79761080D01*
X134736840Y-79789020D01*
X134729220Y-79789020D01*
X134688580Y-79763620D01*
X134609840Y-79700120D01*
X134493000Y-79588360D01*
X134327900Y-79425800D01*
X134302500Y-79400400D01*
X134165340Y-79260700D01*
X134053580Y-79143860D01*
X133979920Y-79062580D01*
X133954520Y-79024480D01*
X133954520Y-79024480D01*
X133977380Y-78976220D01*
X134040880Y-78879700D01*
X134129780Y-78742540D01*
X134239000Y-78582520D01*
X134523480Y-78168500D01*
X134366000Y-77777340D01*
X134317740Y-77657960D01*
X134256780Y-77513180D01*
X134213600Y-77409040D01*
X134188200Y-77363320D01*
X134147560Y-77348080D01*
X134038340Y-77322680D01*
X133883400Y-77289660D01*
X133700520Y-77256640D01*
X133522720Y-77223620D01*
X133362700Y-77193140D01*
X133248400Y-77170280D01*
X133197600Y-77160120D01*
X133184900Y-77152500D01*
X133174740Y-77127100D01*
X133167120Y-77073760D01*
X133164580Y-76977240D01*
X133162040Y-76824840D01*
X133162040Y-76603860D01*
X133162040Y-76581000D01*
X133164580Y-76370180D01*
X133167120Y-76202540D01*
X133172200Y-76093320D01*
X133179820Y-76050140D01*
X133179820Y-76050140D01*
X133230620Y-76037440D01*
X133342380Y-76014580D01*
X133502400Y-75981560D01*
X133692900Y-75946000D01*
X133703060Y-75943460D01*
X133893560Y-75907900D01*
X134051040Y-75874880D01*
X134162800Y-75849480D01*
X134208520Y-75834240D01*
X134218680Y-75821540D01*
X134256780Y-75747880D01*
X134312660Y-75631040D01*
X134373620Y-75486260D01*
X134437120Y-75338940D01*
X134490460Y-75204320D01*
X134526020Y-75105260D01*
X134536180Y-75059540D01*
X134536180Y-75059540D01*
X134508240Y-75013820D01*
X134442200Y-74914760D01*
X134350760Y-74780140D01*
X134239000Y-74617580D01*
X134231380Y-74604880D01*
X134122160Y-74444860D01*
X134033260Y-74310240D01*
X133974840Y-74213720D01*
X133954520Y-74170540D01*
X133954520Y-74168000D01*
X133990080Y-74119740D01*
X134071360Y-74030840D01*
X134188200Y-73908920D01*
X134327900Y-73766680D01*
X134373620Y-73723500D01*
X134528560Y-73571100D01*
X134635240Y-73472040D01*
X134703820Y-73418700D01*
X134736840Y-73406000D01*
X134736840Y-73408540D01*
X134785100Y-73436480D01*
X134886700Y-73502520D01*
X135023860Y-73596500D01*
X135186420Y-73705720D01*
X135196580Y-73713340D01*
X135356600Y-73822560D01*
X135488680Y-73911460D01*
X135585200Y-73974960D01*
X135625840Y-74000360D01*
X135633460Y-74000360D01*
X135696960Y-73980040D01*
X135811260Y-73941940D01*
X135950960Y-73886060D01*
X136098280Y-73827640D01*
X136232900Y-73771760D01*
X136334500Y-73723500D01*
X136382760Y-73698100D01*
X136382760Y-73695560D01*
X136400540Y-73637140D01*
X136428480Y-73517760D01*
X136461500Y-73352660D01*
X136499600Y-73157080D01*
X136504680Y-73126600D01*
X136540240Y-72936100D01*
X136570720Y-72778620D01*
X136593580Y-72669400D01*
X136606280Y-72623680D01*
X136631680Y-72618600D01*
X136725660Y-72610980D01*
X136867900Y-72608440D01*
X137040620Y-72605900D01*
X137220960Y-72608440D01*
X137396220Y-72610980D01*
X137548620Y-72616060D01*
X137655300Y-72623680D01*
X137701020Y-72633840D01*
X137703560Y-72636380D01*
X137718800Y-72694800D01*
X137744200Y-72814180D01*
X137779760Y-72979280D01*
X137817860Y-73177400D01*
X137822940Y-73210420D01*
X137858500Y-73400920D01*
X137891520Y-73555860D01*
X137914380Y-73665080D01*
X137927080Y-73705720D01*
X137942320Y-73715880D01*
X138021060Y-73748900D01*
X138148060Y-73802240D01*
X138308080Y-73865740D01*
X138673840Y-74015600D01*
X139120880Y-73705720D01*
X139164060Y-73677780D01*
X139324080Y-73568560D01*
X139458700Y-73479660D01*
X139550140Y-73421240D01*
X139588240Y-73398380D01*
X139590780Y-73400920D01*
X139636500Y-73439020D01*
X139725400Y-73522840D01*
X139847320Y-73642220D01*
X139987020Y-73781920D01*
X140091160Y-73886060D01*
X140215620Y-74013060D01*
X140294360Y-74096880D01*
X140337540Y-74152760D01*
X140352780Y-74185780D01*
X140347700Y-74206100D01*
X140319760Y-74251820D01*
X140253720Y-74350880D01*
X140162280Y-74488040D01*
X140053060Y-74645520D01*
X139961620Y-74780140D01*
X139865100Y-74930000D01*
X139801600Y-75036680D01*
X139778740Y-75090020D01*
X139783820Y-75112880D01*
X139816840Y-75199240D01*
X139870180Y-75333860D01*
X139936220Y-75491340D01*
X140093700Y-75846940D01*
X140327380Y-75890120D01*
X140467080Y-75918060D01*
X140665200Y-75956160D01*
X140853160Y-75991720D01*
X141147800Y-76050140D01*
X141157960Y-77132180D01*
X141112240Y-77152500D01*
X141069060Y-77165200D01*
X140959840Y-77188060D01*
X140804900Y-77218540D01*
X140619480Y-77254100D01*
X140464540Y-77284580D01*
X140304520Y-77312520D01*
X140192760Y-77335380D01*
X140141960Y-77345540D01*
X140129260Y-77363320D01*
X140088620Y-77439520D01*
X140032740Y-77561440D01*
X139971780Y-77708760D01*
X139908280Y-77858620D01*
X139852400Y-77998320D01*
X139811760Y-78105000D01*
X139799060Y-78160880D01*
X139819380Y-78204060D01*
X139880340Y-78295500D01*
X139966700Y-78427580D01*
X140073380Y-78585060D01*
X140182600Y-78742540D01*
X140271500Y-78877160D01*
X140335000Y-78973680D01*
X140360400Y-79016860D01*
X140347700Y-79047340D01*
X140286740Y-79123540D01*
X140167360Y-79245460D01*
X139992100Y-79420720D01*
X139961620Y-79448660D01*
X139821920Y-79583280D01*
X139702540Y-79692500D01*
X139621260Y-79766160D01*
X139583160Y-79791560D01*
D11*
X118888000Y-81906000D02*
X120888000Y-81906000D01*
X120888000Y-83956000D02*
X118888000Y-83956000D01*
X121650000Y-97545000D02*
X119650000Y-97545000D01*
X119650000Y-95495000D02*
X121650000Y-95495000D01*
X120777000Y-77470000D02*
X120269000Y-77470000D01*
X120269000Y-77978000D02*
X120269000Y-76962000D01*
X119253000Y-77470000D02*
X119761000Y-77470000D01*
X120015000Y-77724000D02*
X119761000Y-77978000D01*
X119761000Y-77978000D02*
X119761000Y-76962000D01*
X119761000Y-76962000D02*
X120269000Y-77470000D01*
X120015000Y-77216000D02*
X120269000Y-77470000D01*
X120269000Y-77470000D02*
X120015000Y-77724000D01*
X118999000Y-76708000D02*
X121539000Y-76708000D01*
X118999000Y-78232000D02*
X121539000Y-78232000D01*
X119253000Y-80010000D02*
X119761000Y-80010000D01*
X119761000Y-79502000D02*
X119761000Y-80518000D01*
X120777000Y-80010000D02*
X120269000Y-80010000D01*
X120015000Y-79756000D02*
X120269000Y-79502000D01*
X120269000Y-79502000D02*
X120269000Y-80518000D01*
X120269000Y-80518000D02*
X119761000Y-80010000D01*
X120015000Y-80264000D02*
X119761000Y-80010000D01*
X119761000Y-80010000D02*
X120015000Y-79756000D01*
X121031000Y-80772000D02*
X118491000Y-80772000D01*
X121031000Y-79248000D02*
X118491000Y-79248000D01*
X120777000Y-91440000D02*
X120269000Y-91440000D01*
X120269000Y-91948000D02*
X120269000Y-90932000D01*
X119253000Y-91440000D02*
X119761000Y-91440000D01*
X120015000Y-91694000D02*
X119761000Y-91948000D01*
X119761000Y-91948000D02*
X119761000Y-90932000D01*
X119761000Y-90932000D02*
X120269000Y-91440000D01*
X120015000Y-91186000D02*
X120269000Y-91440000D01*
X120269000Y-91440000D02*
X120015000Y-91694000D01*
X118999000Y-90678000D02*
X121539000Y-90678000D01*
X118999000Y-92202000D02*
X121539000Y-92202000D01*
X119253000Y-93980000D02*
X119761000Y-93980000D01*
X119761000Y-93472000D02*
X119761000Y-94488000D01*
X120777000Y-93980000D02*
X120269000Y-93980000D01*
X120015000Y-93726000D02*
X120269000Y-93472000D01*
X120269000Y-93472000D02*
X120269000Y-94488000D01*
X120269000Y-94488000D02*
X119761000Y-93980000D01*
X120015000Y-94234000D02*
X119761000Y-93980000D01*
X119761000Y-93980000D02*
X120015000Y-93726000D01*
X121031000Y-94742000D02*
X118491000Y-94742000D01*
X121031000Y-93218000D02*
X118491000Y-93218000D01*
X120777000Y-74930000D02*
X120269000Y-74930000D01*
X120269000Y-75438000D02*
X120269000Y-74422000D01*
X119253000Y-74930000D02*
X119761000Y-74930000D01*
X120015000Y-75184000D02*
X119761000Y-75438000D01*
X119761000Y-75438000D02*
X119761000Y-74422000D01*
X119761000Y-74422000D02*
X120269000Y-74930000D01*
X120015000Y-74676000D02*
X120269000Y-74930000D01*
X120269000Y-74930000D02*
X120015000Y-75184000D01*
X118999000Y-74168000D02*
X121539000Y-74168000D01*
X118999000Y-75692000D02*
X121539000Y-75692000D01*
X119253000Y-72390000D02*
X119761000Y-72390000D01*
X119761000Y-71882000D02*
X119761000Y-72898000D01*
X120777000Y-72390000D02*
X120269000Y-72390000D01*
X120015000Y-72136000D02*
X120269000Y-71882000D01*
X120269000Y-71882000D02*
X120269000Y-72898000D01*
X120269000Y-72898000D02*
X119761000Y-72390000D01*
X120015000Y-72644000D02*
X119761000Y-72390000D01*
X119761000Y-72390000D02*
X120015000Y-72136000D01*
X121031000Y-73152000D02*
X118491000Y-73152000D01*
X121031000Y-71628000D02*
X118491000Y-71628000D01*
X120777000Y-88900000D02*
X120269000Y-88900000D01*
X120269000Y-89408000D02*
X120269000Y-88392000D01*
X119253000Y-88900000D02*
X119761000Y-88900000D01*
X120015000Y-89154000D02*
X119761000Y-89408000D01*
X119761000Y-89408000D02*
X119761000Y-88392000D01*
X119761000Y-88392000D02*
X120269000Y-88900000D01*
X120015000Y-88646000D02*
X120269000Y-88900000D01*
X120269000Y-88900000D02*
X120015000Y-89154000D01*
X118999000Y-88138000D02*
X121539000Y-88138000D01*
X118999000Y-89662000D02*
X121539000Y-89662000D01*
X119253000Y-86360000D02*
X119761000Y-86360000D01*
X119761000Y-85852000D02*
X119761000Y-86868000D01*
X120777000Y-86360000D02*
X120269000Y-86360000D01*
X120015000Y-86106000D02*
X120269000Y-85852000D01*
X120269000Y-85852000D02*
X120269000Y-86868000D01*
X120269000Y-86868000D02*
X119761000Y-86360000D01*
X120015000Y-86614000D02*
X119761000Y-86360000D01*
X119761000Y-86360000D02*
X120015000Y-86106000D01*
X121031000Y-87122000D02*
X118491000Y-87122000D01*
X121031000Y-85598000D02*
X118491000Y-85598000D01*
D10*
X137791000Y-60462334D02*
X137824333Y-60429000D01*
X137857667Y-60329000D01*
X137857667Y-60262334D01*
X137824333Y-60162334D01*
X137757667Y-60095667D01*
X137691000Y-60062334D01*
X137557667Y-60029000D01*
X137457667Y-60029000D01*
X137324333Y-60062334D01*
X137257667Y-60095667D01*
X137191000Y-60162334D01*
X137157667Y-60262334D01*
X137157667Y-60329000D01*
X137191000Y-60429000D01*
X137224333Y-60462334D01*
X137391000Y-61062334D02*
X137857667Y-61062334D01*
X137124333Y-60895667D02*
X137624333Y-60729000D01*
X137624333Y-61162334D01*
X131761667Y-62956333D02*
X131761667Y-62556333D01*
X131761667Y-62756333D02*
X131061667Y-62756333D01*
X131161667Y-62689667D01*
X131228333Y-62623000D01*
X131261667Y-62556333D01*
X131295000Y-63556334D02*
X131761667Y-63556334D01*
X131295000Y-63256334D02*
X131661667Y-63256334D01*
X131728333Y-63289667D01*
X131761667Y-63356334D01*
X131761667Y-63456334D01*
X131728333Y-63523000D01*
X131695000Y-63556334D01*
X131395000Y-64123000D02*
X131395000Y-63889667D01*
X131761667Y-63889667D02*
X131061667Y-63889667D01*
X131061667Y-64223000D01*
X116067666Y-132076000D02*
X116101000Y-132109333D01*
X116201000Y-132142667D01*
X116267666Y-132142667D01*
X116367666Y-132109333D01*
X116434333Y-132042667D01*
X116467666Y-131976000D01*
X116501000Y-131842667D01*
X116501000Y-131742667D01*
X116467666Y-131609333D01*
X116434333Y-131542667D01*
X116367666Y-131476000D01*
X116267666Y-131442667D01*
X116201000Y-131442667D01*
X116101000Y-131476000D01*
X116067666Y-131509333D01*
X115434333Y-131442667D02*
X115767666Y-131442667D01*
X115801000Y-131776000D01*
X115767666Y-131742667D01*
X115701000Y-131709333D01*
X115534333Y-131709333D01*
X115467666Y-131742667D01*
X115434333Y-131776000D01*
X115401000Y-131842667D01*
X115401000Y-132009333D01*
X115434333Y-132076000D01*
X115467666Y-132109333D01*
X115534333Y-132142667D01*
X115701000Y-132142667D01*
X115767666Y-132109333D01*
X115801000Y-132076000D01*
X116272334Y-133412667D02*
X116672334Y-133412667D01*
X116472334Y-133412667D02*
X116472334Y-132712667D01*
X116539000Y-132812667D01*
X116605667Y-132879333D01*
X116672334Y-132912667D01*
X115839000Y-132712667D02*
X115772333Y-132712667D01*
X115705667Y-132746000D01*
X115672333Y-132779333D01*
X115639000Y-132846000D01*
X115605667Y-132979333D01*
X115605667Y-133146000D01*
X115639000Y-133279333D01*
X115672333Y-133346000D01*
X115705667Y-133379333D01*
X115772333Y-133412667D01*
X115839000Y-133412667D01*
X115905667Y-133379333D01*
X115939000Y-133346000D01*
X115972333Y-133279333D01*
X116005667Y-133146000D01*
X116005667Y-132979333D01*
X115972333Y-132846000D01*
X115939000Y-132779333D01*
X115905667Y-132746000D01*
X115839000Y-132712667D01*
X115172333Y-132712667D02*
X115105666Y-132712667D01*
X115039000Y-132746000D01*
X115005666Y-132779333D01*
X114972333Y-132846000D01*
X114939000Y-132979333D01*
X114939000Y-133146000D01*
X114972333Y-133279333D01*
X115005666Y-133346000D01*
X115039000Y-133379333D01*
X115105666Y-133412667D01*
X115172333Y-133412667D01*
X115239000Y-133379333D01*
X115272333Y-133346000D01*
X115305666Y-133279333D01*
X115339000Y-133146000D01*
X115339000Y-132979333D01*
X115305666Y-132846000D01*
X115272333Y-132779333D01*
X115239000Y-132746000D01*
X115172333Y-132712667D01*
X114638999Y-132946000D02*
X114638999Y-133412667D01*
X114638999Y-133012667D02*
X114605666Y-132979333D01*
X114538999Y-132946000D01*
X114438999Y-132946000D01*
X114372333Y-132979333D01*
X114338999Y-133046000D01*
X114338999Y-133412667D01*
X113772333Y-133046000D02*
X114005666Y-133046000D01*
X114005666Y-133412667D02*
X114005666Y-132712667D01*
X113672333Y-132712667D01*
X130044000Y-97927334D02*
X130077333Y-97894000D01*
X130110667Y-97794000D01*
X130110667Y-97727334D01*
X130077333Y-97627334D01*
X130010667Y-97560667D01*
X129944000Y-97527334D01*
X129810667Y-97494000D01*
X129710667Y-97494000D01*
X129577333Y-97527334D01*
X129510667Y-97560667D01*
X129444000Y-97627334D01*
X129410667Y-97727334D01*
X129410667Y-97794000D01*
X129444000Y-97894000D01*
X129477333Y-97927334D01*
X129410667Y-98160667D02*
X129410667Y-98627334D01*
X130110667Y-98327334D01*
X130110667Y-99754666D02*
X130110667Y-99354666D01*
X130110667Y-99554666D02*
X129410667Y-99554666D01*
X129510667Y-99488000D01*
X129577333Y-99421333D01*
X129610667Y-99354666D01*
X129410667Y-100188000D02*
X129410667Y-100254667D01*
X129444000Y-100321333D01*
X129477333Y-100354667D01*
X129544000Y-100388000D01*
X129677333Y-100421333D01*
X129844000Y-100421333D01*
X129977333Y-100388000D01*
X130044000Y-100354667D01*
X130077333Y-100321333D01*
X130110667Y-100254667D01*
X130110667Y-100188000D01*
X130077333Y-100121333D01*
X130044000Y-100088000D01*
X129977333Y-100054667D01*
X129844000Y-100021333D01*
X129677333Y-100021333D01*
X129544000Y-100054667D01*
X129477333Y-100088000D01*
X129444000Y-100121333D01*
X129410667Y-100188000D01*
X129410667Y-100854667D02*
X129410667Y-100921334D01*
X129444000Y-100988000D01*
X129477333Y-101021334D01*
X129544000Y-101054667D01*
X129677333Y-101088000D01*
X129844000Y-101088000D01*
X129977333Y-101054667D01*
X130044000Y-101021334D01*
X130077333Y-100988000D01*
X130110667Y-100921334D01*
X130110667Y-100854667D01*
X130077333Y-100788000D01*
X130044000Y-100754667D01*
X129977333Y-100721334D01*
X129844000Y-100688000D01*
X129677333Y-100688000D01*
X129544000Y-100721334D01*
X129477333Y-100754667D01*
X129444000Y-100788000D01*
X129410667Y-100854667D01*
X129644000Y-101388001D02*
X130110667Y-101388001D01*
X129710667Y-101388001D02*
X129677333Y-101421334D01*
X129644000Y-101488001D01*
X129644000Y-101588001D01*
X129677333Y-101654667D01*
X129744000Y-101688001D01*
X130110667Y-101688001D01*
X129744000Y-102254667D02*
X129744000Y-102021334D01*
X130110667Y-102021334D02*
X129410667Y-102021334D01*
X129410667Y-102354667D01*
X136902000Y-97927334D02*
X136935333Y-97894000D01*
X136968667Y-97794000D01*
X136968667Y-97727334D01*
X136935333Y-97627334D01*
X136868667Y-97560667D01*
X136802000Y-97527334D01*
X136668667Y-97494000D01*
X136568667Y-97494000D01*
X136435333Y-97527334D01*
X136368667Y-97560667D01*
X136302000Y-97627334D01*
X136268667Y-97727334D01*
X136268667Y-97794000D01*
X136302000Y-97894000D01*
X136335333Y-97927334D01*
X136568667Y-98327334D02*
X136535333Y-98260667D01*
X136502000Y-98227334D01*
X136435333Y-98194000D01*
X136402000Y-98194000D01*
X136335333Y-98227334D01*
X136302000Y-98260667D01*
X136268667Y-98327334D01*
X136268667Y-98460667D01*
X136302000Y-98527334D01*
X136335333Y-98560667D01*
X136402000Y-98594000D01*
X136435333Y-98594000D01*
X136502000Y-98560667D01*
X136535333Y-98527334D01*
X136568667Y-98460667D01*
X136568667Y-98327334D01*
X136602000Y-98260667D01*
X136635333Y-98227334D01*
X136702000Y-98194000D01*
X136835333Y-98194000D01*
X136902000Y-98227334D01*
X136935333Y-98260667D01*
X136968667Y-98327334D01*
X136968667Y-98460667D01*
X136935333Y-98527334D01*
X136902000Y-98560667D01*
X136835333Y-98594000D01*
X136702000Y-98594000D01*
X136635333Y-98560667D01*
X136602000Y-98527334D01*
X136568667Y-98460667D01*
X136968667Y-100008666D02*
X136968667Y-99608666D01*
X136968667Y-99808666D02*
X136268667Y-99808666D01*
X136368667Y-99742000D01*
X136435333Y-99675333D01*
X136468667Y-99608666D01*
X136268667Y-100442000D02*
X136268667Y-100508667D01*
X136302000Y-100575333D01*
X136335333Y-100608667D01*
X136402000Y-100642000D01*
X136535333Y-100675333D01*
X136702000Y-100675333D01*
X136835333Y-100642000D01*
X136902000Y-100608667D01*
X136935333Y-100575333D01*
X136968667Y-100508667D01*
X136968667Y-100442000D01*
X136935333Y-100375333D01*
X136902000Y-100342000D01*
X136835333Y-100308667D01*
X136702000Y-100275333D01*
X136535333Y-100275333D01*
X136402000Y-100308667D01*
X136335333Y-100342000D01*
X136302000Y-100375333D01*
X136268667Y-100442000D01*
X136268667Y-101108667D02*
X136268667Y-101175334D01*
X136302000Y-101242000D01*
X136335333Y-101275334D01*
X136402000Y-101308667D01*
X136535333Y-101342000D01*
X136702000Y-101342000D01*
X136835333Y-101308667D01*
X136902000Y-101275334D01*
X136935333Y-101242000D01*
X136968667Y-101175334D01*
X136968667Y-101108667D01*
X136935333Y-101042000D01*
X136902000Y-101008667D01*
X136835333Y-100975334D01*
X136702000Y-100942000D01*
X136535333Y-100942000D01*
X136402000Y-100975334D01*
X136335333Y-101008667D01*
X136302000Y-101042000D01*
X136268667Y-101108667D01*
X136502000Y-101642001D02*
X136968667Y-101642001D01*
X136568667Y-101642001D02*
X136535333Y-101675334D01*
X136502000Y-101742001D01*
X136502000Y-101842001D01*
X136535333Y-101908667D01*
X136602000Y-101942001D01*
X136968667Y-101942001D01*
X136602000Y-102508667D02*
X136602000Y-102275334D01*
X136968667Y-102275334D02*
X136268667Y-102275334D01*
X136268667Y-102608667D01*
X128139000Y-60383000D02*
X128172333Y-60349666D01*
X128205667Y-60249666D01*
X128205667Y-60183000D01*
X128172333Y-60083000D01*
X128105667Y-60016333D01*
X128039000Y-59983000D01*
X127905667Y-59949666D01*
X127805667Y-59949666D01*
X127672333Y-59983000D01*
X127605667Y-60016333D01*
X127539000Y-60083000D01*
X127505667Y-60183000D01*
X127505667Y-60249666D01*
X127539000Y-60349666D01*
X127572333Y-60383000D01*
X128205667Y-61049666D02*
X128205667Y-60649666D01*
X128205667Y-60849666D02*
X127505667Y-60849666D01*
X127605667Y-60783000D01*
X127672333Y-60716333D01*
X127705667Y-60649666D01*
X128205667Y-61716333D02*
X128205667Y-61316333D01*
X128205667Y-61516333D02*
X127505667Y-61516333D01*
X127605667Y-61449667D01*
X127672333Y-61383000D01*
X127705667Y-61316333D01*
X134047667Y-62543666D02*
X134047667Y-62143666D01*
X134047667Y-62343666D02*
X133347667Y-62343666D01*
X133447667Y-62277000D01*
X133514333Y-62210333D01*
X133547667Y-62143666D01*
X133347667Y-62977000D02*
X133347667Y-63043667D01*
X133381000Y-63110333D01*
X133414333Y-63143667D01*
X133481000Y-63177000D01*
X133614333Y-63210333D01*
X133781000Y-63210333D01*
X133914333Y-63177000D01*
X133981000Y-63143667D01*
X134014333Y-63110333D01*
X134047667Y-63043667D01*
X134047667Y-62977000D01*
X134014333Y-62910333D01*
X133981000Y-62877000D01*
X133914333Y-62843667D01*
X133781000Y-62810333D01*
X133614333Y-62810333D01*
X133481000Y-62843667D01*
X133414333Y-62877000D01*
X133381000Y-62910333D01*
X133347667Y-62977000D01*
X133347667Y-63643667D02*
X133347667Y-63710334D01*
X133381000Y-63777000D01*
X133414333Y-63810334D01*
X133481000Y-63843667D01*
X133614333Y-63877000D01*
X133781000Y-63877000D01*
X133914333Y-63843667D01*
X133981000Y-63810334D01*
X134014333Y-63777000D01*
X134047667Y-63710334D01*
X134047667Y-63643667D01*
X134014333Y-63577000D01*
X133981000Y-63543667D01*
X133914333Y-63510334D01*
X133781000Y-63477000D01*
X133614333Y-63477000D01*
X133481000Y-63510334D01*
X133414333Y-63543667D01*
X133381000Y-63577000D01*
X133347667Y-63643667D01*
X133581000Y-64177001D02*
X134047667Y-64177001D01*
X133647667Y-64177001D02*
X133614333Y-64210334D01*
X133581000Y-64277001D01*
X133581000Y-64377001D01*
X133614333Y-64443667D01*
X133681000Y-64477001D01*
X134047667Y-64477001D01*
X133681000Y-65043667D02*
X133681000Y-64810334D01*
X134047667Y-64810334D02*
X133347667Y-64810334D01*
X133347667Y-65143667D01*
X116020000Y-127250000D02*
X116053334Y-127283333D01*
X116153334Y-127316667D01*
X116220000Y-127316667D01*
X116320000Y-127283333D01*
X116386667Y-127216667D01*
X116420000Y-127150000D01*
X116453334Y-127016667D01*
X116453334Y-126916667D01*
X116420000Y-126783333D01*
X116386667Y-126716667D01*
X116320000Y-126650000D01*
X116220000Y-126616667D01*
X116153334Y-126616667D01*
X116053334Y-126650000D01*
X116020000Y-126683333D01*
X115353334Y-127316667D02*
X115753334Y-127316667D01*
X115553334Y-127316667D02*
X115553334Y-126616667D01*
X115620000Y-126716667D01*
X115686667Y-126783333D01*
X115753334Y-126816667D01*
X115086667Y-126683333D02*
X115053333Y-126650000D01*
X114986667Y-126616667D01*
X114820000Y-126616667D01*
X114753333Y-126650000D01*
X114720000Y-126683333D01*
X114686667Y-126750000D01*
X114686667Y-126816667D01*
X114720000Y-126916667D01*
X115120000Y-127316667D01*
X114686667Y-127316667D01*
X116066000Y-128840667D02*
X116466000Y-128840667D01*
X116266000Y-128840667D02*
X116266000Y-128140667D01*
X116332666Y-128240667D01*
X116399333Y-128307333D01*
X116466000Y-128340667D01*
X115632666Y-128140667D02*
X115565999Y-128140667D01*
X115499333Y-128174000D01*
X115465999Y-128207333D01*
X115432666Y-128274000D01*
X115399333Y-128407333D01*
X115399333Y-128574000D01*
X115432666Y-128707333D01*
X115465999Y-128774000D01*
X115499333Y-128807333D01*
X115565999Y-128840667D01*
X115632666Y-128840667D01*
X115699333Y-128807333D01*
X115732666Y-128774000D01*
X115765999Y-128707333D01*
X115799333Y-128574000D01*
X115799333Y-128407333D01*
X115765999Y-128274000D01*
X115732666Y-128207333D01*
X115699333Y-128174000D01*
X115632666Y-128140667D01*
X115099332Y-128374000D02*
X115099332Y-128840667D01*
X115099332Y-128440667D02*
X115065999Y-128407333D01*
X114999332Y-128374000D01*
X114899332Y-128374000D01*
X114832666Y-128407333D01*
X114799332Y-128474000D01*
X114799332Y-128840667D01*
X114232666Y-128474000D02*
X114465999Y-128474000D01*
X114465999Y-128840667D02*
X114465999Y-128140667D01*
X114132666Y-128140667D01*
X116274000Y-119630000D02*
X116307334Y-119663333D01*
X116407334Y-119696667D01*
X116474000Y-119696667D01*
X116574000Y-119663333D01*
X116640667Y-119596667D01*
X116674000Y-119530000D01*
X116707334Y-119396667D01*
X116707334Y-119296667D01*
X116674000Y-119163333D01*
X116640667Y-119096667D01*
X116574000Y-119030000D01*
X116474000Y-118996667D01*
X116407334Y-118996667D01*
X116307334Y-119030000D01*
X116274000Y-119063333D01*
X115607334Y-119696667D02*
X116007334Y-119696667D01*
X115807334Y-119696667D02*
X115807334Y-118996667D01*
X115874000Y-119096667D01*
X115940667Y-119163333D01*
X116007334Y-119196667D01*
X115374000Y-118996667D02*
X114940667Y-118996667D01*
X115174000Y-119263333D01*
X115074000Y-119263333D01*
X115007333Y-119296667D01*
X114974000Y-119330000D01*
X114940667Y-119396667D01*
X114940667Y-119563333D01*
X114974000Y-119630000D01*
X115007333Y-119663333D01*
X115074000Y-119696667D01*
X115274000Y-119696667D01*
X115340667Y-119663333D01*
X115374000Y-119630000D01*
X116574000Y-120966667D02*
X116974000Y-120966667D01*
X116774000Y-120966667D02*
X116774000Y-120266667D01*
X116840666Y-120366667D01*
X116907333Y-120433333D01*
X116974000Y-120466667D01*
X116140666Y-120266667D02*
X116073999Y-120266667D01*
X116007333Y-120300000D01*
X115973999Y-120333333D01*
X115940666Y-120400000D01*
X115907333Y-120533333D01*
X115907333Y-120700000D01*
X115940666Y-120833333D01*
X115973999Y-120900000D01*
X116007333Y-120933333D01*
X116073999Y-120966667D01*
X116140666Y-120966667D01*
X116207333Y-120933333D01*
X116240666Y-120900000D01*
X116273999Y-120833333D01*
X116307333Y-120700000D01*
X116307333Y-120533333D01*
X116273999Y-120400000D01*
X116240666Y-120333333D01*
X116207333Y-120300000D01*
X116140666Y-120266667D01*
X115607332Y-120500000D02*
X115607332Y-120966667D01*
X115607332Y-120566667D02*
X115573999Y-120533333D01*
X115507332Y-120500000D01*
X115407332Y-120500000D01*
X115340666Y-120533333D01*
X115307332Y-120600000D01*
X115307332Y-120966667D01*
X114740666Y-120600000D02*
X114973999Y-120600000D01*
X114973999Y-120966667D02*
X114973999Y-120266667D01*
X114640666Y-120266667D01*
X150872000Y-122740000D02*
X150905333Y-122706666D01*
X150938667Y-122606666D01*
X150938667Y-122540000D01*
X150905333Y-122440000D01*
X150838667Y-122373333D01*
X150772000Y-122340000D01*
X150638667Y-122306666D01*
X150538667Y-122306666D01*
X150405333Y-122340000D01*
X150338667Y-122373333D01*
X150272000Y-122440000D01*
X150238667Y-122540000D01*
X150238667Y-122606666D01*
X150272000Y-122706666D01*
X150305333Y-122740000D01*
X150938667Y-123406666D02*
X150938667Y-123006666D01*
X150938667Y-123206666D02*
X150238667Y-123206666D01*
X150338667Y-123140000D01*
X150405333Y-123073333D01*
X150438667Y-123006666D01*
X150472000Y-124006667D02*
X150938667Y-124006667D01*
X150205333Y-123840000D02*
X150705333Y-123673333D01*
X150705333Y-124106667D01*
X150938667Y-119900000D02*
X150938667Y-119500000D01*
X150938667Y-119700000D02*
X150238667Y-119700000D01*
X150338667Y-119633334D01*
X150405333Y-119566667D01*
X150438667Y-119500000D01*
X150238667Y-120333334D02*
X150238667Y-120400001D01*
X150272000Y-120466667D01*
X150305333Y-120500001D01*
X150372000Y-120533334D01*
X150505333Y-120566667D01*
X150672000Y-120566667D01*
X150805333Y-120533334D01*
X150872000Y-120500001D01*
X150905333Y-120466667D01*
X150938667Y-120400001D01*
X150938667Y-120333334D01*
X150905333Y-120266667D01*
X150872000Y-120233334D01*
X150805333Y-120200001D01*
X150672000Y-120166667D01*
X150505333Y-120166667D01*
X150372000Y-120200001D01*
X150305333Y-120233334D01*
X150272000Y-120266667D01*
X150238667Y-120333334D01*
X150472000Y-120866668D02*
X150938667Y-120866668D01*
X150538667Y-120866668D02*
X150505333Y-120900001D01*
X150472000Y-120966668D01*
X150472000Y-121066668D01*
X150505333Y-121133334D01*
X150572000Y-121166668D01*
X150938667Y-121166668D01*
X150572000Y-121733334D02*
X150572000Y-121500001D01*
X150938667Y-121500001D02*
X150238667Y-121500001D01*
X150238667Y-121833334D01*
X158438000Y-50034000D02*
X158471334Y-50067333D01*
X158571334Y-50100667D01*
X158638000Y-50100667D01*
X158738000Y-50067333D01*
X158804667Y-50000667D01*
X158838000Y-49934000D01*
X158871334Y-49800667D01*
X158871334Y-49700667D01*
X158838000Y-49567333D01*
X158804667Y-49500667D01*
X158738000Y-49434000D01*
X158638000Y-49400667D01*
X158571334Y-49400667D01*
X158471334Y-49434000D01*
X158438000Y-49467333D01*
X157771334Y-50100667D02*
X158171334Y-50100667D01*
X157971334Y-50100667D02*
X157971334Y-49400667D01*
X158038000Y-49500667D01*
X158104667Y-49567333D01*
X158171334Y-49600667D01*
X157138000Y-49400667D02*
X157471333Y-49400667D01*
X157504667Y-49734000D01*
X157471333Y-49700667D01*
X157404667Y-49667333D01*
X157238000Y-49667333D01*
X157171333Y-49700667D01*
X157138000Y-49734000D01*
X157104667Y-49800667D01*
X157104667Y-49967333D01*
X157138000Y-50034000D01*
X157171333Y-50067333D01*
X157238000Y-50100667D01*
X157404667Y-50100667D01*
X157471333Y-50067333D01*
X157504667Y-50034000D01*
X154928000Y-50100667D02*
X155328000Y-50100667D01*
X155128000Y-50100667D02*
X155128000Y-49400667D01*
X155194666Y-49500667D01*
X155261333Y-49567333D01*
X155328000Y-49600667D01*
X154661333Y-49467333D02*
X154627999Y-49434000D01*
X154561333Y-49400667D01*
X154394666Y-49400667D01*
X154327999Y-49434000D01*
X154294666Y-49467333D01*
X154261333Y-49534000D01*
X154261333Y-49600667D01*
X154294666Y-49700667D01*
X154694666Y-50100667D01*
X154261333Y-50100667D01*
X153961332Y-49634000D02*
X153961332Y-50334000D01*
X153961332Y-49667333D02*
X153894666Y-49634000D01*
X153761332Y-49634000D01*
X153694666Y-49667333D01*
X153661332Y-49700667D01*
X153627999Y-49767333D01*
X153627999Y-49967333D01*
X153661332Y-50034000D01*
X153694666Y-50067333D01*
X153761332Y-50100667D01*
X153894666Y-50100667D01*
X153961332Y-50067333D01*
X153094666Y-49734000D02*
X153327999Y-49734000D01*
X153327999Y-50100667D02*
X153327999Y-49400667D01*
X152994666Y-49400667D01*
X153104000Y-62480000D02*
X153137334Y-62513333D01*
X153237334Y-62546667D01*
X153304000Y-62546667D01*
X153404000Y-62513333D01*
X153470667Y-62446667D01*
X153504000Y-62380000D01*
X153537334Y-62246667D01*
X153537334Y-62146667D01*
X153504000Y-62013333D01*
X153470667Y-61946667D01*
X153404000Y-61880000D01*
X153304000Y-61846667D01*
X153237334Y-61846667D01*
X153137334Y-61880000D01*
X153104000Y-61913333D01*
X152437334Y-62546667D02*
X152837334Y-62546667D01*
X152637334Y-62546667D02*
X152637334Y-61846667D01*
X152704000Y-61946667D01*
X152770667Y-62013333D01*
X152837334Y-62046667D01*
X151837333Y-61846667D02*
X151970667Y-61846667D01*
X152037333Y-61880000D01*
X152070667Y-61913333D01*
X152137333Y-62013333D01*
X152170667Y-62146667D01*
X152170667Y-62413333D01*
X152137333Y-62480000D01*
X152104000Y-62513333D01*
X152037333Y-62546667D01*
X151904000Y-62546667D01*
X151837333Y-62513333D01*
X151804000Y-62480000D01*
X151770667Y-62413333D01*
X151770667Y-62246667D01*
X151804000Y-62180000D01*
X151837333Y-62146667D01*
X151904000Y-62113333D01*
X152037333Y-62113333D01*
X152104000Y-62146667D01*
X152137333Y-62180000D01*
X152170667Y-62246667D01*
X153150000Y-63562667D02*
X153550000Y-63562667D01*
X153350000Y-63562667D02*
X153350000Y-62862667D01*
X153416666Y-62962667D01*
X153483333Y-63029333D01*
X153550000Y-63062667D01*
X152883333Y-62929333D02*
X152849999Y-62896000D01*
X152783333Y-62862667D01*
X152616666Y-62862667D01*
X152549999Y-62896000D01*
X152516666Y-62929333D01*
X152483333Y-62996000D01*
X152483333Y-63062667D01*
X152516666Y-63162667D01*
X152916666Y-63562667D01*
X152483333Y-63562667D01*
X152183332Y-63096000D02*
X152183332Y-63796000D01*
X152183332Y-63129333D02*
X152116666Y-63096000D01*
X151983332Y-63096000D01*
X151916666Y-63129333D01*
X151883332Y-63162667D01*
X151849999Y-63229333D01*
X151849999Y-63429333D01*
X151883332Y-63496000D01*
X151916666Y-63529333D01*
X151983332Y-63562667D01*
X152116666Y-63562667D01*
X152183332Y-63529333D01*
X151316666Y-63196000D02*
X151549999Y-63196000D01*
X151549999Y-63562667D02*
X151549999Y-62862667D01*
X151216666Y-62862667D01*
X145738000Y-50796000D02*
X145771334Y-50829333D01*
X145871334Y-50862667D01*
X145938000Y-50862667D01*
X146038000Y-50829333D01*
X146104667Y-50762667D01*
X146138000Y-50696000D01*
X146171334Y-50562667D01*
X146171334Y-50462667D01*
X146138000Y-50329333D01*
X146104667Y-50262667D01*
X146038000Y-50196000D01*
X145938000Y-50162667D01*
X145871334Y-50162667D01*
X145771334Y-50196000D01*
X145738000Y-50229333D01*
X145071334Y-50862667D02*
X145471334Y-50862667D01*
X145271334Y-50862667D02*
X145271334Y-50162667D01*
X145338000Y-50262667D01*
X145404667Y-50329333D01*
X145471334Y-50362667D01*
X144838000Y-50162667D02*
X144371333Y-50162667D01*
X144671333Y-50862667D01*
X145863334Y-51878667D02*
X146263334Y-51878667D01*
X146063334Y-51878667D02*
X146063334Y-51178667D01*
X146130000Y-51278667D01*
X146196667Y-51345333D01*
X146263334Y-51378667D01*
X145430000Y-51178667D02*
X145363333Y-51178667D01*
X145296667Y-51212000D01*
X145263333Y-51245333D01*
X145230000Y-51312000D01*
X145196667Y-51445333D01*
X145196667Y-51612000D01*
X145230000Y-51745333D01*
X145263333Y-51812000D01*
X145296667Y-51845333D01*
X145363333Y-51878667D01*
X145430000Y-51878667D01*
X145496667Y-51845333D01*
X145530000Y-51812000D01*
X145563333Y-51745333D01*
X145596667Y-51612000D01*
X145596667Y-51445333D01*
X145563333Y-51312000D01*
X145530000Y-51245333D01*
X145496667Y-51212000D01*
X145430000Y-51178667D01*
X144763333Y-51178667D02*
X144696666Y-51178667D01*
X144630000Y-51212000D01*
X144596666Y-51245333D01*
X144563333Y-51312000D01*
X144530000Y-51445333D01*
X144530000Y-51612000D01*
X144563333Y-51745333D01*
X144596666Y-51812000D01*
X144630000Y-51845333D01*
X144696666Y-51878667D01*
X144763333Y-51878667D01*
X144830000Y-51845333D01*
X144863333Y-51812000D01*
X144896666Y-51745333D01*
X144930000Y-51612000D01*
X144930000Y-51445333D01*
X144896666Y-51312000D01*
X144863333Y-51245333D01*
X144830000Y-51212000D01*
X144763333Y-51178667D01*
X144229999Y-51412000D02*
X144229999Y-51878667D01*
X144229999Y-51478667D02*
X144196666Y-51445333D01*
X144129999Y-51412000D01*
X144029999Y-51412000D01*
X143963333Y-51445333D01*
X143929999Y-51512000D01*
X143929999Y-51878667D01*
X143363333Y-51512000D02*
X143596666Y-51512000D01*
X143596666Y-51878667D02*
X143596666Y-51178667D01*
X143263333Y-51178667D01*
X148636800Y-104274200D02*
X148670133Y-104240866D01*
X148703467Y-104140866D01*
X148703467Y-104074200D01*
X148670133Y-103974200D01*
X148603467Y-103907533D01*
X148536800Y-103874200D01*
X148403467Y-103840866D01*
X148303467Y-103840866D01*
X148170133Y-103874200D01*
X148103467Y-103907533D01*
X148036800Y-103974200D01*
X148003467Y-104074200D01*
X148003467Y-104140866D01*
X148036800Y-104240866D01*
X148070133Y-104274200D01*
X148070133Y-104540866D02*
X148036800Y-104574200D01*
X148003467Y-104640866D01*
X148003467Y-104807533D01*
X148036800Y-104874200D01*
X148070133Y-104907533D01*
X148136800Y-104940866D01*
X148203467Y-104940866D01*
X148303467Y-104907533D01*
X148703467Y-104507533D01*
X148703467Y-104940866D01*
X148003467Y-105374200D02*
X148003467Y-105440867D01*
X148036800Y-105507533D01*
X148070133Y-105540867D01*
X148136800Y-105574200D01*
X148270133Y-105607533D01*
X148436800Y-105607533D01*
X148570133Y-105574200D01*
X148636800Y-105540867D01*
X148670133Y-105507533D01*
X148703467Y-105440867D01*
X148703467Y-105374200D01*
X148670133Y-105307533D01*
X148636800Y-105274200D01*
X148570133Y-105240867D01*
X148436800Y-105207533D01*
X148270133Y-105207533D01*
X148136800Y-105240867D01*
X148070133Y-105274200D01*
X148036800Y-105307533D01*
X148003467Y-105374200D01*
X148703467Y-101434200D02*
X148703467Y-101034200D01*
X148703467Y-101234200D02*
X148003467Y-101234200D01*
X148103467Y-101167534D01*
X148170133Y-101100867D01*
X148203467Y-101034200D01*
X148003467Y-101867534D02*
X148003467Y-101934201D01*
X148036800Y-102000867D01*
X148070133Y-102034201D01*
X148136800Y-102067534D01*
X148270133Y-102100867D01*
X148436800Y-102100867D01*
X148570133Y-102067534D01*
X148636800Y-102034201D01*
X148670133Y-102000867D01*
X148703467Y-101934201D01*
X148703467Y-101867534D01*
X148670133Y-101800867D01*
X148636800Y-101767534D01*
X148570133Y-101734201D01*
X148436800Y-101700867D01*
X148270133Y-101700867D01*
X148136800Y-101734201D01*
X148070133Y-101767534D01*
X148036800Y-101800867D01*
X148003467Y-101867534D01*
X148236800Y-102700868D02*
X148703467Y-102700868D01*
X148236800Y-102400868D02*
X148603467Y-102400868D01*
X148670133Y-102434201D01*
X148703467Y-102500868D01*
X148703467Y-102600868D01*
X148670133Y-102667534D01*
X148636800Y-102700868D01*
X148336800Y-103267534D02*
X148336800Y-103034201D01*
X148703467Y-103034201D02*
X148003467Y-103034201D01*
X148003467Y-103367534D01*
X132352200Y-71319200D02*
X132385534Y-71352533D01*
X132485534Y-71385867D01*
X132552200Y-71385867D01*
X132652200Y-71352533D01*
X132718867Y-71285867D01*
X132752200Y-71219200D01*
X132785534Y-71085867D01*
X132785534Y-70985867D01*
X132752200Y-70852533D01*
X132718867Y-70785867D01*
X132652200Y-70719200D01*
X132552200Y-70685867D01*
X132485534Y-70685867D01*
X132385534Y-70719200D01*
X132352200Y-70752533D01*
X132085534Y-70752533D02*
X132052200Y-70719200D01*
X131985534Y-70685867D01*
X131818867Y-70685867D01*
X131752200Y-70719200D01*
X131718867Y-70752533D01*
X131685534Y-70819200D01*
X131685534Y-70885867D01*
X131718867Y-70985867D01*
X132118867Y-71385867D01*
X131685534Y-71385867D01*
X131418867Y-70752533D02*
X131385533Y-70719200D01*
X131318867Y-70685867D01*
X131152200Y-70685867D01*
X131085533Y-70719200D01*
X131052200Y-70752533D01*
X131018867Y-70819200D01*
X131018867Y-70885867D01*
X131052200Y-70985867D01*
X131452200Y-71385867D01*
X131018867Y-71385867D01*
X129858200Y-71385867D02*
X130258200Y-71385867D01*
X130058200Y-71385867D02*
X130058200Y-70685867D01*
X130124866Y-70785867D01*
X130191533Y-70852533D01*
X130258200Y-70885867D01*
X129424866Y-70685867D02*
X129358199Y-70685867D01*
X129291533Y-70719200D01*
X129258199Y-70752533D01*
X129224866Y-70819200D01*
X129191533Y-70952533D01*
X129191533Y-71119200D01*
X129224866Y-71252533D01*
X129258199Y-71319200D01*
X129291533Y-71352533D01*
X129358199Y-71385867D01*
X129424866Y-71385867D01*
X129491533Y-71352533D01*
X129524866Y-71319200D01*
X129558199Y-71252533D01*
X129591533Y-71119200D01*
X129591533Y-70952533D01*
X129558199Y-70819200D01*
X129524866Y-70752533D01*
X129491533Y-70719200D01*
X129424866Y-70685867D01*
X128591532Y-70919200D02*
X128591532Y-71385867D01*
X128891532Y-70919200D02*
X128891532Y-71285867D01*
X128858199Y-71352533D01*
X128791532Y-71385867D01*
X128691532Y-71385867D01*
X128624866Y-71352533D01*
X128591532Y-71319200D01*
X128024866Y-71019200D02*
X128258199Y-71019200D01*
X128258199Y-71385867D02*
X128258199Y-70685867D01*
X127924866Y-70685867D01*
X125980000Y-62796000D02*
X126013333Y-62762666D01*
X126046667Y-62662666D01*
X126046667Y-62596000D01*
X126013333Y-62496000D01*
X125946667Y-62429333D01*
X125880000Y-62396000D01*
X125746667Y-62362666D01*
X125646667Y-62362666D01*
X125513333Y-62396000D01*
X125446667Y-62429333D01*
X125380000Y-62496000D01*
X125346667Y-62596000D01*
X125346667Y-62662666D01*
X125380000Y-62762666D01*
X125413333Y-62796000D01*
X125413333Y-63062666D02*
X125380000Y-63096000D01*
X125346667Y-63162666D01*
X125346667Y-63329333D01*
X125380000Y-63396000D01*
X125413333Y-63429333D01*
X125480000Y-63462666D01*
X125546667Y-63462666D01*
X125646667Y-63429333D01*
X126046667Y-63029333D01*
X126046667Y-63462666D01*
X125346667Y-63696000D02*
X125346667Y-64129333D01*
X125613333Y-63896000D01*
X125613333Y-63996000D01*
X125646667Y-64062667D01*
X125680000Y-64096000D01*
X125746667Y-64129333D01*
X125913333Y-64129333D01*
X125980000Y-64096000D01*
X126013333Y-64062667D01*
X126046667Y-63996000D01*
X126046667Y-63796000D01*
X126013333Y-63729333D01*
X125980000Y-63696000D01*
X126046667Y-65623333D02*
X126046667Y-65223333D01*
X126046667Y-65423333D02*
X125346667Y-65423333D01*
X125446667Y-65356667D01*
X125513333Y-65290000D01*
X125546667Y-65223333D01*
X125580000Y-66223334D02*
X126046667Y-66223334D01*
X125580000Y-65923334D02*
X125946667Y-65923334D01*
X126013333Y-65956667D01*
X126046667Y-66023334D01*
X126046667Y-66123334D01*
X126013333Y-66190000D01*
X125980000Y-66223334D01*
X125680000Y-66790000D02*
X125680000Y-66556667D01*
X126046667Y-66556667D02*
X125346667Y-66556667D01*
X125346667Y-66890000D01*
X145663333Y-47622667D02*
X145663333Y-48189333D01*
X145630000Y-48256000D01*
X145596667Y-48289333D01*
X145530000Y-48322667D01*
X145396667Y-48322667D01*
X145330000Y-48289333D01*
X145296667Y-48256000D01*
X145263333Y-48189333D01*
X145263333Y-47622667D01*
X144963334Y-48289333D02*
X144863334Y-48322667D01*
X144696667Y-48322667D01*
X144630000Y-48289333D01*
X144596667Y-48256000D01*
X144563334Y-48189333D01*
X144563334Y-48122667D01*
X144596667Y-48056000D01*
X144630000Y-48022667D01*
X144696667Y-47989333D01*
X144830000Y-47956000D01*
X144896667Y-47922667D01*
X144930000Y-47889333D01*
X144963334Y-47822667D01*
X144963334Y-47756000D01*
X144930000Y-47689333D01*
X144896667Y-47656000D01*
X144830000Y-47622667D01*
X144663334Y-47622667D01*
X144563334Y-47656000D01*
X144030000Y-47956000D02*
X143930000Y-47989333D01*
X143896667Y-48022667D01*
X143863333Y-48089333D01*
X143863333Y-48189333D01*
X143896667Y-48256000D01*
X143930000Y-48289333D01*
X143996667Y-48322667D01*
X144263333Y-48322667D01*
X144263333Y-47622667D01*
X144030000Y-47622667D01*
X143963333Y-47656000D01*
X143930000Y-47689333D01*
X143896667Y-47756000D01*
X143896667Y-47822667D01*
X143930000Y-47889333D01*
X143963333Y-47922667D01*
X144030000Y-47956000D01*
X144263333Y-47956000D01*
X120912666Y-52640667D02*
X120912666Y-51940667D01*
X120746000Y-51940667D01*
X120646000Y-51974000D01*
X120579333Y-52040667D01*
X120546000Y-52107333D01*
X120512666Y-52240667D01*
X120512666Y-52340667D01*
X120546000Y-52474000D01*
X120579333Y-52540667D01*
X120646000Y-52607333D01*
X120746000Y-52640667D01*
X120912666Y-52640667D01*
X120179333Y-52640667D02*
X120046000Y-52640667D01*
X119979333Y-52607333D01*
X119946000Y-52574000D01*
X119879333Y-52474000D01*
X119846000Y-52340667D01*
X119846000Y-52074000D01*
X119879333Y-52007333D01*
X119912666Y-51974000D01*
X119979333Y-51940667D01*
X120112666Y-51940667D01*
X120179333Y-51974000D01*
X120212666Y-52007333D01*
X120246000Y-52074000D01*
X120246000Y-52240667D01*
X120212666Y-52307333D01*
X120179333Y-52340667D01*
X120112666Y-52374000D01*
X119979333Y-52374000D01*
X119912666Y-52340667D01*
X119879333Y-52307333D01*
X119846000Y-52240667D01*
X118597333Y-63196000D02*
X118830666Y-63196000D01*
X118830666Y-63562667D02*
X118830666Y-62862667D01*
X118497333Y-62862667D01*
X117864000Y-63562667D02*
X118264000Y-63562667D01*
X118064000Y-63562667D02*
X118064000Y-62862667D01*
X118130666Y-62962667D01*
X118197333Y-63029333D01*
X118264000Y-63062667D01*
X119026666Y-59640000D02*
X119259999Y-59640000D01*
X119259999Y-60006667D02*
X119259999Y-59306667D01*
X118926666Y-59306667D01*
X118659999Y-59306667D02*
X118659999Y-59873333D01*
X118626666Y-59940000D01*
X118593333Y-59973333D01*
X118526666Y-60006667D01*
X118393333Y-60006667D01*
X118326666Y-59973333D01*
X118293333Y-59940000D01*
X118259999Y-59873333D01*
X118259999Y-59306667D01*
X117960000Y-59973333D02*
X117860000Y-60006667D01*
X117693333Y-60006667D01*
X117626666Y-59973333D01*
X117593333Y-59940000D01*
X117560000Y-59873333D01*
X117560000Y-59806667D01*
X117593333Y-59740000D01*
X117626666Y-59706667D01*
X117693333Y-59673333D01*
X117826666Y-59640000D01*
X117893333Y-59606667D01*
X117926666Y-59573333D01*
X117960000Y-59506667D01*
X117960000Y-59440000D01*
X117926666Y-59373333D01*
X117893333Y-59340000D01*
X117826666Y-59306667D01*
X117660000Y-59306667D01*
X117560000Y-59340000D01*
X117259999Y-59640000D02*
X117026666Y-59640000D01*
X116926666Y-60006667D02*
X117259999Y-60006667D01*
X117259999Y-59306667D01*
X116926666Y-59306667D01*
X145858667Y-126629334D02*
X145525333Y-126396000D01*
X145858667Y-126229334D02*
X145158667Y-126229334D01*
X145158667Y-126496000D01*
X145192000Y-126562667D01*
X145225333Y-126596000D01*
X145292000Y-126629334D01*
X145392000Y-126629334D01*
X145458667Y-126596000D01*
X145492000Y-126562667D01*
X145525333Y-126496000D01*
X145525333Y-126229334D01*
X145858667Y-127296000D02*
X145858667Y-126896000D01*
X145858667Y-127096000D02*
X145158667Y-127096000D01*
X145258667Y-127029334D01*
X145325333Y-126962667D01*
X145358667Y-126896000D01*
X145225333Y-128673333D02*
X145192000Y-128706667D01*
X145158667Y-128773333D01*
X145158667Y-128940000D01*
X145192000Y-129006667D01*
X145225333Y-129040000D01*
X145292000Y-129073333D01*
X145358667Y-129073333D01*
X145458667Y-129040000D01*
X145858667Y-128640000D01*
X145858667Y-129073333D01*
X145225333Y-129340000D02*
X145192000Y-129373334D01*
X145158667Y-129440000D01*
X145158667Y-129606667D01*
X145192000Y-129673334D01*
X145225333Y-129706667D01*
X145292000Y-129740000D01*
X145358667Y-129740000D01*
X145458667Y-129706667D01*
X145858667Y-129306667D01*
X145858667Y-129740000D01*
X145158667Y-130173334D02*
X145158667Y-130240001D01*
X145192000Y-130306667D01*
X145225333Y-130340001D01*
X145292000Y-130373334D01*
X145425333Y-130406667D01*
X145592000Y-130406667D01*
X145725333Y-130373334D01*
X145792000Y-130340001D01*
X145825333Y-130306667D01*
X145858667Y-130240001D01*
X145858667Y-130173334D01*
X145825333Y-130106667D01*
X145792000Y-130073334D01*
X145725333Y-130040001D01*
X145592000Y-130006667D01*
X145425333Y-130006667D01*
X145292000Y-130040001D01*
X145225333Y-130073334D01*
X145192000Y-130106667D01*
X145158667Y-130173334D01*
X123052666Y-127316667D02*
X123286000Y-126983333D01*
X123452666Y-127316667D02*
X123452666Y-126616667D01*
X123186000Y-126616667D01*
X123119333Y-126650000D01*
X123086000Y-126683333D01*
X123052666Y-126750000D01*
X123052666Y-126850000D01*
X123086000Y-126916667D01*
X123119333Y-126950000D01*
X123186000Y-126983333D01*
X123452666Y-126983333D01*
X122786000Y-126683333D02*
X122752666Y-126650000D01*
X122686000Y-126616667D01*
X122519333Y-126616667D01*
X122452666Y-126650000D01*
X122419333Y-126683333D01*
X122386000Y-126750000D01*
X122386000Y-126816667D01*
X122419333Y-126916667D01*
X122819333Y-127316667D01*
X122386000Y-127316667D01*
X123840000Y-128374000D02*
X123840000Y-128840667D01*
X124006667Y-128107333D02*
X124173334Y-128607333D01*
X123740000Y-128607333D01*
X123473333Y-128774000D02*
X123440000Y-128807333D01*
X123473333Y-128840667D01*
X123506667Y-128807333D01*
X123473333Y-128774000D01*
X123473333Y-128840667D01*
X123206667Y-128140667D02*
X122740000Y-128140667D01*
X123040000Y-128840667D01*
X122473333Y-128840667D02*
X122473333Y-128140667D01*
X122406667Y-128574000D02*
X122206667Y-128840667D01*
X122206667Y-128374000D02*
X122473333Y-128640667D01*
X142048667Y-126629334D02*
X141715333Y-126396000D01*
X142048667Y-126229334D02*
X141348667Y-126229334D01*
X141348667Y-126496000D01*
X141382000Y-126562667D01*
X141415333Y-126596000D01*
X141482000Y-126629334D01*
X141582000Y-126629334D01*
X141648667Y-126596000D01*
X141682000Y-126562667D01*
X141715333Y-126496000D01*
X141715333Y-126229334D01*
X141348667Y-126862667D02*
X141348667Y-127296000D01*
X141615333Y-127062667D01*
X141615333Y-127162667D01*
X141648667Y-127229334D01*
X141682000Y-127262667D01*
X141748667Y-127296000D01*
X141915333Y-127296000D01*
X141982000Y-127262667D01*
X142015333Y-127229334D01*
X142048667Y-127162667D01*
X142048667Y-126962667D01*
X142015333Y-126896000D01*
X141982000Y-126862667D01*
X141415333Y-128673333D02*
X141382000Y-128706667D01*
X141348667Y-128773333D01*
X141348667Y-128940000D01*
X141382000Y-129006667D01*
X141415333Y-129040000D01*
X141482000Y-129073333D01*
X141548667Y-129073333D01*
X141648667Y-129040000D01*
X142048667Y-128640000D01*
X142048667Y-129073333D01*
X141415333Y-129340000D02*
X141382000Y-129373334D01*
X141348667Y-129440000D01*
X141348667Y-129606667D01*
X141382000Y-129673334D01*
X141415333Y-129706667D01*
X141482000Y-129740000D01*
X141548667Y-129740000D01*
X141648667Y-129706667D01*
X142048667Y-129306667D01*
X142048667Y-129740000D01*
X141348667Y-130173334D02*
X141348667Y-130240001D01*
X141382000Y-130306667D01*
X141415333Y-130340001D01*
X141482000Y-130373334D01*
X141615333Y-130406667D01*
X141782000Y-130406667D01*
X141915333Y-130373334D01*
X141982000Y-130340001D01*
X142015333Y-130306667D01*
X142048667Y-130240001D01*
X142048667Y-130173334D01*
X142015333Y-130106667D01*
X141982000Y-130073334D01*
X141915333Y-130040001D01*
X141782000Y-130006667D01*
X141615333Y-130006667D01*
X141482000Y-130040001D01*
X141415333Y-130073334D01*
X141382000Y-130106667D01*
X141348667Y-130173334D01*
X138238667Y-126629334D02*
X137905333Y-126396000D01*
X138238667Y-126229334D02*
X137538667Y-126229334D01*
X137538667Y-126496000D01*
X137572000Y-126562667D01*
X137605333Y-126596000D01*
X137672000Y-126629334D01*
X137772000Y-126629334D01*
X137838667Y-126596000D01*
X137872000Y-126562667D01*
X137905333Y-126496000D01*
X137905333Y-126229334D01*
X137772000Y-127229334D02*
X138238667Y-127229334D01*
X137505333Y-127062667D02*
X138005333Y-126896000D01*
X138005333Y-127329334D01*
X137605333Y-128673333D02*
X137572000Y-128706667D01*
X137538667Y-128773333D01*
X137538667Y-128940000D01*
X137572000Y-129006667D01*
X137605333Y-129040000D01*
X137672000Y-129073333D01*
X137738667Y-129073333D01*
X137838667Y-129040000D01*
X138238667Y-128640000D01*
X138238667Y-129073333D01*
X137605333Y-129340000D02*
X137572000Y-129373334D01*
X137538667Y-129440000D01*
X137538667Y-129606667D01*
X137572000Y-129673334D01*
X137605333Y-129706667D01*
X137672000Y-129740000D01*
X137738667Y-129740000D01*
X137838667Y-129706667D01*
X138238667Y-129306667D01*
X138238667Y-129740000D01*
X137538667Y-130173334D02*
X137538667Y-130240001D01*
X137572000Y-130306667D01*
X137605333Y-130340001D01*
X137672000Y-130373334D01*
X137805333Y-130406667D01*
X137972000Y-130406667D01*
X138105333Y-130373334D01*
X138172000Y-130340001D01*
X138205333Y-130306667D01*
X138238667Y-130240001D01*
X138238667Y-130173334D01*
X138205333Y-130106667D01*
X138172000Y-130073334D01*
X138105333Y-130040001D01*
X137972000Y-130006667D01*
X137805333Y-130006667D01*
X137672000Y-130040001D01*
X137605333Y-130073334D01*
X137572000Y-130106667D01*
X137538667Y-130173334D01*
X134428667Y-126629334D02*
X134095333Y-126396000D01*
X134428667Y-126229334D02*
X133728667Y-126229334D01*
X133728667Y-126496000D01*
X133762000Y-126562667D01*
X133795333Y-126596000D01*
X133862000Y-126629334D01*
X133962000Y-126629334D01*
X134028667Y-126596000D01*
X134062000Y-126562667D01*
X134095333Y-126496000D01*
X134095333Y-126229334D01*
X133728667Y-127262667D02*
X133728667Y-126929334D01*
X134062000Y-126896000D01*
X134028667Y-126929334D01*
X133995333Y-126996000D01*
X133995333Y-127162667D01*
X134028667Y-127229334D01*
X134062000Y-127262667D01*
X134128667Y-127296000D01*
X134295333Y-127296000D01*
X134362000Y-127262667D01*
X134395333Y-127229334D01*
X134428667Y-127162667D01*
X134428667Y-126996000D01*
X134395333Y-126929334D01*
X134362000Y-126896000D01*
X133795333Y-128673333D02*
X133762000Y-128706667D01*
X133728667Y-128773333D01*
X133728667Y-128940000D01*
X133762000Y-129006667D01*
X133795333Y-129040000D01*
X133862000Y-129073333D01*
X133928667Y-129073333D01*
X134028667Y-129040000D01*
X134428667Y-128640000D01*
X134428667Y-129073333D01*
X133795333Y-129340000D02*
X133762000Y-129373334D01*
X133728667Y-129440000D01*
X133728667Y-129606667D01*
X133762000Y-129673334D01*
X133795333Y-129706667D01*
X133862000Y-129740000D01*
X133928667Y-129740000D01*
X134028667Y-129706667D01*
X134428667Y-129306667D01*
X134428667Y-129740000D01*
X133728667Y-130173334D02*
X133728667Y-130240001D01*
X133762000Y-130306667D01*
X133795333Y-130340001D01*
X133862000Y-130373334D01*
X133995333Y-130406667D01*
X134162000Y-130406667D01*
X134295333Y-130373334D01*
X134362000Y-130340001D01*
X134395333Y-130306667D01*
X134428667Y-130240001D01*
X134428667Y-130173334D01*
X134395333Y-130106667D01*
X134362000Y-130073334D01*
X134295333Y-130040001D01*
X134162000Y-130006667D01*
X133995333Y-130006667D01*
X133862000Y-130040001D01*
X133795333Y-130073334D01*
X133762000Y-130106667D01*
X133728667Y-130173334D01*
X130618667Y-126629334D02*
X130285333Y-126396000D01*
X130618667Y-126229334D02*
X129918667Y-126229334D01*
X129918667Y-126496000D01*
X129952000Y-126562667D01*
X129985333Y-126596000D01*
X130052000Y-126629334D01*
X130152000Y-126629334D01*
X130218667Y-126596000D01*
X130252000Y-126562667D01*
X130285333Y-126496000D01*
X130285333Y-126229334D01*
X129918667Y-127229334D02*
X129918667Y-127096000D01*
X129952000Y-127029334D01*
X129985333Y-126996000D01*
X130085333Y-126929334D01*
X130218667Y-126896000D01*
X130485333Y-126896000D01*
X130552000Y-126929334D01*
X130585333Y-126962667D01*
X130618667Y-127029334D01*
X130618667Y-127162667D01*
X130585333Y-127229334D01*
X130552000Y-127262667D01*
X130485333Y-127296000D01*
X130318667Y-127296000D01*
X130252000Y-127262667D01*
X130218667Y-127229334D01*
X130185333Y-127162667D01*
X130185333Y-127029334D01*
X130218667Y-126962667D01*
X130252000Y-126929334D01*
X130318667Y-126896000D01*
X129985333Y-128673333D02*
X129952000Y-128706667D01*
X129918667Y-128773333D01*
X129918667Y-128940000D01*
X129952000Y-129006667D01*
X129985333Y-129040000D01*
X130052000Y-129073333D01*
X130118667Y-129073333D01*
X130218667Y-129040000D01*
X130618667Y-128640000D01*
X130618667Y-129073333D01*
X129985333Y-129340000D02*
X129952000Y-129373334D01*
X129918667Y-129440000D01*
X129918667Y-129606667D01*
X129952000Y-129673334D01*
X129985333Y-129706667D01*
X130052000Y-129740000D01*
X130118667Y-129740000D01*
X130218667Y-129706667D01*
X130618667Y-129306667D01*
X130618667Y-129740000D01*
X129918667Y-130173334D02*
X129918667Y-130240001D01*
X129952000Y-130306667D01*
X129985333Y-130340001D01*
X130052000Y-130373334D01*
X130185333Y-130406667D01*
X130352000Y-130406667D01*
X130485333Y-130373334D01*
X130552000Y-130340001D01*
X130585333Y-130306667D01*
X130618667Y-130240001D01*
X130618667Y-130173334D01*
X130585333Y-130106667D01*
X130552000Y-130073334D01*
X130485333Y-130040001D01*
X130352000Y-130006667D01*
X130185333Y-130006667D01*
X130052000Y-130040001D01*
X129985333Y-130073334D01*
X129952000Y-130106667D01*
X129918667Y-130173334D01*
X123306666Y-119696667D02*
X123540000Y-119363333D01*
X123706666Y-119696667D02*
X123706666Y-118996667D01*
X123440000Y-118996667D01*
X123373333Y-119030000D01*
X123340000Y-119063333D01*
X123306666Y-119130000D01*
X123306666Y-119230000D01*
X123340000Y-119296667D01*
X123373333Y-119330000D01*
X123440000Y-119363333D01*
X123706666Y-119363333D01*
X123073333Y-118996667D02*
X122606666Y-118996667D01*
X122906666Y-119696667D01*
X123840000Y-120754000D02*
X123840000Y-121220667D01*
X124006667Y-120487333D02*
X124173334Y-120987333D01*
X123740000Y-120987333D01*
X123473333Y-121154000D02*
X123440000Y-121187333D01*
X123473333Y-121220667D01*
X123506667Y-121187333D01*
X123473333Y-121154000D01*
X123473333Y-121220667D01*
X123206667Y-120520667D02*
X122740000Y-120520667D01*
X123040000Y-121220667D01*
X122473333Y-121220667D02*
X122473333Y-120520667D01*
X122406667Y-120954000D02*
X122206667Y-121220667D01*
X122206667Y-120754000D02*
X122473333Y-121020667D01*
X126808667Y-126629334D02*
X126475333Y-126396000D01*
X126808667Y-126229334D02*
X126108667Y-126229334D01*
X126108667Y-126496000D01*
X126142000Y-126562667D01*
X126175333Y-126596000D01*
X126242000Y-126629334D01*
X126342000Y-126629334D01*
X126408667Y-126596000D01*
X126442000Y-126562667D01*
X126475333Y-126496000D01*
X126475333Y-126229334D01*
X126408667Y-127029334D02*
X126375333Y-126962667D01*
X126342000Y-126929334D01*
X126275333Y-126896000D01*
X126242000Y-126896000D01*
X126175333Y-126929334D01*
X126142000Y-126962667D01*
X126108667Y-127029334D01*
X126108667Y-127162667D01*
X126142000Y-127229334D01*
X126175333Y-127262667D01*
X126242000Y-127296000D01*
X126275333Y-127296000D01*
X126342000Y-127262667D01*
X126375333Y-127229334D01*
X126408667Y-127162667D01*
X126408667Y-127029334D01*
X126442000Y-126962667D01*
X126475333Y-126929334D01*
X126542000Y-126896000D01*
X126675333Y-126896000D01*
X126742000Y-126929334D01*
X126775333Y-126962667D01*
X126808667Y-127029334D01*
X126808667Y-127162667D01*
X126775333Y-127229334D01*
X126742000Y-127262667D01*
X126675333Y-127296000D01*
X126542000Y-127296000D01*
X126475333Y-127262667D01*
X126442000Y-127229334D01*
X126408667Y-127162667D01*
X126175333Y-128673333D02*
X126142000Y-128706667D01*
X126108667Y-128773333D01*
X126108667Y-128940000D01*
X126142000Y-129006667D01*
X126175333Y-129040000D01*
X126242000Y-129073333D01*
X126308667Y-129073333D01*
X126408667Y-129040000D01*
X126808667Y-128640000D01*
X126808667Y-129073333D01*
X126175333Y-129340000D02*
X126142000Y-129373334D01*
X126108667Y-129440000D01*
X126108667Y-129606667D01*
X126142000Y-129673334D01*
X126175333Y-129706667D01*
X126242000Y-129740000D01*
X126308667Y-129740000D01*
X126408667Y-129706667D01*
X126808667Y-129306667D01*
X126808667Y-129740000D01*
X126108667Y-130173334D02*
X126108667Y-130240001D01*
X126142000Y-130306667D01*
X126175333Y-130340001D01*
X126242000Y-130373334D01*
X126375333Y-130406667D01*
X126542000Y-130406667D01*
X126675333Y-130373334D01*
X126742000Y-130340001D01*
X126775333Y-130306667D01*
X126808667Y-130240001D01*
X126808667Y-130173334D01*
X126775333Y-130106667D01*
X126742000Y-130073334D01*
X126675333Y-130040001D01*
X126542000Y-130006667D01*
X126375333Y-130006667D01*
X126242000Y-130040001D01*
X126175333Y-130073334D01*
X126142000Y-130106667D01*
X126108667Y-130173334D01*
X150310000Y-47941667D02*
X150543334Y-47608333D01*
X150710000Y-47941667D02*
X150710000Y-47241667D01*
X150443334Y-47241667D01*
X150376667Y-47275000D01*
X150343334Y-47308333D01*
X150310000Y-47375000D01*
X150310000Y-47475000D01*
X150343334Y-47541667D01*
X150376667Y-47575000D01*
X150443334Y-47608333D01*
X150710000Y-47608333D01*
X149643334Y-47941667D02*
X150043334Y-47941667D01*
X149843334Y-47941667D02*
X149843334Y-47241667D01*
X149910000Y-47341667D01*
X149976667Y-47408333D01*
X150043334Y-47441667D01*
X149210000Y-47241667D02*
X149143333Y-47241667D01*
X149076667Y-47275000D01*
X149043333Y-47308333D01*
X149010000Y-47375000D01*
X148976667Y-47508333D01*
X148976667Y-47675000D01*
X149010000Y-47808333D01*
X149043333Y-47875000D01*
X149076667Y-47908333D01*
X149143333Y-47941667D01*
X149210000Y-47941667D01*
X149276667Y-47908333D01*
X149310000Y-47875000D01*
X149343333Y-47808333D01*
X149376667Y-47675000D01*
X149376667Y-47508333D01*
X149343333Y-47375000D01*
X149310000Y-47308333D01*
X149276667Y-47275000D01*
X149210000Y-47241667D01*
X147736667Y-47941667D02*
X148136667Y-47941667D01*
X147936667Y-47941667D02*
X147936667Y-47241667D01*
X148003333Y-47341667D01*
X148070000Y-47408333D01*
X148136667Y-47441667D01*
X147336666Y-47541667D02*
X147403333Y-47508333D01*
X147436666Y-47475000D01*
X147470000Y-47408333D01*
X147470000Y-47375000D01*
X147436666Y-47308333D01*
X147403333Y-47275000D01*
X147336666Y-47241667D01*
X147203333Y-47241667D01*
X147136666Y-47275000D01*
X147103333Y-47308333D01*
X147070000Y-47375000D01*
X147070000Y-47408333D01*
X147103333Y-47475000D01*
X147136666Y-47508333D01*
X147203333Y-47541667D01*
X147336666Y-47541667D01*
X147403333Y-47575000D01*
X147436666Y-47608333D01*
X147470000Y-47675000D01*
X147470000Y-47808333D01*
X147436666Y-47875000D01*
X147403333Y-47908333D01*
X147336666Y-47941667D01*
X147203333Y-47941667D01*
X147136666Y-47908333D01*
X147103333Y-47875000D01*
X147070000Y-47808333D01*
X147070000Y-47675000D01*
X147103333Y-47608333D01*
X147136666Y-47575000D01*
X147203333Y-47541667D01*
X146769999Y-47941667D02*
X146769999Y-47241667D01*
X146703333Y-47675000D02*
X146503333Y-47941667D01*
X146503333Y-47475000D02*
X146769999Y-47741667D01*
X148869333Y-66926667D02*
X148869333Y-67493333D01*
X148836000Y-67560000D01*
X148802667Y-67593333D01*
X148736000Y-67626667D01*
X148602667Y-67626667D01*
X148536000Y-67593333D01*
X148502667Y-67560000D01*
X148469333Y-67493333D01*
X148469333Y-66926667D01*
X148202667Y-66926667D02*
X147769334Y-66926667D01*
X148002667Y-67193333D01*
X147902667Y-67193333D01*
X147836000Y-67226667D01*
X147802667Y-67260000D01*
X147769334Y-67326667D01*
X147769334Y-67493333D01*
X147802667Y-67560000D01*
X147836000Y-67593333D01*
X147902667Y-67626667D01*
X148102667Y-67626667D01*
X148169334Y-67593333D01*
X148202667Y-67560000D01*
X145014667Y-67626667D02*
X145014667Y-66926667D01*
X144781334Y-67426667D01*
X144548001Y-66926667D01*
X144548001Y-67626667D01*
X143814667Y-67560000D02*
X143848001Y-67593333D01*
X143948001Y-67626667D01*
X144014667Y-67626667D01*
X144114667Y-67593333D01*
X144181334Y-67526667D01*
X144214667Y-67460000D01*
X144248001Y-67326667D01*
X144248001Y-67226667D01*
X144214667Y-67093333D01*
X144181334Y-67026667D01*
X144114667Y-66960000D01*
X144014667Y-66926667D01*
X143948001Y-66926667D01*
X143848001Y-66960000D01*
X143814667Y-66993333D01*
X143514667Y-67626667D02*
X143514667Y-66926667D01*
X143248001Y-66926667D01*
X143181334Y-66960000D01*
X143148001Y-66993333D01*
X143114667Y-67060000D01*
X143114667Y-67160000D01*
X143148001Y-67226667D01*
X143181334Y-67260000D01*
X143248001Y-67293333D01*
X143514667Y-67293333D01*
X142848001Y-66993333D02*
X142814667Y-66960000D01*
X142748001Y-66926667D01*
X142581334Y-66926667D01*
X142514667Y-66960000D01*
X142481334Y-66993333D01*
X142448001Y-67060000D01*
X142448001Y-67126667D01*
X142481334Y-67226667D01*
X142881334Y-67626667D01*
X142448001Y-67626667D01*
X142181334Y-66993333D02*
X142148000Y-66960000D01*
X142081334Y-66926667D01*
X141914667Y-66926667D01*
X141848000Y-66960000D01*
X141814667Y-66993333D01*
X141781334Y-67060000D01*
X141781334Y-67126667D01*
X141814667Y-67226667D01*
X142214667Y-67626667D01*
X141781334Y-67626667D01*
X141348000Y-66926667D02*
X141281333Y-66926667D01*
X141214667Y-66960000D01*
X141181333Y-66993333D01*
X141148000Y-67060000D01*
X141114667Y-67193333D01*
X141114667Y-67360000D01*
X141148000Y-67493333D01*
X141181333Y-67560000D01*
X141214667Y-67593333D01*
X141281333Y-67626667D01*
X141348000Y-67626667D01*
X141414667Y-67593333D01*
X141448000Y-67560000D01*
X141481333Y-67493333D01*
X141514667Y-67360000D01*
X141514667Y-67193333D01*
X141481333Y-67060000D01*
X141448000Y-66993333D01*
X141414667Y-66960000D01*
X141348000Y-66926667D01*
X140681333Y-66926667D02*
X140614666Y-66926667D01*
X140548000Y-66960000D01*
X140514666Y-66993333D01*
X140481333Y-67060000D01*
X140448000Y-67193333D01*
X140448000Y-67360000D01*
X140481333Y-67493333D01*
X140514666Y-67560000D01*
X140548000Y-67593333D01*
X140614666Y-67626667D01*
X140681333Y-67626667D01*
X140748000Y-67593333D01*
X140781333Y-67560000D01*
X140814666Y-67493333D01*
X140848000Y-67360000D01*
X140848000Y-67193333D01*
X140814666Y-67060000D01*
X140781333Y-66993333D01*
X140748000Y-66960000D01*
X140681333Y-66926667D01*
X151762667Y-54551333D02*
X152462667Y-55018000D01*
X151762667Y-55018000D02*
X152462667Y-54551333D01*
X152462667Y-55651333D02*
X152462667Y-55251333D01*
X152462667Y-55451333D02*
X151762667Y-55451333D01*
X151862667Y-55384667D01*
X151929333Y-55318000D01*
X151962667Y-55251333D01*
X152208667Y-57744666D02*
X152208667Y-57344666D01*
X152208667Y-57544666D02*
X151508667Y-57544666D01*
X151608667Y-57478000D01*
X151675333Y-57411333D01*
X151708667Y-57344666D01*
X151575333Y-58011333D02*
X151542000Y-58044667D01*
X151508667Y-58111333D01*
X151508667Y-58278000D01*
X151542000Y-58344667D01*
X151575333Y-58378000D01*
X151642000Y-58411333D01*
X151708667Y-58411333D01*
X151808667Y-58378000D01*
X152208667Y-57978000D01*
X152208667Y-58411333D01*
X152208667Y-58711334D02*
X151508667Y-58711334D01*
X152008667Y-58944667D01*
X151508667Y-59178000D01*
X152208667Y-59178000D01*
X152208667Y-59511334D02*
X151508667Y-59511334D01*
X151842000Y-59511334D02*
X151842000Y-59911334D01*
X152208667Y-59911334D02*
X151508667Y-59911334D01*
X151742000Y-60178000D02*
X151742000Y-60544667D01*
X152208667Y-60178000D01*
X152208667Y-60544667D01*
X143198000Y-105406000D02*
X143231334Y-105439333D01*
X143331334Y-105472667D01*
X143398000Y-105472667D01*
X143498000Y-105439333D01*
X143564667Y-105372667D01*
X143598000Y-105306000D01*
X143631334Y-105172667D01*
X143631334Y-105072667D01*
X143598000Y-104939333D01*
X143564667Y-104872667D01*
X143498000Y-104806000D01*
X143398000Y-104772667D01*
X143331334Y-104772667D01*
X143231334Y-104806000D01*
X143198000Y-104839333D01*
X142931334Y-104839333D02*
X142898000Y-104806000D01*
X142831334Y-104772667D01*
X142664667Y-104772667D01*
X142598000Y-104806000D01*
X142564667Y-104839333D01*
X142531334Y-104906000D01*
X142531334Y-104972667D01*
X142564667Y-105072667D01*
X142964667Y-105472667D01*
X142531334Y-105472667D01*
X141931333Y-105006000D02*
X141931333Y-105472667D01*
X142098000Y-104739333D02*
X142264667Y-105239333D01*
X141831333Y-105239333D01*
X140275334Y-105472667D02*
X140675334Y-105472667D01*
X140475334Y-105472667D02*
X140475334Y-104772667D01*
X140542000Y-104872667D01*
X140608667Y-104939333D01*
X140675334Y-104972667D01*
X139842000Y-104772667D02*
X139775333Y-104772667D01*
X139708667Y-104806000D01*
X139675333Y-104839333D01*
X139642000Y-104906000D01*
X139608667Y-105039333D01*
X139608667Y-105206000D01*
X139642000Y-105339333D01*
X139675333Y-105406000D01*
X139708667Y-105439333D01*
X139775333Y-105472667D01*
X139842000Y-105472667D01*
X139908667Y-105439333D01*
X139942000Y-105406000D01*
X139975333Y-105339333D01*
X140008667Y-105206000D01*
X140008667Y-105039333D01*
X139975333Y-104906000D01*
X139942000Y-104839333D01*
X139908667Y-104806000D01*
X139842000Y-104772667D01*
X139175333Y-104772667D02*
X139108666Y-104772667D01*
X139042000Y-104806000D01*
X139008666Y-104839333D01*
X138975333Y-104906000D01*
X138942000Y-105039333D01*
X138942000Y-105206000D01*
X138975333Y-105339333D01*
X139008666Y-105406000D01*
X139042000Y-105439333D01*
X139108666Y-105472667D01*
X139175333Y-105472667D01*
X139242000Y-105439333D01*
X139275333Y-105406000D01*
X139308666Y-105339333D01*
X139342000Y-105206000D01*
X139342000Y-105039333D01*
X139308666Y-104906000D01*
X139275333Y-104839333D01*
X139242000Y-104806000D01*
X139175333Y-104772667D01*
X138641999Y-105006000D02*
X138641999Y-105472667D01*
X138641999Y-105072667D02*
X138608666Y-105039333D01*
X138541999Y-105006000D01*
X138441999Y-105006000D01*
X138375333Y-105039333D01*
X138341999Y-105106000D01*
X138341999Y-105472667D01*
X137775333Y-105106000D02*
X138008666Y-105106000D01*
X138008666Y-105472667D02*
X138008666Y-104772667D01*
X137675333Y-104772667D01*
X116782000Y-83943000D02*
X116815334Y-83976333D01*
X116915334Y-84009667D01*
X116982000Y-84009667D01*
X117082000Y-83976333D01*
X117148667Y-83909667D01*
X117182000Y-83843000D01*
X117215334Y-83709667D01*
X117215334Y-83609667D01*
X117182000Y-83476333D01*
X117148667Y-83409667D01*
X117082000Y-83343000D01*
X116982000Y-83309667D01*
X116915334Y-83309667D01*
X116815334Y-83343000D01*
X116782000Y-83376333D01*
X116515334Y-83376333D02*
X116482000Y-83343000D01*
X116415334Y-83309667D01*
X116248667Y-83309667D01*
X116182000Y-83343000D01*
X116148667Y-83376333D01*
X116115334Y-83443000D01*
X116115334Y-83509667D01*
X116148667Y-83609667D01*
X116548667Y-84009667D01*
X116115334Y-84009667D01*
X115482000Y-83309667D02*
X115815333Y-83309667D01*
X115848667Y-83643000D01*
X115815333Y-83609667D01*
X115748667Y-83576333D01*
X115582000Y-83576333D01*
X115515333Y-83609667D01*
X115482000Y-83643000D01*
X115448667Y-83709667D01*
X115448667Y-83876333D01*
X115482000Y-83943000D01*
X115515333Y-83976333D01*
X115582000Y-84009667D01*
X115748667Y-84009667D01*
X115815333Y-83976333D01*
X115848667Y-83943000D01*
X116907334Y-82993667D02*
X117307334Y-82993667D01*
X117107334Y-82993667D02*
X117107334Y-82293667D01*
X117174000Y-82393667D01*
X117240667Y-82460333D01*
X117307334Y-82493667D01*
X116474000Y-82293667D02*
X116407333Y-82293667D01*
X116340667Y-82327000D01*
X116307333Y-82360333D01*
X116274000Y-82427000D01*
X116240667Y-82560333D01*
X116240667Y-82727000D01*
X116274000Y-82860333D01*
X116307333Y-82927000D01*
X116340667Y-82960333D01*
X116407333Y-82993667D01*
X116474000Y-82993667D01*
X116540667Y-82960333D01*
X116574000Y-82927000D01*
X116607333Y-82860333D01*
X116640667Y-82727000D01*
X116640667Y-82560333D01*
X116607333Y-82427000D01*
X116574000Y-82360333D01*
X116540667Y-82327000D01*
X116474000Y-82293667D01*
X115807333Y-82293667D02*
X115740666Y-82293667D01*
X115674000Y-82327000D01*
X115640666Y-82360333D01*
X115607333Y-82427000D01*
X115574000Y-82560333D01*
X115574000Y-82727000D01*
X115607333Y-82860333D01*
X115640666Y-82927000D01*
X115674000Y-82960333D01*
X115740666Y-82993667D01*
X115807333Y-82993667D01*
X115874000Y-82960333D01*
X115907333Y-82927000D01*
X115940666Y-82860333D01*
X115974000Y-82727000D01*
X115974000Y-82560333D01*
X115940666Y-82427000D01*
X115907333Y-82360333D01*
X115874000Y-82327000D01*
X115807333Y-82293667D01*
X115273999Y-82527000D02*
X115273999Y-82993667D01*
X115273999Y-82593667D02*
X115240666Y-82560333D01*
X115173999Y-82527000D01*
X115073999Y-82527000D01*
X115007333Y-82560333D01*
X114973999Y-82627000D01*
X114973999Y-82993667D01*
X114407333Y-82627000D02*
X114640666Y-82627000D01*
X114640666Y-82993667D02*
X114640666Y-82293667D01*
X114307333Y-82293667D01*
X124656000Y-96008000D02*
X124689334Y-96041333D01*
X124789334Y-96074667D01*
X124856000Y-96074667D01*
X124956000Y-96041333D01*
X125022667Y-95974667D01*
X125056000Y-95908000D01*
X125089334Y-95774667D01*
X125089334Y-95674667D01*
X125056000Y-95541333D01*
X125022667Y-95474667D01*
X124956000Y-95408000D01*
X124856000Y-95374667D01*
X124789334Y-95374667D01*
X124689334Y-95408000D01*
X124656000Y-95441333D01*
X124389334Y-95441333D02*
X124356000Y-95408000D01*
X124289334Y-95374667D01*
X124122667Y-95374667D01*
X124056000Y-95408000D01*
X124022667Y-95441333D01*
X123989334Y-95508000D01*
X123989334Y-95574667D01*
X124022667Y-95674667D01*
X124422667Y-96074667D01*
X123989334Y-96074667D01*
X123389333Y-95374667D02*
X123522667Y-95374667D01*
X123589333Y-95408000D01*
X123622667Y-95441333D01*
X123689333Y-95541333D01*
X123722667Y-95674667D01*
X123722667Y-95941333D01*
X123689333Y-96008000D01*
X123656000Y-96041333D01*
X123589333Y-96074667D01*
X123456000Y-96074667D01*
X123389333Y-96041333D01*
X123356000Y-96008000D01*
X123322667Y-95941333D01*
X123322667Y-95774667D01*
X123356000Y-95708000D01*
X123389333Y-95674667D01*
X123456000Y-95641333D01*
X123589333Y-95641333D01*
X123656000Y-95674667D01*
X123689333Y-95708000D01*
X123722667Y-95774667D01*
X125797334Y-97344667D02*
X126197334Y-97344667D01*
X125997334Y-97344667D02*
X125997334Y-96644667D01*
X126064000Y-96744667D01*
X126130667Y-96811333D01*
X126197334Y-96844667D01*
X125364000Y-96644667D02*
X125297333Y-96644667D01*
X125230667Y-96678000D01*
X125197333Y-96711333D01*
X125164000Y-96778000D01*
X125130667Y-96911333D01*
X125130667Y-97078000D01*
X125164000Y-97211333D01*
X125197333Y-97278000D01*
X125230667Y-97311333D01*
X125297333Y-97344667D01*
X125364000Y-97344667D01*
X125430667Y-97311333D01*
X125464000Y-97278000D01*
X125497333Y-97211333D01*
X125530667Y-97078000D01*
X125530667Y-96911333D01*
X125497333Y-96778000D01*
X125464000Y-96711333D01*
X125430667Y-96678000D01*
X125364000Y-96644667D01*
X124697333Y-96644667D02*
X124630666Y-96644667D01*
X124564000Y-96678000D01*
X124530666Y-96711333D01*
X124497333Y-96778000D01*
X124464000Y-96911333D01*
X124464000Y-97078000D01*
X124497333Y-97211333D01*
X124530666Y-97278000D01*
X124564000Y-97311333D01*
X124630666Y-97344667D01*
X124697333Y-97344667D01*
X124764000Y-97311333D01*
X124797333Y-97278000D01*
X124830666Y-97211333D01*
X124864000Y-97078000D01*
X124864000Y-96911333D01*
X124830666Y-96778000D01*
X124797333Y-96711333D01*
X124764000Y-96678000D01*
X124697333Y-96644667D01*
X124163999Y-96878000D02*
X124163999Y-97344667D01*
X124163999Y-96944667D02*
X124130666Y-96911333D01*
X124063999Y-96878000D01*
X123963999Y-96878000D01*
X123897333Y-96911333D01*
X123863999Y-96978000D01*
X123863999Y-97344667D01*
X123297333Y-96978000D02*
X123530666Y-96978000D01*
X123530666Y-97344667D02*
X123530666Y-96644667D01*
X123197333Y-96644667D01*
X123786000Y-77786667D02*
X123786000Y-77086667D01*
X123619334Y-77086667D01*
X123519334Y-77120000D01*
X123452667Y-77186667D01*
X123419334Y-77253333D01*
X123386000Y-77386667D01*
X123386000Y-77486667D01*
X123419334Y-77620000D01*
X123452667Y-77686667D01*
X123519334Y-77753333D01*
X123619334Y-77786667D01*
X123786000Y-77786667D01*
X122719334Y-77786667D02*
X123119334Y-77786667D01*
X122919334Y-77786667D02*
X122919334Y-77086667D01*
X122986000Y-77186667D01*
X123052667Y-77253333D01*
X123119334Y-77286667D01*
X122286000Y-77086667D02*
X122219333Y-77086667D01*
X122152667Y-77120000D01*
X122119333Y-77153333D01*
X122086000Y-77220000D01*
X122052667Y-77353333D01*
X122052667Y-77520000D01*
X122086000Y-77653333D01*
X122119333Y-77720000D01*
X122152667Y-77753333D01*
X122219333Y-77786667D01*
X122286000Y-77786667D01*
X122352667Y-77753333D01*
X122386000Y-77720000D01*
X122419333Y-77653333D01*
X122452667Y-77520000D01*
X122452667Y-77353333D01*
X122419333Y-77220000D01*
X122386000Y-77153333D01*
X122352667Y-77120000D01*
X122286000Y-77086667D01*
X123786000Y-80072667D02*
X123786000Y-79372667D01*
X123619334Y-79372667D01*
X123519334Y-79406000D01*
X123452667Y-79472667D01*
X123419334Y-79539333D01*
X123386000Y-79672667D01*
X123386000Y-79772667D01*
X123419334Y-79906000D01*
X123452667Y-79972667D01*
X123519334Y-80039333D01*
X123619334Y-80072667D01*
X123786000Y-80072667D01*
X122719334Y-80072667D02*
X123119334Y-80072667D01*
X122919334Y-80072667D02*
X122919334Y-79372667D01*
X122986000Y-79472667D01*
X123052667Y-79539333D01*
X123119334Y-79572667D01*
X122052667Y-80072667D02*
X122452667Y-80072667D01*
X122252667Y-80072667D02*
X122252667Y-79372667D01*
X122319333Y-79472667D01*
X122386000Y-79539333D01*
X122452667Y-79572667D01*
X123786000Y-91756667D02*
X123786000Y-91056667D01*
X123619334Y-91056667D01*
X123519334Y-91090000D01*
X123452667Y-91156667D01*
X123419334Y-91223333D01*
X123386000Y-91356667D01*
X123386000Y-91456667D01*
X123419334Y-91590000D01*
X123452667Y-91656667D01*
X123519334Y-91723333D01*
X123619334Y-91756667D01*
X123786000Y-91756667D01*
X122719334Y-91756667D02*
X123119334Y-91756667D01*
X122919334Y-91756667D02*
X122919334Y-91056667D01*
X122986000Y-91156667D01*
X123052667Y-91223333D01*
X123119334Y-91256667D01*
X122452667Y-91123333D02*
X122419333Y-91090000D01*
X122352667Y-91056667D01*
X122186000Y-91056667D01*
X122119333Y-91090000D01*
X122086000Y-91123333D01*
X122052667Y-91190000D01*
X122052667Y-91256667D01*
X122086000Y-91356667D01*
X122486000Y-91756667D01*
X122052667Y-91756667D01*
X123786000Y-94296667D02*
X123786000Y-93596667D01*
X123619334Y-93596667D01*
X123519334Y-93630000D01*
X123452667Y-93696667D01*
X123419334Y-93763333D01*
X123386000Y-93896667D01*
X123386000Y-93996667D01*
X123419334Y-94130000D01*
X123452667Y-94196667D01*
X123519334Y-94263333D01*
X123619334Y-94296667D01*
X123786000Y-94296667D01*
X122719334Y-94296667D02*
X123119334Y-94296667D01*
X122919334Y-94296667D02*
X122919334Y-93596667D01*
X122986000Y-93696667D01*
X123052667Y-93763333D01*
X123119334Y-93796667D01*
X122486000Y-93596667D02*
X122052667Y-93596667D01*
X122286000Y-93863333D01*
X122186000Y-93863333D01*
X122119333Y-93896667D01*
X122086000Y-93930000D01*
X122052667Y-93996667D01*
X122052667Y-94163333D01*
X122086000Y-94230000D01*
X122119333Y-94263333D01*
X122186000Y-94296667D01*
X122386000Y-94296667D01*
X122452667Y-94263333D01*
X122486000Y-94230000D01*
X123786000Y-75246667D02*
X123786000Y-74546667D01*
X123619334Y-74546667D01*
X123519334Y-74580000D01*
X123452667Y-74646667D01*
X123419334Y-74713333D01*
X123386000Y-74846667D01*
X123386000Y-74946667D01*
X123419334Y-75080000D01*
X123452667Y-75146667D01*
X123519334Y-75213333D01*
X123619334Y-75246667D01*
X123786000Y-75246667D01*
X122719334Y-75246667D02*
X123119334Y-75246667D01*
X122919334Y-75246667D02*
X122919334Y-74546667D01*
X122986000Y-74646667D01*
X123052667Y-74713333D01*
X123119334Y-74746667D01*
X122119333Y-74780000D02*
X122119333Y-75246667D01*
X122286000Y-74513333D02*
X122452667Y-75013333D01*
X122019333Y-75013333D01*
X123786000Y-72706667D02*
X123786000Y-72006667D01*
X123619334Y-72006667D01*
X123519334Y-72040000D01*
X123452667Y-72106667D01*
X123419334Y-72173333D01*
X123386000Y-72306667D01*
X123386000Y-72406667D01*
X123419334Y-72540000D01*
X123452667Y-72606667D01*
X123519334Y-72673333D01*
X123619334Y-72706667D01*
X123786000Y-72706667D01*
X122719334Y-72706667D02*
X123119334Y-72706667D01*
X122919334Y-72706667D02*
X122919334Y-72006667D01*
X122986000Y-72106667D01*
X123052667Y-72173333D01*
X123119334Y-72206667D01*
X122086000Y-72006667D02*
X122419333Y-72006667D01*
X122452667Y-72340000D01*
X122419333Y-72306667D01*
X122352667Y-72273333D01*
X122186000Y-72273333D01*
X122119333Y-72306667D01*
X122086000Y-72340000D01*
X122052667Y-72406667D01*
X122052667Y-72573333D01*
X122086000Y-72640000D01*
X122119333Y-72673333D01*
X122186000Y-72706667D01*
X122352667Y-72706667D01*
X122419333Y-72673333D01*
X122452667Y-72640000D01*
X123786000Y-89216667D02*
X123786000Y-88516667D01*
X123619334Y-88516667D01*
X123519334Y-88550000D01*
X123452667Y-88616667D01*
X123419334Y-88683333D01*
X123386000Y-88816667D01*
X123386000Y-88916667D01*
X123419334Y-89050000D01*
X123452667Y-89116667D01*
X123519334Y-89183333D01*
X123619334Y-89216667D01*
X123786000Y-89216667D01*
X122719334Y-89216667D02*
X123119334Y-89216667D01*
X122919334Y-89216667D02*
X122919334Y-88516667D01*
X122986000Y-88616667D01*
X123052667Y-88683333D01*
X123119334Y-88716667D01*
X122119333Y-88516667D02*
X122252667Y-88516667D01*
X122319333Y-88550000D01*
X122352667Y-88583333D01*
X122419333Y-88683333D01*
X122452667Y-88816667D01*
X122452667Y-89083333D01*
X122419333Y-89150000D01*
X122386000Y-89183333D01*
X122319333Y-89216667D01*
X122186000Y-89216667D01*
X122119333Y-89183333D01*
X122086000Y-89150000D01*
X122052667Y-89083333D01*
X122052667Y-88916667D01*
X122086000Y-88850000D01*
X122119333Y-88816667D01*
X122186000Y-88783333D01*
X122319333Y-88783333D01*
X122386000Y-88816667D01*
X122419333Y-88850000D01*
X122452667Y-88916667D01*
X123786000Y-86676667D02*
X123786000Y-85976667D01*
X123619334Y-85976667D01*
X123519334Y-86010000D01*
X123452667Y-86076667D01*
X123419334Y-86143333D01*
X123386000Y-86276667D01*
X123386000Y-86376667D01*
X123419334Y-86510000D01*
X123452667Y-86576667D01*
X123519334Y-86643333D01*
X123619334Y-86676667D01*
X123786000Y-86676667D01*
X122719334Y-86676667D02*
X123119334Y-86676667D01*
X122919334Y-86676667D02*
X122919334Y-85976667D01*
X122986000Y-86076667D01*
X123052667Y-86143333D01*
X123119334Y-86176667D01*
X122486000Y-85976667D02*
X122019333Y-85976667D01*
X122319333Y-86676667D01*
M02*
