M48
;DRILL file {kicad (2015-04-05 BZR 5576)-product} date Wed 06 May 2015 19:42:50 SAST
;FORMAT={-:-/ absolute / inch / decimal}
FMAT,2
INCH,TZ
T1C0.016
T2C0.040
T3C0.118
T4C0.118
%
G90
G05
M72
T1
X4.63Y-4.6314
X4.793Y-4.851
X4.82Y-3.395
X4.825Y-2.895
X4.825Y-3.12
X4.865Y-5.022
X4.87Y-2.43
X4.893Y-2.554
X4.902Y-2.745
X4.938Y-5.047
X4.95Y-2.315
X4.95Y-3.87
X4.995Y-2.474
X4.995Y-2.675
X4.996Y-5.049
X4.999Y-2.427
X5.005Y-4.037
X5.009Y-4.84
X5.026Y-4.012
X5.031Y-4.351
X5.035Y-3.576
X5.035Y-3.919
X5.04Y-4.84
X5.048Y-3.988
X5.05Y-5.15
X5.062Y-3.836
X5.07Y-4.011
X5.07Y-4.216
X5.075Y-3.445
X5.084Y-4.887
X5.118Y-4.303
X5.15Y-4.329
X5.15Y-4.873
X5.162Y-4.623
X5.172Y-4.184
X5.19Y-3.592
X5.195Y-3.553
X5.198Y-4.207
X5.2Y-5.15
X5.202Y-4.149
X5.21Y-4.867
X5.245Y-2.39
X5.245Y-2.564
X5.245Y-4.857
X5.246Y-3.48
X5.262Y-4.83
X5.266Y-3.982
X5.267Y-3.935
X5.272Y-4.9929
X5.285Y-2.729
X5.298Y-3.613
X5.301Y-3.527
X5.308Y-4.312
X5.313Y-3.404
X5.323Y-3.499
X5.324Y-2.218
X5.3311Y-4.3329
X5.335Y-1.745
X5.34Y-2.723
X5.34Y-3.838
X5.349Y-3.574
X5.35Y-5.15
X5.351Y-3.982
X5.359Y-3.515
X5.365Y-5.221
X5.394Y-5.231
X5.397Y-5.2
X5.403Y-3.801
X5.41Y-3.523
X5.411Y-4.341
X5.425Y-4.287
X5.427Y-5.186
X5.43Y-1.88
X5.433Y-4.072
X5.455Y-3.615
X5.469Y-4.319
X5.471Y-4.903
X5.495Y-2.08
X5.5Y-5.15
X5.503Y-4.903
X5.511Y-4.346
X5.52Y-2.886
X5.52Y-3.518
X5.529Y-3.984
X5.55Y-2.915
X5.55Y-3.518
X5.551Y-4.885
X5.57Y-1.95
X5.58Y-2.887
X5.58Y-3.518
X5.591Y-4.819
X5.599Y-4.142
X5.6Y-4.641
X5.61Y-2.915
X5.61Y-3.518
X5.626Y-4.88
X5.628Y-4.842
X5.63Y-4.235
X5.631Y-4.565
X5.634Y-3.701
X5.635Y-4.268
X5.645Y-2.775
X5.65Y-5.15
X5.654Y-3.61
X5.654Y-3.766
X5.656Y-3.735
X5.68Y-3.657
X5.685Y-4.267
X5.687Y-3.61
X5.695Y-2.68
X5.717Y-3.787
X5.726Y-5.191
X5.74Y-2.775
X5.74Y-3.269
X5.743Y-4.677
X5.76Y-3.936
X5.762Y-3.362
X5.767Y-3.973
X5.773Y-4.863
X5.8Y-5.15
X5.815Y-2.825
X5.832Y-4.328
X5.851Y-2.088
X5.853Y-5.238
X5.887Y-5.238
X5.92Y-3.45
X5.935Y-2.335
X5.94Y-2.385
X5.96Y-2.43
X6.02Y-2.54
X6.053Y-3.023
X6.123Y-3.065
X6.26Y-2.25
X6.28Y-2.505
T2
X4.55Y-2.9
X4.55Y-3.
X4.55Y-3.1
X4.55Y-3.45
X4.55Y-3.55
X4.55Y-3.65
X4.55Y-4.05
X4.55Y-4.15
X4.55Y-4.25
X4.55Y-4.35
X4.55Y-4.45
X4.825Y-5.3
X4.825Y-5.4
X4.85Y-4.05
X4.85Y-4.15
X4.85Y-4.25
X4.85Y-4.35
X4.85Y-4.45
X4.925Y-5.3
X4.925Y-5.4
X4.95Y-2.9
X4.95Y-3.
X4.95Y-3.1
X4.95Y-3.45
X4.95Y-3.55
X4.95Y-3.65
X5.025Y-5.3
X5.025Y-5.4
X5.1Y-2.3
X5.125Y-5.3
X5.125Y-5.4
X5.2Y-2.3
X5.225Y-5.3
X5.225Y-5.4
X5.3Y-2.3
X5.325Y-5.3
X5.325Y-5.4
X5.425Y-5.3
X5.425Y-5.4
X5.525Y-5.3
X5.525Y-5.4
X5.625Y-5.3
X5.625Y-5.4
X5.725Y-5.3
X5.725Y-5.4
X5.825Y-5.3
X5.825Y-5.4
X5.925Y-5.3
X5.925Y-5.4
X6.Y-3.4
X6.Y-3.5
X6.Y-3.6
X6.Y-3.8
X6.Y-3.9
X6.Y-4.
X6.Y-4.1
X6.Y-4.2
X6.Y-4.3
X6.Y-4.4
X6.Y-4.5
X6.Y-5.
X6.Y-5.1
X6.2Y-2.6
X6.2Y-2.7
X6.2Y-2.8
X6.2Y-2.9
X6.2Y-3.
X6.2Y-3.1
X6.2Y-3.4
X6.2Y-3.5
X6.2Y-3.6
X6.2Y-3.8
X6.2Y-3.9
X6.2Y-4.
X6.2Y-4.1
X6.2Y-4.2
X6.2Y-4.3
X6.2Y-4.5
X6.2Y-4.6
X6.2Y-4.7
X6.2Y-4.9
X6.2Y-5.
X6.2Y-5.1
T4
X4.6Y-1.85
X4.6Y-5.35
X6.15Y-1.85
X6.15Y-5.35
T3
X5.015Y-1.926G85X5.015Y-1.926
G05
X5.2Y-1.8079G85X5.2Y-1.8079
G05
X5.2Y-2.0441G85X5.2Y-2.0441
G05
T0
M30
