M48
;DRILL file {kicad (2015-03-23 BZR 5533)-product} date Thu 07 May 2015 15:46:23 SAST
;FORMAT={-:-/ absolute / inch / decimal}
FMAT,2
INCH,TZ
T1C0.016
T2C0.039
T3C0.040
T4C0.118
%
G90
G05
M72
T1
X4.63Y-4.6314
X4.793Y-4.851
X4.82Y-3.355
X4.825Y-2.895
X4.825Y-3.12
X4.843Y-1.808
X4.865Y-5.022
X4.87Y-2.43
X4.893Y-2.554
X4.902Y-2.745
X4.938Y-5.047
X4.95Y-2.315
X4.95Y-3.87
X4.98Y-3.997
X4.989Y-4.808
X4.995Y-2.474
X4.995Y-2.675
X4.996Y-2.43
X4.999Y-5.046
X5.004Y-4.023
X5.012Y-4.838
X5.028Y-4.05
X5.034Y-4.353
X5.035Y-3.576
X5.035Y-3.907
X5.05Y-5.15
X5.052Y-4.025
X5.066Y-3.837
X5.074Y-4.901
X5.075Y-3.445
X5.076Y-4.249
X5.118Y-4.303
X5.136Y-4.149
X5.15Y-4.329
X5.157Y-4.867
X5.162Y-4.623
X5.172Y-4.184
X5.185Y-3.533
X5.191Y-3.57
X5.198Y-4.207
X5.2Y-5.15
X5.23Y-4.846
X5.245Y-2.39
X5.245Y-2.564
X5.246Y-3.454
X5.265Y-4.833
X5.266Y-3.982
X5.267Y-3.935
X5.272Y-5.033
X5.285Y-2.729
X5.291Y-3.601
X5.291Y-4.81
X5.294Y-4.338
X5.3Y-4.035
X5.304Y-3.386
X5.313Y-3.526
X5.324Y-2.218
X5.331Y-4.341
X5.34Y-2.723
X5.34Y-3.838
X5.341Y-3.497
X5.35Y-5.15
X5.351Y-3.982
X5.358Y-5.225
X5.361Y-3.549
X5.38Y-3.589
X5.394Y-5.231
X5.403Y-3.801
X5.41Y-3.523
X5.413Y-4.349
X5.415Y-4.289
X5.427Y-5.208
X5.43Y-1.88
X5.433Y-4.072
X5.444Y-2.869
X5.454Y-5.187
X5.455Y-3.615
X5.469Y-4.326
X5.477Y-4.907
X5.495Y-2.08
X5.5Y-5.15
X5.509Y-4.349
X5.515Y-4.914
X5.52Y-2.93
X5.529Y-3.984
X5.55Y-2.906
X5.561Y-3.515
X5.567Y-4.884
X5.57Y-1.95
X5.58Y-2.932
X5.597Y-3.515
X5.599Y-4.142
X5.6Y-4.641
X5.608Y-4.808
X5.61Y-2.906
X5.62Y-4.283
X5.626Y-4.88
X5.628Y-4.842
X5.63Y-4.235
X5.631Y-4.565
X5.632Y-3.514
X5.639Y-3.704
X5.645Y-2.775
X5.65Y-5.15
X5.656Y-3.735
X5.658Y-3.612
X5.669Y-3.514
X5.685Y-4.267
X5.689Y-3.742
X5.691Y-3.653
X5.695Y-2.68
X5.717Y-3.624
X5.719Y-3.782
X5.726Y-5.191
X5.74Y-2.775
X5.743Y-4.677
X5.76Y-4.837
X5.767Y-3.973
X5.775Y-3.33
X5.781Y-3.908
X5.782Y-3.269
X5.8Y-5.15
X5.815Y-2.825
X5.832Y-4.328
X5.851Y-2.088
X5.869Y-5.227
X5.905Y-5.227
X5.92Y-3.45
X5.935Y-2.335
X5.94Y-2.385
X5.96Y-2.43
X6.02Y-2.54
X6.053Y-3.023
X6.123Y-3.065
X6.26Y-2.25
X6.28Y-2.505
T3
X4.55Y-2.9
X4.55Y-3.
X4.55Y-3.1
X4.55Y-3.45
X4.55Y-3.55
X4.55Y-3.65
X4.55Y-4.05
X4.55Y-4.15
X4.55Y-4.25
X4.55Y-4.35
X4.55Y-4.45
X4.825Y-5.3
X4.825Y-5.4
X4.85Y-4.05
X4.85Y-4.15
X4.85Y-4.25
X4.85Y-4.35
X4.85Y-4.45
X4.925Y-5.3
X4.925Y-5.4
X4.95Y-2.9
X4.95Y-3.
X4.95Y-3.1
X4.95Y-3.45
X4.95Y-3.55
X4.95Y-3.65
X5.025Y-5.3
X5.025Y-5.4
X5.1Y-2.3
X5.125Y-5.3
X5.125Y-5.4
X5.2Y-2.3
X5.225Y-5.3
X5.225Y-5.4
X5.3Y-2.3
X5.325Y-5.3
X5.325Y-5.4
X5.425Y-5.3
X5.425Y-5.4
X5.525Y-5.3
X5.525Y-5.4
X5.625Y-5.3
X5.625Y-5.4
X5.725Y-5.3
X5.725Y-5.4
X5.825Y-5.3
X5.825Y-5.4
X5.925Y-5.3
X5.925Y-5.4
X6.Y-3.4
X6.Y-3.5
X6.Y-3.6
X6.Y-3.8
X6.Y-3.9
X6.Y-4.
X6.Y-4.1
X6.Y-4.2
X6.Y-4.3
X6.Y-4.4
X6.Y-4.5
X6.Y-5.
X6.Y-5.1
X6.2Y-2.6
X6.2Y-2.7
X6.2Y-2.8
X6.2Y-2.9
X6.2Y-3.
X6.2Y-3.1
X6.2Y-3.4
X6.2Y-3.5
X6.2Y-3.6
X6.2Y-3.8
X6.2Y-3.9
X6.2Y-4.
X6.2Y-4.1
X6.2Y-4.2
X6.2Y-4.3
X6.2Y-4.5
X6.2Y-4.6
X6.2Y-4.7
X6.2Y-4.9
X6.2Y-5.
X6.2Y-5.1
T4
X4.6Y-1.85
X4.6Y-5.35
X6.15Y-1.85
X6.15Y-5.35
T2
X5.01Y-1.8866G85X5.01Y-1.9653
G05
X5.2344Y-1.8079G85X5.1556Y-1.8079
G05
X5.2344Y-2.0441G85X5.1556Y-2.0441
G05
T0
M30
