G04 #@! TF.FileFunction,Soldermask,Top*
%FSLAX46Y46*%
G04 Gerber Fmt 4.6, Leading zero omitted, Abs format (unit mm)*
G04 Created by KiCad (PCBNEW (2015-03-23 BZR 5533)-product) date Thu 23 Apr 2015 16:19:24 SAST*
%MOMM*%
G01*
G04 APERTURE LIST*
%ADD10C,0.100000*%
%ADD11C,0.150000*%
%ADD12C,0.300000*%
%ADD13C,0.400000*%
%ADD14R,1.600000X1.000000*%
%ADD15R,1.000000X1.600000*%
%ADD16R,3.500120X3.500120*%
%ADD17R,1.800860X1.597660*%
%ADD18R,1.597660X1.800860*%
%ADD19R,1.727200X2.032000*%
%ADD20O,1.727200X2.032000*%
%ADD21R,2.032000X1.727200*%
%ADD22O,2.032000X1.727200*%
%ADD23R,2.032000X2.032000*%
%ADD24O,2.032000X2.032000*%
%ADD25R,0.900000X1.700000*%
%ADD26R,6.000000X8.000000*%
%ADD27R,2.032000X1.016000*%
%ADD28R,3.000000X2.300000*%
%ADD29C,4.000000*%
%ADD30R,1.727200X1.727200*%
%ADD31O,1.727200X1.727200*%
%ADD32R,1.800000X2.300000*%
%ADD33R,2.300000X1.800000*%
%ADD34R,3.000000X0.400000*%
%ADD35R,0.300000X2.500000*%
%ADD36R,2.500000X0.300000*%
G04 APERTURE END LIST*
D10*
D11*
X177002200Y-166007200D02*
X177002200Y-198007200D01*
X285002200Y-198007200D01*
X285002200Y-166007200D01*
X177002200Y-166007200D01*
D10*
D11*
X10000000Y-10000000D02*
X10000000Y-200007200D01*
X287002200Y-200007200D01*
X287002200Y-10000000D01*
X10000000Y-10000000D01*
D10*
D11*
X12000000Y-12000000D02*
X12000000Y-198007200D01*
X285002200Y-198007200D01*
X285002200Y-12000000D01*
X12000000Y-12000000D01*
D10*
D11*
X60000000Y-12000000D02*
X60000000Y-10000000D01*
D10*
D11*
X110000000Y-12000000D02*
X110000000Y-10000000D01*
D10*
D11*
X160000000Y-12000000D02*
X160000000Y-10000000D01*
D10*
D11*
X210000000Y-12000000D02*
X210000000Y-10000000D01*
D10*
D11*
X260000000Y-12000000D02*
X260000000Y-10000000D01*
D10*
D11*
X35990476Y-11588095D02*
X35247619Y-11588095D01*
X35619048Y-11588095D02*
X35619048Y-10288095D01*
X35495238Y-10473810D01*
X35371429Y-10597619D01*
X35247619Y-10659524D01*
D10*
D11*
X85247619Y-10411905D02*
X85309524Y-10350000D01*
X85433333Y-10288095D01*
X85742857Y-10288095D01*
X85866667Y-10350000D01*
X85928571Y-10411905D01*
X85990476Y-10535714D01*
X85990476Y-10659524D01*
X85928571Y-10845238D01*
X85185714Y-11588095D01*
X85990476Y-11588095D01*
D10*
D11*
X135185714Y-10288095D02*
X135990476Y-10288095D01*
X135557143Y-10783333D01*
X135742857Y-10783333D01*
X135866667Y-10845238D01*
X135928571Y-10907143D01*
X135990476Y-11030952D01*
X135990476Y-11340476D01*
X135928571Y-11464286D01*
X135866667Y-11526190D01*
X135742857Y-11588095D01*
X135371429Y-11588095D01*
X135247619Y-11526190D01*
X135185714Y-11464286D01*
D10*
D11*
X185866667Y-10721429D02*
X185866667Y-11588095D01*
X185557143Y-10226190D02*
X185247619Y-11154762D01*
X186052381Y-11154762D01*
D10*
D11*
X235928571Y-10288095D02*
X235309524Y-10288095D01*
X235247619Y-10907143D01*
X235309524Y-10845238D01*
X235433333Y-10783333D01*
X235742857Y-10783333D01*
X235866667Y-10845238D01*
X235928571Y-10907143D01*
X235990476Y-11030952D01*
X235990476Y-11340476D01*
X235928571Y-11464286D01*
X235866667Y-11526190D01*
X235742857Y-11588095D01*
X235433333Y-11588095D01*
X235309524Y-11526190D01*
X235247619Y-11464286D01*
D10*
D11*
X285866667Y-10288095D02*
X285619048Y-10288095D01*
X285495238Y-10350000D01*
X285433333Y-10411905D01*
X285309524Y-10597619D01*
X285247619Y-10845238D01*
X285247619Y-11340476D01*
X285309524Y-11464286D01*
X285371429Y-11526190D01*
X285495238Y-11588095D01*
X285742857Y-11588095D01*
X285866667Y-11526190D01*
X285928571Y-11464286D01*
X285990476Y-11340476D01*
X285990476Y-11030952D01*
X285928571Y-10907143D01*
X285866667Y-10845238D01*
X285742857Y-10783333D01*
X285495238Y-10783333D01*
X285371429Y-10845238D01*
X285309524Y-10907143D01*
X285247619Y-11030952D01*
D10*
D11*
X60000000Y-198007200D02*
X60000000Y-200007200D01*
D10*
D11*
X110000000Y-198007200D02*
X110000000Y-200007200D01*
D10*
D11*
X160000000Y-198007200D02*
X160000000Y-200007200D01*
D10*
D11*
X210000000Y-198007200D02*
X210000000Y-200007200D01*
D10*
D11*
X260000000Y-198007200D02*
X260000000Y-200007200D01*
D10*
D11*
X35990476Y-199595295D02*
X35247619Y-199595295D01*
X35619048Y-199595295D02*
X35619048Y-198295295D01*
X35495238Y-198481010D01*
X35371429Y-198604819D01*
X35247619Y-198666724D01*
D10*
D11*
X85247619Y-198419105D02*
X85309524Y-198357200D01*
X85433333Y-198295295D01*
X85742857Y-198295295D01*
X85866667Y-198357200D01*
X85928571Y-198419105D01*
X85990476Y-198542914D01*
X85990476Y-198666724D01*
X85928571Y-198852438D01*
X85185714Y-199595295D01*
X85990476Y-199595295D01*
D10*
D11*
X135185714Y-198295295D02*
X135990476Y-198295295D01*
X135557143Y-198790533D01*
X135742857Y-198790533D01*
X135866667Y-198852438D01*
X135928571Y-198914343D01*
X135990476Y-199038152D01*
X135990476Y-199347676D01*
X135928571Y-199471486D01*
X135866667Y-199533390D01*
X135742857Y-199595295D01*
X135371429Y-199595295D01*
X135247619Y-199533390D01*
X135185714Y-199471486D01*
D10*
D11*
X185866667Y-198728629D02*
X185866667Y-199595295D01*
X185557143Y-198233390D02*
X185247619Y-199161962D01*
X186052381Y-199161962D01*
D10*
D11*
X235928571Y-198295295D02*
X235309524Y-198295295D01*
X235247619Y-198914343D01*
X235309524Y-198852438D01*
X235433333Y-198790533D01*
X235742857Y-198790533D01*
X235866667Y-198852438D01*
X235928571Y-198914343D01*
X235990476Y-199038152D01*
X235990476Y-199347676D01*
X235928571Y-199471486D01*
X235866667Y-199533390D01*
X235742857Y-199595295D01*
X235433333Y-199595295D01*
X235309524Y-199533390D01*
X235247619Y-199471486D01*
D10*
D11*
X285866667Y-198295295D02*
X285619048Y-198295295D01*
X285495238Y-198357200D01*
X285433333Y-198419105D01*
X285309524Y-198604819D01*
X285247619Y-198852438D01*
X285247619Y-199347676D01*
X285309524Y-199471486D01*
X285371429Y-199533390D01*
X285495238Y-199595295D01*
X285742857Y-199595295D01*
X285866667Y-199533390D01*
X285928571Y-199471486D01*
X285990476Y-199347676D01*
X285990476Y-199038152D01*
X285928571Y-198914343D01*
X285866667Y-198852438D01*
X285742857Y-198790533D01*
X285495238Y-198790533D01*
X285371429Y-198852438D01*
X285309524Y-198914343D01*
X285247619Y-199038152D01*
D10*
D11*
X10000000Y-60000000D02*
X12000000Y-60000000D01*
D10*
D11*
X10000000Y-110000000D02*
X12000000Y-110000000D01*
D10*
D11*
X10000000Y-160000000D02*
X12000000Y-160000000D01*
D10*
D11*
X10690476Y-35216667D02*
X11309524Y-35216667D01*
X10566667Y-35588095D02*
X11000000Y-34288095D01*
X11433333Y-35588095D01*
D10*
D11*
X11092857Y-84907143D02*
X11278571Y-84969048D01*
X11340476Y-85030952D01*
X11402381Y-85154762D01*
X11402381Y-85340476D01*
X11340476Y-85464286D01*
X11278571Y-85526190D01*
X11154762Y-85588095D01*
X10659524Y-85588095D01*
X10659524Y-84288095D01*
X11092857Y-84288095D01*
X11216667Y-84350000D01*
X11278571Y-84411905D01*
X11340476Y-84535714D01*
X11340476Y-84659524D01*
X11278571Y-84783333D01*
X11216667Y-84845238D01*
X11092857Y-84907143D01*
X10659524Y-84907143D01*
D10*
D11*
X11402381Y-135464286D02*
X11340476Y-135526190D01*
X11154762Y-135588095D01*
X11030952Y-135588095D01*
X10845238Y-135526190D01*
X10721429Y-135402381D01*
X10659524Y-135278571D01*
X10597619Y-135030952D01*
X10597619Y-134845238D01*
X10659524Y-134597619D01*
X10721429Y-134473810D01*
X10845238Y-134350000D01*
X11030952Y-134288095D01*
X11154762Y-134288095D01*
X11340476Y-134350000D01*
X11402381Y-134411905D01*
D10*
D11*
X10659524Y-185588095D02*
X10659524Y-184288095D01*
X10969048Y-184288095D01*
X11154762Y-184350000D01*
X11278571Y-184473810D01*
X11340476Y-184597619D01*
X11402381Y-184845238D01*
X11402381Y-185030952D01*
X11340476Y-185278571D01*
X11278571Y-185402381D01*
X11154762Y-185526190D01*
X10969048Y-185588095D01*
X10659524Y-185588095D01*
D10*
D11*
X287002200Y-60000000D02*
X285002200Y-60000000D01*
D10*
D11*
X287002200Y-110000000D02*
X285002200Y-110000000D01*
D10*
D11*
X287002200Y-160000000D02*
X285002200Y-160000000D01*
D10*
D11*
X285692676Y-35216667D02*
X286311724Y-35216667D01*
X285568867Y-35588095D02*
X286002200Y-34288095D01*
X286435533Y-35588095D01*
D10*
D11*
X286095057Y-84907143D02*
X286280771Y-84969048D01*
X286342676Y-85030952D01*
X286404581Y-85154762D01*
X286404581Y-85340476D01*
X286342676Y-85464286D01*
X286280771Y-85526190D01*
X286156962Y-85588095D01*
X285661724Y-85588095D01*
X285661724Y-84288095D01*
X286095057Y-84288095D01*
X286218867Y-84350000D01*
X286280771Y-84411905D01*
X286342676Y-84535714D01*
X286342676Y-84659524D01*
X286280771Y-84783333D01*
X286218867Y-84845238D01*
X286095057Y-84907143D01*
X285661724Y-84907143D01*
D10*
D11*
X286404581Y-135464286D02*
X286342676Y-135526190D01*
X286156962Y-135588095D01*
X286033152Y-135588095D01*
X285847438Y-135526190D01*
X285723629Y-135402381D01*
X285661724Y-135278571D01*
X285599819Y-135030952D01*
X285599819Y-134845238D01*
X285661724Y-134597619D01*
X285723629Y-134473810D01*
X285847438Y-134350000D01*
X286033152Y-134288095D01*
X286156962Y-134288095D01*
X286342676Y-134350000D01*
X286404581Y-134411905D01*
D10*
D11*
X285661724Y-185588095D02*
X285661724Y-184288095D01*
X285971248Y-184288095D01*
X286156962Y-184350000D01*
X286280771Y-184473810D01*
X286342676Y-184597619D01*
X286404581Y-184845238D01*
X286404581Y-185030952D01*
X286342676Y-185278571D01*
X286280771Y-185402381D01*
X286156962Y-185526190D01*
X285971248Y-185588095D01*
X285661724Y-185588095D01*
D10*
D11*
X200359343Y-193785771D02*
X200359343Y-192285771D01*
X200716486Y-192285771D01*
X200930771Y-192357200D01*
X201073629Y-192500057D01*
X201145057Y-192642914D01*
X201216486Y-192928629D01*
X201216486Y-193142914D01*
X201145057Y-193428629D01*
X201073629Y-193571486D01*
X200930771Y-193714343D01*
X200716486Y-193785771D01*
X200359343Y-193785771D01*
X202502200Y-193785771D02*
X202502200Y-193000057D01*
X202430771Y-192857200D01*
X202287914Y-192785771D01*
X202002200Y-192785771D01*
X201859343Y-192857200D01*
X202502200Y-193714343D02*
X202359343Y-193785771D01*
X202002200Y-193785771D01*
X201859343Y-193714343D01*
X201787914Y-193571486D01*
X201787914Y-193428629D01*
X201859343Y-193285771D01*
X202002200Y-193214343D01*
X202359343Y-193214343D01*
X202502200Y-193142914D01*
X203002200Y-192785771D02*
X203573629Y-192785771D01*
X203216486Y-192285771D02*
X203216486Y-193571486D01*
X203287914Y-193714343D01*
X203430772Y-193785771D01*
X203573629Y-193785771D01*
X204645057Y-193714343D02*
X204502200Y-193785771D01*
X204216486Y-193785771D01*
X204073629Y-193714343D01*
X204002200Y-193571486D01*
X204002200Y-193000057D01*
X204073629Y-192857200D01*
X204216486Y-192785771D01*
X204502200Y-192785771D01*
X204645057Y-192857200D01*
X204716486Y-193000057D01*
X204716486Y-193142914D01*
X204002200Y-193285771D01*
X205359343Y-193642914D02*
X205430771Y-193714343D01*
X205359343Y-193785771D01*
X205287914Y-193714343D01*
X205359343Y-193642914D01*
X205359343Y-193785771D01*
X205359343Y-192857200D02*
X205430771Y-192928629D01*
X205359343Y-193000057D01*
X205287914Y-192928629D01*
X205359343Y-192857200D01*
X205359343Y-193000057D01*
D10*
D11*
X177002200Y-194507200D02*
X285002200Y-194507200D01*
D10*
D11*
X178359343Y-196585771D02*
X178359343Y-195085771D01*
X179216486Y-196585771D02*
X178573629Y-195728629D01*
X179216486Y-195085771D02*
X178359343Y-195942914D01*
X179859343Y-196585771D02*
X179859343Y-195585771D01*
X179859343Y-195085771D02*
X179787914Y-195157200D01*
X179859343Y-195228629D01*
X179930771Y-195157200D01*
X179859343Y-195085771D01*
X179859343Y-195228629D01*
X181430772Y-196442914D02*
X181359343Y-196514343D01*
X181145057Y-196585771D01*
X181002200Y-196585771D01*
X180787915Y-196514343D01*
X180645057Y-196371486D01*
X180573629Y-196228629D01*
X180502200Y-195942914D01*
X180502200Y-195728629D01*
X180573629Y-195442914D01*
X180645057Y-195300057D01*
X180787915Y-195157200D01*
X181002200Y-195085771D01*
X181145057Y-195085771D01*
X181359343Y-195157200D01*
X181430772Y-195228629D01*
X182716486Y-196585771D02*
X182716486Y-195800057D01*
X182645057Y-195657200D01*
X182502200Y-195585771D01*
X182216486Y-195585771D01*
X182073629Y-195657200D01*
X182716486Y-196514343D02*
X182573629Y-196585771D01*
X182216486Y-196585771D01*
X182073629Y-196514343D01*
X182002200Y-196371486D01*
X182002200Y-196228629D01*
X182073629Y-196085771D01*
X182216486Y-196014343D01*
X182573629Y-196014343D01*
X182716486Y-195942914D01*
X184073629Y-196585771D02*
X184073629Y-195085771D01*
X184073629Y-196514343D02*
X183930772Y-196585771D01*
X183645058Y-196585771D01*
X183502200Y-196514343D01*
X183430772Y-196442914D01*
X183359343Y-196300057D01*
X183359343Y-195871486D01*
X183430772Y-195728629D01*
X183502200Y-195657200D01*
X183645058Y-195585771D01*
X183930772Y-195585771D01*
X184073629Y-195657200D01*
X185930772Y-195800057D02*
X186430772Y-195800057D01*
X186645058Y-196585771D02*
X185930772Y-196585771D01*
X185930772Y-195085771D01*
X186645058Y-195085771D01*
X187287915Y-196442914D02*
X187359343Y-196514343D01*
X187287915Y-196585771D01*
X187216486Y-196514343D01*
X187287915Y-196442914D01*
X187287915Y-196585771D01*
X188002201Y-196585771D02*
X188002201Y-195085771D01*
X188359344Y-195085771D01*
X188573629Y-195157200D01*
X188716487Y-195300057D01*
X188787915Y-195442914D01*
X188859344Y-195728629D01*
X188859344Y-195942914D01*
X188787915Y-196228629D01*
X188716487Y-196371486D01*
X188573629Y-196514343D01*
X188359344Y-196585771D01*
X188002201Y-196585771D01*
X189502201Y-196442914D02*
X189573629Y-196514343D01*
X189502201Y-196585771D01*
X189430772Y-196514343D01*
X189502201Y-196442914D01*
X189502201Y-196585771D01*
X190145058Y-196157200D02*
X190859344Y-196157200D01*
X190002201Y-196585771D02*
X190502201Y-195085771D01*
X191002201Y-196585771D01*
X191502201Y-196442914D02*
X191573629Y-196514343D01*
X191502201Y-196585771D01*
X191430772Y-196514343D01*
X191502201Y-196442914D01*
X191502201Y-196585771D01*
X194502201Y-196585771D02*
X194502201Y-195085771D01*
X194645058Y-196014343D02*
X195073629Y-196585771D01*
X195073629Y-195585771D02*
X194502201Y-196157200D01*
X195716487Y-196585771D02*
X195716487Y-195585771D01*
X195716487Y-195085771D02*
X195645058Y-195157200D01*
X195716487Y-195228629D01*
X195787915Y-195157200D01*
X195716487Y-195085771D01*
X195716487Y-195228629D01*
X197073630Y-196514343D02*
X196930773Y-196585771D01*
X196645059Y-196585771D01*
X196502201Y-196514343D01*
X196430773Y-196442914D01*
X196359344Y-196300057D01*
X196359344Y-195871486D01*
X196430773Y-195728629D01*
X196502201Y-195657200D01*
X196645059Y-195585771D01*
X196930773Y-195585771D01*
X197073630Y-195657200D01*
X198359344Y-196585771D02*
X198359344Y-195800057D01*
X198287915Y-195657200D01*
X198145058Y-195585771D01*
X197859344Y-195585771D01*
X197716487Y-195657200D01*
X198359344Y-196514343D02*
X198216487Y-196585771D01*
X197859344Y-196585771D01*
X197716487Y-196514343D01*
X197645058Y-196371486D01*
X197645058Y-196228629D01*
X197716487Y-196085771D01*
X197859344Y-196014343D01*
X198216487Y-196014343D01*
X198359344Y-195942914D01*
X199716487Y-196585771D02*
X199716487Y-195085771D01*
X199716487Y-196514343D02*
X199573630Y-196585771D01*
X199287916Y-196585771D01*
X199145058Y-196514343D01*
X199073630Y-196442914D01*
X199002201Y-196300057D01*
X199002201Y-195871486D01*
X199073630Y-195728629D01*
X199145058Y-195657200D01*
X199287916Y-195585771D01*
X199573630Y-195585771D01*
X199716487Y-195657200D01*
X202002201Y-197157200D02*
X201930773Y-197085771D01*
X201787916Y-196871486D01*
X201716487Y-196728629D01*
X201645058Y-196514343D01*
X201573630Y-196157200D01*
X201573630Y-195871486D01*
X201645058Y-195514343D01*
X201716487Y-195300057D01*
X201787916Y-195157200D01*
X201930773Y-194942914D01*
X202002201Y-194871486D01*
X202502201Y-195228629D02*
X202573630Y-195157200D01*
X202716487Y-195085771D01*
X203073630Y-195085771D01*
X203216487Y-195157200D01*
X203287916Y-195228629D01*
X203359344Y-195371486D01*
X203359344Y-195514343D01*
X203287916Y-195728629D01*
X202430773Y-196585771D01*
X203359344Y-196585771D01*
X204287915Y-195085771D02*
X204430772Y-195085771D01*
X204573629Y-195157200D01*
X204645058Y-195228629D01*
X204716487Y-195371486D01*
X204787915Y-195657200D01*
X204787915Y-196014343D01*
X204716487Y-196300057D01*
X204645058Y-196442914D01*
X204573629Y-196514343D01*
X204430772Y-196585771D01*
X204287915Y-196585771D01*
X204145058Y-196514343D01*
X204073629Y-196442914D01*
X204002201Y-196300057D01*
X203930772Y-196014343D01*
X203930772Y-195657200D01*
X204002201Y-195371486D01*
X204073629Y-195228629D01*
X204145058Y-195157200D01*
X204287915Y-195085771D01*
X206216486Y-196585771D02*
X205359343Y-196585771D01*
X205787915Y-196585771D02*
X205787915Y-195085771D01*
X205645058Y-195300057D01*
X205502200Y-195442914D01*
X205359343Y-195514343D01*
X207573629Y-195085771D02*
X206859343Y-195085771D01*
X206787914Y-195800057D01*
X206859343Y-195728629D01*
X207002200Y-195657200D01*
X207359343Y-195657200D01*
X207502200Y-195728629D01*
X207573629Y-195800057D01*
X207645057Y-195942914D01*
X207645057Y-196300057D01*
X207573629Y-196442914D01*
X207502200Y-196514343D01*
X207359343Y-196585771D01*
X207002200Y-196585771D01*
X206859343Y-196514343D01*
X206787914Y-196442914D01*
X208287914Y-196014343D02*
X209430771Y-196014343D01*
X210430771Y-195085771D02*
X210573628Y-195085771D01*
X210716485Y-195157200D01*
X210787914Y-195228629D01*
X210859343Y-195371486D01*
X210930771Y-195657200D01*
X210930771Y-196014343D01*
X210859343Y-196300057D01*
X210787914Y-196442914D01*
X210716485Y-196514343D01*
X210573628Y-196585771D01*
X210430771Y-196585771D01*
X210287914Y-196514343D01*
X210216485Y-196442914D01*
X210145057Y-196300057D01*
X210073628Y-196014343D01*
X210073628Y-195657200D01*
X210145057Y-195371486D01*
X210216485Y-195228629D01*
X210287914Y-195157200D01*
X210430771Y-195085771D01*
X211430771Y-195085771D02*
X212359342Y-195085771D01*
X211859342Y-195657200D01*
X212073628Y-195657200D01*
X212216485Y-195728629D01*
X212287914Y-195800057D01*
X212359342Y-195942914D01*
X212359342Y-196300057D01*
X212287914Y-196442914D01*
X212216485Y-196514343D01*
X212073628Y-196585771D01*
X211645056Y-196585771D01*
X211502199Y-196514343D01*
X211430771Y-196442914D01*
X213002199Y-196014343D02*
X214145056Y-196014343D01*
X214787913Y-195228629D02*
X214859342Y-195157200D01*
X215002199Y-195085771D01*
X215359342Y-195085771D01*
X215502199Y-195157200D01*
X215573628Y-195228629D01*
X215645056Y-195371486D01*
X215645056Y-195514343D01*
X215573628Y-195728629D01*
X214716485Y-196585771D01*
X215645056Y-196585771D01*
X216145056Y-195085771D02*
X217073627Y-195085771D01*
X216573627Y-195657200D01*
X216787913Y-195657200D01*
X216930770Y-195728629D01*
X217002199Y-195800057D01*
X217073627Y-195942914D01*
X217073627Y-196300057D01*
X217002199Y-196442914D01*
X216930770Y-196514343D01*
X216787913Y-196585771D01*
X216359341Y-196585771D01*
X216216484Y-196514343D01*
X216145056Y-196442914D01*
X219359341Y-195800057D02*
X219573627Y-195871486D01*
X219645055Y-195942914D01*
X219716484Y-196085771D01*
X219716484Y-196300057D01*
X219645055Y-196442914D01*
X219573627Y-196514343D01*
X219430769Y-196585771D01*
X218859341Y-196585771D01*
X218859341Y-195085771D01*
X219359341Y-195085771D01*
X219502198Y-195157200D01*
X219573627Y-195228629D01*
X219645055Y-195371486D01*
X219645055Y-195514343D01*
X219573627Y-195657200D01*
X219502198Y-195728629D01*
X219359341Y-195800057D01*
X218859341Y-195800057D01*
X220216484Y-195085771D02*
X221216484Y-195085771D01*
X220216484Y-196585771D01*
X221216484Y-196585771D01*
X222645055Y-196585771D02*
X222145055Y-195871486D01*
X221787912Y-196585771D02*
X221787912Y-195085771D01*
X222359340Y-195085771D01*
X222502198Y-195157200D01*
X222573626Y-195228629D01*
X222645055Y-195371486D01*
X222645055Y-195585771D01*
X222573626Y-195728629D01*
X222502198Y-195800057D01*
X222359340Y-195871486D01*
X221787912Y-195871486D01*
X225145055Y-195085771D02*
X224430769Y-195085771D01*
X224359340Y-195800057D01*
X224430769Y-195728629D01*
X224573626Y-195657200D01*
X224930769Y-195657200D01*
X225073626Y-195728629D01*
X225145055Y-195800057D01*
X225216483Y-195942914D01*
X225216483Y-196300057D01*
X225145055Y-196442914D01*
X225073626Y-196514343D01*
X224930769Y-196585771D01*
X224573626Y-196585771D01*
X224430769Y-196514343D01*
X224359340Y-196442914D01*
X226573626Y-195085771D02*
X225859340Y-195085771D01*
X225787911Y-195800057D01*
X225859340Y-195728629D01*
X226002197Y-195657200D01*
X226359340Y-195657200D01*
X226502197Y-195728629D01*
X226573626Y-195800057D01*
X226645054Y-195942914D01*
X226645054Y-196300057D01*
X226573626Y-196442914D01*
X226502197Y-196514343D01*
X226359340Y-196585771D01*
X226002197Y-196585771D01*
X225859340Y-196514343D01*
X225787911Y-196442914D01*
X227145054Y-195085771D02*
X228073625Y-195085771D01*
X227573625Y-195657200D01*
X227787911Y-195657200D01*
X227930768Y-195728629D01*
X228002197Y-195800057D01*
X228073625Y-195942914D01*
X228073625Y-196300057D01*
X228002197Y-196442914D01*
X227930768Y-196514343D01*
X227787911Y-196585771D01*
X227359339Y-196585771D01*
X227216482Y-196514343D01*
X227145054Y-196442914D01*
X228573625Y-195085771D02*
X229502196Y-195085771D01*
X229002196Y-195657200D01*
X229216482Y-195657200D01*
X229359339Y-195728629D01*
X229430768Y-195800057D01*
X229502196Y-195942914D01*
X229502196Y-196300057D01*
X229430768Y-196442914D01*
X229359339Y-196514343D01*
X229216482Y-196585771D01*
X228787910Y-196585771D01*
X228645053Y-196514343D01*
X228573625Y-196442914D01*
X230002196Y-197157200D02*
X230073624Y-197085771D01*
X230216481Y-196871486D01*
X230287910Y-196728629D01*
X230359339Y-196514343D01*
X230430767Y-196157200D01*
X230430767Y-195871486D01*
X230359339Y-195514343D01*
X230287910Y-195300057D01*
X230216481Y-195157200D01*
X230073624Y-194942914D01*
X230002196Y-194871486D01*
X231145053Y-196014343D02*
X232287910Y-196014343D01*
X233002196Y-195585771D02*
X233002196Y-197085771D01*
X233002196Y-195657200D02*
X233145053Y-195585771D01*
X233430767Y-195585771D01*
X233573624Y-195657200D01*
X233645053Y-195728629D01*
X233716482Y-195871486D01*
X233716482Y-196300057D01*
X233645053Y-196442914D01*
X233573624Y-196514343D01*
X233430767Y-196585771D01*
X233145053Y-196585771D01*
X233002196Y-196514343D01*
X234359339Y-196585771D02*
X234359339Y-195585771D01*
X234359339Y-195871486D02*
X234430767Y-195728629D01*
X234502196Y-195657200D01*
X234645053Y-195585771D01*
X234787910Y-195585771D01*
X235502196Y-196585771D02*
X235359338Y-196514343D01*
X235287910Y-196442914D01*
X235216481Y-196300057D01*
X235216481Y-195871486D01*
X235287910Y-195728629D01*
X235359338Y-195657200D01*
X235502196Y-195585771D01*
X235716481Y-195585771D01*
X235859338Y-195657200D01*
X235930767Y-195728629D01*
X236002196Y-195871486D01*
X236002196Y-196300057D01*
X235930767Y-196442914D01*
X235859338Y-196514343D01*
X235716481Y-196585771D01*
X235502196Y-196585771D01*
X237287910Y-196585771D02*
X237287910Y-195085771D01*
X237287910Y-196514343D02*
X237145053Y-196585771D01*
X236859339Y-196585771D01*
X236716481Y-196514343D01*
X236645053Y-196442914D01*
X236573624Y-196300057D01*
X236573624Y-195871486D01*
X236645053Y-195728629D01*
X236716481Y-195657200D01*
X236859339Y-195585771D01*
X237145053Y-195585771D01*
X237287910Y-195657200D01*
X238645053Y-195585771D02*
X238645053Y-196585771D01*
X238002196Y-195585771D02*
X238002196Y-196371486D01*
X238073624Y-196514343D01*
X238216482Y-196585771D01*
X238430767Y-196585771D01*
X238573624Y-196514343D01*
X238645053Y-196442914D01*
X240002196Y-196514343D02*
X239859339Y-196585771D01*
X239573625Y-196585771D01*
X239430767Y-196514343D01*
X239359339Y-196442914D01*
X239287910Y-196300057D01*
X239287910Y-195871486D01*
X239359339Y-195728629D01*
X239430767Y-195657200D01*
X239573625Y-195585771D01*
X239859339Y-195585771D01*
X240002196Y-195657200D01*
X240430767Y-195585771D02*
X241002196Y-195585771D01*
X240645053Y-195085771D02*
X240645053Y-196371486D01*
X240716481Y-196514343D01*
X240859339Y-196585771D01*
X241002196Y-196585771D01*
D10*
D11*
X177002200Y-191507200D02*
X285002200Y-191507200D01*
D10*
D12*
X264216486Y-193785771D02*
X263716486Y-193071486D01*
X263359343Y-193785771D02*
X263359343Y-192285771D01*
X263930771Y-192285771D01*
X264073629Y-192357200D01*
X264145057Y-192428629D01*
X264216486Y-192571486D01*
X264216486Y-192785771D01*
X264145057Y-192928629D01*
X264073629Y-193000057D01*
X263930771Y-193071486D01*
X263359343Y-193071486D01*
X265430771Y-193714343D02*
X265287914Y-193785771D01*
X265002200Y-193785771D01*
X264859343Y-193714343D01*
X264787914Y-193571486D01*
X264787914Y-193000057D01*
X264859343Y-192857200D01*
X265002200Y-192785771D01*
X265287914Y-192785771D01*
X265430771Y-192857200D01*
X265502200Y-193000057D01*
X265502200Y-193142914D01*
X264787914Y-193285771D01*
X266002200Y-192785771D02*
X266359343Y-193785771D01*
X266716485Y-192785771D01*
X267287914Y-193642914D02*
X267359342Y-193714343D01*
X267287914Y-193785771D01*
X267216485Y-193714343D01*
X267287914Y-193642914D01*
X267287914Y-193785771D01*
X267287914Y-192857200D02*
X267359342Y-192928629D01*
X267287914Y-193000057D01*
X267216485Y-192928629D01*
X267287914Y-192857200D01*
X267287914Y-193000057D01*
D10*
D11*
X178287914Y-193714343D02*
X178502200Y-193785771D01*
X178859343Y-193785771D01*
X179002200Y-193714343D01*
X179073629Y-193642914D01*
X179145057Y-193500057D01*
X179145057Y-193357200D01*
X179073629Y-193214343D01*
X179002200Y-193142914D01*
X178859343Y-193071486D01*
X178573629Y-193000057D01*
X178430771Y-192928629D01*
X178359343Y-192857200D01*
X178287914Y-192714343D01*
X178287914Y-192571486D01*
X178359343Y-192428629D01*
X178430771Y-192357200D01*
X178573629Y-192285771D01*
X178930771Y-192285771D01*
X179145057Y-192357200D01*
X179787914Y-193785771D02*
X179787914Y-192785771D01*
X179787914Y-192285771D02*
X179716485Y-192357200D01*
X179787914Y-192428629D01*
X179859342Y-192357200D01*
X179787914Y-192285771D01*
X179787914Y-192428629D01*
X180359343Y-192785771D02*
X181145057Y-192785771D01*
X180359343Y-193785771D01*
X181145057Y-193785771D01*
X182287914Y-193714343D02*
X182145057Y-193785771D01*
X181859343Y-193785771D01*
X181716486Y-193714343D01*
X181645057Y-193571486D01*
X181645057Y-193000057D01*
X181716486Y-192857200D01*
X181859343Y-192785771D01*
X182145057Y-192785771D01*
X182287914Y-192857200D01*
X182359343Y-193000057D01*
X182359343Y-193142914D01*
X181645057Y-193285771D01*
X183002200Y-193642914D02*
X183073628Y-193714343D01*
X183002200Y-193785771D01*
X182930771Y-193714343D01*
X183002200Y-193642914D01*
X183002200Y-193785771D01*
X183002200Y-192857200D02*
X183073628Y-192928629D01*
X183002200Y-193000057D01*
X182930771Y-192928629D01*
X183002200Y-192857200D01*
X183002200Y-193000057D01*
X184787914Y-193357200D02*
X185502200Y-193357200D01*
X184645057Y-193785771D02*
X185145057Y-192285771D01*
X185645057Y-193785771D01*
X186787914Y-192785771D02*
X186787914Y-193785771D01*
X186430771Y-192214343D02*
X186073628Y-193285771D01*
X187002200Y-193285771D01*
D10*
D11*
X263359343Y-196585771D02*
X263359343Y-195085771D01*
X264716486Y-196585771D02*
X264716486Y-195085771D01*
X264716486Y-196514343D02*
X264573629Y-196585771D01*
X264287915Y-196585771D01*
X264145057Y-196514343D01*
X264073629Y-196442914D01*
X264002200Y-196300057D01*
X264002200Y-195871486D01*
X264073629Y-195728629D01*
X264145057Y-195657200D01*
X264287915Y-195585771D01*
X264573629Y-195585771D01*
X264716486Y-195657200D01*
X265430772Y-196442914D02*
X265502200Y-196514343D01*
X265430772Y-196585771D01*
X265359343Y-196514343D01*
X265430772Y-196442914D01*
X265430772Y-196585771D01*
X265430772Y-195657200D02*
X265502200Y-195728629D01*
X265430772Y-195800057D01*
X265359343Y-195728629D01*
X265430772Y-195657200D01*
X265430772Y-195800057D01*
X268073629Y-196585771D02*
X267216486Y-196585771D01*
X267645058Y-196585771D02*
X267645058Y-195085771D01*
X267502201Y-195300057D01*
X267359343Y-195442914D01*
X267216486Y-195514343D01*
X269787914Y-195014343D02*
X268502200Y-196942914D01*
X271073629Y-196585771D02*
X270216486Y-196585771D01*
X270645058Y-196585771D02*
X270645058Y-195085771D01*
X270502201Y-195300057D01*
X270359343Y-195442914D01*
X270216486Y-195514343D01*
D10*
D11*
X177002200Y-187507200D02*
X285002200Y-187507200D01*
D10*
D13*
X178454581Y-188211962D02*
X179597438Y-188211962D01*
X178776010Y-190211962D02*
X179026010Y-188211962D01*
X180014105Y-190211962D02*
X180180771Y-188878629D01*
X180264105Y-188211962D02*
X180156962Y-188307200D01*
X180240295Y-188402438D01*
X180347439Y-188307200D01*
X180264105Y-188211962D01*
X180240295Y-188402438D01*
X180847438Y-188878629D02*
X181609343Y-188878629D01*
X181216486Y-188211962D02*
X181002200Y-189926248D01*
X181073630Y-190116724D01*
X181252201Y-190211962D01*
X181442677Y-190211962D01*
X182395058Y-190211962D02*
X182216487Y-190116724D01*
X182145057Y-189926248D01*
X182359343Y-188211962D01*
X183930772Y-190116724D02*
X183728391Y-190211962D01*
X183347439Y-190211962D01*
X183168867Y-190116724D01*
X183097438Y-189926248D01*
X183192676Y-189164343D01*
X183311724Y-188973867D01*
X183514105Y-188878629D01*
X183895057Y-188878629D01*
X184073629Y-188973867D01*
X184145057Y-189164343D01*
X184121248Y-189354819D01*
X183145057Y-189545295D01*
X184895057Y-190021486D02*
X184978392Y-190116724D01*
X184871248Y-190211962D01*
X184787915Y-190116724D01*
X184895057Y-190021486D01*
X184871248Y-190211962D01*
X185026010Y-188973867D02*
X185109344Y-189069105D01*
X185002200Y-189164343D01*
X184918867Y-189069105D01*
X185026010Y-188973867D01*
X185002200Y-189164343D01*
D10*
D11*
X178859343Y-185600057D02*
X178359343Y-185600057D01*
X178359343Y-186385771D02*
X178359343Y-184885771D01*
X179073629Y-184885771D01*
X179645057Y-186385771D02*
X179645057Y-185385771D01*
X179645057Y-184885771D02*
X179573628Y-184957200D01*
X179645057Y-185028629D01*
X179716485Y-184957200D01*
X179645057Y-184885771D01*
X179645057Y-185028629D01*
X180573629Y-186385771D02*
X180430771Y-186314343D01*
X180359343Y-186171486D01*
X180359343Y-184885771D01*
X181716485Y-186314343D02*
X181573628Y-186385771D01*
X181287914Y-186385771D01*
X181145057Y-186314343D01*
X181073628Y-186171486D01*
X181073628Y-185600057D01*
X181145057Y-185457200D01*
X181287914Y-185385771D01*
X181573628Y-185385771D01*
X181716485Y-185457200D01*
X181787914Y-185600057D01*
X181787914Y-185742914D01*
X181073628Y-185885771D01*
X182430771Y-186242914D02*
X182502199Y-186314343D01*
X182430771Y-186385771D01*
X182359342Y-186314343D01*
X182430771Y-186242914D01*
X182430771Y-186385771D01*
X182430771Y-185457200D02*
X182502199Y-185528629D01*
X182430771Y-185600057D01*
X182359342Y-185528629D01*
X182430771Y-185457200D01*
X182430771Y-185600057D01*
X185145057Y-186385771D02*
X184645057Y-185671486D01*
X184287914Y-186385771D02*
X184287914Y-184885771D01*
X184859342Y-184885771D01*
X185002200Y-184957200D01*
X185073628Y-185028629D01*
X185145057Y-185171486D01*
X185145057Y-185385771D01*
X185073628Y-185528629D01*
X185002200Y-185600057D01*
X184859342Y-185671486D01*
X184287914Y-185671486D01*
X186002200Y-186385771D02*
X185859342Y-186314343D01*
X185787914Y-186242914D01*
X185716485Y-186100057D01*
X185716485Y-185671486D01*
X185787914Y-185528629D01*
X185859342Y-185457200D01*
X186002200Y-185385771D01*
X186216485Y-185385771D01*
X186359342Y-185457200D01*
X186430771Y-185528629D01*
X186502200Y-185671486D01*
X186502200Y-186100057D01*
X186430771Y-186242914D01*
X186359342Y-186314343D01*
X186216485Y-186385771D01*
X186002200Y-186385771D01*
X187145057Y-186385771D02*
X187145057Y-184885771D01*
X187145057Y-185457200D02*
X187287914Y-185385771D01*
X187573628Y-185385771D01*
X187716485Y-185457200D01*
X187787914Y-185528629D01*
X187859343Y-185671486D01*
X187859343Y-186100057D01*
X187787914Y-186242914D01*
X187716485Y-186314343D01*
X187573628Y-186385771D01*
X187287914Y-186385771D01*
X187145057Y-186314343D01*
X188716486Y-186385771D02*
X188573628Y-186314343D01*
X188502200Y-186242914D01*
X188430771Y-186100057D01*
X188430771Y-185671486D01*
X188502200Y-185528629D01*
X188573628Y-185457200D01*
X188716486Y-185385771D01*
X188930771Y-185385771D01*
X189073628Y-185457200D01*
X189145057Y-185528629D01*
X189216486Y-185671486D01*
X189216486Y-186100057D01*
X189145057Y-186242914D01*
X189073628Y-186314343D01*
X188930771Y-186385771D01*
X188716486Y-186385771D01*
X189645057Y-185385771D02*
X190216486Y-185385771D01*
X189859343Y-184885771D02*
X189859343Y-186171486D01*
X189930771Y-186314343D01*
X190073629Y-186385771D01*
X190216486Y-186385771D01*
X190716486Y-186385771D02*
X190716486Y-185385771D01*
X190716486Y-184885771D02*
X190645057Y-184957200D01*
X190716486Y-185028629D01*
X190787914Y-184957200D01*
X190716486Y-184885771D01*
X190716486Y-185028629D01*
X192073629Y-186314343D02*
X191930772Y-186385771D01*
X191645058Y-186385771D01*
X191502200Y-186314343D01*
X191430772Y-186242914D01*
X191359343Y-186100057D01*
X191359343Y-185671486D01*
X191430772Y-185528629D01*
X191502200Y-185457200D01*
X191645058Y-185385771D01*
X191930772Y-185385771D01*
X192073629Y-185457200D01*
X192645057Y-186314343D02*
X192787914Y-186385771D01*
X193073629Y-186385771D01*
X193216486Y-186314343D01*
X193287914Y-186171486D01*
X193287914Y-186100057D01*
X193216486Y-185957200D01*
X193073629Y-185885771D01*
X192859343Y-185885771D01*
X192716486Y-185814343D01*
X192645057Y-185671486D01*
X192645057Y-185600057D01*
X192716486Y-185457200D01*
X192859343Y-185385771D01*
X193073629Y-185385771D01*
X193216486Y-185457200D01*
X193930772Y-186385771D02*
X193930772Y-184885771D01*
X194430772Y-185957200D01*
X194930772Y-184885771D01*
X194930772Y-186385771D01*
X195645058Y-186385771D02*
X195645058Y-184885771D01*
X196502201Y-186385771D02*
X195859344Y-185528629D01*
X196502201Y-184885771D02*
X195645058Y-185742914D01*
X197145058Y-186385771D02*
X197145058Y-184885771D01*
X197859344Y-186385771D02*
X197859344Y-184885771D01*
X198573630Y-186242914D02*
X198645058Y-186314343D01*
X198573630Y-186385771D01*
X198502201Y-186314343D01*
X198573630Y-186242914D01*
X198573630Y-186385771D01*
X199287916Y-186385771D02*
X199287916Y-184885771D01*
X199430773Y-185814343D02*
X199859344Y-186385771D01*
X199859344Y-185385771D02*
X199287916Y-185957200D01*
X200502202Y-186385771D02*
X200502202Y-185385771D01*
X200502202Y-184885771D02*
X200430773Y-184957200D01*
X200502202Y-185028629D01*
X200573630Y-184957200D01*
X200502202Y-184885771D01*
X200502202Y-185028629D01*
X201859345Y-186314343D02*
X201716488Y-186385771D01*
X201430774Y-186385771D01*
X201287916Y-186314343D01*
X201216488Y-186242914D01*
X201145059Y-186100057D01*
X201145059Y-185671486D01*
X201216488Y-185528629D01*
X201287916Y-185457200D01*
X201430774Y-185385771D01*
X201716488Y-185385771D01*
X201859345Y-185457200D01*
X203145059Y-186385771D02*
X203145059Y-185600057D01*
X203073630Y-185457200D01*
X202930773Y-185385771D01*
X202645059Y-185385771D01*
X202502202Y-185457200D01*
X203145059Y-186314343D02*
X203002202Y-186385771D01*
X202645059Y-186385771D01*
X202502202Y-186314343D01*
X202430773Y-186171486D01*
X202430773Y-186028629D01*
X202502202Y-185885771D01*
X202645059Y-185814343D01*
X203002202Y-185814343D01*
X203145059Y-185742914D01*
X204502202Y-186385771D02*
X204502202Y-184885771D01*
X204502202Y-186314343D02*
X204359345Y-186385771D01*
X204073631Y-186385771D01*
X203930773Y-186314343D01*
X203859345Y-186242914D01*
X203787916Y-186100057D01*
X203787916Y-185671486D01*
X203859345Y-185528629D01*
X203930773Y-185457200D01*
X204073631Y-185385771D01*
X204359345Y-185385771D01*
X204502202Y-185457200D01*
X204859345Y-186528629D02*
X206002202Y-186528629D01*
X206359345Y-185385771D02*
X206359345Y-186885771D01*
X206359345Y-185457200D02*
X206502202Y-185385771D01*
X206787916Y-185385771D01*
X206930773Y-185457200D01*
X207002202Y-185528629D01*
X207073631Y-185671486D01*
X207073631Y-186100057D01*
X207002202Y-186242914D01*
X206930773Y-186314343D01*
X206787916Y-186385771D01*
X206502202Y-186385771D01*
X206359345Y-186314343D01*
X208359345Y-186314343D02*
X208216488Y-186385771D01*
X207930774Y-186385771D01*
X207787916Y-186314343D01*
X207716488Y-186242914D01*
X207645059Y-186100057D01*
X207645059Y-185671486D01*
X207716488Y-185528629D01*
X207787916Y-185457200D01*
X207930774Y-185385771D01*
X208216488Y-185385771D01*
X208359345Y-185457200D01*
X209002202Y-186385771D02*
X209002202Y-184885771D01*
X209002202Y-185457200D02*
X209145059Y-185385771D01*
X209430773Y-185385771D01*
X209573630Y-185457200D01*
X209645059Y-185528629D01*
X209716488Y-185671486D01*
X209716488Y-186100057D01*
X209645059Y-186242914D01*
X209573630Y-186314343D01*
X209430773Y-186385771D01*
X209145059Y-186385771D01*
X209002202Y-186314343D01*
D10*
D11*
X177002200Y-181507200D02*
X285002200Y-181507200D01*
D10*
D11*
X178287914Y-183614343D02*
X178502200Y-183685771D01*
X178859343Y-183685771D01*
X179002200Y-183614343D01*
X179073629Y-183542914D01*
X179145057Y-183400057D01*
X179145057Y-183257200D01*
X179073629Y-183114343D01*
X179002200Y-183042914D01*
X178859343Y-182971486D01*
X178573629Y-182900057D01*
X178430771Y-182828629D01*
X178359343Y-182757200D01*
X178287914Y-182614343D01*
X178287914Y-182471486D01*
X178359343Y-182328629D01*
X178430771Y-182257200D01*
X178573629Y-182185771D01*
X178930771Y-182185771D01*
X179145057Y-182257200D01*
X179787914Y-183685771D02*
X179787914Y-182185771D01*
X180430771Y-183685771D02*
X180430771Y-182900057D01*
X180359342Y-182757200D01*
X180216485Y-182685771D01*
X180002200Y-182685771D01*
X179859342Y-182757200D01*
X179787914Y-182828629D01*
X181716485Y-183614343D02*
X181573628Y-183685771D01*
X181287914Y-183685771D01*
X181145057Y-183614343D01*
X181073628Y-183471486D01*
X181073628Y-182900057D01*
X181145057Y-182757200D01*
X181287914Y-182685771D01*
X181573628Y-182685771D01*
X181716485Y-182757200D01*
X181787914Y-182900057D01*
X181787914Y-183042914D01*
X181073628Y-183185771D01*
X183002199Y-183614343D02*
X182859342Y-183685771D01*
X182573628Y-183685771D01*
X182430771Y-183614343D01*
X182359342Y-183471486D01*
X182359342Y-182900057D01*
X182430771Y-182757200D01*
X182573628Y-182685771D01*
X182859342Y-182685771D01*
X183002199Y-182757200D01*
X183073628Y-182900057D01*
X183073628Y-183042914D01*
X182359342Y-183185771D01*
X183502199Y-182685771D02*
X184073628Y-182685771D01*
X183716485Y-182185771D02*
X183716485Y-183471486D01*
X183787913Y-183614343D01*
X183930771Y-183685771D01*
X184073628Y-183685771D01*
X184573628Y-183542914D02*
X184645056Y-183614343D01*
X184573628Y-183685771D01*
X184502199Y-183614343D01*
X184573628Y-183542914D01*
X184573628Y-183685771D01*
X184573628Y-182757200D02*
X184645056Y-182828629D01*
X184573628Y-182900057D01*
X184502199Y-182828629D01*
X184573628Y-182757200D01*
X184573628Y-182900057D01*
D10*
D11*
X197002200Y-191507200D02*
X197002200Y-194507200D01*
D10*
D11*
X261002200Y-191507200D02*
X261002200Y-198007200D01*
D14*
X138430000Y-51205000D03*
X138430000Y-54205000D03*
X142240000Y-51205000D03*
X142240000Y-54205000D03*
X119380000Y-105640000D03*
X119380000Y-102640000D03*
X119380000Y-108482000D03*
X119380000Y-111482000D03*
X143002000Y-62587000D03*
X143002000Y-59587000D03*
X140462000Y-59714000D03*
X140462000Y-62714000D03*
X152400000Y-120420000D03*
X152400000Y-123420000D03*
X143510000Y-114530000D03*
X143510000Y-111530000D03*
X129794000Y-111530000D03*
X129794000Y-114530000D03*
D15*
X150900000Y-72136000D03*
X153900000Y-72136000D03*
D16*
X132080000Y-51920140D03*
X132080000Y-45920660D03*
X127381000Y-48920400D03*
D17*
X128270000Y-126850140D03*
X128270000Y-129689860D03*
X132080000Y-126850140D03*
X132080000Y-129689860D03*
X135890000Y-126850140D03*
X135890000Y-129689860D03*
X139700000Y-126850140D03*
X139700000Y-129689860D03*
X143510000Y-126850140D03*
X143510000Y-129689860D03*
X147320000Y-126850140D03*
X147320000Y-129689860D03*
D18*
X147424140Y-47752000D03*
X150263860Y-47752000D03*
X147170140Y-44450000D03*
X150009860Y-44450000D03*
X114785140Y-65405000D03*
X117624860Y-65405000D03*
D19*
X129540000Y-58420000D03*
D20*
X132080000Y-58420000D03*
X134620000Y-58420000D03*
D21*
X125730000Y-73660000D03*
D22*
X125730000Y-76200000D03*
X125730000Y-78740000D03*
D21*
X115570000Y-73660000D03*
D22*
X115570000Y-76200000D03*
X115570000Y-78740000D03*
D21*
X115570000Y-87630000D03*
D22*
X115570000Y-90170000D03*
X115570000Y-92710000D03*
D21*
X125730000Y-87630000D03*
D22*
X125730000Y-90170000D03*
X125730000Y-92710000D03*
D21*
X157480000Y-114300000D03*
D22*
X157480000Y-116840000D03*
X157480000Y-119380000D03*
D21*
X157480000Y-124460000D03*
D22*
X157480000Y-127000000D03*
X157480000Y-129540000D03*
D21*
X152400000Y-96520000D03*
D22*
X152400000Y-99060000D03*
X152400000Y-101600000D03*
X152400000Y-104140000D03*
X152400000Y-106680000D03*
X152400000Y-109220000D03*
X152400000Y-111760000D03*
X152400000Y-114300000D03*
D21*
X157480000Y-86360000D03*
D22*
X157480000Y-88900000D03*
X157480000Y-91440000D03*
D23*
X152400000Y-127000000D03*
D24*
X152400000Y-129540000D03*
D21*
X157480000Y-96520000D03*
D22*
X157480000Y-99060000D03*
X157480000Y-101600000D03*
X157480000Y-104140000D03*
X157480000Y-106680000D03*
X157480000Y-109220000D03*
D21*
X157480000Y-66040000D03*
D22*
X157480000Y-68580000D03*
X157480000Y-71120000D03*
X157480000Y-73660000D03*
X157480000Y-76200000D03*
X157480000Y-78740000D03*
D25*
X141552000Y-47752000D03*
X144452000Y-47752000D03*
X141425000Y-44450000D03*
X144325000Y-44450000D03*
X150950000Y-74676000D03*
X153850000Y-74676000D03*
X150950000Y-69596000D03*
X153850000Y-69596000D03*
X119835000Y-65405000D03*
X122735000Y-65405000D03*
D26*
X115808000Y-58420000D03*
D27*
X121412000Y-58420000D03*
X121412000Y-56134000D03*
X121412000Y-60706000D03*
D28*
X139706000Y-115796000D03*
X134106000Y-112296000D03*
X134106000Y-115796000D03*
X139706000Y-112296000D03*
D29*
X116840000Y-135890000D03*
X156210000Y-46990000D03*
X116840000Y-46990000D03*
X156210000Y-135890000D03*
D21*
X115570000Y-102870000D03*
D22*
X115570000Y-105410000D03*
X115570000Y-107950000D03*
X115570000Y-110490000D03*
X115570000Y-113030000D03*
D21*
X123190000Y-102870000D03*
D22*
X123190000Y-105410000D03*
X123190000Y-107950000D03*
X123190000Y-110490000D03*
X123190000Y-113030000D03*
D21*
X152400000Y-86360000D03*
D22*
X152400000Y-88900000D03*
X152400000Y-91440000D03*
D30*
X122555000Y-137160000D03*
D31*
X122555000Y-134620000D03*
X125095000Y-137160000D03*
X125095000Y-134620000D03*
X127635000Y-137160000D03*
X127635000Y-134620000D03*
X130175000Y-137160000D03*
X130175000Y-134620000D03*
X132715000Y-137160000D03*
X132715000Y-134620000D03*
X135255000Y-137160000D03*
X135255000Y-134620000D03*
X137795000Y-137160000D03*
X137795000Y-134620000D03*
X140335000Y-137160000D03*
X140335000Y-134620000D03*
X142875000Y-137160000D03*
X142875000Y-134620000D03*
X145415000Y-137160000D03*
X145415000Y-134620000D03*
X147955000Y-137160000D03*
X147955000Y-134620000D03*
X150495000Y-137160000D03*
X150495000Y-134620000D03*
D32*
X158206000Y-61342000D03*
X153706000Y-61342000D03*
X153706000Y-51942000D03*
X158206000Y-51942000D03*
D33*
X114172000Y-130520000D03*
X114172000Y-126020000D03*
X123572000Y-126020000D03*
X123572000Y-130520000D03*
X123572000Y-117638000D03*
X123572000Y-122138000D03*
X114172000Y-122138000D03*
X114172000Y-117638000D03*
D34*
X129450000Y-62495000D03*
X129450000Y-63145000D03*
X129450000Y-63795000D03*
X129450000Y-64445000D03*
X129450000Y-65095000D03*
X129450000Y-65745000D03*
X129450000Y-66395000D03*
X129450000Y-67045000D03*
X137250000Y-67045000D03*
X137250000Y-66395000D03*
X137250000Y-65745000D03*
X137250000Y-65095000D03*
X137250000Y-64445000D03*
X137250000Y-63795000D03*
X137250000Y-63145000D03*
X137250000Y-62495000D03*
D35*
X140910000Y-94130000D03*
X140410000Y-94130000D03*
X139910000Y-94130000D03*
X139410000Y-94130000D03*
X138910000Y-94130000D03*
X138410000Y-94130000D03*
X137910000Y-94130000D03*
X137410000Y-94130000D03*
X136910000Y-94130000D03*
X136410000Y-94130000D03*
X135910000Y-94130000D03*
X135410000Y-94130000D03*
X134910000Y-94130000D03*
X134410000Y-94130000D03*
X133910000Y-94130000D03*
X133410000Y-94130000D03*
D36*
X130960000Y-96580000D03*
X130960000Y-97080000D03*
X130960000Y-97580000D03*
X130960000Y-98080000D03*
X130960000Y-98580000D03*
X130960000Y-99080000D03*
X130960000Y-99580000D03*
X130960000Y-100080000D03*
X130960000Y-100580000D03*
X130960000Y-101080000D03*
X130960000Y-101580000D03*
X130960000Y-102080000D03*
X130960000Y-102580000D03*
X130960000Y-103080000D03*
X130960000Y-103580000D03*
X130960000Y-104080000D03*
D35*
X133410000Y-106530000D03*
X133910000Y-106530000D03*
X134410000Y-106530000D03*
X134910000Y-106530000D03*
X135410000Y-106530000D03*
X135910000Y-106530000D03*
X136410000Y-106530000D03*
X136910000Y-106530000D03*
X137410000Y-106530000D03*
X137910000Y-106530000D03*
X138410000Y-106530000D03*
X138910000Y-106530000D03*
X139410000Y-106530000D03*
X139910000Y-106530000D03*
X140410000Y-106530000D03*
X140910000Y-106530000D03*
D36*
X143360000Y-104080000D03*
X143360000Y-103580000D03*
X143360000Y-103080000D03*
X143360000Y-102580000D03*
X143360000Y-102080000D03*
X143360000Y-101580000D03*
X143360000Y-101080000D03*
X143360000Y-100580000D03*
X143360000Y-100080000D03*
X143360000Y-99580000D03*
X143360000Y-99080000D03*
X143360000Y-98580000D03*
X143360000Y-98080000D03*
X143360000Y-97580000D03*
X143360000Y-97080000D03*
X143360000Y-96580000D03*
M02*
