M48
;DRILL file {kicad (2015-04-05 BZR 5576)-product} date Mon 06 Apr 2015 21:27:08 SAST
;FORMAT={-:-/ absolute / inch / decimal}
FMAT,2
INCH,TZ
T1C0.016
T2C0.039
T3C0.040
T4C0.118
%
G90
G05
M72
T1
X4.6Y-3.25
X4.6Y-4.87
X4.67Y-5.14
X4.7Y-4.64
X4.75Y-4.56
X4.75Y-4.9
X4.825Y-2.9
X4.825Y-3.45
X4.9Y-2.55
X4.92Y-4.94
X4.925Y-2.3
X4.93Y-4.69
X4.98Y-4.25
X4.98Y-4.82
X4.99Y-2.46
X4.99Y-3.83
X5.Y-4.1
X5.01Y-3.91
X5.01Y-4.
X5.02Y-4.82
X5.03Y-4.03
X5.04Y-4.26
X5.04Y-4.32
X5.05Y-2.65
X5.05Y-4.91
X5.05Y-5.18
X5.06Y-4.16
X5.07Y-2.44
X5.07Y-3.82
X5.07Y-3.95
X5.08Y-4.94
X5.09Y-2.97
X5.12Y-3.6
X5.12Y-5.22
X5.15Y-4.31
X5.16Y-4.2
X5.16Y-4.87
X5.17Y-4.94
X5.18Y-4.33
X5.19Y-4.15
X5.19Y-4.88
X5.2Y-3.56
X5.2Y-4.36
X5.2Y-4.6
X5.2Y-4.91
X5.2Y-5.18
X5.21Y-2.39
X5.22Y-4.75
X5.23Y-2.66
X5.24Y-4.6
X5.26Y-3.59
X5.26Y-3.81
X5.26Y-3.99
X5.27Y-3.88
X5.29Y-2.7
X5.3Y-4.68
X5.31Y-5.22
X5.32Y-3.52
X5.32Y-4.72
X5.32Y-4.94
X5.325Y-2.15
X5.35Y-4.91
X5.35Y-5.175
X5.36Y-3.58
X5.36Y-3.81
X5.36Y-4.07
X5.36Y-4.27
X5.36Y-4.31
X5.39Y-3.64
X5.4Y-3.49
X5.4Y-3.81
X5.4Y-4.07
X5.41Y-4.67
X5.42Y-3.46
X5.44Y-3.52
X5.45Y-4.3
X5.47Y-4.94
X5.48Y-4.64
X5.49Y-3.06
X5.49Y-3.5
X5.49Y-4.31
X5.5Y-3.22
X5.5Y-4.91
X5.5Y-5.175
X5.52Y-2.86
X5.5277Y-3.58
X5.55Y-2.9
X5.55Y-3.81
X5.55Y-3.95
X5.55Y-4.61
X5.58Y-2.87
X5.58Y-3.58
X5.59Y-3.72
X5.59Y-4.61
X5.6Y-1.95
X5.61Y-2.9
X5.61Y-4.33
X5.62Y-3.59
X5.62Y-3.74
X5.62Y-4.3
X5.62Y-4.94
X5.64Y-2.7
X5.65Y-3.76
X5.65Y-4.28
X5.65Y-4.91
X5.65Y-5.175
X5.66Y-3.66
X5.68Y-4.21
X5.69Y-3.65
X5.69Y-4.24
X5.7Y-3.62
X5.7Y-4.45
X5.71Y-2.06
X5.71Y-4.78
X5.73Y-4.54
X5.74Y-4.81
X5.75Y-3.64
X5.76Y-3.95
X5.77Y-4.94
X5.79Y-3.98
X5.8Y-4.91
X5.8Y-5.175
X5.87Y-4.67
X5.9Y-4.64
X5.93Y-4.87
X5.95Y-2.3
X5.975Y-2.35
X6.01Y-2.02
X6.03Y-3.29
X6.09Y-3.11
X6.1Y-3.77
X6.1Y-4.17
X6.11Y-4.38
X6.28Y-2.48
T3
X4.55Y-2.9
X4.55Y-3.
X4.55Y-3.1
X4.55Y-3.45
X4.55Y-3.55
X4.55Y-3.65
X4.55Y-4.05
X4.55Y-4.15
X4.55Y-4.25
X4.55Y-4.35
X4.55Y-4.45
X4.85Y-4.05
X4.85Y-4.15
X4.85Y-4.25
X4.85Y-4.35
X4.85Y-4.45
X4.9Y-5.3
X4.9Y-5.4
X4.95Y-2.9
X4.95Y-3.
X4.95Y-3.1
X4.95Y-3.45
X4.95Y-3.55
X4.95Y-3.65
X5.Y-5.3
X5.Y-5.4
X5.1Y-2.3
X5.1Y-5.3
X5.1Y-5.4
X5.2Y-2.3
X5.2Y-5.3
X5.2Y-5.4
X5.3Y-2.3
X5.3Y-5.3
X5.3Y-5.4
X5.4Y-5.3
X5.4Y-5.4
X5.5Y-5.3
X5.5Y-5.4
X5.6Y-5.3
X5.6Y-5.4
X5.7Y-5.3
X5.7Y-5.4
X5.8Y-5.3
X5.8Y-5.4
X5.9Y-5.3
X5.9Y-5.4
X6.Y-3.4
X6.Y-3.5
X6.Y-3.6
X6.Y-3.8
X6.Y-3.9
X6.Y-4.
X6.Y-4.1
X6.Y-4.2
X6.Y-4.3
X6.Y-4.4
X6.Y-4.5
X6.Y-5.
X6.Y-5.1
X6.2Y-2.6
X6.2Y-2.7
X6.2Y-2.8
X6.2Y-2.9
X6.2Y-3.
X6.2Y-3.1
X6.2Y-3.4
X6.2Y-3.5
X6.2Y-3.6
X6.2Y-3.8
X6.2Y-3.9
X6.2Y-4.
X6.2Y-4.1
X6.2Y-4.2
X6.2Y-4.3
X6.2Y-4.5
X6.2Y-4.6
X6.2Y-4.7
X6.2Y-4.9
X6.2Y-5.
X6.2Y-5.1
T4
X4.6Y-1.85
X4.6Y-5.35
X6.15Y-1.85
X6.15Y-5.35
T2
X5.015Y-1.8866G85X5.015Y-1.9653
G05
X5.2393Y-1.8079G85X5.1606Y-1.8079
G05
X5.2393Y-2.0441G85X5.1606Y-2.0441
G05
T0
M30
