M48
;DRILL file {kicad (2015-03-23 BZR 5533)-product} date Fri 21 Aug 2015 17:58:51 SAST
;FORMAT={-:-/ absolute / metric / decimal}
FMAT,2
METRIC,TZ
T1C0.800
T2C1.016
%
G90
G05
M71
T1
X81.28Y-86.995
X81.28Y-99.06
X81.915Y-84.455
X83.185Y-88.9
X83.185Y-104.14
X86.36Y-88.9
X86.36Y-103.505
X88.138Y-88.9
X94.488Y-95.885
X96.012Y-97.028
X99.695Y-84.455
X100.965Y-86.36
X100.965Y-100.33
X100.965Y-105.41
X103.505Y-88.265
X103.505Y-108.585
T2
X81.915Y-78.74
X81.915Y-81.28
X84.455Y-78.74
X84.455Y-81.28
X86.995Y-78.74
X86.995Y-81.28
X89.535Y-78.74
X89.535Y-81.28
X92.075Y-78.74
X92.075Y-81.28
X94.615Y-78.74
X94.615Y-81.28
X97.155Y-78.74
X97.155Y-81.28
X99.695Y-78.74
X99.695Y-81.28
X102.235Y-78.74
X102.235Y-81.28
X104.775Y-78.74
X104.775Y-81.28
X107.315Y-78.74
X107.315Y-81.28
X107.315Y-93.345
X107.315Y-95.885
X107.315Y-98.425
X107.315Y-100.965
X107.315Y-103.505
X107.315Y-106.045
X107.315Y-108.585
X107.315Y-111.125
X107.315Y-113.665
X109.855Y-78.74
X109.855Y-81.28
X109.855Y-93.345
X109.855Y-95.885
X109.855Y-98.425
X109.855Y-100.965
X109.855Y-103.505
X109.855Y-106.045
X109.855Y-108.585
X109.855Y-111.125
X109.855Y-113.665
T0
M30
