G04 #@! TF.FileFunction,Legend,Bot*
%FSLAX46Y46*%
G04 Gerber Fmt 4.6, Leading zero omitted, Abs format (unit mm)*
G04 Created by KiCad (PCBNEW (2015-03-23 BZR 5533)-product) date Fri 21 Aug 2015 17:58:34 SAST*
%MOMM*%
G01*
G04 APERTURE LIST*
%ADD10C,0.100000*%
%ADD11C,0.150000*%
G04 APERTURE END LIST*
D10*
D11*
X82795000Y-112125000D02*
X82795000Y-110125000D01*
X84845000Y-110125000D02*
X84845000Y-112125000D01*
X91635000Y-107585000D02*
X91635000Y-109585000D01*
X93785000Y-109585000D02*
X93785000Y-107585000D01*
X88460000Y-107585000D02*
X88460000Y-109585000D01*
X90610000Y-109585000D02*
X90610000Y-107585000D01*
X89495000Y-100020000D02*
X89495000Y-93020000D01*
X89495000Y-93020000D02*
X84495000Y-93020000D01*
X84495000Y-93020000D02*
X84495000Y-100020000D01*
X84495000Y-100020000D02*
X89495000Y-100020000D01*
X92287381Y-108418334D02*
X91811190Y-108085000D01*
X92287381Y-107846905D02*
X91287381Y-107846905D01*
X91287381Y-108227858D01*
X91335000Y-108323096D01*
X91382619Y-108370715D01*
X91477857Y-108418334D01*
X91620714Y-108418334D01*
X91715952Y-108370715D01*
X91763571Y-108323096D01*
X91811190Y-108227858D01*
X91811190Y-107846905D01*
X91382619Y-108799286D02*
X91335000Y-108846905D01*
X91287381Y-108942143D01*
X91287381Y-109180239D01*
X91335000Y-109275477D01*
X91382619Y-109323096D01*
X91477857Y-109370715D01*
X91573095Y-109370715D01*
X91715952Y-109323096D01*
X92287381Y-108751667D01*
X92287381Y-109370715D01*
M02*
