G04 #@! TF.FileFunction,Copper,L2,Bot,Signal*
%FSLAX46Y46*%
G04 Gerber Fmt 4.6, Leading zero omitted, Abs format (unit mm)*
G04 Created by KiCad (PCBNEW (2015-03-23 BZR 5533)-product) date Fri 21 Aug 2015 17:58:34 SAST*
%MOMM*%
G01*
G04 APERTURE LIST*
%ADD10C,0.100000*%
%ADD11R,1.600000X2.000000*%
%ADD12R,1.727200X1.727200*%
%ADD13O,1.727200X1.727200*%
%ADD14R,1.700000X2.000000*%
%ADD15R,3.400000X3.860000*%
%ADD16C,1.200000*%
%ADD17C,0.300000*%
%ADD18C,0.250000*%
%ADD19C,0.254000*%
G04 APERTURE END LIST*
D10*
D11*
X83820000Y-109125000D03*
X83820000Y-113125000D03*
D12*
X81915000Y-81280000D03*
D13*
X81915000Y-78740000D03*
X84455000Y-81280000D03*
X84455000Y-78740000D03*
X86995000Y-81280000D03*
X86995000Y-78740000D03*
X89535000Y-81280000D03*
X89535000Y-78740000D03*
X92075000Y-81280000D03*
X92075000Y-78740000D03*
X94615000Y-81280000D03*
X94615000Y-78740000D03*
X97155000Y-81280000D03*
X97155000Y-78740000D03*
X99695000Y-81280000D03*
X99695000Y-78740000D03*
X102235000Y-81280000D03*
X102235000Y-78740000D03*
X104775000Y-81280000D03*
X104775000Y-78740000D03*
X107315000Y-81280000D03*
X107315000Y-78740000D03*
X109855000Y-81280000D03*
X109855000Y-78740000D03*
D12*
X109855000Y-113665000D03*
D13*
X107315000Y-113665000D03*
X109855000Y-111125000D03*
X107315000Y-111125000D03*
X109855000Y-108585000D03*
X107315000Y-108585000D03*
X109855000Y-106045000D03*
X107315000Y-106045000D03*
X109855000Y-103505000D03*
X107315000Y-103505000D03*
X109855000Y-100965000D03*
X107315000Y-100965000D03*
X109855000Y-98425000D03*
X107315000Y-98425000D03*
X109855000Y-95885000D03*
X107315000Y-95885000D03*
X109855000Y-93345000D03*
X107315000Y-93345000D03*
D14*
X92710000Y-110585000D03*
X92710000Y-106585000D03*
X89535000Y-110585000D03*
X89535000Y-106585000D03*
D15*
X84195000Y-100100000D03*
X84195000Y-92940000D03*
X89795000Y-92940000D03*
X89795000Y-100100000D03*
D16*
X99695000Y-84455000D03*
X81915000Y-84455000D03*
X81280000Y-86995000D03*
X81280000Y-99060000D03*
X86360000Y-88900000D03*
X86360000Y-103505000D03*
X83185000Y-88900000D03*
X83185000Y-104140000D03*
X100965000Y-100330000D03*
X100965000Y-105410000D03*
X88138000Y-88900000D03*
X96012000Y-97028000D03*
X100965000Y-86360000D03*
X94488000Y-95885000D03*
X103505000Y-88265000D03*
X103505000Y-108585000D03*
D17*
X83820000Y-109220000D02*
X86360000Y-111760000D01*
X87630000Y-112395000D02*
X86995000Y-112395000D01*
X87630000Y-112395000D02*
X90170000Y-112395000D01*
X86995000Y-112395000D02*
X86360000Y-111760000D01*
X83820000Y-109220000D02*
X83820000Y-109125000D01*
X87630000Y-100100000D02*
X89795000Y-100100000D01*
X84195000Y-100100000D02*
X87630000Y-100100000D01*
X87630000Y-100100000D02*
X87860000Y-100100000D01*
X88265000Y-99695000D02*
X89795000Y-100100000D01*
X82145000Y-100100000D02*
X84195000Y-100100000D01*
X81280000Y-100965000D02*
X82145000Y-100100000D01*
X90170000Y-112395000D02*
X89535000Y-111760000D01*
X89535000Y-111760000D02*
X89535000Y-110585000D01*
X94615000Y-112395000D02*
X93345000Y-112395000D01*
X92710000Y-111760000D02*
X92710000Y-110585000D01*
X93345000Y-112395000D02*
X92710000Y-111760000D01*
X81915000Y-84455000D02*
X81915000Y-81280000D01*
X109855000Y-113665000D02*
X108585000Y-112395000D01*
X108585000Y-112395000D02*
X94615000Y-112395000D01*
X94615000Y-112395000D02*
X90170000Y-112395000D01*
D18*
X83965000Y-100330000D02*
X84195000Y-100100000D01*
D17*
X99695000Y-84455000D02*
X99695000Y-81280000D01*
X81280000Y-100965000D02*
X81280000Y-99060000D01*
X81280000Y-85090000D02*
X81915000Y-84455000D01*
X81280000Y-86995000D02*
X81280000Y-85090000D01*
X83820000Y-107315000D02*
X81280000Y-104775000D01*
X81280000Y-104775000D02*
X81280000Y-103505000D01*
X81280000Y-103505000D02*
X81280000Y-102235000D01*
X81280000Y-101600000D02*
X81280000Y-100965000D01*
X81280000Y-102235000D02*
X81280000Y-101600000D01*
X83820000Y-109125000D02*
X83820000Y-107315000D01*
X81915000Y-78740000D02*
X80645000Y-78740000D01*
X80010000Y-80645000D02*
X80010000Y-95885000D01*
X80010000Y-79375000D02*
X80010000Y-80645000D01*
X80645000Y-78740000D02*
X80010000Y-79375000D01*
X81915000Y-78740000D02*
X81915000Y-77470000D01*
X99695000Y-77470000D02*
X99060000Y-76835000D01*
X99060000Y-76835000D02*
X97790000Y-76835000D01*
X99695000Y-77470000D02*
X99695000Y-78740000D01*
X82550000Y-76835000D02*
X97790000Y-76835000D01*
X81915000Y-77470000D02*
X82550000Y-76835000D01*
X80010000Y-95885000D02*
X80010000Y-93980000D01*
X80010000Y-93980000D02*
X81050000Y-92940000D01*
X81050000Y-92940000D02*
X84195000Y-92940000D01*
X83820000Y-114935000D02*
X83820000Y-113125000D01*
X106045000Y-114935000D02*
X83820000Y-114935000D01*
X83820000Y-114935000D02*
X83185000Y-114935000D01*
X80010000Y-95885000D02*
X80010000Y-113030000D01*
X80010000Y-113030000D02*
X81915000Y-114935000D01*
X81915000Y-114935000D02*
X83185000Y-114935000D01*
X106045000Y-114935000D02*
X107315000Y-113665000D01*
X109855000Y-111125000D02*
X108585000Y-109855000D01*
X95790000Y-106585000D02*
X92710000Y-106585000D01*
X99060000Y-109855000D02*
X95790000Y-106585000D01*
X108585000Y-109855000D02*
X99060000Y-109855000D01*
X84455000Y-86995000D02*
X84455000Y-81280000D01*
X84455000Y-86995000D02*
X86360000Y-88900000D01*
X92710000Y-106585000D02*
X92710000Y-104775000D01*
X91440000Y-103505000D02*
X92710000Y-104775000D01*
X86360000Y-103505000D02*
X91440000Y-103505000D01*
X107315000Y-111125000D02*
X97155000Y-111125000D01*
X89535000Y-107950000D02*
X89535000Y-106585000D01*
X90170000Y-108585000D02*
X89535000Y-107950000D01*
X94615000Y-108585000D02*
X90170000Y-108585000D01*
X97155000Y-111125000D02*
X94615000Y-108585000D01*
X85630000Y-106585000D02*
X89535000Y-106585000D01*
X83185000Y-80010000D02*
X83185000Y-88900000D01*
X84455000Y-78740000D02*
X83185000Y-80010000D01*
X85630000Y-106585000D02*
X83185000Y-104140000D01*
X95250000Y-93980000D02*
X100965000Y-99695000D01*
X95250000Y-93980000D02*
X86995000Y-85725000D01*
X86995000Y-85725000D02*
X86995000Y-81280000D01*
X100965000Y-105410000D02*
X102870000Y-107315000D01*
X100965000Y-99695000D02*
X100965000Y-100330000D01*
X108585000Y-107315000D02*
X102870000Y-107315000D01*
X109855000Y-108585000D02*
X108585000Y-107315000D01*
X109855000Y-106045000D02*
X108585000Y-104775000D01*
X85725000Y-80010000D02*
X86995000Y-78740000D01*
X85725000Y-86487000D02*
X85725000Y-80010000D01*
X88138000Y-88900000D02*
X85725000Y-86487000D01*
X103759000Y-104775000D02*
X96012000Y-97028000D01*
X108585000Y-104775000D02*
X103759000Y-104775000D01*
X89535000Y-81280000D02*
X89535000Y-85725000D01*
X108585000Y-102235000D02*
X109855000Y-103505000D01*
X106045000Y-102235000D02*
X108585000Y-102235000D01*
X89535000Y-85725000D02*
X106045000Y-102235000D01*
X107315000Y-103505000D02*
X106045000Y-103505000D01*
X88265000Y-80010000D02*
X89535000Y-78740000D01*
X88265000Y-85725000D02*
X88265000Y-80010000D01*
X106045000Y-103505000D02*
X88265000Y-85725000D01*
X92075000Y-81280000D02*
X92075000Y-85725000D01*
X108585000Y-99695000D02*
X109855000Y-100965000D01*
X106045000Y-99695000D02*
X108585000Y-99695000D01*
X92075000Y-85725000D02*
X106045000Y-99695000D01*
X107315000Y-100965000D02*
X106045000Y-100965000D01*
X90805000Y-80010000D02*
X92075000Y-78740000D01*
X90805000Y-85725000D02*
X90805000Y-80010000D01*
X106045000Y-100965000D02*
X90805000Y-85725000D01*
X94615000Y-81280000D02*
X94615000Y-85725000D01*
X108585000Y-97155000D02*
X109855000Y-98425000D01*
X106045000Y-97155000D02*
X108585000Y-97155000D01*
X94615000Y-85725000D02*
X106045000Y-97155000D01*
X107315000Y-98425000D02*
X106045000Y-98425000D01*
X93345000Y-80010000D02*
X94615000Y-78740000D01*
X93345000Y-85725000D02*
X93345000Y-80010000D01*
X106045000Y-98425000D02*
X93345000Y-85725000D01*
X97155000Y-81280000D02*
X97155000Y-85725000D01*
X108585000Y-94615000D02*
X109855000Y-95885000D01*
X106045000Y-94615000D02*
X108585000Y-94615000D01*
X97155000Y-85725000D02*
X106045000Y-94615000D01*
X107315000Y-95885000D02*
X106045000Y-95885000D01*
X95885000Y-80010000D02*
X97155000Y-78740000D01*
X95885000Y-85725000D02*
X95885000Y-80010000D01*
X106045000Y-95885000D02*
X95885000Y-85725000D01*
D18*
X107315000Y-95885000D02*
X106680000Y-95885000D01*
D17*
X94488000Y-97155000D02*
X94488000Y-95885000D01*
X100965000Y-80010000D02*
X102235000Y-78740000D01*
X100965000Y-86360000D02*
X100965000Y-80010000D01*
X107315000Y-106045000D02*
X103378000Y-106045000D01*
X103378000Y-106045000D02*
X94488000Y-97155000D01*
X94488000Y-97155000D02*
X90273000Y-92940000D01*
X90273000Y-92940000D02*
X89795000Y-92940000D01*
X103505000Y-108585000D02*
X107315000Y-108585000D01*
X103505000Y-88265000D02*
X103505000Y-80010000D01*
X104775000Y-78740000D02*
X103505000Y-80010000D01*
X109855000Y-93345000D02*
X109855000Y-87630000D01*
X107315000Y-85090000D02*
X107315000Y-81280000D01*
X109855000Y-87630000D02*
X107315000Y-85090000D01*
X107315000Y-93345000D02*
X107315000Y-86995000D01*
X106045000Y-80010000D02*
X107315000Y-78740000D01*
X106045000Y-85725000D02*
X106045000Y-80010000D01*
X107315000Y-86995000D02*
X106045000Y-85725000D01*
D19*
G36*
X113538000Y-117348000D02*
X111382959Y-117348000D01*
X111382959Y-111125000D01*
X111268885Y-110551511D01*
X110944029Y-110065330D01*
X110629248Y-109855000D01*
X110944029Y-109644670D01*
X111268885Y-109158489D01*
X111382959Y-108585000D01*
X111268885Y-108011511D01*
X110944029Y-107525330D01*
X110629248Y-107315000D01*
X110944029Y-107104670D01*
X111268885Y-106618489D01*
X111382959Y-106045000D01*
X111268885Y-105471511D01*
X110944029Y-104985330D01*
X110629248Y-104775000D01*
X110944029Y-104564670D01*
X111268885Y-104078489D01*
X111382959Y-103505000D01*
X111268885Y-102931511D01*
X110944029Y-102445330D01*
X110629248Y-102235000D01*
X110944029Y-102024670D01*
X111268885Y-101538489D01*
X111382959Y-100965000D01*
X111268885Y-100391511D01*
X110944029Y-99905330D01*
X110629248Y-99695000D01*
X110944029Y-99484670D01*
X111268885Y-98998489D01*
X111382959Y-98425000D01*
X111268885Y-97851511D01*
X110944029Y-97365330D01*
X110629248Y-97155000D01*
X110944029Y-96944670D01*
X111268885Y-96458489D01*
X111382959Y-95885000D01*
X111268885Y-95311511D01*
X110944029Y-94825330D01*
X110629248Y-94615000D01*
X110944029Y-94404670D01*
X111268885Y-93918489D01*
X111382959Y-93345000D01*
X111268885Y-92771511D01*
X110944029Y-92285330D01*
X110640000Y-92082184D01*
X110640000Y-87630000D01*
X110580245Y-87329594D01*
X110580244Y-87329593D01*
X110410079Y-87074921D01*
X108100000Y-84764842D01*
X108100000Y-82552557D01*
X108374670Y-82369029D01*
X108585000Y-82054248D01*
X108795330Y-82369029D01*
X109281511Y-82693885D01*
X109855000Y-82807959D01*
X110428489Y-82693885D01*
X110914670Y-82369029D01*
X111239526Y-81882848D01*
X111353600Y-81309359D01*
X111353600Y-81250641D01*
X111239526Y-80677152D01*
X110914670Y-80190971D01*
X110643827Y-80010000D01*
X110914670Y-79829029D01*
X111239526Y-79342848D01*
X111353600Y-78769359D01*
X111353600Y-78710641D01*
X111239526Y-78137152D01*
X110914670Y-77650971D01*
X110428489Y-77326115D01*
X109855000Y-77212041D01*
X109281511Y-77326115D01*
X108795330Y-77650971D01*
X108585000Y-77965751D01*
X108374670Y-77650971D01*
X107888489Y-77326115D01*
X107315000Y-77212041D01*
X106741511Y-77326115D01*
X106255330Y-77650971D01*
X106045000Y-77965751D01*
X105834670Y-77650971D01*
X105348489Y-77326115D01*
X104775000Y-77212041D01*
X104201511Y-77326115D01*
X103715330Y-77650971D01*
X103505000Y-77965751D01*
X103294670Y-77650971D01*
X102808489Y-77326115D01*
X102235000Y-77212041D01*
X101661511Y-77326115D01*
X101175330Y-77650971D01*
X100850474Y-78137152D01*
X100736400Y-78710641D01*
X100736400Y-78769359D01*
X100795975Y-79068866D01*
X100409921Y-79454921D01*
X100239755Y-79709593D01*
X100210899Y-79854659D01*
X99695000Y-79752041D01*
X99121511Y-79866115D01*
X98635330Y-80190971D01*
X98425000Y-80505751D01*
X98214670Y-80190971D01*
X97943827Y-80010000D01*
X98214670Y-79829029D01*
X98539526Y-79342848D01*
X98653600Y-78769359D01*
X98653600Y-78710641D01*
X98539526Y-78137152D01*
X98214670Y-77650971D01*
X97728489Y-77326115D01*
X97155000Y-77212041D01*
X96581511Y-77326115D01*
X96095330Y-77650971D01*
X95885000Y-77965751D01*
X95674670Y-77650971D01*
X95188489Y-77326115D01*
X94615000Y-77212041D01*
X94041511Y-77326115D01*
X93555330Y-77650971D01*
X93345000Y-77965751D01*
X93134670Y-77650971D01*
X92648489Y-77326115D01*
X92075000Y-77212041D01*
X91501511Y-77326115D01*
X91015330Y-77650971D01*
X90805000Y-77965751D01*
X90594670Y-77650971D01*
X90108489Y-77326115D01*
X89535000Y-77212041D01*
X88961511Y-77326115D01*
X88475330Y-77650971D01*
X88265000Y-77965751D01*
X88054670Y-77650971D01*
X87568489Y-77326115D01*
X86995000Y-77212041D01*
X86421511Y-77326115D01*
X85935330Y-77650971D01*
X85725000Y-77965751D01*
X85514670Y-77650971D01*
X85028489Y-77326115D01*
X84455000Y-77212041D01*
X83881511Y-77326115D01*
X83395330Y-77650971D01*
X83070474Y-78137152D01*
X82956400Y-78710641D01*
X82956400Y-78769359D01*
X83015975Y-79068866D01*
X82629921Y-79454921D01*
X82459755Y-79709593D01*
X82447946Y-79768960D01*
X81051400Y-79768960D01*
X80809277Y-79815937D01*
X80596473Y-79955727D01*
X80454023Y-80166760D01*
X80403960Y-80416400D01*
X80403960Y-82143600D01*
X80450937Y-82385723D01*
X80590727Y-82598527D01*
X80801760Y-82740977D01*
X81051400Y-82791040D01*
X81130000Y-82791040D01*
X81130000Y-83493600D01*
X80868629Y-83754515D01*
X80680215Y-84208266D01*
X80679870Y-84602343D01*
X80554755Y-84789593D01*
X80495000Y-85090000D01*
X80495000Y-86033600D01*
X80233629Y-86294515D01*
X80045215Y-86748266D01*
X80044786Y-87239579D01*
X80232408Y-87693657D01*
X80579515Y-88041371D01*
X81033266Y-88229785D01*
X81524579Y-88230214D01*
X81978657Y-88042592D01*
X82326371Y-87695485D01*
X82400000Y-87518166D01*
X82400000Y-87938600D01*
X82138629Y-88199515D01*
X81950215Y-88653266D01*
X81949786Y-89144579D01*
X82137408Y-89598657D01*
X82484515Y-89946371D01*
X82938266Y-90134785D01*
X83429579Y-90135214D01*
X83883657Y-89947592D01*
X84231371Y-89600485D01*
X84419785Y-89146734D01*
X84420214Y-88655421D01*
X84232592Y-88201343D01*
X83970000Y-87938291D01*
X83970000Y-87620158D01*
X85125108Y-88775266D01*
X85124786Y-89144579D01*
X85312408Y-89598657D01*
X85659515Y-89946371D01*
X86113266Y-90134785D01*
X86604579Y-90135214D01*
X87058657Y-89947592D01*
X87249027Y-89757553D01*
X87437515Y-89946371D01*
X87891266Y-90134785D01*
X88382579Y-90135214D01*
X88836657Y-89947592D01*
X89184371Y-89600485D01*
X89353358Y-89193516D01*
X90522402Y-90362560D01*
X88095000Y-90362560D01*
X87852877Y-90409537D01*
X87640073Y-90549327D01*
X87497623Y-90760360D01*
X87447560Y-91010000D01*
X87447560Y-94870000D01*
X87494537Y-95112123D01*
X87634327Y-95324927D01*
X87845360Y-95467377D01*
X88095000Y-95517440D01*
X91495000Y-95517440D01*
X91700425Y-95477583D01*
X93932921Y-97710079D01*
X100492007Y-104269165D01*
X100266343Y-104362408D01*
X99918629Y-104709515D01*
X99730215Y-105163266D01*
X99729786Y-105654579D01*
X99917408Y-106108657D01*
X100264515Y-106456371D01*
X100718266Y-106644785D01*
X101089951Y-106645109D01*
X102314921Y-107870079D01*
X102432109Y-107948381D01*
X102270215Y-108338266D01*
X102269786Y-108829579D01*
X102369126Y-109070000D01*
X99385157Y-109070000D01*
X96345079Y-106029921D01*
X96090407Y-105859755D01*
X95790000Y-105800000D01*
X94207440Y-105800000D01*
X94207440Y-105585000D01*
X94160463Y-105342877D01*
X94020673Y-105130073D01*
X93809640Y-104987623D01*
X93560000Y-104937560D01*
X93495000Y-104937560D01*
X93495000Y-104775000D01*
X93435245Y-104474594D01*
X93435245Y-104474593D01*
X93265079Y-104219921D01*
X91995079Y-102949921D01*
X91740407Y-102779755D01*
X91440000Y-102720000D01*
X87321399Y-102720000D01*
X87060485Y-102458629D01*
X86606734Y-102270215D01*
X86494286Y-102270116D01*
X86542440Y-102030000D01*
X86542440Y-100885000D01*
X87447560Y-100885000D01*
X87447560Y-102030000D01*
X87494537Y-102272123D01*
X87634327Y-102484927D01*
X87845360Y-102627377D01*
X88095000Y-102677440D01*
X91495000Y-102677440D01*
X91737123Y-102630463D01*
X91949927Y-102490673D01*
X92092377Y-102279640D01*
X92142440Y-102030000D01*
X92142440Y-98170000D01*
X92095463Y-97927877D01*
X91955673Y-97715073D01*
X91744640Y-97572623D01*
X91495000Y-97522560D01*
X88095000Y-97522560D01*
X87852877Y-97569537D01*
X87640073Y-97709327D01*
X87497623Y-97920360D01*
X87447560Y-98170000D01*
X87447560Y-99315000D01*
X86542440Y-99315000D01*
X86542440Y-98170000D01*
X86495463Y-97927877D01*
X86355673Y-97715073D01*
X86144640Y-97572623D01*
X85895000Y-97522560D01*
X82495000Y-97522560D01*
X82252877Y-97569537D01*
X82040073Y-97709327D01*
X81897623Y-97920360D01*
X81886726Y-97974696D01*
X81526734Y-97825215D01*
X81035421Y-97824786D01*
X80581343Y-98012408D01*
X80233629Y-98359515D01*
X80045215Y-98813266D01*
X80044786Y-99304579D01*
X80232408Y-99758657D01*
X80495000Y-100021708D01*
X80495000Y-100965000D01*
X80495000Y-101600000D01*
X80495000Y-102235000D01*
X80495000Y-103505000D01*
X80495000Y-104775000D01*
X80554755Y-105075407D01*
X80724921Y-105330079D01*
X82896385Y-107501543D01*
X82777877Y-107524537D01*
X82565073Y-107664327D01*
X82422623Y-107875360D01*
X82372560Y-108125000D01*
X82372560Y-110125000D01*
X82419537Y-110367123D01*
X82559327Y-110579927D01*
X82770360Y-110722377D01*
X83020000Y-110772440D01*
X84262282Y-110772440D01*
X85804921Y-112315079D01*
X86439921Y-112950079D01*
X86694594Y-113120245D01*
X86995000Y-113180001D01*
X86995000Y-113180000D01*
X86995005Y-113180000D01*
X87630000Y-113180000D01*
X90169994Y-113180000D01*
X90170000Y-113180001D01*
X90170000Y-113180000D01*
X90170005Y-113180000D01*
X93344994Y-113180000D01*
X93345000Y-113180001D01*
X93345000Y-113180000D01*
X93345005Y-113180000D01*
X94615000Y-113180000D01*
X108259842Y-113180000D01*
X108343960Y-113264118D01*
X108343960Y-114528600D01*
X108390937Y-114770723D01*
X108530727Y-114983527D01*
X108741760Y-115125977D01*
X108991400Y-115176040D01*
X110718600Y-115176040D01*
X110960723Y-115129063D01*
X111173527Y-114989273D01*
X111315977Y-114778240D01*
X111366040Y-114528600D01*
X111366040Y-112801400D01*
X111319063Y-112559277D01*
X111179273Y-112346473D01*
X110968240Y-112204023D01*
X110927340Y-112195820D01*
X110944029Y-112184670D01*
X111268885Y-111698489D01*
X111382959Y-111125000D01*
X111382959Y-117348000D01*
X78232000Y-117348000D01*
X78232000Y-75057000D01*
X113538000Y-75057000D01*
X113538000Y-117348000D01*
X113538000Y-117348000D01*
G37*
X113538000Y-117348000D02*
X111382959Y-117348000D01*
X111382959Y-111125000D01*
X111268885Y-110551511D01*
X110944029Y-110065330D01*
X110629248Y-109855000D01*
X110944029Y-109644670D01*
X111268885Y-109158489D01*
X111382959Y-108585000D01*
X111268885Y-108011511D01*
X110944029Y-107525330D01*
X110629248Y-107315000D01*
X110944029Y-107104670D01*
X111268885Y-106618489D01*
X111382959Y-106045000D01*
X111268885Y-105471511D01*
X110944029Y-104985330D01*
X110629248Y-104775000D01*
X110944029Y-104564670D01*
X111268885Y-104078489D01*
X111382959Y-103505000D01*
X111268885Y-102931511D01*
X110944029Y-102445330D01*
X110629248Y-102235000D01*
X110944029Y-102024670D01*
X111268885Y-101538489D01*
X111382959Y-100965000D01*
X111268885Y-100391511D01*
X110944029Y-99905330D01*
X110629248Y-99695000D01*
X110944029Y-99484670D01*
X111268885Y-98998489D01*
X111382959Y-98425000D01*
X111268885Y-97851511D01*
X110944029Y-97365330D01*
X110629248Y-97155000D01*
X110944029Y-96944670D01*
X111268885Y-96458489D01*
X111382959Y-95885000D01*
X111268885Y-95311511D01*
X110944029Y-94825330D01*
X110629248Y-94615000D01*
X110944029Y-94404670D01*
X111268885Y-93918489D01*
X111382959Y-93345000D01*
X111268885Y-92771511D01*
X110944029Y-92285330D01*
X110640000Y-92082184D01*
X110640000Y-87630000D01*
X110580245Y-87329594D01*
X110580244Y-87329593D01*
X110410079Y-87074921D01*
X108100000Y-84764842D01*
X108100000Y-82552557D01*
X108374670Y-82369029D01*
X108585000Y-82054248D01*
X108795330Y-82369029D01*
X109281511Y-82693885D01*
X109855000Y-82807959D01*
X110428489Y-82693885D01*
X110914670Y-82369029D01*
X111239526Y-81882848D01*
X111353600Y-81309359D01*
X111353600Y-81250641D01*
X111239526Y-80677152D01*
X110914670Y-80190971D01*
X110643827Y-80010000D01*
X110914670Y-79829029D01*
X111239526Y-79342848D01*
X111353600Y-78769359D01*
X111353600Y-78710641D01*
X111239526Y-78137152D01*
X110914670Y-77650971D01*
X110428489Y-77326115D01*
X109855000Y-77212041D01*
X109281511Y-77326115D01*
X108795330Y-77650971D01*
X108585000Y-77965751D01*
X108374670Y-77650971D01*
X107888489Y-77326115D01*
X107315000Y-77212041D01*
X106741511Y-77326115D01*
X106255330Y-77650971D01*
X106045000Y-77965751D01*
X105834670Y-77650971D01*
X105348489Y-77326115D01*
X104775000Y-77212041D01*
X104201511Y-77326115D01*
X103715330Y-77650971D01*
X103505000Y-77965751D01*
X103294670Y-77650971D01*
X102808489Y-77326115D01*
X102235000Y-77212041D01*
X101661511Y-77326115D01*
X101175330Y-77650971D01*
X100850474Y-78137152D01*
X100736400Y-78710641D01*
X100736400Y-78769359D01*
X100795975Y-79068866D01*
X100409921Y-79454921D01*
X100239755Y-79709593D01*
X100210899Y-79854659D01*
X99695000Y-79752041D01*
X99121511Y-79866115D01*
X98635330Y-80190971D01*
X98425000Y-80505751D01*
X98214670Y-80190971D01*
X97943827Y-80010000D01*
X98214670Y-79829029D01*
X98539526Y-79342848D01*
X98653600Y-78769359D01*
X98653600Y-78710641D01*
X98539526Y-78137152D01*
X98214670Y-77650971D01*
X97728489Y-77326115D01*
X97155000Y-77212041D01*
X96581511Y-77326115D01*
X96095330Y-77650971D01*
X95885000Y-77965751D01*
X95674670Y-77650971D01*
X95188489Y-77326115D01*
X94615000Y-77212041D01*
X94041511Y-77326115D01*
X93555330Y-77650971D01*
X93345000Y-77965751D01*
X93134670Y-77650971D01*
X92648489Y-77326115D01*
X92075000Y-77212041D01*
X91501511Y-77326115D01*
X91015330Y-77650971D01*
X90805000Y-77965751D01*
X90594670Y-77650971D01*
X90108489Y-77326115D01*
X89535000Y-77212041D01*
X88961511Y-77326115D01*
X88475330Y-77650971D01*
X88265000Y-77965751D01*
X88054670Y-77650971D01*
X87568489Y-77326115D01*
X86995000Y-77212041D01*
X86421511Y-77326115D01*
X85935330Y-77650971D01*
X85725000Y-77965751D01*
X85514670Y-77650971D01*
X85028489Y-77326115D01*
X84455000Y-77212041D01*
X83881511Y-77326115D01*
X83395330Y-77650971D01*
X83070474Y-78137152D01*
X82956400Y-78710641D01*
X82956400Y-78769359D01*
X83015975Y-79068866D01*
X82629921Y-79454921D01*
X82459755Y-79709593D01*
X82447946Y-79768960D01*
X81051400Y-79768960D01*
X80809277Y-79815937D01*
X80596473Y-79955727D01*
X80454023Y-80166760D01*
X80403960Y-80416400D01*
X80403960Y-82143600D01*
X80450937Y-82385723D01*
X80590727Y-82598527D01*
X80801760Y-82740977D01*
X81051400Y-82791040D01*
X81130000Y-82791040D01*
X81130000Y-83493600D01*
X80868629Y-83754515D01*
X80680215Y-84208266D01*
X80679870Y-84602343D01*
X80554755Y-84789593D01*
X80495000Y-85090000D01*
X80495000Y-86033600D01*
X80233629Y-86294515D01*
X80045215Y-86748266D01*
X80044786Y-87239579D01*
X80232408Y-87693657D01*
X80579515Y-88041371D01*
X81033266Y-88229785D01*
X81524579Y-88230214D01*
X81978657Y-88042592D01*
X82326371Y-87695485D01*
X82400000Y-87518166D01*
X82400000Y-87938600D01*
X82138629Y-88199515D01*
X81950215Y-88653266D01*
X81949786Y-89144579D01*
X82137408Y-89598657D01*
X82484515Y-89946371D01*
X82938266Y-90134785D01*
X83429579Y-90135214D01*
X83883657Y-89947592D01*
X84231371Y-89600485D01*
X84419785Y-89146734D01*
X84420214Y-88655421D01*
X84232592Y-88201343D01*
X83970000Y-87938291D01*
X83970000Y-87620158D01*
X85125108Y-88775266D01*
X85124786Y-89144579D01*
X85312408Y-89598657D01*
X85659515Y-89946371D01*
X86113266Y-90134785D01*
X86604579Y-90135214D01*
X87058657Y-89947592D01*
X87249027Y-89757553D01*
X87437515Y-89946371D01*
X87891266Y-90134785D01*
X88382579Y-90135214D01*
X88836657Y-89947592D01*
X89184371Y-89600485D01*
X89353358Y-89193516D01*
X90522402Y-90362560D01*
X88095000Y-90362560D01*
X87852877Y-90409537D01*
X87640073Y-90549327D01*
X87497623Y-90760360D01*
X87447560Y-91010000D01*
X87447560Y-94870000D01*
X87494537Y-95112123D01*
X87634327Y-95324927D01*
X87845360Y-95467377D01*
X88095000Y-95517440D01*
X91495000Y-95517440D01*
X91700425Y-95477583D01*
X93932921Y-97710079D01*
X100492007Y-104269165D01*
X100266343Y-104362408D01*
X99918629Y-104709515D01*
X99730215Y-105163266D01*
X99729786Y-105654579D01*
X99917408Y-106108657D01*
X100264515Y-106456371D01*
X100718266Y-106644785D01*
X101089951Y-106645109D01*
X102314921Y-107870079D01*
X102432109Y-107948381D01*
X102270215Y-108338266D01*
X102269786Y-108829579D01*
X102369126Y-109070000D01*
X99385157Y-109070000D01*
X96345079Y-106029921D01*
X96090407Y-105859755D01*
X95790000Y-105800000D01*
X94207440Y-105800000D01*
X94207440Y-105585000D01*
X94160463Y-105342877D01*
X94020673Y-105130073D01*
X93809640Y-104987623D01*
X93560000Y-104937560D01*
X93495000Y-104937560D01*
X93495000Y-104775000D01*
X93435245Y-104474594D01*
X93435245Y-104474593D01*
X93265079Y-104219921D01*
X91995079Y-102949921D01*
X91740407Y-102779755D01*
X91440000Y-102720000D01*
X87321399Y-102720000D01*
X87060485Y-102458629D01*
X86606734Y-102270215D01*
X86494286Y-102270116D01*
X86542440Y-102030000D01*
X86542440Y-100885000D01*
X87447560Y-100885000D01*
X87447560Y-102030000D01*
X87494537Y-102272123D01*
X87634327Y-102484927D01*
X87845360Y-102627377D01*
X88095000Y-102677440D01*
X91495000Y-102677440D01*
X91737123Y-102630463D01*
X91949927Y-102490673D01*
X92092377Y-102279640D01*
X92142440Y-102030000D01*
X92142440Y-98170000D01*
X92095463Y-97927877D01*
X91955673Y-97715073D01*
X91744640Y-97572623D01*
X91495000Y-97522560D01*
X88095000Y-97522560D01*
X87852877Y-97569537D01*
X87640073Y-97709327D01*
X87497623Y-97920360D01*
X87447560Y-98170000D01*
X87447560Y-99315000D01*
X86542440Y-99315000D01*
X86542440Y-98170000D01*
X86495463Y-97927877D01*
X86355673Y-97715073D01*
X86144640Y-97572623D01*
X85895000Y-97522560D01*
X82495000Y-97522560D01*
X82252877Y-97569537D01*
X82040073Y-97709327D01*
X81897623Y-97920360D01*
X81886726Y-97974696D01*
X81526734Y-97825215D01*
X81035421Y-97824786D01*
X80581343Y-98012408D01*
X80233629Y-98359515D01*
X80045215Y-98813266D01*
X80044786Y-99304579D01*
X80232408Y-99758657D01*
X80495000Y-100021708D01*
X80495000Y-100965000D01*
X80495000Y-101600000D01*
X80495000Y-102235000D01*
X80495000Y-103505000D01*
X80495000Y-104775000D01*
X80554755Y-105075407D01*
X80724921Y-105330079D01*
X82896385Y-107501543D01*
X82777877Y-107524537D01*
X82565073Y-107664327D01*
X82422623Y-107875360D01*
X82372560Y-108125000D01*
X82372560Y-110125000D01*
X82419537Y-110367123D01*
X82559327Y-110579927D01*
X82770360Y-110722377D01*
X83020000Y-110772440D01*
X84262282Y-110772440D01*
X85804921Y-112315079D01*
X86439921Y-112950079D01*
X86694594Y-113120245D01*
X86995000Y-113180001D01*
X86995000Y-113180000D01*
X86995005Y-113180000D01*
X87630000Y-113180000D01*
X90169994Y-113180000D01*
X90170000Y-113180001D01*
X90170000Y-113180000D01*
X90170005Y-113180000D01*
X93344994Y-113180000D01*
X93345000Y-113180001D01*
X93345000Y-113180000D01*
X93345005Y-113180000D01*
X94615000Y-113180000D01*
X108259842Y-113180000D01*
X108343960Y-113264118D01*
X108343960Y-114528600D01*
X108390937Y-114770723D01*
X108530727Y-114983527D01*
X108741760Y-115125977D01*
X108991400Y-115176040D01*
X110718600Y-115176040D01*
X110960723Y-115129063D01*
X111173527Y-114989273D01*
X111315977Y-114778240D01*
X111366040Y-114528600D01*
X111366040Y-112801400D01*
X111319063Y-112559277D01*
X111179273Y-112346473D01*
X110968240Y-112204023D01*
X110927340Y-112195820D01*
X110944029Y-112184670D01*
X111268885Y-111698489D01*
X111382959Y-111125000D01*
X111382959Y-117348000D01*
X78232000Y-117348000D01*
X78232000Y-75057000D01*
X113538000Y-75057000D01*
X113538000Y-117348000D01*
M02*
