M48
;DRILL file {kicad (2015-03-23 BZR 5533)-product} date Tue 11 Aug 2015 14:19:26 SAST
;FORMAT={-:-/ absolute / inch / decimal}
FMAT,2
INCH,TZ
T1C0.031
T2C0.040
%
G90
G05
M72
T1
X3.2Y-3.4
X3.2Y-3.8
X3.225Y-3.325
X3.275Y-3.5
X3.275Y-4.1
X3.375Y-3.5
X3.375Y-4.1
X3.825Y-4.125
X3.925Y-3.325
X3.95Y-4.125
X4.05Y-3.525
X4.05Y-4.175
X4.125Y-3.525
X4.125Y-4.275
T2
X3.225Y-3.1
X3.225Y-3.2
X3.325Y-3.1
X3.325Y-3.2
X3.425Y-3.1
X3.425Y-3.2
X3.525Y-3.1
X3.525Y-3.2
X3.625Y-3.1
X3.625Y-3.2
X3.725Y-3.1
X3.725Y-3.2
X3.825Y-3.1
X3.825Y-3.2
X3.925Y-3.1
X3.925Y-3.2
X4.025Y-3.1
X4.025Y-3.2
X4.125Y-3.1
X4.125Y-3.2
X4.225Y-3.1
X4.225Y-3.2
X4.225Y-3.675
X4.225Y-3.775
X4.225Y-3.875
X4.225Y-3.975
X4.225Y-4.075
X4.225Y-4.175
X4.225Y-4.275
X4.225Y-4.375
X4.225Y-4.475
X4.325Y-3.1
X4.325Y-3.2
X4.325Y-3.675
X4.325Y-3.775
X4.325Y-3.875
X4.325Y-3.975
X4.325Y-4.075
X4.325Y-4.175
X4.325Y-4.275
X4.325Y-4.375
X4.325Y-4.475
T0
M30
