G04 #@! TF.FileFunction,Copper,L1,Top,Signal*
%FSLAX46Y46*%
G04 Gerber Fmt 4.6, Leading zero omitted, Abs format (unit mm)*
G04 Created by KiCad (PCBNEW (2015-03-23 BZR 5533)-product) date Fri 21 Aug 2015 17:58:34 SAST*
%MOMM*%
G01*
G04 APERTURE LIST*
%ADD10C,0.100000*%
%ADD11R,1.727200X1.727200*%
%ADD12O,1.727200X1.727200*%
%ADD13C,1.200000*%
%ADD14C,0.300000*%
%ADD15C,0.254000*%
G04 APERTURE END LIST*
D10*
D11*
X81915000Y-81280000D03*
D12*
X81915000Y-78740000D03*
X84455000Y-81280000D03*
X84455000Y-78740000D03*
X86995000Y-81280000D03*
X86995000Y-78740000D03*
X89535000Y-81280000D03*
X89535000Y-78740000D03*
X92075000Y-81280000D03*
X92075000Y-78740000D03*
X94615000Y-81280000D03*
X94615000Y-78740000D03*
X97155000Y-81280000D03*
X97155000Y-78740000D03*
X99695000Y-81280000D03*
X99695000Y-78740000D03*
X102235000Y-81280000D03*
X102235000Y-78740000D03*
X104775000Y-81280000D03*
X104775000Y-78740000D03*
X107315000Y-81280000D03*
X107315000Y-78740000D03*
X109855000Y-81280000D03*
X109855000Y-78740000D03*
D11*
X109855000Y-113665000D03*
D12*
X107315000Y-113665000D03*
X109855000Y-111125000D03*
X107315000Y-111125000D03*
X109855000Y-108585000D03*
X107315000Y-108585000D03*
X109855000Y-106045000D03*
X107315000Y-106045000D03*
X109855000Y-103505000D03*
X107315000Y-103505000D03*
X109855000Y-100965000D03*
X107315000Y-100965000D03*
X109855000Y-98425000D03*
X107315000Y-98425000D03*
X109855000Y-95885000D03*
X107315000Y-95885000D03*
X109855000Y-93345000D03*
X107315000Y-93345000D03*
D13*
X99695000Y-84455000D03*
X81915000Y-84455000D03*
X81280000Y-86995000D03*
X81280000Y-99060000D03*
X86360000Y-88900000D03*
X86360000Y-103505000D03*
X83185000Y-88900000D03*
X83185000Y-104140000D03*
X100965000Y-100330000D03*
X100965000Y-105410000D03*
X88138000Y-88900000D03*
X96012000Y-97028000D03*
X100965000Y-86360000D03*
X94488000Y-95885000D03*
X103505000Y-88265000D03*
X103505000Y-108585000D03*
D14*
X81915000Y-84455000D02*
X99695000Y-84455000D01*
X81280000Y-99060000D02*
X81280000Y-86995000D01*
X86360000Y-88900000D02*
X86360000Y-103505000D01*
X83185000Y-104140000D02*
X83185000Y-88900000D01*
X100965000Y-100330000D02*
X100965000Y-105410000D01*
X88138000Y-93980000D02*
X88138000Y-88900000D01*
X91186000Y-97028000D02*
X88138000Y-93980000D01*
X96012000Y-97028000D02*
X91186000Y-97028000D01*
X100965000Y-89408000D02*
X100965000Y-86360000D01*
X94488000Y-95885000D02*
X100965000Y-89408000D01*
X103505000Y-107315000D02*
X103505000Y-88265000D01*
X103505000Y-108585000D02*
X103505000Y-107315000D01*
D15*
G36*
X113538000Y-117348000D02*
X111382959Y-117348000D01*
X111382959Y-111125000D01*
X111268885Y-110551511D01*
X110944029Y-110065330D01*
X110629248Y-109855000D01*
X110944029Y-109644670D01*
X111268885Y-109158489D01*
X111382959Y-108585000D01*
X111268885Y-108011511D01*
X110944029Y-107525330D01*
X110629248Y-107315000D01*
X110944029Y-107104670D01*
X111268885Y-106618489D01*
X111382959Y-106045000D01*
X111268885Y-105471511D01*
X110944029Y-104985330D01*
X110629248Y-104775000D01*
X110944029Y-104564670D01*
X111268885Y-104078489D01*
X111382959Y-103505000D01*
X111268885Y-102931511D01*
X110944029Y-102445330D01*
X110629248Y-102235000D01*
X110944029Y-102024670D01*
X111268885Y-101538489D01*
X111382959Y-100965000D01*
X111268885Y-100391511D01*
X110944029Y-99905330D01*
X110629248Y-99695000D01*
X110944029Y-99484670D01*
X111268885Y-98998489D01*
X111382959Y-98425000D01*
X111268885Y-97851511D01*
X110944029Y-97365330D01*
X110629248Y-97155000D01*
X110944029Y-96944670D01*
X111268885Y-96458489D01*
X111382959Y-95885000D01*
X111268885Y-95311511D01*
X110944029Y-94825330D01*
X110629248Y-94615000D01*
X110944029Y-94404670D01*
X111268885Y-93918489D01*
X111382959Y-93345000D01*
X111353600Y-93197402D01*
X111353600Y-81309359D01*
X111353600Y-81250641D01*
X111239526Y-80677152D01*
X110914670Y-80190971D01*
X110643827Y-80010000D01*
X110914670Y-79829029D01*
X111239526Y-79342848D01*
X111353600Y-78769359D01*
X111353600Y-78710641D01*
X111239526Y-78137152D01*
X110914670Y-77650971D01*
X110428489Y-77326115D01*
X109855000Y-77212041D01*
X109281511Y-77326115D01*
X108795330Y-77650971D01*
X108585000Y-77965751D01*
X108374670Y-77650971D01*
X107888489Y-77326115D01*
X107315000Y-77212041D01*
X106741511Y-77326115D01*
X106255330Y-77650971D01*
X106045000Y-77965751D01*
X105834670Y-77650971D01*
X105348489Y-77326115D01*
X104775000Y-77212041D01*
X104201511Y-77326115D01*
X103715330Y-77650971D01*
X103505000Y-77965751D01*
X103294670Y-77650971D01*
X102808489Y-77326115D01*
X102235000Y-77212041D01*
X101661511Y-77326115D01*
X101175330Y-77650971D01*
X100850474Y-78137152D01*
X100736400Y-78710641D01*
X100736400Y-78769359D01*
X100850474Y-79342848D01*
X101175330Y-79829029D01*
X101446172Y-80010000D01*
X101175330Y-80190971D01*
X100965000Y-80505751D01*
X100754670Y-80190971D01*
X100268489Y-79866115D01*
X99695000Y-79752041D01*
X99121511Y-79866115D01*
X98635330Y-80190971D01*
X98425000Y-80505751D01*
X98214670Y-80190971D01*
X97943827Y-80010000D01*
X98214670Y-79829029D01*
X98539526Y-79342848D01*
X98653600Y-78769359D01*
X98653600Y-78710641D01*
X98539526Y-78137152D01*
X98214670Y-77650971D01*
X97728489Y-77326115D01*
X97155000Y-77212041D01*
X96581511Y-77326115D01*
X96095330Y-77650971D01*
X95885000Y-77965751D01*
X95674670Y-77650971D01*
X95188489Y-77326115D01*
X94615000Y-77212041D01*
X94041511Y-77326115D01*
X93555330Y-77650971D01*
X93345000Y-77965751D01*
X93134670Y-77650971D01*
X92648489Y-77326115D01*
X92075000Y-77212041D01*
X91501511Y-77326115D01*
X91015330Y-77650971D01*
X90805000Y-77965751D01*
X90594670Y-77650971D01*
X90108489Y-77326115D01*
X89535000Y-77212041D01*
X88961511Y-77326115D01*
X88475330Y-77650971D01*
X88265000Y-77965751D01*
X88054670Y-77650971D01*
X87568489Y-77326115D01*
X86995000Y-77212041D01*
X86421511Y-77326115D01*
X85935330Y-77650971D01*
X85725000Y-77965751D01*
X85514670Y-77650971D01*
X85028489Y-77326115D01*
X84455000Y-77212041D01*
X83881511Y-77326115D01*
X83395330Y-77650971D01*
X83070474Y-78137152D01*
X82956400Y-78710641D01*
X82956400Y-78769359D01*
X83070474Y-79342848D01*
X83395330Y-79829029D01*
X83666172Y-80010000D01*
X83395330Y-80190971D01*
X83385233Y-80206081D01*
X83379063Y-80174277D01*
X83239273Y-79961473D01*
X83028240Y-79819023D01*
X82778600Y-79768960D01*
X81051400Y-79768960D01*
X80809277Y-79815937D01*
X80596473Y-79955727D01*
X80454023Y-80166760D01*
X80403960Y-80416400D01*
X80403960Y-82143600D01*
X80450937Y-82385723D01*
X80590727Y-82598527D01*
X80801760Y-82740977D01*
X81051400Y-82791040D01*
X82778600Y-82791040D01*
X83020723Y-82744063D01*
X83233527Y-82604273D01*
X83375977Y-82393240D01*
X83384179Y-82352340D01*
X83395330Y-82369029D01*
X83881511Y-82693885D01*
X84455000Y-82807959D01*
X85028489Y-82693885D01*
X85514670Y-82369029D01*
X85725000Y-82054248D01*
X85935330Y-82369029D01*
X86421511Y-82693885D01*
X86995000Y-82807959D01*
X87568489Y-82693885D01*
X88054670Y-82369029D01*
X88265000Y-82054248D01*
X88475330Y-82369029D01*
X88961511Y-82693885D01*
X89535000Y-82807959D01*
X90108489Y-82693885D01*
X90594670Y-82369029D01*
X90805000Y-82054248D01*
X91015330Y-82369029D01*
X91501511Y-82693885D01*
X92075000Y-82807959D01*
X92648489Y-82693885D01*
X93134670Y-82369029D01*
X93345000Y-82054248D01*
X93555330Y-82369029D01*
X94041511Y-82693885D01*
X94615000Y-82807959D01*
X95188489Y-82693885D01*
X95674670Y-82369029D01*
X95885000Y-82054248D01*
X96095330Y-82369029D01*
X96581511Y-82693885D01*
X97155000Y-82807959D01*
X97728489Y-82693885D01*
X98214670Y-82369029D01*
X98425000Y-82054248D01*
X98635330Y-82369029D01*
X99121511Y-82693885D01*
X99695000Y-82807959D01*
X100268489Y-82693885D01*
X100754670Y-82369029D01*
X100965000Y-82054248D01*
X101175330Y-82369029D01*
X101661511Y-82693885D01*
X102235000Y-82807959D01*
X102808489Y-82693885D01*
X103294670Y-82369029D01*
X103505000Y-82054248D01*
X103715330Y-82369029D01*
X104201511Y-82693885D01*
X104775000Y-82807959D01*
X105348489Y-82693885D01*
X105834670Y-82369029D01*
X106045000Y-82054248D01*
X106255330Y-82369029D01*
X106741511Y-82693885D01*
X107315000Y-82807959D01*
X107888489Y-82693885D01*
X108374670Y-82369029D01*
X108585000Y-82054248D01*
X108795330Y-82369029D01*
X109281511Y-82693885D01*
X109855000Y-82807959D01*
X110428489Y-82693885D01*
X110914670Y-82369029D01*
X111239526Y-81882848D01*
X111353600Y-81309359D01*
X111353600Y-93197402D01*
X111268885Y-92771511D01*
X110944029Y-92285330D01*
X110457848Y-91960474D01*
X109884359Y-91846400D01*
X109825641Y-91846400D01*
X109252152Y-91960474D01*
X108765971Y-92285330D01*
X108585000Y-92556172D01*
X108404029Y-92285330D01*
X107917848Y-91960474D01*
X107344359Y-91846400D01*
X107285641Y-91846400D01*
X106712152Y-91960474D01*
X106225971Y-92285330D01*
X105901115Y-92771511D01*
X105787041Y-93345000D01*
X105901115Y-93918489D01*
X106225971Y-94404670D01*
X106540751Y-94615000D01*
X106225971Y-94825330D01*
X105901115Y-95311511D01*
X105787041Y-95885000D01*
X105901115Y-96458489D01*
X106225971Y-96944670D01*
X106540751Y-97155000D01*
X106225971Y-97365330D01*
X105901115Y-97851511D01*
X105787041Y-98425000D01*
X105901115Y-98998489D01*
X106225971Y-99484670D01*
X106540751Y-99695000D01*
X106225971Y-99905330D01*
X105901115Y-100391511D01*
X105787041Y-100965000D01*
X105901115Y-101538489D01*
X106225971Y-102024670D01*
X106540751Y-102235000D01*
X106225971Y-102445330D01*
X105901115Y-102931511D01*
X105787041Y-103505000D01*
X105901115Y-104078489D01*
X106225971Y-104564670D01*
X106540751Y-104775000D01*
X106225971Y-104985330D01*
X105901115Y-105471511D01*
X105787041Y-106045000D01*
X105901115Y-106618489D01*
X106225971Y-107104670D01*
X106540751Y-107315000D01*
X106225971Y-107525330D01*
X105901115Y-108011511D01*
X105787041Y-108585000D01*
X105901115Y-109158489D01*
X106225971Y-109644670D01*
X106540751Y-109855000D01*
X106225971Y-110065330D01*
X105901115Y-110551511D01*
X105787041Y-111125000D01*
X105901115Y-111698489D01*
X106225971Y-112184670D01*
X106712152Y-112509526D01*
X107285641Y-112623600D01*
X107344359Y-112623600D01*
X107917848Y-112509526D01*
X108404029Y-112184670D01*
X108585000Y-111913827D01*
X108765971Y-112184670D01*
X108781081Y-112194766D01*
X108749277Y-112200937D01*
X108536473Y-112340727D01*
X108394023Y-112551760D01*
X108343960Y-112801400D01*
X108343960Y-114528600D01*
X108390937Y-114770723D01*
X108530727Y-114983527D01*
X108741760Y-115125977D01*
X108991400Y-115176040D01*
X110718600Y-115176040D01*
X110960723Y-115129063D01*
X111173527Y-114989273D01*
X111315977Y-114778240D01*
X111366040Y-114528600D01*
X111366040Y-112801400D01*
X111319063Y-112559277D01*
X111179273Y-112346473D01*
X110968240Y-112204023D01*
X110927340Y-112195820D01*
X110944029Y-112184670D01*
X111268885Y-111698489D01*
X111382959Y-111125000D01*
X111382959Y-117348000D01*
X104740214Y-117348000D01*
X104740214Y-108340421D01*
X104552592Y-107886343D01*
X104290000Y-107623291D01*
X104290000Y-107315000D01*
X104290000Y-89226399D01*
X104551371Y-88965485D01*
X104739785Y-88511734D01*
X104740214Y-88020421D01*
X104552592Y-87566343D01*
X104205485Y-87218629D01*
X103751734Y-87030215D01*
X103260421Y-87029786D01*
X102806343Y-87217408D01*
X102458629Y-87564515D01*
X102270215Y-88018266D01*
X102269786Y-88509579D01*
X102457408Y-88963657D01*
X102720000Y-89226708D01*
X102720000Y-107315000D01*
X102720000Y-107623600D01*
X102458629Y-107884515D01*
X102270215Y-108338266D01*
X102269786Y-108829579D01*
X102457408Y-109283657D01*
X102804515Y-109631371D01*
X103258266Y-109819785D01*
X103749579Y-109820214D01*
X104203657Y-109632592D01*
X104551371Y-109285485D01*
X104739785Y-108831734D01*
X104740214Y-108340421D01*
X104740214Y-117348000D01*
X102200214Y-117348000D01*
X102200214Y-105165421D01*
X102012592Y-104711343D01*
X101750000Y-104448291D01*
X101750000Y-101291399D01*
X102011371Y-101030485D01*
X102199785Y-100576734D01*
X102200214Y-100085421D01*
X102200214Y-86115421D01*
X102012592Y-85661343D01*
X101665485Y-85313629D01*
X101211734Y-85125215D01*
X100754106Y-85124815D01*
X100929785Y-84701734D01*
X100930214Y-84210421D01*
X100742592Y-83756343D01*
X100395485Y-83408629D01*
X99941734Y-83220215D01*
X99450421Y-83219786D01*
X98996343Y-83407408D01*
X98733291Y-83670000D01*
X82876399Y-83670000D01*
X82615485Y-83408629D01*
X82161734Y-83220215D01*
X81670421Y-83219786D01*
X81216343Y-83407408D01*
X80868629Y-83754515D01*
X80680215Y-84208266D01*
X80679786Y-84699579D01*
X80867408Y-85153657D01*
X81214515Y-85501371D01*
X81668266Y-85689785D01*
X82159579Y-85690214D01*
X82613657Y-85502592D01*
X82876708Y-85240000D01*
X98733600Y-85240000D01*
X98994515Y-85501371D01*
X99448266Y-85689785D01*
X99905893Y-85690184D01*
X99730215Y-86113266D01*
X99729786Y-86604579D01*
X99917408Y-87058657D01*
X100180000Y-87321708D01*
X100180000Y-89082842D01*
X94612733Y-94650108D01*
X94243421Y-94649786D01*
X93789343Y-94837408D01*
X93441629Y-95184515D01*
X93253215Y-95638266D01*
X93252786Y-96129579D01*
X93299650Y-96243000D01*
X91511158Y-96243000D01*
X88923000Y-93654842D01*
X88923000Y-89861399D01*
X89184371Y-89600485D01*
X89372785Y-89146734D01*
X89373214Y-88655421D01*
X89185592Y-88201343D01*
X88838485Y-87853629D01*
X88384734Y-87665215D01*
X87893421Y-87664786D01*
X87439343Y-87852408D01*
X87248972Y-88042446D01*
X87060485Y-87853629D01*
X86606734Y-87665215D01*
X86115421Y-87664786D01*
X85661343Y-87852408D01*
X85313629Y-88199515D01*
X85125215Y-88653266D01*
X85124786Y-89144579D01*
X85312408Y-89598657D01*
X85575000Y-89861708D01*
X85575000Y-102543600D01*
X85313629Y-102804515D01*
X85125215Y-103258266D01*
X85124786Y-103749579D01*
X85312408Y-104203657D01*
X85659515Y-104551371D01*
X86113266Y-104739785D01*
X86604579Y-104740214D01*
X87058657Y-104552592D01*
X87406371Y-104205485D01*
X87594785Y-103751734D01*
X87595214Y-103260421D01*
X87407592Y-102806343D01*
X87145000Y-102543291D01*
X87145000Y-89861399D01*
X87249027Y-89757553D01*
X87353000Y-89861708D01*
X87353000Y-93980000D01*
X87412755Y-94280407D01*
X87582921Y-94535079D01*
X90630921Y-97583079D01*
X90885594Y-97753245D01*
X91186000Y-97813000D01*
X95050600Y-97813000D01*
X95311515Y-98074371D01*
X95765266Y-98262785D01*
X96256579Y-98263214D01*
X96710657Y-98075592D01*
X97058371Y-97728485D01*
X97246785Y-97274734D01*
X97247214Y-96783421D01*
X97059592Y-96329343D01*
X96712485Y-95981629D01*
X96258734Y-95793215D01*
X95767421Y-95792786D01*
X95723064Y-95811113D01*
X95723109Y-95760048D01*
X101520079Y-89963079D01*
X101690245Y-89708407D01*
X101690245Y-89708406D01*
X101750000Y-89408000D01*
X101750000Y-87321399D01*
X102011371Y-87060485D01*
X102199785Y-86606734D01*
X102200214Y-86115421D01*
X102200214Y-100085421D01*
X102012592Y-99631343D01*
X101665485Y-99283629D01*
X101211734Y-99095215D01*
X100720421Y-99094786D01*
X100266343Y-99282408D01*
X99918629Y-99629515D01*
X99730215Y-100083266D01*
X99729786Y-100574579D01*
X99917408Y-101028657D01*
X100180000Y-101291708D01*
X100180000Y-104448600D01*
X99918629Y-104709515D01*
X99730215Y-105163266D01*
X99729786Y-105654579D01*
X99917408Y-106108657D01*
X100264515Y-106456371D01*
X100718266Y-106644785D01*
X101209579Y-106645214D01*
X101663657Y-106457592D01*
X102011371Y-106110485D01*
X102199785Y-105656734D01*
X102200214Y-105165421D01*
X102200214Y-117348000D01*
X84420214Y-117348000D01*
X84420214Y-103895421D01*
X84232592Y-103441343D01*
X83970000Y-103178291D01*
X83970000Y-89861399D01*
X84231371Y-89600485D01*
X84419785Y-89146734D01*
X84420214Y-88655421D01*
X84232592Y-88201343D01*
X83885485Y-87853629D01*
X83431734Y-87665215D01*
X82940421Y-87664786D01*
X82486343Y-87852408D01*
X82138629Y-88199515D01*
X82065000Y-88376833D01*
X82065000Y-87956399D01*
X82326371Y-87695485D01*
X82514785Y-87241734D01*
X82515214Y-86750421D01*
X82327592Y-86296343D01*
X81980485Y-85948629D01*
X81526734Y-85760215D01*
X81035421Y-85759786D01*
X80581343Y-85947408D01*
X80233629Y-86294515D01*
X80045215Y-86748266D01*
X80044786Y-87239579D01*
X80232408Y-87693657D01*
X80495000Y-87956708D01*
X80495000Y-98098600D01*
X80233629Y-98359515D01*
X80045215Y-98813266D01*
X80044786Y-99304579D01*
X80232408Y-99758657D01*
X80579515Y-100106371D01*
X81033266Y-100294785D01*
X81524579Y-100295214D01*
X81978657Y-100107592D01*
X82326371Y-99760485D01*
X82400000Y-99583166D01*
X82400000Y-103178600D01*
X82138629Y-103439515D01*
X81950215Y-103893266D01*
X81949786Y-104384579D01*
X82137408Y-104838657D01*
X82484515Y-105186371D01*
X82938266Y-105374785D01*
X83429579Y-105375214D01*
X83883657Y-105187592D01*
X84231371Y-104840485D01*
X84419785Y-104386734D01*
X84420214Y-103895421D01*
X84420214Y-117348000D01*
X78232000Y-117348000D01*
X78232000Y-75057000D01*
X113538000Y-75057000D01*
X113538000Y-117348000D01*
X113538000Y-117348000D01*
G37*
X113538000Y-117348000D02*
X111382959Y-117348000D01*
X111382959Y-111125000D01*
X111268885Y-110551511D01*
X110944029Y-110065330D01*
X110629248Y-109855000D01*
X110944029Y-109644670D01*
X111268885Y-109158489D01*
X111382959Y-108585000D01*
X111268885Y-108011511D01*
X110944029Y-107525330D01*
X110629248Y-107315000D01*
X110944029Y-107104670D01*
X111268885Y-106618489D01*
X111382959Y-106045000D01*
X111268885Y-105471511D01*
X110944029Y-104985330D01*
X110629248Y-104775000D01*
X110944029Y-104564670D01*
X111268885Y-104078489D01*
X111382959Y-103505000D01*
X111268885Y-102931511D01*
X110944029Y-102445330D01*
X110629248Y-102235000D01*
X110944029Y-102024670D01*
X111268885Y-101538489D01*
X111382959Y-100965000D01*
X111268885Y-100391511D01*
X110944029Y-99905330D01*
X110629248Y-99695000D01*
X110944029Y-99484670D01*
X111268885Y-98998489D01*
X111382959Y-98425000D01*
X111268885Y-97851511D01*
X110944029Y-97365330D01*
X110629248Y-97155000D01*
X110944029Y-96944670D01*
X111268885Y-96458489D01*
X111382959Y-95885000D01*
X111268885Y-95311511D01*
X110944029Y-94825330D01*
X110629248Y-94615000D01*
X110944029Y-94404670D01*
X111268885Y-93918489D01*
X111382959Y-93345000D01*
X111353600Y-93197402D01*
X111353600Y-81309359D01*
X111353600Y-81250641D01*
X111239526Y-80677152D01*
X110914670Y-80190971D01*
X110643827Y-80010000D01*
X110914670Y-79829029D01*
X111239526Y-79342848D01*
X111353600Y-78769359D01*
X111353600Y-78710641D01*
X111239526Y-78137152D01*
X110914670Y-77650971D01*
X110428489Y-77326115D01*
X109855000Y-77212041D01*
X109281511Y-77326115D01*
X108795330Y-77650971D01*
X108585000Y-77965751D01*
X108374670Y-77650971D01*
X107888489Y-77326115D01*
X107315000Y-77212041D01*
X106741511Y-77326115D01*
X106255330Y-77650971D01*
X106045000Y-77965751D01*
X105834670Y-77650971D01*
X105348489Y-77326115D01*
X104775000Y-77212041D01*
X104201511Y-77326115D01*
X103715330Y-77650971D01*
X103505000Y-77965751D01*
X103294670Y-77650971D01*
X102808489Y-77326115D01*
X102235000Y-77212041D01*
X101661511Y-77326115D01*
X101175330Y-77650971D01*
X100850474Y-78137152D01*
X100736400Y-78710641D01*
X100736400Y-78769359D01*
X100850474Y-79342848D01*
X101175330Y-79829029D01*
X101446172Y-80010000D01*
X101175330Y-80190971D01*
X100965000Y-80505751D01*
X100754670Y-80190971D01*
X100268489Y-79866115D01*
X99695000Y-79752041D01*
X99121511Y-79866115D01*
X98635330Y-80190971D01*
X98425000Y-80505751D01*
X98214670Y-80190971D01*
X97943827Y-80010000D01*
X98214670Y-79829029D01*
X98539526Y-79342848D01*
X98653600Y-78769359D01*
X98653600Y-78710641D01*
X98539526Y-78137152D01*
X98214670Y-77650971D01*
X97728489Y-77326115D01*
X97155000Y-77212041D01*
X96581511Y-77326115D01*
X96095330Y-77650971D01*
X95885000Y-77965751D01*
X95674670Y-77650971D01*
X95188489Y-77326115D01*
X94615000Y-77212041D01*
X94041511Y-77326115D01*
X93555330Y-77650971D01*
X93345000Y-77965751D01*
X93134670Y-77650971D01*
X92648489Y-77326115D01*
X92075000Y-77212041D01*
X91501511Y-77326115D01*
X91015330Y-77650971D01*
X90805000Y-77965751D01*
X90594670Y-77650971D01*
X90108489Y-77326115D01*
X89535000Y-77212041D01*
X88961511Y-77326115D01*
X88475330Y-77650971D01*
X88265000Y-77965751D01*
X88054670Y-77650971D01*
X87568489Y-77326115D01*
X86995000Y-77212041D01*
X86421511Y-77326115D01*
X85935330Y-77650971D01*
X85725000Y-77965751D01*
X85514670Y-77650971D01*
X85028489Y-77326115D01*
X84455000Y-77212041D01*
X83881511Y-77326115D01*
X83395330Y-77650971D01*
X83070474Y-78137152D01*
X82956400Y-78710641D01*
X82956400Y-78769359D01*
X83070474Y-79342848D01*
X83395330Y-79829029D01*
X83666172Y-80010000D01*
X83395330Y-80190971D01*
X83385233Y-80206081D01*
X83379063Y-80174277D01*
X83239273Y-79961473D01*
X83028240Y-79819023D01*
X82778600Y-79768960D01*
X81051400Y-79768960D01*
X80809277Y-79815937D01*
X80596473Y-79955727D01*
X80454023Y-80166760D01*
X80403960Y-80416400D01*
X80403960Y-82143600D01*
X80450937Y-82385723D01*
X80590727Y-82598527D01*
X80801760Y-82740977D01*
X81051400Y-82791040D01*
X82778600Y-82791040D01*
X83020723Y-82744063D01*
X83233527Y-82604273D01*
X83375977Y-82393240D01*
X83384179Y-82352340D01*
X83395330Y-82369029D01*
X83881511Y-82693885D01*
X84455000Y-82807959D01*
X85028489Y-82693885D01*
X85514670Y-82369029D01*
X85725000Y-82054248D01*
X85935330Y-82369029D01*
X86421511Y-82693885D01*
X86995000Y-82807959D01*
X87568489Y-82693885D01*
X88054670Y-82369029D01*
X88265000Y-82054248D01*
X88475330Y-82369029D01*
X88961511Y-82693885D01*
X89535000Y-82807959D01*
X90108489Y-82693885D01*
X90594670Y-82369029D01*
X90805000Y-82054248D01*
X91015330Y-82369029D01*
X91501511Y-82693885D01*
X92075000Y-82807959D01*
X92648489Y-82693885D01*
X93134670Y-82369029D01*
X93345000Y-82054248D01*
X93555330Y-82369029D01*
X94041511Y-82693885D01*
X94615000Y-82807959D01*
X95188489Y-82693885D01*
X95674670Y-82369029D01*
X95885000Y-82054248D01*
X96095330Y-82369029D01*
X96581511Y-82693885D01*
X97155000Y-82807959D01*
X97728489Y-82693885D01*
X98214670Y-82369029D01*
X98425000Y-82054248D01*
X98635330Y-82369029D01*
X99121511Y-82693885D01*
X99695000Y-82807959D01*
X100268489Y-82693885D01*
X100754670Y-82369029D01*
X100965000Y-82054248D01*
X101175330Y-82369029D01*
X101661511Y-82693885D01*
X102235000Y-82807959D01*
X102808489Y-82693885D01*
X103294670Y-82369029D01*
X103505000Y-82054248D01*
X103715330Y-82369029D01*
X104201511Y-82693885D01*
X104775000Y-82807959D01*
X105348489Y-82693885D01*
X105834670Y-82369029D01*
X106045000Y-82054248D01*
X106255330Y-82369029D01*
X106741511Y-82693885D01*
X107315000Y-82807959D01*
X107888489Y-82693885D01*
X108374670Y-82369029D01*
X108585000Y-82054248D01*
X108795330Y-82369029D01*
X109281511Y-82693885D01*
X109855000Y-82807959D01*
X110428489Y-82693885D01*
X110914670Y-82369029D01*
X111239526Y-81882848D01*
X111353600Y-81309359D01*
X111353600Y-93197402D01*
X111268885Y-92771511D01*
X110944029Y-92285330D01*
X110457848Y-91960474D01*
X109884359Y-91846400D01*
X109825641Y-91846400D01*
X109252152Y-91960474D01*
X108765971Y-92285330D01*
X108585000Y-92556172D01*
X108404029Y-92285330D01*
X107917848Y-91960474D01*
X107344359Y-91846400D01*
X107285641Y-91846400D01*
X106712152Y-91960474D01*
X106225971Y-92285330D01*
X105901115Y-92771511D01*
X105787041Y-93345000D01*
X105901115Y-93918489D01*
X106225971Y-94404670D01*
X106540751Y-94615000D01*
X106225971Y-94825330D01*
X105901115Y-95311511D01*
X105787041Y-95885000D01*
X105901115Y-96458489D01*
X106225971Y-96944670D01*
X106540751Y-97155000D01*
X106225971Y-97365330D01*
X105901115Y-97851511D01*
X105787041Y-98425000D01*
X105901115Y-98998489D01*
X106225971Y-99484670D01*
X106540751Y-99695000D01*
X106225971Y-99905330D01*
X105901115Y-100391511D01*
X105787041Y-100965000D01*
X105901115Y-101538489D01*
X106225971Y-102024670D01*
X106540751Y-102235000D01*
X106225971Y-102445330D01*
X105901115Y-102931511D01*
X105787041Y-103505000D01*
X105901115Y-104078489D01*
X106225971Y-104564670D01*
X106540751Y-104775000D01*
X106225971Y-104985330D01*
X105901115Y-105471511D01*
X105787041Y-106045000D01*
X105901115Y-106618489D01*
X106225971Y-107104670D01*
X106540751Y-107315000D01*
X106225971Y-107525330D01*
X105901115Y-108011511D01*
X105787041Y-108585000D01*
X105901115Y-109158489D01*
X106225971Y-109644670D01*
X106540751Y-109855000D01*
X106225971Y-110065330D01*
X105901115Y-110551511D01*
X105787041Y-111125000D01*
X105901115Y-111698489D01*
X106225971Y-112184670D01*
X106712152Y-112509526D01*
X107285641Y-112623600D01*
X107344359Y-112623600D01*
X107917848Y-112509526D01*
X108404029Y-112184670D01*
X108585000Y-111913827D01*
X108765971Y-112184670D01*
X108781081Y-112194766D01*
X108749277Y-112200937D01*
X108536473Y-112340727D01*
X108394023Y-112551760D01*
X108343960Y-112801400D01*
X108343960Y-114528600D01*
X108390937Y-114770723D01*
X108530727Y-114983527D01*
X108741760Y-115125977D01*
X108991400Y-115176040D01*
X110718600Y-115176040D01*
X110960723Y-115129063D01*
X111173527Y-114989273D01*
X111315977Y-114778240D01*
X111366040Y-114528600D01*
X111366040Y-112801400D01*
X111319063Y-112559277D01*
X111179273Y-112346473D01*
X110968240Y-112204023D01*
X110927340Y-112195820D01*
X110944029Y-112184670D01*
X111268885Y-111698489D01*
X111382959Y-111125000D01*
X111382959Y-117348000D01*
X104740214Y-117348000D01*
X104740214Y-108340421D01*
X104552592Y-107886343D01*
X104290000Y-107623291D01*
X104290000Y-107315000D01*
X104290000Y-89226399D01*
X104551371Y-88965485D01*
X104739785Y-88511734D01*
X104740214Y-88020421D01*
X104552592Y-87566343D01*
X104205485Y-87218629D01*
X103751734Y-87030215D01*
X103260421Y-87029786D01*
X102806343Y-87217408D01*
X102458629Y-87564515D01*
X102270215Y-88018266D01*
X102269786Y-88509579D01*
X102457408Y-88963657D01*
X102720000Y-89226708D01*
X102720000Y-107315000D01*
X102720000Y-107623600D01*
X102458629Y-107884515D01*
X102270215Y-108338266D01*
X102269786Y-108829579D01*
X102457408Y-109283657D01*
X102804515Y-109631371D01*
X103258266Y-109819785D01*
X103749579Y-109820214D01*
X104203657Y-109632592D01*
X104551371Y-109285485D01*
X104739785Y-108831734D01*
X104740214Y-108340421D01*
X104740214Y-117348000D01*
X102200214Y-117348000D01*
X102200214Y-105165421D01*
X102012592Y-104711343D01*
X101750000Y-104448291D01*
X101750000Y-101291399D01*
X102011371Y-101030485D01*
X102199785Y-100576734D01*
X102200214Y-100085421D01*
X102200214Y-86115421D01*
X102012592Y-85661343D01*
X101665485Y-85313629D01*
X101211734Y-85125215D01*
X100754106Y-85124815D01*
X100929785Y-84701734D01*
X100930214Y-84210421D01*
X100742592Y-83756343D01*
X100395485Y-83408629D01*
X99941734Y-83220215D01*
X99450421Y-83219786D01*
X98996343Y-83407408D01*
X98733291Y-83670000D01*
X82876399Y-83670000D01*
X82615485Y-83408629D01*
X82161734Y-83220215D01*
X81670421Y-83219786D01*
X81216343Y-83407408D01*
X80868629Y-83754515D01*
X80680215Y-84208266D01*
X80679786Y-84699579D01*
X80867408Y-85153657D01*
X81214515Y-85501371D01*
X81668266Y-85689785D01*
X82159579Y-85690214D01*
X82613657Y-85502592D01*
X82876708Y-85240000D01*
X98733600Y-85240000D01*
X98994515Y-85501371D01*
X99448266Y-85689785D01*
X99905893Y-85690184D01*
X99730215Y-86113266D01*
X99729786Y-86604579D01*
X99917408Y-87058657D01*
X100180000Y-87321708D01*
X100180000Y-89082842D01*
X94612733Y-94650108D01*
X94243421Y-94649786D01*
X93789343Y-94837408D01*
X93441629Y-95184515D01*
X93253215Y-95638266D01*
X93252786Y-96129579D01*
X93299650Y-96243000D01*
X91511158Y-96243000D01*
X88923000Y-93654842D01*
X88923000Y-89861399D01*
X89184371Y-89600485D01*
X89372785Y-89146734D01*
X89373214Y-88655421D01*
X89185592Y-88201343D01*
X88838485Y-87853629D01*
X88384734Y-87665215D01*
X87893421Y-87664786D01*
X87439343Y-87852408D01*
X87248972Y-88042446D01*
X87060485Y-87853629D01*
X86606734Y-87665215D01*
X86115421Y-87664786D01*
X85661343Y-87852408D01*
X85313629Y-88199515D01*
X85125215Y-88653266D01*
X85124786Y-89144579D01*
X85312408Y-89598657D01*
X85575000Y-89861708D01*
X85575000Y-102543600D01*
X85313629Y-102804515D01*
X85125215Y-103258266D01*
X85124786Y-103749579D01*
X85312408Y-104203657D01*
X85659515Y-104551371D01*
X86113266Y-104739785D01*
X86604579Y-104740214D01*
X87058657Y-104552592D01*
X87406371Y-104205485D01*
X87594785Y-103751734D01*
X87595214Y-103260421D01*
X87407592Y-102806343D01*
X87145000Y-102543291D01*
X87145000Y-89861399D01*
X87249027Y-89757553D01*
X87353000Y-89861708D01*
X87353000Y-93980000D01*
X87412755Y-94280407D01*
X87582921Y-94535079D01*
X90630921Y-97583079D01*
X90885594Y-97753245D01*
X91186000Y-97813000D01*
X95050600Y-97813000D01*
X95311515Y-98074371D01*
X95765266Y-98262785D01*
X96256579Y-98263214D01*
X96710657Y-98075592D01*
X97058371Y-97728485D01*
X97246785Y-97274734D01*
X97247214Y-96783421D01*
X97059592Y-96329343D01*
X96712485Y-95981629D01*
X96258734Y-95793215D01*
X95767421Y-95792786D01*
X95723064Y-95811113D01*
X95723109Y-95760048D01*
X101520079Y-89963079D01*
X101690245Y-89708407D01*
X101690245Y-89708406D01*
X101750000Y-89408000D01*
X101750000Y-87321399D01*
X102011371Y-87060485D01*
X102199785Y-86606734D01*
X102200214Y-86115421D01*
X102200214Y-100085421D01*
X102012592Y-99631343D01*
X101665485Y-99283629D01*
X101211734Y-99095215D01*
X100720421Y-99094786D01*
X100266343Y-99282408D01*
X99918629Y-99629515D01*
X99730215Y-100083266D01*
X99729786Y-100574579D01*
X99917408Y-101028657D01*
X100180000Y-101291708D01*
X100180000Y-104448600D01*
X99918629Y-104709515D01*
X99730215Y-105163266D01*
X99729786Y-105654579D01*
X99917408Y-106108657D01*
X100264515Y-106456371D01*
X100718266Y-106644785D01*
X101209579Y-106645214D01*
X101663657Y-106457592D01*
X102011371Y-106110485D01*
X102199785Y-105656734D01*
X102200214Y-105165421D01*
X102200214Y-117348000D01*
X84420214Y-117348000D01*
X84420214Y-103895421D01*
X84232592Y-103441343D01*
X83970000Y-103178291D01*
X83970000Y-89861399D01*
X84231371Y-89600485D01*
X84419785Y-89146734D01*
X84420214Y-88655421D01*
X84232592Y-88201343D01*
X83885485Y-87853629D01*
X83431734Y-87665215D01*
X82940421Y-87664786D01*
X82486343Y-87852408D01*
X82138629Y-88199515D01*
X82065000Y-88376833D01*
X82065000Y-87956399D01*
X82326371Y-87695485D01*
X82514785Y-87241734D01*
X82515214Y-86750421D01*
X82327592Y-86296343D01*
X81980485Y-85948629D01*
X81526734Y-85760215D01*
X81035421Y-85759786D01*
X80581343Y-85947408D01*
X80233629Y-86294515D01*
X80045215Y-86748266D01*
X80044786Y-87239579D01*
X80232408Y-87693657D01*
X80495000Y-87956708D01*
X80495000Y-98098600D01*
X80233629Y-98359515D01*
X80045215Y-98813266D01*
X80044786Y-99304579D01*
X80232408Y-99758657D01*
X80579515Y-100106371D01*
X81033266Y-100294785D01*
X81524579Y-100295214D01*
X81978657Y-100107592D01*
X82326371Y-99760485D01*
X82400000Y-99583166D01*
X82400000Y-103178600D01*
X82138629Y-103439515D01*
X81950215Y-103893266D01*
X81949786Y-104384579D01*
X82137408Y-104838657D01*
X82484515Y-105186371D01*
X82938266Y-105374785D01*
X83429579Y-105375214D01*
X83883657Y-105187592D01*
X84231371Y-104840485D01*
X84419785Y-104386734D01*
X84420214Y-103895421D01*
X84420214Y-117348000D01*
X78232000Y-117348000D01*
X78232000Y-75057000D01*
X113538000Y-75057000D01*
X113538000Y-117348000D01*
M02*
